<?xml version="1.0" encoding="UTF-8" standalone="no"?>
<!-- Created with Inkscape (http://www.inkscape.org/) -->

<svg
   version="1.1"
   id="svg2"
   width="446.32962"
   height="97.860588"
   viewBox="0 0 446.32962 97.860588"
   sodipodi:docname="2026-01-20 all figures CM.pdf"
   xmlns:inkscape="http://www.inkscape.org/namespaces/inkscape"
   xmlns:sodipodi="http://sodipodi.sourceforge.net/DTD/sodipodi-0.dtd"
   xmlns="http://www.w3.org/2000/svg"
   xmlns:svg="http://www.w3.org/2000/svg">
  <defs
     id="defs6">
    <clipPath
       clipPathUnits="userSpaceOnUse"
       id="clipPath3540">
      <path
         d="M 0,848.693 H 668.693 V 0 H 0 Z"
         id="path3538" />
    </clipPath>
    <clipPath
       clipPathUnits="userSpaceOnUse"
       id="clipPath3556">
      <path
         d="M 0,848.693 H 668.693 V 0 H 0 Z"
         id="path3554" />
    </clipPath>
    <clipPath
       clipPathUnits="userSpaceOnUse"
       id="clipPath3572">
      <path
         d="M 0,848.693 H 668.693 V 0 H 0 Z"
         id="path3570" />
    </clipPath>
    <clipPath
       clipPathUnits="userSpaceOnUse"
       id="clipPath3592">
      <path
         d="M 0,848.693 H 668.693 V 0 H 0 Z"
         id="path3590" />
    </clipPath>
    <clipPath
       clipPathUnits="userSpaceOnUse"
       id="clipPath3612">
      <path
         d="M 0,848.693 H 668.693 V 0 H 0 Z"
         id="path3610" />
    </clipPath>
    <clipPath
       clipPathUnits="userSpaceOnUse"
       id="clipPath3624">
      <path
         d="m 436.871,777.867 h 12.238 V 766.08 h -12.238 z"
         id="path3622" />
    </clipPath>
    <clipPath
       clipPathUnits="userSpaceOnUse"
       id="clipPath3668">
      <path
         d="M 442.826,788.395 Z"
         id="path3666" />
    </clipPath>
    <clipPath
       clipPathUnits="userSpaceOnUse"
       id="clipPath3692">
      <path
         d="M 0,848.693 H 668.693 V 0 H 0 Z"
         id="path3690" />
    </clipPath>
    <clipPath
       clipPathUnits="userSpaceOnUse"
       id="clipPath3748">
      <path
         d="M 0,848.693 H 668.693 V 0 H 0 Z"
         id="path3746" />
    </clipPath>
    <clipPath
       clipPathUnits="userSpaceOnUse"
       id="clipPath3764">
      <path
         d="M 0,848.693 H 668.693 V 0 H 0 Z"
         id="path3762" />
    </clipPath>
    <clipPath
       clipPathUnits="userSpaceOnUse"
       id="clipPath3776">
      <path
         d="m 403.843,808.307 h 39.256 v -12.179 h -39.256 z"
         id="path3774" />
    </clipPath>
    <clipPath
       clipPathUnits="userSpaceOnUse"
       id="clipPath3798">
      <path
         d="M 0,848.693 H 668.693 V 0 H 0 Z"
         id="path3796" />
    </clipPath>
    <clipPath
       clipPathUnits="userSpaceOnUse"
       id="clipPath3816">
      <path
         d="m 310.592,764.42 h 68.877 v -12.338 h -68.877 z"
         id="path3814" />
    </clipPath>
    <clipPath
       clipPathUnits="userSpaceOnUse"
       id="clipPath3834">
      <path
         d="M 0,848.693 H 668.693 V 0 H 0 Z"
         id="path3832" />
    </clipPath>
    <clipPath
       clipPathUnits="userSpaceOnUse"
       id="clipPath3850">
      <path
         d="M 0,848.693 H 668.693 V 0 H 0 Z"
         id="path3848" />
    </clipPath>
    <clipPath
       clipPathUnits="userSpaceOnUse"
       id="clipPath3868">
      <path
         d="m 243.141,764.42 h 49.412 v -12.338 h -49.412 z"
         id="path3866" />
    </clipPath>
    <clipPath
       clipPathUnits="userSpaceOnUse"
       id="clipPath3886">
      <path
         d="M 0,848.693 H 668.693 V 0 H 0 Z"
         id="path3884" />
    </clipPath>
  </defs>
  <sodipodi:namedview
     id="namedview4"
     pagecolor="#ffffff"
     bordercolor="#000000"
     borderopacity="0.25"
     inkscape:showpageshadow="2"
     inkscape:pageopacity="0.0"
     inkscape:pagecheckerboard="0"
     inkscape:deskcolor="#d1d1d1"
     showgrid="false" />
  <g
     id="g8"
     inkscape:groupmode="layer"
     inkscape:label="2026-01-20 all figures CM"
     transform="matrix(1.3333333,0,0,-1.3333333,-324.16501,1077.7518)">
    <g
       id="g4996">
      <g
         id="g3534">
        <g
           id="g3536"
           clip-path="url(#clipPath3540)">
          <g
             id="g3542"
             transform="translate(263.489,784.5516)">
            <path
               d="M 0,0 H 20.114"
               style="fill:#000000;fill-opacity:1;fill-rule:nonzero;stroke:#000000;stroke-width:1;stroke-linecap:butt;stroke-linejoin:miter;stroke-miterlimit:10;stroke-dasharray:none;stroke-opacity:1"
               id="path3544" />
          </g>
        </g>
      </g>
      <g
         id="g3550">
        <g
           id="g3552"
           clip-path="url(#clipPath3556)">
          <g
             id="g3558"
             transform="translate(287.0186,784.5265)">
            <path
               d="M 0,0 H 284.697"
               style="fill:#000000;fill-opacity:1;fill-rule:nonzero;stroke:#000000;stroke-width:1;stroke-linecap:butt;stroke-linejoin:miter;stroke-miterlimit:10;stroke-dasharray:none;stroke-opacity:1"
               id="path3560" />
          </g>
        </g>
      </g>
      <text
         xml:space="preserve"
         transform="matrix(1,0,0,-1,259.5835,769.3271)"
         style="font-variant:normal;font-weight:normal;font-stretch:normal;font-size:10px;font-family:Arial;-inkscape-font-specification:ArialMT;writing-mode:lr-tb;fill:#000000;fill-opacity:1;fill-rule:nonzero;stroke:none"
         id="text3564"><tspan
           x="0 3.3299999 8.8900003 26.639999 29.969999 35.529999"
           y="0"
           sodipodi:role="line"
           id="tspan3562">-35-20</tspan></text>
      <g
         id="g3566">
        <g
           id="g3568"
           clip-path="url(#clipPath3572)">
          <g
             id="g3574"
             transform="translate(308.6258,784.5265)">
            <path
               d="m 0,0 c 0,-1.182 -0.958,-2.14 -2.14,-2.14 -1.183,0 -2.141,0.958 -2.141,2.14 0,1.182 0.958,2.14 2.141,2.14 C -0.958,2.14 0,1.182 0,0"
               style="fill:#52197d;fill-opacity:1;fill-rule:nonzero;stroke:none"
               id="path3576" />
          </g>
          <g
             id="g3578"
             transform="translate(327.3482,784.5265)">
            <path
               d="m 0,0 c 0,-1.182 -0.958,-2.14 -2.14,-2.14 -1.183,0 -2.141,0.958 -2.141,2.14 0,1.182 0.958,2.14 2.141,2.14 C -0.958,2.14 0,1.182 0,0"
               style="fill:#52197d;fill-opacity:1;fill-rule:nonzero;stroke:none"
               id="path3580" />
          </g>
        </g>
      </g>
      <text
         xml:space="preserve"
         transform="matrix(1,0,0,-1,493.8589,754.4619)"
         style="font-style:italic;font-variant:normal;font-weight:normal;font-stretch:normal;font-size:10px;font-family:Arial;-inkscape-font-specification:Arial-ItalicMT;writing-mode:lr-tb;fill:#52197d;fill-opacity:1;fill-rule:nonzero;stroke:none"
         id="text3584"><tspan
           x="0 2.22 10.55 16.110001 21.67 23.889999 29.450001 35.009998 37.790001 40.57 42.790001 51.119999 56.68 62.240002 67.800003 70.019997 75.580002 78.360001"
           y="0"
           sodipodi:role="line"
           id="tspan3582">imaging timepoints</tspan></text>
      <g
         id="g3586">
        <g
           id="g3588"
           clip-path="url(#clipPath3592)">
          <g
             id="g3594"
             transform="translate(286.1954,788.8859)">
            <path
               d="M 0,0 -4.348,-8.744"
               style="fill:#000000;fill-opacity:1;fill-rule:nonzero;stroke:#000000;stroke-width:1;stroke-linecap:butt;stroke-linejoin:miter;stroke-miterlimit:1.427;stroke-dasharray:none;stroke-opacity:1"
               id="path3596" />
          </g>
          <g
             id="g3598"
             transform="translate(289.1862,788.8859)">
            <path
               d="M 0,0 -4.348,-8.744"
               style="fill:#000000;fill-opacity:1;fill-rule:nonzero;stroke:#000000;stroke-width:1;stroke-linecap:butt;stroke-linejoin:miter;stroke-miterlimit:1.427;stroke-dasharray:none;stroke-opacity:1"
               id="path3600" />
          </g>
        </g>
      </g>
      <text
         xml:space="preserve"
         transform="matrix(1,0,0,-1,388.2549,769.3271)"
         style="font-variant:normal;font-weight:normal;font-stretch:normal;font-size:10px;font-family:Arial;-inkscape-font-specification:ArialMT;writing-mode:lr-tb;fill:#000000;fill-opacity:1;fill-rule:nonzero;stroke:none"
         id="text3604"><tspan
           x="0"
           y="0"
           id="tspan3602">0</tspan></text>
      <g
         id="g3606">
        <g
           id="g3608"
           clip-path="url(#clipPath3612)">
          <g
             id="g3614"
             transform="translate(293.4542,788.4993)">
            <path
               d="M 0,0 V -7.945"
               style="fill:#000000;fill-opacity:1;fill-rule:nonzero;stroke:#000000;stroke-width:1;stroke-linecap:butt;stroke-linejoin:miter;stroke-miterlimit:1.427;stroke-dasharray:none;stroke-opacity:1"
               id="path3616" />
          </g>
          <g
             id="g3618">
            <g
               id="g3620" />
            <g
               id="g3632">
              <g
                 clip-path="url(#clipPath3624)"
                 opacity="0.820007"
                 id="g3630">
                <text
                   xml:space="preserve"
                   transform="matrix(1,0,0,-0.90565952,436.8706,769.3154)"
                   style="font-variant:normal;font-weight:normal;font-stretch:normal;font-size:11.0027px;font-family:Arial;-inkscape-font-specification:ArialMT;writing-mode:lr-tb;fill:#000000;fill-opacity:1;fill-rule:nonzero;stroke:none"
                   id="text3628"><tspan
                     x="0 6.1175013 0 6.1175013"
                     y="0"
                     sodipodi:role="line"
                     id="tspan3626">1010</tspan></text>
              </g>
            </g>
          </g>
          <g
             id="g3634"
             transform="translate(341.6528,784.5265)">
            <path
               d="m 0,0 c 0,-1.182 -0.958,-2.14 -2.14,-2.14 -1.183,0 -2.141,0.958 -2.141,2.14 0,1.182 0.958,2.14 2.141,2.14 C -0.958,2.14 0,1.182 0,0"
               style="fill:#52197d;fill-opacity:1;fill-rule:nonzero;stroke:none"
               id="path3636" />
          </g>
          <g
             id="g3638"
             transform="translate(360.3752,784.5265)">
            <path
               d="m 0,0 c 0,-1.182 -0.958,-2.14 -2.14,-2.14 -1.183,0 -2.141,0.958 -2.141,2.14 0,1.182 0.958,2.14 2.141,2.14 C -0.958,2.14 0,1.182 0,0"
               style="fill:#52197d;fill-opacity:1;fill-rule:nonzero;stroke:none"
               id="path3640" />
          </g>
          <g
             id="g3642"
             transform="translate(339.5134,788.5244)">
            <path
               d="M 0,0 V -7.945"
               style="fill:#000000;fill-opacity:1;fill-rule:nonzero;stroke:#000000;stroke-width:1;stroke-linecap:butt;stroke-linejoin:miter;stroke-miterlimit:1.427;stroke-dasharray:none;stroke-opacity:1"
               id="path3644" />
          </g>
          <g
             id="g3646"
             transform="translate(374.4637,784.4888)">
            <path
               d="m 0,0 c 0,-1.182 -0.958,-2.14 -2.14,-2.14 -1.183,0 -2.141,0.958 -2.141,2.14 0,1.182 0.958,2.14 2.141,2.14 C -0.958,2.14 0,1.182 0,0"
               style="fill:#52197d;fill-opacity:1;fill-rule:nonzero;stroke:none"
               id="path3648" />
          </g>
          <g
             id="g3650"
             transform="translate(393.1861,784.4888)">
            <path
               d="m 0,0 c 0,-1.182 -0.958,-2.14 -2.14,-2.14 -1.183,0 -2.141,0.958 -2.141,2.14 0,1.182 0.958,2.14 2.141,2.14 C -0.958,2.14 0,1.182 0,0"
               style="fill:#52197d;fill-opacity:1;fill-rule:nonzero;stroke:none"
               id="path3652" />
          </g>
          <g
             id="g3654"
             transform="translate(407.5619,784.5265)">
            <path
               d="m 0,0 c 0,-1.182 -0.958,-2.14 -2.14,-2.14 -1.183,0 -2.141,0.958 -2.141,2.14 0,1.182 0.958,2.14 2.141,2.14 C -0.958,2.14 0,1.182 0,0"
               style="fill:#52197d;fill-opacity:1;fill-rule:nonzero;stroke:none"
               id="path3656" />
          </g>
          <g
             id="g3658"
             transform="translate(419.1419,784.5265)">
            <path
               d="m 0,0 c 0,-1.182 -0.958,-2.14 -2.14,-2.14 -1.183,0 -2.141,0.958 -2.141,2.14 0,1.182 0.958,2.14 2.141,2.14 C -0.958,2.14 0,1.182 0,0"
               style="fill:#52197d;fill-opacity:1;fill-rule:nonzero;stroke:none"
               id="path3660" />
          </g>
          <g
             id="g3662">
            <g
               id="g3664" />
            <g
               id="g3672">
              <g
                 clip-path="url(#clipPath3668)"
                 opacity="0.699997"
                 id="g3670" />
            </g>
          </g>
          <g
             id="g3674"
             transform="translate(430.9355,784.4888)">
            <path
               d="m 0,0 c 0,-1.182 -0.958,-2.14 -2.14,-2.14 -1.183,0 -2.141,0.958 -2.141,2.14 0,1.182 0.958,2.14 2.141,2.14 C -0.958,2.14 0,1.182 0,0"
               style="fill:#52197d;fill-opacity:1;fill-rule:nonzero;stroke:none"
               id="path3676" />
          </g>
          <g
             id="g3678"
             transform="translate(444.9494,784.5265)">
            <path
               d="m 0,0 c 0,-1.182 -0.958,-2.14 -2.14,-2.14 -1.183,0 -2.141,0.958 -2.141,2.14 0,1.182 0.958,2.14 2.141,2.14 C -0.958,2.14 0,1.182 0,0"
               style="fill:#52197d;fill-opacity:1;fill-rule:nonzero;stroke:none"
               id="path3680" />
          </g>
        </g>
      </g>
      <text
         xml:space="preserve"
         transform="matrix(1,0,0,-1,485.5786,769.3271)"
         style="font-variant:normal;font-weight:normal;font-stretch:normal;font-size:10px;font-family:Arial;-inkscape-font-specification:ArialMT;writing-mode:lr-tb;fill:#000000;fill-opacity:1;fill-rule:nonzero;stroke:none"
         id="text3684"><tspan
           x="0 5.5599999 -153.28999 -149.96001 -144.39999"
           y="0"
           sodipodi:role="line"
           id="tspan3682">20-10</tspan></text>
      <g
         id="g3686">
        <g
           id="g3688"
           clip-path="url(#clipPath3692)">
          <g
             id="g3694"
             transform="translate(391.0355,788.3951)">
            <path
               d="M 0,0 V -7.945"
               style="fill:#000000;fill-opacity:1;fill-rule:nonzero;stroke:#000000;stroke-width:1;stroke-linecap:butt;stroke-linejoin:miter;stroke-miterlimit:1.427;stroke-dasharray:none;stroke-opacity:1"
               id="path3696" />
          </g>
          <g
             id="g3698"
             transform="translate(459.3252,784.5642)">
            <path
               d="m 0,0 c 0,-1.182 -0.958,-2.14 -2.14,-2.14 -1.183,0 -2.141,0.958 -2.141,2.14 0,1.182 0.958,2.14 2.141,2.14 C -0.958,2.14 0,1.182 0,0"
               style="fill:#52197d;fill-opacity:1;fill-rule:nonzero;stroke:none"
               id="path3700" />
          </g>
          <g
             id="g3702"
             transform="translate(470.9052,784.5642)">
            <path
               d="m 0,0 c 0,-1.182 -0.958,-2.14 -2.14,-2.14 -1.183,0 -2.141,0.958 -2.141,2.14 0,1.182 0.958,2.14 2.141,2.14 C -0.958,2.14 0,1.182 0,0"
               style="fill:#52197d;fill-opacity:1;fill-rule:nonzero;stroke:none"
               id="path3704" />
          </g>
          <g
             id="g3706"
             transform="translate(482.6988,784.5265)">
            <path
               d="m 0,0 c 0,-1.182 -0.958,-2.14 -2.14,-2.14 -1.183,0 -2.141,0.958 -2.141,2.14 0,1.182 0.958,2.14 2.141,2.14 C -0.958,2.14 0,1.182 0,0"
               style="fill:#52197d;fill-opacity:1;fill-rule:nonzero;stroke:none"
               id="path3708" />
          </g>
          <g
             id="g3710"
             transform="translate(496.7127,784.5642)">
            <path
               d="m 0,0 c 0,-1.182 -0.958,-2.14 -2.14,-2.14 -1.183,0 -2.141,0.958 -2.141,2.14 0,1.182 0.958,2.14 2.141,2.14 C -0.958,2.14 0,1.182 0,0"
               style="fill:#52197d;fill-opacity:1;fill-rule:nonzero;stroke:none"
               id="path3712" />
          </g>
          <g
             id="g3714"
             transform="translate(491.14,788.2486)">
            <path
               d="M 0,0 V -7.945"
               style="fill:#000000;fill-opacity:1;fill-rule:nonzero;stroke:#000000;stroke-width:1;stroke-linecap:butt;stroke-linejoin:miter;stroke-miterlimit:1.427;stroke-dasharray:none;stroke-opacity:1"
               id="path3716" />
          </g>
          <g
             id="g3718"
             transform="translate(511.0885,784.6019)">
            <path
               d="m 0,0 c 0,-1.182 -0.958,-2.14 -2.14,-2.14 -1.183,0 -2.141,0.958 -2.141,2.14 0,1.182 0.958,2.14 2.141,2.14 C -0.958,2.14 0,1.182 0,0"
               style="fill:#52197d;fill-opacity:1;fill-rule:nonzero;stroke:none"
               id="path3720" />
          </g>
          <g
             id="g3722"
             transform="translate(522.6685,784.6019)">
            <path
               d="m 0,0 c 0,-1.182 -0.958,-2.14 -2.14,-2.14 -1.183,0 -2.141,0.958 -2.141,2.14 0,1.182 0.958,2.14 2.141,2.14 C -0.958,2.14 0,1.182 0,0"
               style="fill:#52197d;fill-opacity:1;fill-rule:nonzero;stroke:none"
               id="path3724" />
          </g>
          <g
             id="g3726"
             transform="translate(534.4622,784.5642)">
            <path
               d="m 0,0 c 0,-1.182 -0.958,-2.14 -2.141,-2.14 -1.182,0 -2.14,0.958 -2.14,2.14 0,1.182 0.958,2.14 2.14,2.14 C -0.958,2.14 0,1.182 0,0"
               style="fill:#52197d;fill-opacity:1;fill-rule:nonzero;stroke:none"
               id="path3728" />
          </g>
          <g
             id="g3730"
             transform="translate(548.4761,784.6019)">
            <path
               d="m 0,0 c 0,-1.182 -0.958,-2.14 -2.141,-2.14 -1.182,0 -2.14,0.958 -2.14,2.14 0,1.182 0.958,2.14 2.14,2.14 C -0.958,2.14 0,1.182 0,0"
               style="fill:#52197d;fill-opacity:1;fill-rule:nonzero;stroke:none"
               id="path3732" />
          </g>
          <g
             id="g3734"
             transform="translate(543.2643,788.2486)">
            <path
               d="M 0,0 V -7.945"
               style="fill:#000000;fill-opacity:1;fill-rule:nonzero;stroke:#000000;stroke-width:1;stroke-linecap:butt;stroke-linejoin:miter;stroke-miterlimit:1.427;stroke-dasharray:none;stroke-opacity:1"
               id="path3736" />
          </g>
        </g>
      </g>
      <text
         xml:space="preserve"
         transform="matrix(1,0,0,-1,537.7026,769.3271)"
         style="font-variant:normal;font-weight:normal;font-stretch:normal;font-size:10px;font-family:Arial;-inkscape-font-specification:ArialMT;writing-mode:lr-tb;fill:#000000;fill-opacity:1;fill-rule:nonzero;stroke:none"
         id="text3740"><tspan
           x="0 5.5599999"
           y="0"
           sodipodi:role="line"
           id="tspan3738">30</tspan></text>
      <g
         id="g3742">
        <g
           id="g3744"
           clip-path="url(#clipPath3748)">
          <g
             id="g3750"
             transform="translate(391.3305,796.1279)">
            <path
               d="M 0,0 -99.164,0.098 V 12.186 L 0,12.088 Z"
               style="fill:#d99266;fill-opacity:1;fill-rule:nonzero;stroke:none"
               id="path3752" />
          </g>
        </g>
      </g>
      <text
         xml:space="preserve"
         transform="matrix(1,0,0,-1,311.481,799.4561)"
         style="font-variant:normal;font-weight:normal;font-stretch:normal;font-size:9px;font-family:Arial;-inkscape-font-specification:ArialMT;writing-mode:lr-tb;fill:#ffffff;fill-opacity:1;fill-rule:nonzero;stroke:none"
         id="text3756"><tspan
           x="0 6.4980001 11.502 16.506001 19.503 21.500999 26.000999 31.004999 36.008999 41.013 43.514999 48.519001 50.516998 55.521 58.022999"
           y="0"
           sodipodi:role="line"
           id="tspan3754">Cuprizone diet </tspan></text>
      <g
         id="g3758">
        <g
           id="g3760"
           clip-path="url(#clipPath3764)">
          <g
             id="g3766"
             transform="translate(442.9899,788.2486)">
            <path
               d="M 0,0 V -7.945"
               style="fill:#000000;fill-opacity:1;fill-rule:nonzero;stroke:#000000;stroke-width:1;stroke-linecap:butt;stroke-linejoin:miter;stroke-miterlimit:1.427;stroke-dasharray:none;stroke-opacity:1"
               id="path3768" />
          </g>
          <g
             id="g3770">
            <g
               id="g3772" />
            <g
               id="g3782">
              <g
                 clip-path="url(#clipPath3776)"
                 opacity="0.800003"
                 id="g3780">
                <path
                   d="m 443.099,796.128 h -39.256 v 12.179 h 39.256 z"
                   style="fill:#9b4bff;fill-opacity:1;fill-rule:nonzero;stroke:none"
                   id="path3778" />
              </g>
            </g>
          </g>
          <g
             id="g3784"
             transform="translate(577.871,784.5087)">
            <path
               d="M 0,0 -6.156,3.554 V -3.554 Z"
               style="fill:#000000;fill-opacity:1;fill-rule:nonzero;stroke:none"
               id="path3786" />
          </g>
        </g>
      </g>
      <text
         xml:space="preserve"
         transform="matrix(1,0,0,-1,414.2178,798.5605)"
         style="font-variant:normal;font-weight:normal;font-stretch:normal;font-size:9px;font-family:Arial;-inkscape-font-specification:ArialMT;writing-mode:lr-tb;fill:#ffffff;fill-opacity:1;fill-rule:nonzero;stroke:none"
         id="text3790"><tspan
           x="0 6.0029998 12.501"
           y="0"
           sodipodi:role="line"
           id="tspan3788">VNS</tspan></text>
      <g
         id="g3792">
        <g
           id="g3794"
           clip-path="url(#clipPath3798)">
          <g
             id="g3800"
             transform="translate(379.2198,763.9756)">
            <path
               d="M 0,0 -32.848,17.014"
               style="fill:none;stroke:#29283b;stroke-width:1;stroke-linecap:butt;stroke-linejoin:miter;stroke-miterlimit:10;stroke-dasharray:none;stroke-opacity:1"
               id="path3802" />
          </g>
          <g
             id="g3804"
             transform="translate(310.8411,763.9756)">
            <path
               d="M 0,0 32.849,17.014"
               style="fill:none;stroke:#29283b;stroke-width:1;stroke-linecap:butt;stroke-linejoin:miter;stroke-miterlimit:10;stroke-dasharray:none;stroke-opacity:1"
               id="path3806" />
          </g>
          <path
             d="m 378.969,752.582 h -67.877 v 11.339 h 67.877 z"
             style="fill:#ffffff;fill-opacity:1;fill-rule:nonzero;stroke:#ffffff;stroke-width:1;stroke-linecap:butt;stroke-linejoin:miter;stroke-miterlimit:10;stroke-dasharray:none;stroke-opacity:1"
             id="path3808" />
          <g
             id="g3810">
            <g
               id="g3812" />
            <g
               id="g3822">
              <g
                 clip-path="url(#clipPath3816)"
                 opacity="0.699997"
                 id="g3820">
                <path
                   d="m 378.969,752.582 h -67.877 v 11.339 h 67.877 z"
                   style="fill:#000539;fill-opacity:1;fill-rule:nonzero;stroke:#000539;stroke-width:1;stroke-linecap:butt;stroke-linejoin:miter;stroke-miterlimit:10;stroke-dasharray:none;stroke-opacity:1"
                   id="path3818" />
              </g>
            </g>
          </g>
        </g>
      </g>
      <text
         xml:space="preserve"
         transform="matrix(1,0,0,-1,311.3437,754.3896)"
         style="font-variant:normal;font-weight:normal;font-stretch:normal;font-size:9px;font-family:Arial;-inkscape-font-specification:ArialMT;writing-mode:lr-tb;fill:#ffffff;fill-opacity:1;fill-rule:nonzero;stroke:none"
         id="text3826"><tspan
           x="0 6.4980001 11.502 13.8429 16.3449 18.846901 20.8449 28.3419 33.345901 35.343899 40.3479 45.351898 47.853901 52.857899 55.359901 57.357899 62.3619"
           y="0"
           sodipodi:role="line"
           id="tspan3824">Cuff implantation</tspan></text>
      <g
         id="g3828">
        <g
           id="g3830"
           clip-path="url(#clipPath3834)">
          <g
             id="g3836"
             transform="translate(345.0305,788.4867)">
            <path
               d="M 0,0 V -7.945"
               style="fill:#29283b;fill-opacity:1;fill-rule:nonzero;stroke:#29283b;stroke-width:9;stroke-linecap:butt;stroke-linejoin:miter;stroke-miterlimit:10;stroke-dasharray:none;stroke-opacity:1"
               id="path3838" />
          </g>
        </g>
      </g>
      <text
         xml:space="preserve"
         transform="matrix(1,0,0,-1,360.375,737.6543)"
         style="font-variant:normal;font-weight:normal;font-stretch:normal;font-size:13px;font-family:Arial;-inkscape-font-specification:ArialMT;writing-mode:lr-tb;fill:#000000;fill-opacity:1;fill-rule:nonzero;stroke:none"
         id="text3842"><tspan
           x="0 9.3859997 16.614 23.114 29.614 33.228001 40.456001 47.683998 54.183998 57.798 62.126999 68.626999 75.855003 83.083 87.412003 90.297997 96.797997 104.026 111.254"
           y="0"
           sodipodi:role="line"
           id="tspan3840">Days post-cuprizone</tspan></text>
      <g
         id="g3844">
        <g
           id="g3846"
           clip-path="url(#clipPath3850)">
          <g
             id="g3852"
             transform="translate(292.2074,764.0732)">
            <path
               d="M 0,0 -23.216,16.465"
               style="fill:none;stroke:#8d8c91;stroke-width:1;stroke-linecap:butt;stroke-linejoin:miter;stroke-miterlimit:1.427;stroke-dasharray:none;stroke-opacity:1"
               id="path3854" />
          </g>
          <g
             id="g3856"
             transform="translate(243.413,764.0732)">
            <path
               d="M 0,0 23.216,16.465"
               style="fill:none;stroke:#8d8c91;stroke-width:1;stroke-linecap:butt;stroke-linejoin:miter;stroke-miterlimit:1.427;stroke-dasharray:none;stroke-opacity:1"
               id="path3858" />
          </g>
          <path
             d="m 292.053,752.582 h -48.412 v 11.339 h 48.412 z"
             style="fill:#ffffff;fill-opacity:1;fill-rule:nonzero;stroke:#ffffff;stroke-width:1;stroke-linecap:butt;stroke-linejoin:miter;stroke-miterlimit:10;stroke-dasharray:none;stroke-opacity:1"
             id="path3860" />
          <g
             id="g3862">
            <g
               id="g3864" />
            <g
               id="g3874">
              <g
                 clip-path="url(#clipPath3868)"
                 opacity="0.679993"
                 id="g3872">
                <path
                   d="m 292.053,752.582 h -48.412 v 11.339 h 48.412 z"
                   style="fill:#4d2a10;fill-opacity:1;fill-rule:nonzero;stroke:#4d2a10;stroke-width:1;stroke-linecap:butt;stroke-linejoin:miter;stroke-miterlimit:10;stroke-dasharray:none;stroke-opacity:1"
                   id="path3870" />
              </g>
            </g>
          </g>
        </g>
      </g>
      <text
         xml:space="preserve"
         transform="matrix(1,0,0,-1,244.8394,754.3896)"
         style="font-variant:normal;font-weight:normal;font-stretch:normal;font-size:9px;font-family:Arial;-inkscape-font-specification:ArialMT;writing-mode:lr-tb;fill:#ffffff;fill-opacity:1;fill-rule:nonzero;stroke:none"
         id="text3878"><tspan
           x="0 6.4980001 9.4949999 14.499 19.503 21.500999 26.504999 29.007 34.011002 41.507999"
           y="0"
           sodipodi:role="line"
           id="tspan3876">Craniotomy</tspan></text>
      <g
         id="g3880">
        <g
           id="g3882"
           clip-path="url(#clipPath3886)">
          <g
             id="g3888"
             transform="translate(267.8102,788.0626)">
            <path
               d="M 0,0 V -7.945"
               style="fill:#535353;fill-opacity:1;fill-rule:nonzero;stroke:#8d8c91;stroke-width:9;stroke-linecap:butt;stroke-linejoin:miter;stroke-miterlimit:1.427;stroke-dasharray:none;stroke-opacity:1"
               id="path3890" />
          </g>
        </g>
      </g>
    </g>
    <text
       xml:space="preserve"
       transform="matrix(1,0,0,-1,33.4419,15.1484)"
       style="font-variant:normal;font-weight:normal;font-stretch:normal;font-size:12px;font-family:Arial;-inkscape-font-specification:ArialMT;writing-mode:lr-tb;fill:#000000;fill-opacity:1;fill-rule:nonzero;stroke:none"
       id="text4624"><tspan
         x="0 7.3319998 9.9960003 16.667999 23.34 27.336 34.007999 37.344002 44.015999 47.352001 50.688 58.692001 67.356003 75.360001 78.695999 85.367996 92.040001 98.711998 105.384 112.056 118.056 124.728 130.728 134.064 140.73599 143.39999 146.064 152.73599 159.408 166.08 172.752 179.424 186.09599 190.092 196.76401 203.436 210.108 216.78 223.452 229.452 232.116 238.116 241.452 248.12399 251.46001 254.79601 261.46799 265.46399 268.79999 274.79999 281.47198 288.14401 292.14001 294.80399 300.80399 307.47601 314.19241 320.86441 324.86041 334.85641 341.52841 348.20041 350.86441 357.53641 360.87241 367.5444 374.2164 377.5524 384.2244 390.89639 400.8924 406.8924 413.56439 416.22839 418.8924 425.56439 432.23639 435.57239 438.23639 444.90839 451.58041 454.91641"
         y="0"
         sodipodi:role="line"
         id="tspan4620">Figure 1. VNS enhances oligodendrogenesis after cuprizone-mediated demyelination. </tspan><tspan
         x="510.40799 519.07202 525.74402 532.41602 539.08801 545.76001 549.09601 555.76801 559.104 562.44 569.112 571.776 575.112 581.784 588.45599 595.12799 0 7.3319998 9.9960003 16.667999 23.34 27.336 34.007999 37.344002 44.015999"
         y="-814.90802"
         sodipodi:role="line"
         id="tspan4622">Huang et al 2025Figure 1 </tspan></text>
  </g>
</svg>
