<?xml version="1.0" encoding="UTF-8" standalone="no"?>
<!-- Created with Inkscape (http://www.inkscape.org/) -->

<svg
   version="1.1"
   id="svg1"
   width="479.50754"
   height="252.08922"
   viewBox="0 0 479.50754 252.08922"
   sodipodi:docname="2026-01-13 all figures CM.pdf"
   xmlns:inkscape="http://www.inkscape.org/namespaces/inkscape"
   xmlns:sodipodi="http://sodipodi.sourceforge.net/DTD/sodipodi-0.dtd"
   xmlns="http://www.w3.org/2000/svg"
   xmlns:svg="http://www.w3.org/2000/svg">
  <defs
     id="defs1">
    <clipPath
       clipPathUnits="userSpaceOnUse"
       id="clipPath222">
      <path
         d="m 290.48301,642.72404 h 12.379 v -6.908 h -12.379 z"
         id="path222" />
    </clipPath>
    <clipPath
       clipPathUnits="userSpaceOnUse"
       id="clipPath224">
      <path
         d="M 0,0 H 891.59067 V 1131.5907 H 0 Z"
         id="path224" />
    </clipPath>
    <clipPath
       clipPathUnits="userSpaceOnUse"
       id="clipPath225">
      <path
         d="m 290.48301,629.68404 h 12.379 v -6.909 h -12.379 z"
         id="path225" />
    </clipPath>
    <clipPath
       clipPathUnits="userSpaceOnUse"
       id="clipPath227">
      <path
         d="M 0,0 H 891.59067 V 1131.5907 H 0 Z"
         id="path227" />
    </clipPath>
    <clipPath
       clipPathUnits="userSpaceOnUse"
       id="clipPath244">
      <path
         d="m 353.26401,750.95404 h 27.36 v -102.322 h -27.36 z"
         id="path244" />
    </clipPath>
    <clipPath
       clipPathUnits="userSpaceOnUse"
       id="clipPath246">
      <path
         d="M 0,0 H 891.59067 V 1131.5907 H 0 Z"
         id="path246" />
    </clipPath>
    <clipPath
       clipPathUnits="userSpaceOnUse"
       id="clipPath258">
      <path
         d="m 312.10401,762.03704 h 27.48 v -113.524 h -27.48 z"
         id="path258" />
    </clipPath>
    <clipPath
       clipPathUnits="userSpaceOnUse"
       id="clipPath260">
      <path
         d="M 0,0 H 891.59067 V 1131.5907 H 0 Z"
         id="path260" />
    </clipPath>
    <clipPath
       clipPathUnits="userSpaceOnUse"
       id="clipPath263">
      <path
         d="M 88.931902,643.43204 H 101.311 v -6.908 H 88.931902 Z"
         id="path263" />
    </clipPath>
    <clipPath
       clipPathUnits="userSpaceOnUse"
       id="clipPath265">
      <path
         d="M 0,0 H 891.59067 V 1131.5907 H 0 Z"
         id="path265" />
    </clipPath>
    <clipPath
       clipPathUnits="userSpaceOnUse"
       id="clipPath266">
      <path
         d="M 88.931902,630.39204 H 101.311 v -6.908 H 88.931902 Z"
         id="path266" />
    </clipPath>
    <clipPath
       clipPathUnits="userSpaceOnUse"
       id="clipPath268">
      <path
         d="M 0,0 H 891.59067 V 1131.5907 H 0 Z"
         id="path268" />
    </clipPath>
    <clipPath
       clipPathUnits="userSpaceOnUse"
       id="clipPath285">
      <path
         d="m 151.713,744.31004 h 27.36 v -94.97 h -27.36 z"
         id="path285" />
    </clipPath>
    <clipPath
       clipPathUnits="userSpaceOnUse"
       id="clipPath287">
      <path
         d="M 0,0 H 891.59067 V 1131.5907 H 0 Z"
         id="path287" />
    </clipPath>
    <clipPath
       clipPathUnits="userSpaceOnUse"
       id="clipPath299">
      <path
         d="m 110.553,737.90704 h 27.48 v -88.686 h -27.48 z"
         id="path299" />
    </clipPath>
    <clipPath
       clipPathUnits="userSpaceOnUse"
       id="clipPath301">
      <path
         d="M 0,0 H 891.59067 V 1131.5907 H 0 Z"
         id="path301" />
    </clipPath>
  </defs>
  <sodipodi:namedview
     id="namedview1"
     pagecolor="#ffffff"
     bordercolor="#000000"
     borderopacity="0.25"
     inkscape:showpageshadow="2"
     inkscape:pageopacity="0.0"
     inkscape:pagecheckerboard="0"
     inkscape:deskcolor="#d1d1d1">
    <inkscape:page
       x="0"
       y="0"
       width="479.50754"
       height="252.08922"
       id="page2"
       margin="0"
       bleed="0" />
  </sodipodi:namedview>
  <g
     id="layer-MC11"
     inkscape:groupmode="layer"
     inkscape:label="Fig 4"
     transform="translate(-61.302757,-51.27626)">
    <g
       id="g305">
      <g
         opacity="0.5"
         id="g223"
         clip-path="url(#clipPath224)">
        <path
           d="m 302.862,635.816 h -12.379 v 6.909 h 12.379 z"
           style="fill:#8da3a3;fill-opacity:1;fill-rule:nonzero;stroke:none"
           transform="matrix(1.3333333,0,0,-1.3333333,0,1131.5907)"
           clip-path="url(#clipPath222)"
           id="path223" />
      </g>
      <text
         id="text224"
         xml:space="preserve"
         transform="matrix(1.3333333,0,0,1.3333333,406.66867,283.84067)"><tspan
           id="tspan224"
           style="font-variant:normal;font-weight:normal;font-stretch:normal;font-size:10.1764px;font-family:Arial;writing-mode:lr-tb;fill:#000000;fill-opacity:1;fill-rule:nonzero;stroke:none"
           x="0"
           y="0">Motor Learning (n=10)</tspan></text>
      <g
         opacity="0.600006"
         id="g226"
         clip-path="url(#clipPath227)">
        <path
           d="m 302.862,622.775 h -12.379 v 6.909 h 12.379 z"
           style="fill:#0a60ff;fill-opacity:1;fill-rule:nonzero;stroke:none"
           transform="matrix(1.3333333,0,0,-1.3333333,0,1131.5907)"
           clip-path="url(#clipPath225)"
           id="path226" />
      </g>
      <text
         id="text227"
         xml:space="preserve"
         transform="matrix(1.3333333,0,0,1.3333333,407.6588,300.51)"><tspan
           id="tspan227"
           style="font-variant:normal;font-weight:normal;font-stretch:normal;font-size:10.1764px;font-family:Arial;writing-mode:lr-tb;fill:#000000;fill-opacity:1;fill-rule:nonzero;stroke:none"
           x="0"
           y="0">Paired VNS (n=6)</tspan></text>
      <text
         id="text228"
         xml:space="preserve"
         transform="matrix(1.3333333,0,0,1.3333333,384.45707,270.30547)"><tspan
           id="tspan228"
           style="font-variant:normal;font-weight:normal;font-stretch:normal;font-size:10px;font-family:Arial;writing-mode:lr-tb;fill:#000000;fill-opacity:1;fill-rule:nonzero;stroke:none"
           x="0"
           y="0">0</tspan></text>
      <path
         id="path228"
         d="M 0,0 H -2.52"
         style="fill:none;stroke:#000000;stroke-width:1;stroke-linecap:butt;stroke-linejoin:miter;stroke-miterlimit:10;stroke-dasharray:none;stroke-opacity:1"
         transform="matrix(1.3333333,0,0,-1.3333333,397.8988,266.74827)" />
      <text
         id="text229"
         xml:space="preserve"
         transform="matrix(1.3333333,0,0,1.3333333,377.04107,222.31853)"><tspan
           id="tspan229"
           style="font-variant:normal;font-weight:normal;font-stretch:normal;font-size:10px;font-family:Arial;writing-mode:lr-tb;fill:#000000;fill-opacity:1;fill-rule:nonzero;stroke:none"
           x="0"
           y="0">20</tspan></text>
      <path
         id="path229"
         d="M 0,0 H -2.52"
         style="fill:none;stroke:#000000;stroke-width:1;stroke-linecap:butt;stroke-linejoin:miter;stroke-miterlimit:10;stroke-dasharray:none;stroke-opacity:1"
         transform="matrix(1.3333333,0,0,-1.3333333,397.8988,218.76147)" />
      <text
         id="text230"
         xml:space="preserve"
         transform="matrix(1.3333333,0,0,1.3333333,377.0416,174.3316)"><tspan
           id="tspan230"
           style="font-variant:normal;font-weight:normal;font-stretch:normal;font-size:10px;font-family:Arial;writing-mode:lr-tb;fill:#000000;fill-opacity:1;fill-rule:nonzero;stroke:none"
           x="0"
           y="0">40</tspan></text>
      <path
         id="path230"
         d="M 0,0 H -2.52"
         style="fill:none;stroke:#000000;stroke-width:1;stroke-linecap:butt;stroke-linejoin:miter;stroke-miterlimit:10;stroke-dasharray:none;stroke-opacity:1"
         transform="matrix(1.3333333,0,0,-1.3333333,397.8988,170.7744)" />
      <text
         id="text231"
         xml:space="preserve"
         transform="matrix(1.3333333,0,0,1.3333333,377.04227,126.34453)"><tspan
           id="tspan231"
           style="font-variant:normal;font-weight:normal;font-stretch:normal;font-size:10px;font-family:Arial;writing-mode:lr-tb;fill:#000000;fill-opacity:1;fill-rule:nonzero;stroke:none"
           x="0"
           y="0">60</tspan></text>
      <path
         id="path231"
         d="M 0,0 H -2.52"
         style="fill:none;stroke:#000000;stroke-width:1;stroke-linecap:butt;stroke-linejoin:miter;stroke-miterlimit:10;stroke-dasharray:none;stroke-opacity:1"
         transform="matrix(1.3333333,0,0,-1.3333333,397.8988,122.78747)" />
      <text
         id="text232"
         xml:space="preserve"
         transform="matrix(1.3333333,0,0,1.3333333,377.0416,78.3576)"><tspan
           id="tspan232"
           style="font-variant:normal;font-weight:normal;font-stretch:normal;font-size:10px;font-family:Arial;writing-mode:lr-tb;fill:#000000;fill-opacity:1;fill-rule:nonzero;stroke:none"
           x="0"
           y="0">80</tspan></text>
      <path
         id="path232"
         d="M 0,0 H -2.52"
         style="fill:none;stroke:#000000;stroke-width:1;stroke-linecap:butt;stroke-linejoin:miter;stroke-miterlimit:10;stroke-dasharray:none;stroke-opacity:1"
         transform="matrix(1.3333333,0,0,-1.3333333,397.8988,74.800533)" />
      <path
         id="path233"
         d="M 0,0 V 144.467"
         style="fill:none;stroke:#000000;stroke-width:1;stroke-linecap:butt;stroke-linejoin:miter;stroke-miterlimit:10;stroke-dasharray:none;stroke-opacity:1"
         transform="matrix(1.3333333,0,0,-1.3333333,397.8988,266.74827)" />
      <text
         id="text233"
         xml:space="preserve"
         transform="matrix(0,-1.3333333,1.3333333,0,345.9648,224.24427)"><tspan
           id="tspan233"
           style="font-variant:normal;font-weight:normal;font-stretch:normal;font-size:13px;font-family:Arial;writing-mode:lr-tb;fill:#000000;fill-opacity:1;fill-rule:nonzero;stroke:none"
           x="0"
           dx="0 -0.234"
           y="0">Average sheath</tspan><tspan
           id="tspan234"
           style="font-variant:normal;font-weight:normal;font-stretch:normal;font-size:13px;font-family:Arial;writing-mode:lr-tb;fill:#000000;fill-opacity:1;fill-rule:nonzero;stroke:none"
           x="12.415"
           y="15.6">length (µm)</tspan></text>
      <text
         id="text234"
         xml:space="preserve"
         transform="matrix(1.3333333,0,0,1.3333333,447.85227,64.8836)"><tspan
           id="tspan235"
           style="font-variant:normal;font-weight:normal;font-stretch:normal;font-size:13px;font-family:Arial;writing-mode:lr-tb;fill:#000000;fill-opacity:1;fill-rule:nonzero;stroke:none"
           x="0"
           y="0">n.s.</tspan></text>
      <path
         id="path235"
         d="M 0,0 H 41.012"
         style="fill:none;stroke:#000000;stroke-width:1;stroke-linecap:square;stroke-linejoin:miter;stroke-miterlimit:10;stroke-dasharray:none;stroke-opacity:1"
         transform="matrix(1.3333333,0,0,-1.3333333,434.4908,67.319867)" />
      <path
         id="path236"
         d="M 0,0 V 1.561"
         style="fill:none;stroke:#000000;stroke-width:1;stroke-linecap:square;stroke-linejoin:miter;stroke-miterlimit:10;stroke-dasharray:none;stroke-opacity:1"
         transform="matrix(1.3333333,0,0,-1.3333333,434.4908,70.398533)" />
      <path
         id="path237"
         d="M 0,0 V 1.561"
         style="fill:none;stroke:#000000;stroke-width:1;stroke-linecap:square;stroke-linejoin:miter;stroke-miterlimit:10;stroke-dasharray:none;stroke-opacity:1"
         transform="matrix(1.3333333,0,0,-1.3333333,489.17333,70.398933)" />
      <path
         id="path238"
         d="m 0,0 c 0,-0.734 -0.595,-1.329 -1.329,-1.329 -0.735,0 -1.33,0.595 -1.33,1.329 0,0.734 0.595,1.329 1.33,1.329 C -0.595,1.329 0,0.734 0,0"
         style="fill:#0a60ff;fill-opacity:1;fill-rule:nonzero;stroke:#0a60ff;stroke-width:1;stroke-linecap:butt;stroke-linejoin:miter;stroke-miterlimit:10;stroke-dasharray:none;stroke-opacity:1"
         transform="matrix(1.3333333,0,0,-1.3333333,494.75147,136.46693)" />
      <path
         id="path239"
         d="m 0,0 c 0,-0.734 -0.595,-1.329 -1.329,-1.329 -0.735,0 -1.33,0.595 -1.33,1.329 0,0.734 0.595,1.329 1.33,1.329 C -0.595,1.329 0,0.734 0,0"
         style="fill:#0a60ff;fill-opacity:1;fill-rule:nonzero;stroke:#0a60ff;stroke-width:1;stroke-linecap:butt;stroke-linejoin:miter;stroke-miterlimit:10;stroke-dasharray:none;stroke-opacity:1"
         transform="matrix(1.3333333,0,0,-1.3333333,487.31133,136.46693)" />
      <path
         id="path240"
         d="m 0,0 c 0,-0.734 -0.595,-1.329 -1.329,-1.329 -0.735,0 -1.33,0.595 -1.33,1.329 0,0.734 0.595,1.329 1.33,1.329 C -0.595,1.329 0,0.734 0,0"
         style="fill:#0a60ff;fill-opacity:1;fill-rule:nonzero;stroke:#0a60ff;stroke-width:1;stroke-linecap:butt;stroke-linejoin:miter;stroke-miterlimit:10;stroke-dasharray:none;stroke-opacity:1"
         transform="matrix(1.3333333,0,0,-1.3333333,491.03147,133.5004)" />
      <path
         id="path241"
         d="m 0,0 c 0,-0.734 -0.595,-1.329 -1.329,-1.329 -0.735,0 -1.33,0.595 -1.33,1.329 0,0.734 0.595,1.329 1.33,1.329 C -0.595,1.329 0,0.734 0,0"
         style="fill:#0a60ff;fill-opacity:1;fill-rule:nonzero;stroke:#0a60ff;stroke-width:1;stroke-linecap:butt;stroke-linejoin:miter;stroke-miterlimit:10;stroke-dasharray:none;stroke-opacity:1"
         transform="matrix(1.3333333,0,0,-1.3333333,491.03147,130.7844)" />
      <path
         id="path242"
         d="m 0,0 c 0,-0.734 -0.595,-1.329 -1.329,-1.329 -0.735,0 -1.33,0.595 -1.33,1.329 0,0.734 0.595,1.329 1.33,1.329 C -0.595,1.329 0,0.734 0,0"
         style="fill:#0a60ff;fill-opacity:1;fill-rule:nonzero;stroke:#0a60ff;stroke-width:1;stroke-linecap:butt;stroke-linejoin:miter;stroke-miterlimit:10;stroke-dasharray:none;stroke-opacity:1"
         transform="matrix(1.3333333,0,0,-1.3333333,491.03147,126.6948)" />
      <path
         id="path243"
         d="m 0,0 c 0,-0.734 -0.595,-1.329 -1.329,-1.329 -0.735,0 -1.33,0.595 -1.33,1.329 0,0.734 0.595,1.329 1.33,1.329 C -0.595,1.329 0,0.734 0,0"
         style="fill:#0a60ff;fill-opacity:1;fill-rule:nonzero;stroke:#0a60ff;stroke-width:1;stroke-linecap:butt;stroke-linejoin:miter;stroke-miterlimit:10;stroke-dasharray:none;stroke-opacity:1"
         transform="matrix(1.3333333,0,0,-1.3333333,491.03147,117.258)" />
      <g
         opacity="0.5"
         id="g245"
         clip-path="url(#clipPath246)">
        <path
           d="m 353.264,648.632 h 27.36 v 102.322 h -27.36 z"
           style="fill:#0a60ff;fill-opacity:1;fill-rule:evenodd;stroke:none"
           transform="matrix(1.3333333,0,0,-1.3333333,0,1131.5907)"
           clip-path="url(#clipPath244)"
           id="path245" />
      </g>
      <path
         id="path247"
         d="M 0,0 H 9.075 M 4.538,0 V 4.506 M 0,4.506 h 9.075"
         style="fill:none;stroke:#000000;stroke-width:1;stroke-linecap:butt;stroke-linejoin:miter;stroke-miterlimit:3;stroke-dasharray:none;stroke-opacity:1"
         transform="matrix(1.3333333,0,0,-1.3333333,483.20867,133.53333)" />
      <path
         id="path248"
         d="m 0,0 c 0,-0.734 -0.595,-1.329 -1.329,-1.329 -0.735,0 -1.33,0.595 -1.33,1.329 0,0.734 0.595,1.329 1.33,1.329 C -0.595,1.329 0,0.734 0,0"
         style="fill:#8da3a3;fill-opacity:1;fill-rule:nonzero;stroke:#8da3a3;stroke-width:1;stroke-linecap:butt;stroke-linejoin:miter;stroke-miterlimit:10;stroke-dasharray:none;stroke-opacity:1"
         transform="matrix(1.3333333,0,0,-1.3333333,436.23147,140.186)" />
      <path
         id="path249"
         d="m 0,0 c 0,-0.734 -0.595,-1.329 -1.329,-1.329 -0.735,0 -1.33,0.595 -1.33,1.329 0,0.734 0.595,1.329 1.33,1.329 C -0.595,1.329 0,0.734 0,0"
         style="fill:#8da3a3;fill-opacity:1;fill-rule:nonzero;stroke:#8da3a3;stroke-width:1;stroke-linecap:butt;stroke-linejoin:miter;stroke-miterlimit:10;stroke-dasharray:none;stroke-opacity:1"
         transform="matrix(1.3333333,0,0,-1.3333333,436.23147,136.1356)" />
      <path
         id="path250"
         d="m 0,0 c 0,-0.734 -0.595,-1.33 -1.329,-1.33 -0.735,0 -1.33,0.596 -1.33,1.33 0,0.734 0.595,1.329 1.33,1.329 C -0.595,1.329 0,0.734 0,0"
         style="fill:#8da3a3;fill-opacity:1;fill-rule:nonzero;stroke:#8da3a3;stroke-width:1;stroke-linecap:butt;stroke-linejoin:miter;stroke-miterlimit:10;stroke-dasharray:none;stroke-opacity:1"
         transform="matrix(1.3333333,0,0,-1.3333333,436.23147,128.5588)" />
      <path
         id="path251"
         d="m 0,0 c 0,-0.734 -0.595,-1.329 -1.329,-1.329 -0.735,0 -1.33,0.595 -1.33,1.329 0,0.734 0.595,1.329 1.33,1.329 C -0.595,1.329 0,0.734 0,0"
         style="fill:#8da3a3;fill-opacity:1;fill-rule:nonzero;stroke:#8da3a3;stroke-width:1;stroke-linecap:butt;stroke-linejoin:miter;stroke-miterlimit:10;stroke-dasharray:none;stroke-opacity:1"
         transform="matrix(1.3333333,0,0,-1.3333333,438.61813,121.3952)" />
      <path
         id="path252"
         d="m 0,0 c 0,-0.734 -0.595,-1.329 -1.329,-1.329 -0.735,0 -1.33,0.595 -1.33,1.329 0,0.734 0.595,1.329 1.33,1.329 C -0.595,1.329 0,0.734 0,0"
         style="fill:#8da3a3;fill-opacity:1;fill-rule:nonzero;stroke:#8da3a3;stroke-width:1;stroke-linecap:butt;stroke-linejoin:miter;stroke-miterlimit:10;stroke-dasharray:none;stroke-opacity:1"
         transform="matrix(1.3333333,0,0,-1.3333333,433.8448,121.3952)" />
      <path
         id="path253"
         d="m 0,0 c 0,-0.734 -0.595,-1.329 -1.329,-1.329 -0.735,0 -1.33,0.595 -1.33,1.329 0,0.734 0.595,1.329 1.33,1.329 C -0.595,1.329 0,0.734 0,0"
         style="fill:#8da3a3;fill-opacity:1;fill-rule:nonzero;stroke:#8da3a3;stroke-width:1;stroke-linecap:butt;stroke-linejoin:miter;stroke-miterlimit:10;stroke-dasharray:none;stroke-opacity:1"
         transform="matrix(1.3333333,0,0,-1.3333333,436.23147,116.48587)" />
      <path
         id="path254"
         d="m 0,0 c 0,-0.734 -0.595,-1.329 -1.329,-1.329 -0.735,0 -1.33,0.595 -1.33,1.329 0,0.734 0.595,1.329 1.33,1.329 C -0.595,1.329 0,0.734 0,0"
         style="fill:#8da3a3;fill-opacity:1;fill-rule:nonzero;stroke:#8da3a3;stroke-width:1;stroke-linecap:butt;stroke-linejoin:miter;stroke-miterlimit:10;stroke-dasharray:none;stroke-opacity:1"
         transform="matrix(1.3333333,0,0,-1.3333333,436.23147,113.562)" />
      <path
         id="path255"
         d="m 0,0 c 0,-0.734 -0.595,-1.329 -1.329,-1.329 -0.735,0 -1.33,0.595 -1.33,1.329 0,0.734 0.595,1.329 1.33,1.329 C -0.595,1.329 0,0.734 0,0"
         style="fill:#8da3a3;fill-opacity:1;fill-rule:nonzero;stroke:#8da3a3;stroke-width:1;stroke-linecap:butt;stroke-linejoin:miter;stroke-miterlimit:10;stroke-dasharray:none;stroke-opacity:1"
         transform="matrix(1.3333333,0,0,-1.3333333,437.28467,94.942667)" />
      <path
         id="path256"
         d="m 0,0 c 0,-0.734 -0.595,-1.329 -1.329,-1.329 -0.735,0 -1.33,0.595 -1.33,1.329 0,0.734 0.595,1.329 1.33,1.329 C -0.595,1.329 0,0.734 0,0"
         style="fill:#8da3a3;fill-opacity:1;fill-rule:nonzero;stroke:#8da3a3;stroke-width:1;stroke-linecap:butt;stroke-linejoin:miter;stroke-miterlimit:10;stroke-dasharray:none;stroke-opacity:1"
         transform="matrix(1.3333333,0,0,-1.3333333,435.17827,94.942667)" />
      <path
         id="path257"
         d="m 0,0 c 0,-0.734 -0.595,-1.329 -1.329,-1.329 -0.735,0 -1.33,0.595 -1.33,1.329 0,0.734 0.595,1.329 1.33,1.329 C -0.595,1.329 0,0.734 0,0"
         style="fill:#8da3a3;fill-opacity:1;fill-rule:nonzero;stroke:#8da3a3;stroke-width:1;stroke-linecap:butt;stroke-linejoin:miter;stroke-miterlimit:10;stroke-dasharray:none;stroke-opacity:1"
         transform="matrix(1.3333333,0,0,-1.3333333,436.23147,87.8264)" />
      <g
         opacity="0.5"
         id="g259"
         clip-path="url(#clipPath260)">
        <path
           d="m 312.104,648.513 h 27.48 v 113.524 h -27.48 z"
           style="fill:#8da3a3;fill-opacity:1;fill-rule:evenodd;stroke:none"
           transform="matrix(1.3333333,0,0,-1.3333333,0,1131.5907)"
           clip-path="url(#clipPath258)"
           id="path259" />
      </g>
      <path
         id="path261"
         d="M 0,0 H 9.075 M 4.538,0 V 8.502 M 0,8.502 h 9.075"
         style="fill:none;stroke:#000000;stroke-width:1;stroke-linecap:butt;stroke-linejoin:miter;stroke-miterlimit:3;stroke-dasharray:none;stroke-opacity:1"
         transform="matrix(1.3333333,0,0,-1.3333333,428.40867,121.4372)" />
      <path
         id="path262"
         d="M 0,0 H 97.44"
         style="fill:none;stroke:#000000;stroke-width:1;stroke-linecap:butt;stroke-linejoin:miter;stroke-miterlimit:10;stroke-dasharray:none;stroke-opacity:1"
         transform="matrix(1.3333333,0,0,-1.3333333,396.9388,266.74827)" />
      <text
         id="text262"
         xml:space="preserve"
         transform="matrix(1.3333333,0,0,1.3333333,329.32547,65.592667)"><tspan
           id="tspan262"
           style="font-variant:normal;font-weight:700;font-stretch:normal;font-size:15px;font-family:Arial;writing-mode:lr-tb;fill:#000000;fill-opacity:1;fill-rule:nonzero;stroke:none"
           x="0"
           y="0">b</tspan></text>
      <g
         opacity="0.5"
         id="g264"
         clip-path="url(#clipPath265)">
        <path
           d="M 101.311,636.524 H 88.932 v 6.909 h 12.379 z"
           style="fill:#8da3a3;fill-opacity:1;fill-rule:nonzero;stroke:none"
           transform="matrix(1.3333333,0,0,-1.3333333,0,1131.5907)"
           clip-path="url(#clipPath263)"
           id="path264" />
      </g>
      <text
         id="text265"
         xml:space="preserve"
         transform="matrix(1.3333333,0,0,1.3333333,137.92973,282.89667)"><tspan
           id="tspan265"
           style="font-variant:normal;font-weight:normal;font-stretch:normal;font-size:10.1764px;font-family:Arial;writing-mode:lr-tb;fill:#000000;fill-opacity:1;fill-rule:nonzero;stroke:none"
           x="0"
           y="0">Motor Learning (n=10)</tspan></text>
      <g
         opacity="0.600006"
         id="g267"
         clip-path="url(#clipPath268)">
        <path
           d="M 101.311,623.484 H 88.932 v 6.909 h 12.379 z"
           style="fill:#0a60ff;fill-opacity:1;fill-rule:nonzero;stroke:none"
           transform="matrix(1.3333333,0,0,-1.3333333,0,1131.5907)"
           clip-path="url(#clipPath266)"
           id="path267" />
      </g>
      <text
         id="text268"
         xml:space="preserve"
         transform="matrix(1.3333333,0,0,1.3333333,138.91987,299.56587)"><tspan
           id="tspan268"
           style="font-variant:normal;font-weight:normal;font-stretch:normal;font-size:10.1764px;font-family:Arial;writing-mode:lr-tb;fill:#000000;fill-opacity:1;fill-rule:nonzero;stroke:none"
           x="0"
           y="0">Paired VNS (n=6)</tspan></text>
      <text
         id="text269"
         xml:space="preserve"
         transform="matrix(1.3333333,0,0,1.3333333,115.71227,269.36147)"><tspan
           id="tspan269"
           style="font-variant:normal;font-weight:normal;font-stretch:normal;font-size:10px;font-family:Arial;writing-mode:lr-tb;fill:#000000;fill-opacity:1;fill-rule:nonzero;stroke:none"
           x="0"
           y="0">0</tspan></text>
      <path
         id="path269"
         d="M 0,0 H -2.52"
         style="fill:none;stroke:#000000;stroke-width:1;stroke-linecap:butt;stroke-linejoin:miter;stroke-miterlimit:10;stroke-dasharray:none;stroke-opacity:1"
         transform="matrix(1.3333333,0,0,-1.3333333,129.16387,265.80427)" />
      <text
         id="text270"
         xml:space="preserve"
         transform="matrix(1.3333333,0,0,1.3333333,108.29693,221.37453)"><tspan
           id="tspan270"
           style="font-variant:normal;font-weight:normal;font-stretch:normal;font-size:10px;font-family:Arial;writing-mode:lr-tb;fill:#000000;fill-opacity:1;fill-rule:nonzero;stroke:none"
           x="0"
           y="0">20</tspan></text>
      <path
         id="path270"
         d="M 0,0 H -2.52"
         style="fill:none;stroke:#000000;stroke-width:1;stroke-linecap:butt;stroke-linejoin:miter;stroke-miterlimit:10;stroke-dasharray:none;stroke-opacity:1"
         transform="matrix(1.3333333,0,0,-1.3333333,129.16387,217.8172)" />
      <text
         id="text271"
         xml:space="preserve"
         transform="matrix(1.3333333,0,0,1.3333333,108.29813,173.3876)"><tspan
           id="tspan271"
           style="font-variant:normal;font-weight:normal;font-stretch:normal;font-size:10px;font-family:Arial;writing-mode:lr-tb;fill:#000000;fill-opacity:1;fill-rule:nonzero;stroke:none"
           x="0"
           y="0">40</tspan></text>
      <path
         id="path271"
         d="M 0,0 H -2.52"
         style="fill:none;stroke:#000000;stroke-width:1;stroke-linecap:butt;stroke-linejoin:miter;stroke-miterlimit:10;stroke-dasharray:none;stroke-opacity:1"
         transform="matrix(1.3333333,0,0,-1.3333333,129.16387,169.83027)" />
      <text
         id="text272"
         xml:space="preserve"
         transform="matrix(1.3333333,0,0,1.3333333,108.29813,125.40053)"><tspan
           id="tspan272"
           style="font-variant:normal;font-weight:normal;font-stretch:normal;font-size:10px;font-family:Arial;writing-mode:lr-tb;fill:#000000;fill-opacity:1;fill-rule:nonzero;stroke:none"
           x="0"
           y="0">60</tspan></text>
      <path
         id="path272"
         d="M 0,0 H -2.52"
         style="fill:none;stroke:#000000;stroke-width:1;stroke-linecap:butt;stroke-linejoin:miter;stroke-miterlimit:10;stroke-dasharray:none;stroke-opacity:1"
         transform="matrix(1.3333333,0,0,-1.3333333,129.16387,121.84333)" />
      <text
         id="text273"
         xml:space="preserve"
         transform="matrix(1.3333333,0,0,1.3333333,108.29693,77.4136)"><tspan
           id="tspan273"
           style="font-variant:normal;font-weight:normal;font-stretch:normal;font-size:10px;font-family:Arial;writing-mode:lr-tb;fill:#000000;fill-opacity:1;fill-rule:nonzero;stroke:none"
           x="0"
           y="0">80</tspan></text>
      <path
         id="path273"
         d="M 0,0 H -2.52"
         style="fill:none;stroke:#000000;stroke-width:1;stroke-linecap:butt;stroke-linejoin:miter;stroke-miterlimit:10;stroke-dasharray:none;stroke-opacity:1"
         transform="matrix(1.3333333,0,0,-1.3333333,129.16387,73.8564)" />
      <path
         id="path274"
         d="M 0,0 V 144.467"
         style="fill:none;stroke:#000000;stroke-width:1;stroke-linecap:butt;stroke-linejoin:miter;stroke-miterlimit:10;stroke-dasharray:none;stroke-opacity:1"
         transform="matrix(1.3333333,0,0,-1.3333333,129.16387,265.80427)" />
      <text
         id="text274"
         xml:space="preserve"
         transform="matrix(0,-1.3333333,1.3333333,0,77.221333,222.93053)"><tspan
           id="tspan274"
           style="font-variant:normal;font-weight:normal;font-stretch:normal;font-size:13px;font-family:Arial;writing-mode:lr-tb;fill:#000000;fill-opacity:1;fill-rule:nonzero;stroke:none"
           x="0"
           y="0">Sheath number</tspan><tspan
           id="tspan275"
           style="font-variant:normal;font-weight:normal;font-stretch:normal;font-size:13px;font-family:Arial;writing-mode:lr-tb;fill:#000000;fill-opacity:1;fill-rule:nonzero;stroke:none"
           x="10.842"
           y="15.6">per new OL</tspan></text>
      <text
         id="text275"
         xml:space="preserve"
         transform="matrix(1.3333333,0,0,1.3333333,179.1328,93.278133)"><tspan
           id="tspan276"
           style="font-variant:normal;font-weight:normal;font-stretch:normal;font-size:13px;font-family:Arial;writing-mode:lr-tb;fill:#000000;fill-opacity:1;fill-rule:nonzero;stroke:none"
           x="0"
           y="0">n.s.</tspan></text>
      <path
         id="path276"
         d="M 0,0 H 41.012"
         style="fill:none;stroke:#000000;stroke-width:1;stroke-linecap:square;stroke-linejoin:miter;stroke-miterlimit:10;stroke-dasharray:none;stroke-opacity:1"
         transform="matrix(1.3333333,0,0,-1.3333333,165.75587,95.711067)" />
      <path
         id="path277"
         d="M 0,0 V 1.561"
         style="fill:none;stroke:#000000;stroke-width:1;stroke-linecap:square;stroke-linejoin:miter;stroke-miterlimit:10;stroke-dasharray:none;stroke-opacity:1"
         transform="matrix(1.3333333,0,0,-1.3333333,165.75587,98.7896)" />
      <path
         id="path278"
         d="M 0,0 V 1.561"
         style="fill:none;stroke:#000000;stroke-width:1;stroke-linecap:square;stroke-linejoin:miter;stroke-miterlimit:10;stroke-dasharray:none;stroke-opacity:1"
         transform="matrix(1.3333333,0,0,-1.3333333,220.4384,98.79)" />
      <path
         id="path279"
         d="m 0,0 c 0,-0.734 -0.595,-1.329 -1.329,-1.329 -0.735,0 -1.33,0.595 -1.33,1.329 0,0.734 0.595,1.329 1.33,1.329 C -0.595,1.329 0,0.734 0,0"
         style="fill:#0a60ff;fill-opacity:1;fill-rule:nonzero;stroke:#0a60ff;stroke-width:1;stroke-linecap:butt;stroke-linejoin:miter;stroke-miterlimit:10;stroke-dasharray:none;stroke-opacity:1"
         transform="matrix(1.3333333,0,0,-1.3333333,222.29653,157.6088)" />
      <path
         id="path280"
         d="m 0,0 c 0,-0.734 -0.595,-1.329 -1.329,-1.329 -0.735,0 -1.33,0.595 -1.33,1.329 0,0.734 0.595,1.329 1.33,1.329 C -0.595,1.329 0,0.734 0,0"
         style="fill:#0a60ff;fill-opacity:1;fill-rule:nonzero;stroke:#0a60ff;stroke-width:1;stroke-linecap:butt;stroke-linejoin:miter;stroke-miterlimit:10;stroke-dasharray:none;stroke-opacity:1"
         transform="matrix(1.3333333,0,0,-1.3333333,222.29653,154.40947)" />
      <path
         id="path281"
         d="m 0,0 c 0,-0.734 -0.595,-1.329 -1.329,-1.329 -0.735,0 -1.33,0.595 -1.33,1.329 0,0.734 0.595,1.329 1.33,1.329 C -0.595,1.329 0,0.734 0,0"
         style="fill:#0a60ff;fill-opacity:1;fill-rule:nonzero;stroke:#0a60ff;stroke-width:1;stroke-linecap:butt;stroke-linejoin:miter;stroke-miterlimit:10;stroke-dasharray:none;stroke-opacity:1"
         transform="matrix(1.3333333,0,0,-1.3333333,222.29653,143.21213)" />
      <path
         id="path282"
         d="m 0,0 c 0,-0.734 -0.595,-1.329 -1.329,-1.329 -0.735,0 -1.33,0.595 -1.33,1.329 0,0.734 0.595,1.329 1.33,1.329 C -0.595,1.329 0,0.734 0,0"
         style="fill:#0a60ff;fill-opacity:1;fill-rule:nonzero;stroke:#0a60ff;stroke-width:1;stroke-linecap:butt;stroke-linejoin:miter;stroke-miterlimit:10;stroke-dasharray:none;stroke-opacity:1"
         transform="matrix(1.3333333,0,0,-1.3333333,222.29653,131.2148)" />
      <path
         id="path283"
         d="m 0,0 c 0,-0.734 -0.595,-1.329 -1.329,-1.329 -0.735,0 -1.33,0.595 -1.33,1.329 0,0.734 0.595,1.329 1.33,1.329 C -0.595,1.329 0,0.734 0,0"
         style="fill:#0a60ff;fill-opacity:1;fill-rule:nonzero;stroke:#0a60ff;stroke-width:1;stroke-linecap:butt;stroke-linejoin:miter;stroke-miterlimit:10;stroke-dasharray:none;stroke-opacity:1"
         transform="matrix(1.3333333,0,0,-1.3333333,222.29653,128.4984)" />
      <path
         id="path284"
         d="m 0,0 c 0,-0.734 -0.595,-1.329 -1.329,-1.329 -0.735,0 -1.33,0.595 -1.33,1.329 0,0.734 0.595,1.329 1.33,1.329 C -0.595,1.329 0,0.734 0,0"
         style="fill:#0a60ff;fill-opacity:1;fill-rule:nonzero;stroke:#0a60ff;stroke-width:1;stroke-linecap:butt;stroke-linejoin:miter;stroke-miterlimit:10;stroke-dasharray:none;stroke-opacity:1"
         transform="matrix(1.3333333,0,0,-1.3333333,222.29653,119.2176)" />
      <g
         opacity="0.5"
         id="g286"
         clip-path="url(#clipPath287)">
        <path
           d="m 151.713,649.34 h 27.36 v 94.97 h -27.36 z"
           style="fill:#0a60ff;fill-opacity:1;fill-rule:evenodd;stroke:none"
           transform="matrix(1.3333333,0,0,-1.3333333,0,1131.5907)"
           clip-path="url(#clipPath285)"
           id="path286" />
      </g>
      <path
         id="path288"
         d="M 0,0 H 8.979 M 4.489,0 V 9.252 M 0,9.252 h 8.979"
         style="fill:none;stroke:#000000;stroke-width:1;stroke-linecap:butt;stroke-linejoin:miter;stroke-miterlimit:3;stroke-dasharray:none;stroke-opacity:1"
         transform="matrix(1.3333333,0,0,-1.3333333,214.53813,145.6072)" />
      <path
         id="path289"
         d="m 0,0 c 0,-0.734 -0.595,-1.329 -1.329,-1.329 -0.735,0 -1.33,0.595 -1.33,1.329 0,0.734 0.595,1.329 1.33,1.329 C -0.595,1.329 0,0.734 0,0"
         style="fill:#8da3a3;fill-opacity:1;fill-rule:nonzero;stroke:#8da3a3;stroke-width:1;stroke-linecap:butt;stroke-linejoin:miter;stroke-miterlimit:10;stroke-dasharray:none;stroke-opacity:1"
         transform="matrix(1.3333333,0,0,-1.3333333,167.49653,157.6088)" />
      <path
         id="path290"
         d="m 0,0 c 0,-0.734 -0.595,-1.329 -1.329,-1.329 -0.735,0 -1.33,0.595 -1.33,1.329 0,0.734 0.595,1.329 1.33,1.329 C -0.595,1.329 0,0.734 0,0"
         style="fill:#8da3a3;fill-opacity:1;fill-rule:nonzero;stroke:#8da3a3;stroke-width:1;stroke-linecap:butt;stroke-linejoin:miter;stroke-miterlimit:10;stroke-dasharray:none;stroke-opacity:1"
         transform="matrix(1.3333333,0,0,-1.3333333,167.49653,154.8924)" />
      <path
         id="path291"
         d="m 0,0 c 0,-0.734 -0.595,-1.329 -1.329,-1.329 -0.735,0 -1.33,0.595 -1.33,1.329 0,0.734 0.595,1.329 1.33,1.329 C -0.595,1.329 0,0.734 0,0"
         style="fill:#8da3a3;fill-opacity:1;fill-rule:nonzero;stroke:#8da3a3;stroke-width:1;stroke-linecap:butt;stroke-linejoin:miter;stroke-miterlimit:10;stroke-dasharray:none;stroke-opacity:1"
         transform="matrix(1.3333333,0,0,-1.3333333,167.49653,152.17613)" />
      <path
         id="path292"
         d="m 0,0 c 0,-0.734 -0.595,-1.329 -1.329,-1.329 -0.735,0 -1.33,0.595 -1.33,1.329 0,0.734 0.595,1.329 1.33,1.329 C -0.595,1.329 0,0.734 0,0"
         style="fill:#8da3a3;fill-opacity:1;fill-rule:nonzero;stroke:#8da3a3;stroke-width:1;stroke-linecap:butt;stroke-linejoin:miter;stroke-miterlimit:10;stroke-dasharray:none;stroke-opacity:1"
         transform="matrix(1.3333333,0,0,-1.3333333,162.74573,152.17613)" />
      <path
         id="path293"
         d="m 0,0 c 0,-0.734 -0.595,-1.329 -1.329,-1.329 -0.735,0 -1.33,0.595 -1.33,1.329 0,0.734 0.595,1.329 1.33,1.329 C -0.595,1.329 0,0.734 0,0"
         style="fill:#8da3a3;fill-opacity:1;fill-rule:nonzero;stroke:#8da3a3;stroke-width:1;stroke-linecap:butt;stroke-linejoin:miter;stroke-miterlimit:10;stroke-dasharray:none;stroke-opacity:1"
         transform="matrix(1.3333333,0,0,-1.3333333,172.24733,152.17613)" />
      <path
         id="path294"
         d="m 0,0 c 0,-0.734 -0.595,-1.329 -1.329,-1.329 -0.735,0 -1.33,0.595 -1.33,1.329 0,0.734 0.595,1.329 1.33,1.329 C -0.595,1.329 0,0.734 0,0"
         style="fill:#8da3a3;fill-opacity:1;fill-rule:nonzero;stroke:#8da3a3;stroke-width:1;stroke-linecap:butt;stroke-linejoin:miter;stroke-miterlimit:10;stroke-dasharray:none;stroke-opacity:1"
         transform="matrix(1.3333333,0,0,-1.3333333,167.49653,149.45973)" />
      <path
         id="path295"
         d="m 0,0 c 0,-0.734 -0.595,-1.329 -1.329,-1.329 -0.735,0 -1.33,0.595 -1.33,1.329 0,0.734 0.595,1.329 1.33,1.329 C -0.595,1.329 0,0.734 0,0"
         style="fill:#8da3a3;fill-opacity:1;fill-rule:nonzero;stroke:#8da3a3;stroke-width:1;stroke-linecap:butt;stroke-linejoin:miter;stroke-miterlimit:10;stroke-dasharray:none;stroke-opacity:1"
         transform="matrix(1.3333333,0,0,-1.3333333,167.49653,145.6116)" />
      <path
         id="path296"
         d="m 0,0 c 0,-0.734 -0.595,-1.329 -1.329,-1.329 -0.735,0 -1.33,0.595 -1.33,1.329 0,0.734 0.595,1.329 1.33,1.329 C -0.595,1.329 0,0.734 0,0"
         style="fill:#8da3a3;fill-opacity:1;fill-rule:nonzero;stroke:#8da3a3;stroke-width:1;stroke-linecap:butt;stroke-linejoin:miter;stroke-miterlimit:10;stroke-dasharray:none;stroke-opacity:1"
         transform="matrix(1.3333333,0,0,-1.3333333,169.87187,140.0128)" />
      <path
         id="path297"
         d="m 0,0 c 0,-0.734 -0.595,-1.329 -1.329,-1.329 -0.735,0 -1.33,0.595 -1.33,1.329 0,0.734 0.595,1.329 1.33,1.329 C -0.595,1.329 0,0.734 0,0"
         style="fill:#8da3a3;fill-opacity:1;fill-rule:nonzero;stroke:#8da3a3;stroke-width:1;stroke-linecap:butt;stroke-linejoin:miter;stroke-miterlimit:10;stroke-dasharray:none;stroke-opacity:1"
         transform="matrix(1.3333333,0,0,-1.3333333,165.12107,140.0128)" />
      <path
         id="path298"
         d="m 0,0 c 0,-0.734 -0.595,-1.329 -1.329,-1.329 -0.735,0 -1.33,0.595 -1.33,1.329 0,0.734 0.595,1.329 1.33,1.329 C -0.595,1.329 0,0.734 0,0"
         style="fill:#8da3a3;fill-opacity:1;fill-rule:nonzero;stroke:#8da3a3;stroke-width:1;stroke-linecap:butt;stroke-linejoin:miter;stroke-miterlimit:10;stroke-dasharray:none;stroke-opacity:1"
         transform="matrix(1.3333333,0,0,-1.3333333,167.49653,126.416)" />
      <g
         opacity="0.5"
         id="g300"
         clip-path="url(#clipPath301)">
        <path
           d="m 110.553,649.221 h 27.48 v 88.685 h -27.48 z"
           style="fill:#8da3a3;fill-opacity:1;fill-rule:evenodd;stroke:none"
           transform="matrix(1.3333333,0,0,-1.3333333,0,1131.5907)"
           clip-path="url(#clipPath299)"
           id="path300" />
      </g>
      <path
         id="path302"
         d="M 0,0 H 8.979 M 4.489,0 V 4.608 M 0,4.608 h 8.979"
         style="fill:none;stroke:#000000;stroke-width:1;stroke-linecap:butt;stroke-linejoin:miter;stroke-miterlimit:3;stroke-dasharray:none;stroke-opacity:1"
         transform="matrix(1.3333333,0,0,-1.3333333,159.73813,150.98973)" />
      <path
         id="path303"
         d="M 0,0 H 97.44"
         style="fill:none;stroke:#000000;stroke-width:1;stroke-linecap:butt;stroke-linejoin:miter;stroke-miterlimit:10;stroke-dasharray:none;stroke-opacity:1"
         transform="matrix(1.3333333,0,0,-1.3333333,128.20387,265.80427)" />
      <text
         id="text303"
         xml:space="preserve"
         transform="matrix(1.3333333,0,0,1.3333333,60.589867,65.592667)"><tspan
           id="tspan303"
           style="font-variant:normal;font-weight:700;font-stretch:normal;font-size:15px;font-family:Arial;writing-mode:lr-tb;fill:#000000;fill-opacity:1;fill-rule:nonzero;stroke:none"
           x="0"
           y="0">a</tspan></text>
    </g>
    <text
       id="text304"
       xml:space="preserve"
       transform="matrix(1.3333333,0,0,1.3333333,44.5892,1111.3928)"><tspan
         id="tspan304"
         style="font-variant:normal;font-weight:normal;font-stretch:normal;font-size:12px;font-family:Arial;writing-mode:lr-tb;fill:#000000;fill-opacity:1;fill-rule:nonzero;stroke:none"
         x="0"
         y="0">Figure 4. Paired VNS enhances remyelination of previously myelinated regions.</tspan><tspan
         id="tspan305"
         style="font-variant:normal;font-weight:normal;font-stretch:normal;font-size:12px;font-family:Arial;writing-mode:lr-tb;fill:#000000;fill-opacity:1;fill-rule:nonzero;stroke:none"
         x="510.40799"
         dx="0 0 0 0 0 0 0 0 0 0 0 0 0 0 0 0 -601.79999"
         y="-814.90802">Huang et al 2025Figure 4 </tspan></text>
  </g>
</svg>
