<?xml version="1.0" encoding="UTF-8" standalone="no"?>
<!-- Created with Inkscape (http://www.inkscape.org/) -->

<svg
   version="1.1"
   id="svg2"
   width="257.70172"
   height="227.99939"
   viewBox="0 0 257.70172 227.99939"
   sodipodi:docname="panelF.svg"
   inkscape:version="1.4.3 (1:1.4.3+202512261034+0d15f75042)"
   xmlns:inkscape="http://www.inkscape.org/namespaces/inkscape"
   xmlns:sodipodi="http://sodipodi.sourceforge.net/DTD/sodipodi-0.dtd"
   xmlns="http://www.w3.org/2000/svg"
   xmlns:svg="http://www.w3.org/2000/svg">
  <defs
     id="defs6">
    <clipPath
       clipPathUnits="userSpaceOnUse"
       id="clipPath1016">
      <path
         d="M 454.479,253.109 H 604.98 V 388.026 H 454.479 Z"
         id="path1014" />
    </clipPath>
    <clipPath
       clipPathUnits="userSpaceOnUse"
       id="clipPath1134">
      <path
         d="M 0,848.693 H 668.693 V 0 H 0 Z"
         id="path1132" />
    </clipPath>
    <clipPath
       clipPathUnits="userSpaceOnUse"
       id="clipPath1166">
      <path
         d="M 0,848.693 H 668.693 V 0 H 0 Z"
         id="path1164" />
    </clipPath>
    <clipPath
       clipPathUnits="userSpaceOnUse"
       id="clipPath1204">
      <path
         d="M 0,848.693 H 668.693 V 0 H 0 Z"
         id="path1202" />
    </clipPath>
  </defs>
  <sodipodi:namedview
     id="namedview4"
     pagecolor="#ffffff"
     bordercolor="#000000"
     borderopacity="0.25"
     inkscape:showpageshadow="2"
     inkscape:pageopacity="0.0"
     inkscape:pagecheckerboard="0"
     inkscape:deskcolor="#d1d1d1"
     showgrid="false"
     inkscape:zoom="1.7675486"
     inkscape:cx="34.228196"
     inkscape:cy="76.376967"
     inkscape:window-width="1920"
     inkscape:window-height="1008"
     inkscape:window-x="0"
     inkscape:window-y="0"
     inkscape:window-maximized="1"
     inkscape:current-layer="g28980" />
  <g
     id="g8"
     inkscape:groupmode="layer"
     inkscape:label="2026-01-20 all figures CM"
     transform="matrix(1.3333333,0,0,-1.3333333,-559.86517,529.42584)">
    <g
       id="g28980">
      <g
         id="g1">
        <g
           id="g1010">
          <g
             id="g1012"
             clip-path="url(#clipPath1016)">
            <g
               id="g1018"
               transform="translate(459.1256,288.0463)">
              <path
                 d="m 0,0 c 0,-0.734 -0.595,-1.329 -1.329,-1.329 -0.735,0 -1.33,0.595 -1.33,1.329 0,0.734 0.595,1.329 1.33,1.329 C -0.595,1.329 0,0.734 0,0"
                 style="fill:#9b4bff;fill-opacity:1;fill-rule:nonzero;stroke:none"
                 id="path1020" />
            </g>
            <g
               id="g1022"
               transform="translate(459.1256,288.0463)">
              <path
                 d="m 0,0 c 0,-0.734 -0.595,-1.329 -1.329,-1.329 -0.735,0 -1.33,0.595 -1.33,1.329 0,0.734 0.595,1.329 1.33,1.329 C -0.595,1.329 0,0.734 0,0 Z"
                 style="fill:none;stroke:#9b4bff;stroke-width:1;stroke-linecap:butt;stroke-linejoin:miter;stroke-miterlimit:10;stroke-dasharray:none;stroke-opacity:1"
                 id="path1024" />
            </g>
            <g
               id="g1026"
               transform="translate(480.8922,279.9676)">
              <path
                 d="m 0,0 c 0,-0.734 -0.595,-1.329 -1.329,-1.329 -0.735,0 -1.33,0.595 -1.33,1.329 0,0.734 0.595,1.329 1.33,1.329 C -0.595,1.329 0,0.734 0,0"
                 style="fill:#9b4bff;fill-opacity:1;fill-rule:nonzero;stroke:none"
                 id="path1028" />
            </g>
            <g
               id="g1030"
               transform="translate(480.8922,279.9676)">
              <path
                 d="m 0,0 c 0,-0.734 -0.595,-1.329 -1.329,-1.329 -0.735,0 -1.33,0.595 -1.33,1.329 0,0.734 0.595,1.329 1.33,1.329 C -0.595,1.329 0,0.734 0,0 Z"
                 style="fill:none;stroke:#9b4bff;stroke-width:1;stroke-linecap:butt;stroke-linejoin:miter;stroke-miterlimit:10;stroke-dasharray:none;stroke-opacity:1"
                 id="path1032" />
            </g>
            <g
               id="g1034"
               transform="translate(516.537,321.751)">
              <path
                 d="m 0,0 c 0,-0.734 -0.595,-1.329 -1.329,-1.329 -0.735,0 -1.33,0.595 -1.33,1.329 0,0.734 0.595,1.329 1.33,1.329 C -0.595,1.329 0,0.734 0,0"
                 style="fill:#9b4bff;fill-opacity:1;fill-rule:nonzero;stroke:none"
                 id="path1036" />
            </g>
            <g
               id="g1038"
               transform="translate(516.537,321.751)">
              <path
                 d="m 0,0 c 0,-0.734 -0.595,-1.329 -1.329,-1.329 -0.735,0 -1.33,0.595 -1.33,1.329 0,0.734 0.595,1.329 1.33,1.329 C -0.595,1.329 0,0.734 0,0 Z"
                 style="fill:none;stroke:#9b4bff;stroke-width:1;stroke-linecap:butt;stroke-linejoin:miter;stroke-miterlimit:10;stroke-dasharray:none;stroke-opacity:1"
                 id="path1040" />
            </g>
            <g
               id="g1042"
               transform="translate(521.3159,301.0548)">
              <path
                 d="m 0,0 c 0,-0.734 -0.595,-1.329 -1.329,-1.329 -0.735,0 -1.33,0.595 -1.33,1.329 0,0.734 0.595,1.329 1.33,1.329 C -0.595,1.329 0,0.734 0,0"
                 style="fill:#5dbd84;fill-opacity:1;fill-rule:nonzero;stroke:none"
                 id="path1044" />
            </g>
            <g
               id="g1046"
               transform="translate(521.3159,301.0548)">
              <path
                 d="m 0,0 c 0,-0.734 -0.595,-1.329 -1.329,-1.329 -0.735,0 -1.33,0.595 -1.33,1.329 0,0.734 0.595,1.329 1.33,1.329 C -0.595,1.329 0,0.734 0,0 Z"
                 style="fill:none;stroke:#5dbd84;stroke-width:1;stroke-linecap:butt;stroke-linejoin:miter;stroke-miterlimit:10;stroke-dasharray:none;stroke-opacity:1"
                 id="path1048" />
            </g>
            <g
               id="g1050"
               transform="translate(527.3952,311.7247)">
              <path
                 d="m 0,0 c 0,-0.734 -0.595,-1.329 -1.329,-1.329 -0.735,0 -1.33,0.595 -1.33,1.329 0,0.734 0.595,1.329 1.33,1.329 C -0.595,1.329 0,0.734 0,0"
                 style="fill:#5dbd84;fill-opacity:1;fill-rule:nonzero;stroke:none"
                 id="path1052" />
            </g>
            <g
               id="g1054"
               transform="translate(527.3952,311.7247)">
              <path
                 d="m 0,0 c 0,-0.734 -0.595,-1.329 -1.329,-1.329 -0.735,0 -1.33,0.595 -1.33,1.329 0,0.734 0.595,1.329 1.33,1.329 C -0.595,1.329 0,0.734 0,0 Z"
                 style="fill:none;stroke:#5dbd84;stroke-width:1;stroke-linecap:butt;stroke-linejoin:miter;stroke-miterlimit:10;stroke-dasharray:none;stroke-opacity:1"
                 id="path1056" />
            </g>
            <g
               id="g1058"
               transform="translate(527.9236,302.6808)">
              <path
                 d="m 0,0 c 0,-0.734 -0.595,-1.329 -1.329,-1.329 -0.735,0 -1.33,0.595 -1.33,1.329 0,0.734 0.595,1.329 1.33,1.329 C -0.595,1.329 0,0.734 0,0"
                 style="fill:#5dbd84;fill-opacity:1;fill-rule:nonzero;stroke:none"
                 id="path1060" />
            </g>
            <g
               id="g1062"
               transform="translate(527.9236,302.6808)">
              <path
                 d="m 0,0 c 0,-0.734 -0.595,-1.329 -1.329,-1.329 -0.735,0 -1.33,0.595 -1.33,1.329 0,0.734 0.595,1.329 1.33,1.329 C -0.595,1.329 0,0.734 0,0 Z"
                 style="fill:none;stroke:#5dbd84;stroke-width:1;stroke-linecap:butt;stroke-linejoin:miter;stroke-miterlimit:10;stroke-dasharray:none;stroke-opacity:1"
                 id="path1064" />
            </g>
            <g
               id="g1066"
               transform="translate(543.107,296.6649)">
              <path
                 d="m 0,0 c 0,-0.734 -0.595,-1.329 -1.329,-1.329 -0.735,0 -1.33,0.595 -1.33,1.329 0,0.734 0.595,1.329 1.33,1.329 C -0.595,1.329 0,0.734 0,0"
                 style="fill:#5dbd84;fill-opacity:1;fill-rule:nonzero;stroke:none"
                 id="path1068" />
            </g>
            <g
               id="g1070"
               transform="translate(543.107,296.6649)">
              <path
                 d="m 0,0 c 0,-0.734 -0.595,-1.329 -1.329,-1.329 -0.735,0 -1.33,0.595 -1.33,1.329 0,0.734 0.595,1.329 1.33,1.329 C -0.595,1.329 0,0.734 0,0 Z"
                 style="fill:none;stroke:#5dbd84;stroke-width:1;stroke-linecap:butt;stroke-linejoin:miter;stroke-miterlimit:10;stroke-dasharray:none;stroke-opacity:1"
                 id="path1072" />
            </g>
            <g
               id="g1074"
               transform="translate(544.198,325.9213)">
              <path
                 d="m 0,0 c 0,-0.734 -0.595,-1.329 -1.329,-1.329 -0.735,0 -1.33,0.595 -1.33,1.329 0,0.734 0.595,1.329 1.33,1.329 C -0.595,1.329 0,0.734 0,0"
                 style="fill:#9b4bff;fill-opacity:1;fill-rule:nonzero;stroke:none"
                 id="path1076" />
            </g>
            <g
               id="g1078"
               transform="translate(544.198,325.9213)">
              <path
                 d="m 0,0 c 0,-0.734 -0.595,-1.329 -1.329,-1.329 -0.735,0 -1.33,0.595 -1.33,1.329 0,0.734 0.595,1.329 1.33,1.329 C -0.595,1.329 0,0.734 0,0 Z"
                 style="fill:none;stroke:#9b4bff;stroke-width:1;stroke-linecap:butt;stroke-linejoin:miter;stroke-miterlimit:10;stroke-dasharray:none;stroke-opacity:1"
                 id="path1080" />
            </g>
            <g
               id="g1082"
               transform="translate(562.686,305.9027)">
              <path
                 d="m 0,0 c 0,-0.734 -0.595,-1.329 -1.329,-1.329 -0.735,0 -1.33,0.595 -1.33,1.329 0,0.734 0.595,1.329 1.33,1.329 C -0.595,1.329 0,0.734 0,0"
                 style="fill:#5dbd84;fill-opacity:1;fill-rule:nonzero;stroke:none"
                 id="path1084" />
            </g>
            <g
               id="g1086"
               transform="translate(562.686,305.9027)">
              <path
                 d="m 0,0 c 0,-0.734 -0.595,-1.329 -1.329,-1.329 -0.735,0 -1.33,0.595 -1.33,1.329 0,0.734 0.595,1.329 1.33,1.329 C -0.595,1.329 0,0.734 0,0 Z"
                 style="fill:none;stroke:#5dbd84;stroke-width:1;stroke-linecap:butt;stroke-linejoin:miter;stroke-miterlimit:10;stroke-dasharray:none;stroke-opacity:1"
                 id="path1088" />
            </g>
            <g
               id="g1090"
               transform="translate(565.7705,337.6024)">
              <path
                 d="m 0,0 c 0,-0.734 -0.595,-1.329 -1.329,-1.329 -0.735,0 -1.33,0.595 -1.33,1.329 0,0.734 0.595,1.329 1.33,1.329 C -0.595,1.329 0,0.734 0,0"
                 style="fill:#9b4bff;fill-opacity:1;fill-rule:nonzero;stroke:none"
                 id="path1092" />
            </g>
            <g
               id="g1094"
               transform="translate(565.7705,337.6024)">
              <path
                 d="m 0,0 c 0,-0.734 -0.595,-1.329 -1.329,-1.329 -0.735,0 -1.33,0.595 -1.33,1.329 0,0.734 0.595,1.329 1.33,1.329 C -0.595,1.329 0,0.734 0,0 Z"
                 style="fill:none;stroke:#9b4bff;stroke-width:1;stroke-linecap:butt;stroke-linejoin:miter;stroke-miterlimit:10;stroke-dasharray:none;stroke-opacity:1"
                 id="path1096" />
            </g>
            <g
               id="g1098"
               transform="translate(603.8858,309.1615)">
              <path
                 d="m 0,0 c 0,-0.734 -0.595,-1.329 -1.329,-1.329 -0.735,0 -1.33,0.595 -1.33,1.329 0,0.734 0.595,1.329 1.33,1.329 C -0.595,1.329 0,0.734 0,0"
                 style="fill:#5dbd84;fill-opacity:1;fill-rule:nonzero;stroke:none"
                 id="path1100" />
            </g>
            <g
               id="g1102"
               transform="translate(603.8858,309.1615)">
              <path
                 d="m 0,0 c 0,-0.734 -0.595,-1.329 -1.329,-1.329 -0.735,0 -1.33,0.595 -1.33,1.329 0,0.734 0.595,1.329 1.33,1.329 C -0.595,1.329 0,0.734 0,0 Z"
                 style="fill:none;stroke:#5dbd84;stroke-width:1;stroke-linecap:butt;stroke-linejoin:miter;stroke-miterlimit:10;stroke-dasharray:none;stroke-opacity:1"
                 id="path1104" />
            </g>
            <g
               id="g1106"
               transform="translate(457.7962,299.1261)">
              <path
                 d="M 0,0 144.76,8.832"
                 style="fill:#5dbd84;fill-opacity:1;fill-rule:nonzero;stroke:#5dbd84;stroke-width:1;stroke-linecap:butt;stroke-linejoin:miter;stroke-miterlimit:10;stroke-dasharray:none;stroke-opacity:1"
                 id="path1108" />
            </g>
            <g
               id="g1110"
               transform="translate(457.7962,281.5345)">
              <path
                 d="M 0,0 144.76,77.814"
                 style="fill:#9b4bff;fill-opacity:1;fill-rule:nonzero;stroke:#9b4bff;stroke-width:1;stroke-linecap:butt;stroke-linejoin:miter;stroke-miterlimit:10;stroke-dasharray:none;stroke-opacity:1"
                 id="path1112" />
            </g>
          </g>
        </g>
        <text
           xml:space="preserve"
           transform="matrix(1,0,0,-1,471.9824,228.8057)"
           style="font-variant:normal;font-weight:normal;font-stretch:normal;font-size:13px;font-family:Arial;-inkscape-font-specification:ArialMT;writing-mode:lr-tb;fill:#000000;fill-opacity:1;fill-rule:nonzero;stroke:none"
           id="text1116"><tspan
             x="0 9.3859997 16.614 27.443001 34.671001 37.556999 41.171001 44.785 47.671001 54.898998 61.398998 65.013 68.626999 78.740997 85.969002 92.469002 96.083 100.412 111.969"
             y="0"
             sodipodi:role="line"
             id="tspan1114">Cumul. lost OLs (%)</tspan></text>
        <text
           xml:space="preserve"
           transform="matrix(0,1,1,0,429.3696,262.4277)"
           style="font-variant:normal;font-weight:normal;font-stretch:normal;font-size:13px;font-family:Arial;-inkscape-font-specification:ArialMT;writing-mode:lr-tb;fill:#000000;fill-opacity:1;fill-rule:nonzero;stroke:none"
           id="text1120"><tspan
             x="0 9.3859997 16.614 27.443001 34.671001 37.556999 41.171001 44.785 52.013 59.241001 68.626999 72.240997 82.355003 89.583 96.083 99.696999 104.026 115.583"
             y="0"
             sodipodi:role="line"
             id="tspan1118">Cumul. new OLs (%)</tspan></text>
        <text
           xml:space="preserve"
           transform="matrix(1,0,0,-1,459.0859,389.7891)"
           style="font-variant:normal;font-weight:normal;font-stretch:normal;font-size:10px;font-family:Arial;-inkscape-font-specification:ArialMT;writing-mode:lr-tb;fill:#9b4bff;fill-opacity:1;fill-rule:nonzero;stroke:none"
           id="text1126"><tspan
             x="0 7.2199998 12.78 17.780001 20.559999 22.780001 31.110001 36.669998 38.889999 44.450001 47.23 52.790001 58.349998 61.130001 64.459999 70.019997 75.860001 81.419998"
             y="0"
             sodipodi:role="line"
             id="tspan1122">Unstimulated (n=6)</tspan><tspan
             sodipodi:role="line"
             id="tspan1124"
             y="11.36"
             x="0 6.6700001 13.89 20.559999 23.34 26.67 32.23 38.07 43.630001">VNS (n=5)</tspan></text>
        <g
           id="g1128">
          <g
             id="g1130"
             clip-path="url(#clipPath1134)">
            <g
               id="g1136"
               transform="translate(605.3152,252.7438)">
              <path
                 d="M 0,0 H -150.55"
                 style="fill:none;stroke:#000000;stroke-width:1;stroke-linecap:square;stroke-linejoin:miter;stroke-miterlimit:10;stroke-dasharray:none;stroke-opacity:1"
                 id="path1138" />
            </g>
            <g
               id="g1140"
               transform="translate(454.7654,252.7438)">
              <path
                 d="M 0,0 V -1.117"
                 style="fill:none;stroke:#000000;stroke-width:1;stroke-linecap:square;stroke-linejoin:miter;stroke-miterlimit:10;stroke-dasharray:none;stroke-opacity:1"
                 id="path1142" />
            </g>
            <g
               id="g1144"
               transform="translate(504.9486,252.7438)">
              <path
                 d="M 0,0 V -1.117"
                 style="fill:none;stroke:#000000;stroke-width:1;stroke-linecap:square;stroke-linejoin:miter;stroke-miterlimit:10;stroke-dasharray:none;stroke-opacity:1"
                 id="path1146" />
            </g>
            <g
               id="g1148"
               transform="translate(555.132,252.7438)">
              <path
                 d="M 0,0 V -1.117"
                 style="fill:none;stroke:#000000;stroke-width:1;stroke-linecap:square;stroke-linejoin:miter;stroke-miterlimit:10;stroke-dasharray:none;stroke-opacity:1"
                 id="path1150" />
            </g>
            <g
               id="g1152"
               transform="translate(605.3152,252.7438)">
              <path
                 d="M 0,0 V -1.117"
                 style="fill:none;stroke:#000000;stroke-width:1;stroke-linecap:square;stroke-linejoin:miter;stroke-miterlimit:10;stroke-dasharray:none;stroke-opacity:1"
                 id="path1154" />
            </g>
          </g>
        </g>
        <text
           xml:space="preserve"
           transform="matrix(1,0,0,-1,596.9722,242.3887)"
           style="font-variant:normal;font-weight:normal;font-stretch:normal;font-size:10px;font-family:Arial;-inkscape-font-specification:ArialMT;writing-mode:lr-tb;fill:#000000;fill-opacity:1;fill-rule:nonzero;stroke:none"
           id="text1158"><tspan
             x="0 5.5599999 11.12 -147.77 -142.21001 -47.400002 -41.84 -97.580002 -92.019997"
             y="0"
             sodipodi:role="line"
             id="tspan1156">100408060</tspan></text>
        <g
           id="g1160">
          <g
             id="g1162"
             clip-path="url(#clipPath1166)">
            <g
               id="g1168"
               transform="translate(452.4944,252.7438)">
              <path
                 d="M 0,0 H 2.024"
                 style="fill:none;stroke:#000000;stroke-width:1;stroke-linecap:butt;stroke-linejoin:miter;stroke-miterlimit:10;stroke-dasharray:none;stroke-opacity:1"
                 id="path1170" />
            </g>
            <g
               id="g1172"
               transform="translate(452.4944,297.7154)">
              <path
                 d="M 0,0 H 2.268"
                 style="fill:none;stroke:#000000;stroke-width:1;stroke-linecap:butt;stroke-linejoin:miter;stroke-miterlimit:10;stroke-dasharray:none;stroke-opacity:1"
                 id="path1174" />
            </g>
            <g
               id="g1176"
               transform="translate(452.4944,342.6869)">
              <path
                 d="M 0,0 H 2.268"
                 style="fill:none;stroke:#000000;stroke-width:1;stroke-linecap:butt;stroke-linejoin:miter;stroke-miterlimit:10;stroke-dasharray:none;stroke-opacity:1"
                 id="path1178" />
            </g>
            <g
               id="g1180"
               transform="translate(452.4944,387.6585)">
              <path
                 d="M 0,0 H 2.268"
                 style="fill:none;stroke:#000000;stroke-width:1;stroke-linecap:butt;stroke-linejoin:miter;stroke-miterlimit:10;stroke-dasharray:none;stroke-opacity:1"
                 id="path1182" />
            </g>
            <g
               id="g1184"
               transform="translate(454.7654,252.7438)">
              <path
                 d="M 0,0 V 134.915"
                 style="fill:none;stroke:#000000;stroke-width:1;stroke-linecap:square;stroke-linejoin:miter;stroke-miterlimit:10;stroke-dasharray:none;stroke-opacity:1"
                 id="path1186" />
            </g>
          </g>
        </g>
        <text
           xml:space="preserve"
           transform="matrix(1,0,0,-1,441.1665,250.0762)"
           style="font-variant:normal;font-weight:normal;font-stretch:normal;font-size:10px;font-family:Arial;-inkscape-font-specification:ArialMT;writing-mode:lr-tb;fill:#000000;fill-opacity:1;fill-rule:nonzero;stroke:none"
           id="text1196"><tspan
             x="0 5.5599999"
             y="0"
             sodipodi:role="line"
             id="tspan1188">20</tspan><tspan
             x="0 5.5599999"
             y="-44.970001"
             sodipodi:role="line"
             id="tspan1190">40</tspan><tspan
             x="0 5.5599999"
             y="-89.940002"
             sodipodi:role="line"
             id="tspan1192">60</tspan><tspan
             x="0 5.5599999"
             y="-134.91"
             sodipodi:role="line"
             id="tspan1194">80</tspan></text>
        <g
           id="g1198">
          <g
             id="g1200"
             clip-path="url(#clipPath1204)">
            <g
               id="g1206"
               transform="translate(550.6669,394.1049)">
              <path
                 d="M 0,0 V -14.626"
                 style="fill:none;stroke:#000000;stroke-width:1;stroke-linecap:square;stroke-linejoin:miter;stroke-miterlimit:10;stroke-dasharray:none;stroke-opacity:1"
                 id="path1208" />
            </g>
            <g
               id="g1210"
               transform="translate(548.358,394.1049)">
              <path
                 d="M 0,0 H 1.561"
                 style="fill:none;stroke:#000000;stroke-width:1;stroke-linecap:square;stroke-linejoin:miter;stroke-miterlimit:10;stroke-dasharray:none;stroke-opacity:1"
                 id="path1212" />
            </g>
            <g
               id="g1214"
               transform="translate(548.3576,379.4794)">
              <path
                 d="M 0,0 H 1.561"
                 style="fill:none;stroke:#000000;stroke-width:1;stroke-linecap:square;stroke-linejoin:miter;stroke-miterlimit:10;stroke-dasharray:none;stroke-opacity:1"
                 id="path1216" />
            </g>
          </g>
        </g>
        <text
           xml:space="preserve"
           transform="matrix(0,-1,-1,0,544.835,390.6836)"
           style="font-variant:normal;font-weight:normal;font-stretch:normal;font-size:20px;font-family:Arial;-inkscape-font-specification:ArialMT;writing-mode:lr-tb;fill:#000000;fill-opacity:1;fill-rule:nonzero;stroke:none"
           id="text1220"><tspan
             x="0"
             y="0"
             id="tspan1218">*</tspan></text>
      </g>
    </g>
    <text
       xml:space="preserve"
       transform="matrix(1,0,0,-1,33.4419,15.1484)"
       style="font-variant:normal;font-weight:normal;font-stretch:normal;font-size:12px;font-family:Arial;-inkscape-font-specification:ArialMT;writing-mode:lr-tb;fill:#000000;fill-opacity:1;fill-rule:nonzero;stroke:none"
       id="text4624"><tspan
         x="0 7.3319998 9.9960003 16.667999 23.34 27.336 34.007999 37.344002 44.015999 47.352001 50.688 58.692001 67.356003 75.360001 78.695999 85.367996 92.040001 98.711998 105.384 112.056 118.056 124.728 130.728 134.064 140.73599 143.39999 146.064 152.73599 159.408 166.08 172.752 179.424 186.09599 190.092 196.76401 203.436 210.108 216.78 223.452 229.452 232.116 238.116 241.452 248.12399 251.46001 254.79601 261.46799 265.46399 268.79999 274.79999 281.47198 288.14401 292.14001 294.80399 300.80399 307.47601 314.19241 320.86441 324.86041 334.85641 341.52841 348.20041 350.86441 357.53641 360.87241 367.5444 374.2164 377.5524 384.2244 390.89639 400.8924 406.8924 413.56439 416.22839 418.8924 425.56439 432.23639 435.57239 438.23639 444.90839 451.58041 454.91641"
         y="0"
         sodipodi:role="line"
         id="tspan4620">Figure 1. VNS enhances oligodendrogenesis after cuprizone-mediated demyelination. </tspan><tspan
         x="510.40799 519.07202 525.74402 532.41602 539.08801 545.76001 549.09601 555.76801 559.104 562.44 569.112 571.776 575.112 581.784 588.45599 595.12799 0 7.3319998 9.9960003 16.667999 23.34 27.336 34.007999 37.344002 44.015999"
         y="-814.90802"
         sodipodi:role="line"
         id="tspan4622">Huang et al 2025Figure 1 </tspan></text>
  </g>
</svg>
