<?xml version="1.0" encoding="UTF-8" standalone="no"?>
<!-- Created with Inkscape (http://www.inkscape.org/) -->

<svg
   version="1.1"
   id="svg1"
   width="394.53903"
   height="234.07462"
   viewBox="0 0 394.53903 234.07462"
   sodipodi:docname="panelEF.svg"
   inkscape:version="1.4.3 (1:1.4.3+202512261034+0d15f75042)"
   xmlns:inkscape="http://www.inkscape.org/namespaces/inkscape"
   xmlns:sodipodi="http://sodipodi.sourceforge.net/DTD/sodipodi-0.dtd"
   xmlns="http://www.w3.org/2000/svg"
   xmlns:svg="http://www.w3.org/2000/svg">
  <defs
     id="defs1">
    <clipPath
       clipPathUnits="userSpaceOnUse"
       id="clipPath81">
      <path
         d="m 516.19701,441.87704 h 11.475 v -6.405 h -11.475 z"
         id="path81" />
    </clipPath>
    <clipPath
       clipPathUnits="userSpaceOnUse"
       id="clipPath84">
      <path
         d="m 516.19701,429.78804 h 11.475 v -6.404 h -11.475 z"
         id="path84" />
    </clipPath>
    <clipPath
       clipPathUnits="userSpaceOnUse"
       id="clipPath96">
      <path
         d="m 574.39601,504.98204 h 25.363 v -57.306 h -25.363 z"
         id="path96" />
    </clipPath>
    <clipPath
       clipPathUnits="userSpaceOnUse"
       id="clipPath106">
      <path
         d="m 536.24001,484.52904 h 25.474 v -36.886 h -25.474 z"
         id="path106" />
    </clipPath>
    <clipPath
       clipPathUnits="userSpaceOnUse"
       id="clipPath121">
      <path
         d="m 372.48701,441.87704 h 11.476 v -6.404 h -11.476 z"
         id="path121" />
    </clipPath>
    <clipPath
       clipPathUnits="userSpaceOnUse"
       id="clipPath124">
      <path
         d="m 372.48701,429.78904 h 11.476 v -6.405 h -11.476 z"
         id="path124" />
    </clipPath>
    <clipPath
       clipPathUnits="userSpaceOnUse"
       id="clipPath133">
      <path
         d="m 430.68601,499.97804 h 25.363 v -52.301 h -25.363 z"
         id="path133" />
    </clipPath>
    <clipPath
       clipPathUnits="userSpaceOnUse"
       id="clipPath143">
      <path
         d="m 392.53001,485.25704 h 25.475 v -37.613 h -25.475 z"
         id="path143" />
    </clipPath>
  </defs>
  <sodipodi:namedview
     id="namedview1"
     pagecolor="#ffffff"
     bordercolor="#000000"
     borderopacity="0.25"
     inkscape:showpageshadow="2"
     inkscape:pageopacity="0.0"
     inkscape:pagecheckerboard="0"
     inkscape:deskcolor="#d1d1d1"
     inkscape:zoom="2.5556481"
     inkscape:cx="293.27199"
     inkscape:cy="142.82091"
     inkscape:window-width="1920"
     inkscape:window-height="1048"
     inkscape:window-x="1920"
     inkscape:window-y="0"
     inkscape:window-maximized="1"
     inkscape:current-layer="layer-MC11">
    <inkscape:page
       x="0"
       y="0"
       width="394.53903"
       height="234.07462"
       id="page2"
       margin="0"
       bleed="0" />
  </sodipodi:namedview>
  <g
     id="layer-MC11"
     inkscape:groupmode="layer"
     inkscape:label="Fig 4"
     transform="translate(-443.48563,-335.14882)">
    <path
       d="m 527.672,435.472 h -11.476 v 6.404 h 11.476 z"
       style="opacity:0.5;fill:#8da3a3;fill-opacity:1;fill-rule:nonzero;stroke:none"
       transform="matrix(1.3333333,0,0,-1.3333333,0,1131.5907)"
       clip-path="url(#clipPath81)"
       id="path82" />
    <text
       id="text83"
       xml:space="preserve"
       x="706.20825"
       y="550.96442"
       style="font-size:16px;stroke-width:1.33333"><tspan
         id="tspan83"
         style="font-variant:normal;font-weight:normal;font-stretch:normal;font-size:13.3333px;font-family:Arial;writing-mode:lr-tb;fill:#000000;fill-opacity:1;fill-rule:nonzero;stroke:none;stroke-width:1.33333"
         x="706.20825"
         y="550.96442">Motor Learning (n=10)</tspan></text>
    <path
       d="m 527.672,423.384 h -11.476 v 6.404 h 11.476 z"
       style="opacity:0.600006;fill:#0a60ff;fill-opacity:1;fill-rule:nonzero;stroke:none"
       transform="matrix(1.3333333,0,0,-1.3333333,0,1131.5907)"
       clip-path="url(#clipPath84)"
       id="path85" />
    <text
       id="text86"
       xml:space="preserve"
       x="707.12628"
       y="566.41748"
       style="font-size:16px;stroke-width:1.33333"><tspan
         id="tspan86"
         style="font-variant:normal;font-weight:normal;font-stretch:normal;font-size:13.3333px;font-family:Arial;writing-mode:lr-tb;fill:#000000;fill-opacity:1;fill-rule:nonzero;stroke:none;stroke-width:1.33333"
         x="707.12628"
         y="566.41748">Paired VNS (n=6)</tspan></text>
    <text
       id="text89"
       xml:space="preserve"
       x="685.61719"
       y="537.56854"
       style="font-size:16px;stroke-width:1.33333"><tspan
         id="tspan89"
         style="font-variant:normal;font-weight:normal;font-stretch:normal;font-size:13.3333px;font-family:Arial;writing-mode:lr-tb;fill:#000000;fill-opacity:1;fill-rule:nonzero;stroke:none;stroke-width:1.33333"
         x="685.61719"
         y="537.56854">0</tspan></text>
    <text
       id="text90"
       xml:space="preserve"
       x="678.74347"
       y="493.08279"
       style="font-size:16px;stroke-width:1.33333"><tspan
         id="tspan90"
         style="font-variant:normal;font-weight:normal;font-stretch:normal;font-size:13.3333px;font-family:Arial;writing-mode:lr-tb;fill:#000000;fill-opacity:1;fill-rule:nonzero;stroke:none;stroke-width:1.33333"
         x="678.74347"
         y="493.08279">25</tspan></text>
    <text
       id="text91"
       xml:space="preserve"
       x="678.74347"
       y="448.59854"
       style="font-size:16px;stroke-width:1.33333"><tspan
         id="tspan91"
         style="font-variant:normal;font-weight:normal;font-stretch:normal;font-size:13.3333px;font-family:Arial;writing-mode:lr-tb;fill:#000000;fill-opacity:1;fill-rule:nonzero;stroke:none;stroke-width:1.33333"
         x="678.74347"
         y="448.59854">50</tspan></text>
    <text
       id="text92"
       xml:space="preserve"
       x="678.74347"
       y="404.11414"
       style="font-size:16px;stroke-width:1.33333"><tspan
         id="tspan92"
         style="font-variant:normal;font-weight:normal;font-stretch:normal;font-size:13.3333px;font-family:Arial;writing-mode:lr-tb;fill:#000000;fill-opacity:1;fill-rule:nonzero;stroke:none;stroke-width:1.33333"
         x="678.74347"
         y="404.11414">75</tspan></text>
    <text
       id="text93"
       xml:space="preserve"
       x="671.86853"
       y="359.62839"
       style="font-size:16px;stroke-width:1.33333"><tspan
         id="tspan93"
         style="font-variant:normal;font-weight:normal;font-stretch:normal;font-size:13.3333px;font-family:Arial;writing-mode:lr-tb;fill:#000000;fill-opacity:1;fill-rule:nonzero;stroke:none;stroke-width:1.33333"
         x="671.86853"
         y="359.62839">100</tspan></text>
    <text
       id="text95"
       xml:space="preserve"
       x="634.51038"
       y="348.64667"
       style="font-size:16px;stroke-width:1.33333"><tspan
         id="tspan95"
         style="font-variant:normal;font-weight:700;font-stretch:normal;font-size:18.5403px;font-family:Arial;writing-mode:lr-tb;fill:#000000;fill-opacity:1;fill-rule:nonzero;stroke:none;stroke-width:1.33333"
         x="634.51038"
         y="348.64667">f</tspan></text>
    <text
       id="text96"
       xml:space="preserve"
       transform="rotate(-90)"
       x="-542.60626"
       y="669.21613"
       style="font-size:16px;stroke-width:1.33333"><tspan
         id="tspan96"
         style="font-variant:normal;font-weight:normal;font-stretch:normal;font-size:17.3333px;font-family:Arial;writing-mode:lr-tb;fill:#000000;fill-opacity:1;fill-rule:nonzero;stroke:none;stroke-width:1.33333"
         x="-542.60626"
         y="669.21613">Replaced sheath number</tspan></text>
    <g
       id="g1">
      <text
         id="text87"
         xml:space="preserve"
         x="752.15491"
         y="375.29773"
         style="font-size:16px;stroke-width:1.33333"><tspan
           id="tspan87"
           style="font-variant:normal;font-weight:normal;font-stretch:normal;font-size:26.6667px;font-family:Arial;writing-mode:lr-tb;fill:#000000;fill-opacity:1;fill-rule:nonzero;stroke:none;stroke-width:1.33333"
           x="752.15491"
           y="375.29773">*</tspan></text>
      <path
         id="path87"
         d="m 731.99867,367.6544 h 50.692"
         style="fill:none;stroke:#000000;stroke-width:1.33333;stroke-linecap:square;stroke-linejoin:miter;stroke-miterlimit:10;stroke-dasharray:none;stroke-opacity:1" />
      <path
         id="path88"
         d="m 731.99867,370.50827 v -1.92933"
         style="fill:none;stroke:#000000;stroke-width:1.33333;stroke-linecap:square;stroke-linejoin:miter;stroke-miterlimit:10;stroke-dasharray:none;stroke-opacity:1" />
      <path
         id="path89"
         d="m 782.69027,370.50867 v -1.92933"
         style="fill:none;stroke:#000000;stroke-width:1.33333;stroke-linecap:square;stroke-linejoin:miter;stroke-miterlimit:10;stroke-dasharray:none;stroke-opacity:1" />
      <path
         id="path90"
         d="M 698.07747,534.26947 H 694.9628"
         style="fill:none;stroke:#000000;stroke-width:1.33333;stroke-linecap:butt;stroke-linejoin:miter;stroke-miterlimit:10;stroke-dasharray:none;stroke-opacity:1" />
      <path
         id="path91"
         d="M 698.07747,489.78493 H 694.9628"
         style="fill:none;stroke:#000000;stroke-width:1.33333;stroke-linecap:butt;stroke-linejoin:miter;stroke-miterlimit:10;stroke-dasharray:none;stroke-opacity:1" />
      <path
         id="path92"
         d="M 698.07747,445.3004 H 694.9628"
         style="fill:none;stroke:#000000;stroke-width:1.33333;stroke-linecap:butt;stroke-linejoin:miter;stroke-miterlimit:10;stroke-dasharray:none;stroke-opacity:1" />
      <path
         id="path93"
         d="M 698.07747,400.81587 H 694.9628"
         style="fill:none;stroke:#000000;stroke-width:1.33333;stroke-linecap:butt;stroke-linejoin:miter;stroke-miterlimit:10;stroke-dasharray:none;stroke-opacity:1" />
      <path
         id="path94"
         d="M 698.07747,356.33133 H 694.9628"
         style="fill:none;stroke:#000000;stroke-width:1.33333;stroke-linecap:butt;stroke-linejoin:miter;stroke-miterlimit:10;stroke-dasharray:none;stroke-opacity:1" />
      <path
         id="path95"
         d="m 698.07747,534.26947 v -178.564"
         style="fill:none;stroke:#000000;stroke-width:1.33333;stroke-linecap:butt;stroke-linejoin:miter;stroke-miterlimit:10;stroke-dasharray:none;stroke-opacity:1" />
      <path
         d="m 574.396,447.676 h 25.363 v 57.306 h -25.363 z"
         style="opacity:0.5;fill:#0a60ff;fill-opacity:1;fill-rule:nonzero;stroke:none"
         transform="matrix(1.3333333,0,0,-1.3333333,0,1131.5907)"
         clip-path="url(#clipPath96)"
         id="path97" />
      <path
         id="path99"
         d="m 784.54213,487.92773 c 0,0.97867 -0.79333,1.772 -1.772,1.772 -0.98,0 -1.77333,-0.79333 -1.77333,-1.772 0,-0.97867 0.79333,-1.772 1.77333,-1.772 0.97867,0 1.772,0.79333 1.772,1.772"
         style="fill:#0a60ff;fill-opacity:1;fill-rule:nonzero;stroke:#0a60ff;stroke-width:1.33333;stroke-linecap:butt;stroke-linejoin:miter;stroke-miterlimit:10;stroke-dasharray:none;stroke-opacity:1" />
      <path
         id="path100"
         d="m 784.54213,482.5956 c 0,0.97867 -0.79333,1.772 -1.772,1.772 -0.98,0 -1.77333,-0.79333 -1.77333,-1.772 0,-0.97867 0.79333,-1.772 1.77333,-1.772 0.97867,0 1.772,0.79333 1.772,1.772"
         style="fill:#0a60ff;fill-opacity:1;fill-rule:nonzero;stroke:#0a60ff;stroke-width:1.33333;stroke-linecap:butt;stroke-linejoin:miter;stroke-miterlimit:10;stroke-dasharray:none;stroke-opacity:1" />
      <path
         id="path101"
         d="m 784.54213,457.71187 c 0,0.97867 -0.79333,1.772 -1.772,1.772 -0.98,0 -1.77333,-0.79333 -1.77333,-1.772 0,-0.97867 0.79333,-1.772 1.77333,-1.772 0.97867,0 1.772,0.79333 1.772,1.772"
         style="fill:#0a60ff;fill-opacity:1;fill-rule:nonzero;stroke:#0a60ff;stroke-width:1.33333;stroke-linecap:butt;stroke-linejoin:miter;stroke-miterlimit:10;stroke-dasharray:none;stroke-opacity:1" />
      <path
         id="path102"
         d="m 787.4068,441.7152 c 0,0.97867 -0.79333,1.772 -1.772,1.772 -0.98,0 -1.77333,-0.79333 -1.77333,-1.772 0,-0.97867 0.79333,-1.772 1.77333,-1.772 0.97867,0 1.772,0.79333 1.772,1.772"
         style="fill:#0a60ff;fill-opacity:1;fill-rule:nonzero;stroke:#0a60ff;stroke-width:1.33333;stroke-linecap:butt;stroke-linejoin:miter;stroke-miterlimit:10;stroke-dasharray:none;stroke-opacity:1" />
      <path
         id="path103"
         d="m 781.6772,441.7152 c 0,0.97867 -0.79333,1.772 -1.772,1.772 -0.98,0 -1.77333,-0.79333 -1.77333,-1.772 0,-0.97867 0.79333,-1.772 1.77333,-1.772 0.97867,0 1.772,0.79333 1.772,1.772"
         style="fill:#0a60ff;fill-opacity:1;fill-rule:nonzero;stroke:#0a60ff;stroke-width:1.33333;stroke-linecap:butt;stroke-linejoin:miter;stroke-miterlimit:10;stroke-dasharray:none;stroke-opacity:1" />
      <path
         id="path104"
         d="m 784.54213,438.1604 c 0,0.97867 -0.79333,1.772 -1.772,1.772 -0.98,0 -1.77333,-0.79333 -1.77333,-1.772 0,-0.97867 0.79333,-1.772 1.77333,-1.772 0.97867,0 1.772,0.79333 1.772,1.772"
         style="fill:#0a60ff;fill-opacity:1;fill-rule:nonzero;stroke:#0a60ff;stroke-width:1.33333;stroke-linecap:butt;stroke-linejoin:miter;stroke-miterlimit:10;stroke-dasharray:none;stroke-opacity:1" />
      <path
         id="path105"
         d="m 775.98107,467.42027 h 13.576 m -6.788,0 V 449.4416 m -6.788,0 h 13.576"
         style="fill:none;stroke:#000000;stroke-width:1.33333;stroke-linecap:butt;stroke-linejoin:miter;stroke-miterlimit:3;stroke-dasharray:none;stroke-opacity:1" />
      <path
         d="m 536.24,447.643 h 25.474 v 36.886 H 536.24 Z"
         style="opacity:0.5;fill:#8da3a3;fill-opacity:1;fill-rule:nonzero;stroke:none"
         transform="matrix(1.3333333,0,0,-1.3333333,0,1131.5907)"
         clip-path="url(#clipPath106)"
         id="path107" />
      <path
         id="path109"
         d="m 733.74173,509.25013 c 0,0.97867 -0.79333,1.772 -1.772,1.772 -0.98,0 -1.77333,-0.79333 -1.77333,-1.772 0,-0.97867 0.79333,-1.772 1.77333,-1.772 0.97867,0 1.772,0.79333 1.772,1.772"
         style="fill:#8da3a3;fill-opacity:1;fill-rule:nonzero;stroke:#8da3a3;stroke-width:1.33333;stroke-linecap:butt;stroke-linejoin:miter;stroke-miterlimit:10;stroke-dasharray:none;stroke-opacity:1" />
      <path
         id="path110"
         d="m 733.74173,505.69267 c 0,0.97867 -0.79333,1.772 -1.772,1.772 -0.98,0 -1.77333,-0.79333 -1.77333,-1.772 0,-0.97867 0.79333,-1.772 1.77333,-1.772 0.97867,0 1.772,0.79333 1.772,1.772"
         style="fill:#8da3a3;fill-opacity:1;fill-rule:nonzero;stroke:#8da3a3;stroke-width:1.33333;stroke-linecap:butt;stroke-linejoin:miter;stroke-miterlimit:10;stroke-dasharray:none;stroke-opacity:1" />
      <path
         id="path111"
         d="m 733.74173,502.1352 c 0,0.97867 -0.79333,1.772 -1.772,1.772 -0.98,0 -1.77333,-0.79333 -1.77333,-1.772 0,-0.97867 0.79333,-1.772 1.77333,-1.772 0.97867,0 1.772,0.79333 1.772,1.772"
         style="fill:#8da3a3;fill-opacity:1;fill-rule:nonzero;stroke:#8da3a3;stroke-width:1.33333;stroke-linecap:butt;stroke-linejoin:miter;stroke-miterlimit:10;stroke-dasharray:none;stroke-opacity:1" />
      <path
         id="path112"
         d="m 737.03413,489.6844 c 0,0.97867 -0.79333,1.772 -1.772,1.772 -0.98,0 -1.77333,-0.79333 -1.77333,-1.772 0,-0.97867 0.79333,-1.772 1.77333,-1.772 0.97867,0 1.772,0.79333 1.772,1.772"
         style="fill:#8da3a3;fill-opacity:1;fill-rule:nonzero;stroke:#8da3a3;stroke-width:1.33333;stroke-linecap:butt;stroke-linejoin:miter;stroke-miterlimit:10;stroke-dasharray:none;stroke-opacity:1" />
      <path
         id="path113"
         d="m 730.4492,489.6844 c 0,0.97867 -0.79333,1.772 -1.772,1.772 -0.98,0 -1.77333,-0.79333 -1.77333,-1.772 0,-0.97867 0.79333,-1.772 1.77333,-1.772 0.97867,0 1.772,0.79333 1.772,1.772"
         style="fill:#8da3a3;fill-opacity:1;fill-rule:nonzero;stroke:#8da3a3;stroke-width:1.33333;stroke-linecap:butt;stroke-linejoin:miter;stroke-miterlimit:10;stroke-dasharray:none;stroke-opacity:1" />
      <path
         id="path114"
         d="m 733.74173,480.7908 c 0,0.97867 -0.79333,1.772 -1.772,1.772 -0.98,0 -1.77333,-0.79333 -1.77333,-1.772 0,-0.97867 0.79333,-1.772 1.77333,-1.772 0.97867,0 1.772,0.79333 1.772,1.772"
         style="fill:#8da3a3;fill-opacity:1;fill-rule:nonzero;stroke:#8da3a3;stroke-width:1.33333;stroke-linecap:butt;stroke-linejoin:miter;stroke-miterlimit:10;stroke-dasharray:none;stroke-opacity:1" />
      <path
         id="path115"
         d="m 733.74173,477.23347 c 0,0.97867 -0.79333,1.772 -1.772,1.772 -0.98,0 -1.77333,-0.79333 -1.77333,-1.772 0,-0.97867 0.79333,-1.772 1.77333,-1.772 0.97867,0 1.772,0.79333 1.772,1.772"
         style="fill:#8da3a3;fill-opacity:1;fill-rule:nonzero;stroke:#8da3a3;stroke-width:1.33333;stroke-linecap:butt;stroke-linejoin:miter;stroke-miterlimit:10;stroke-dasharray:none;stroke-opacity:1" />
      <path
         id="path116"
         d="m 733.74173,473.676 c 0,0.97867 -0.79333,1.772 -1.772,1.772 -0.98,0 -1.77333,-0.79333 -1.77333,-1.772 0,-0.97867 0.79333,-1.772 1.77333,-1.772 0.97867,0 1.772,0.79333 1.772,1.772"
         style="fill:#8da3a3;fill-opacity:1;fill-rule:nonzero;stroke:#8da3a3;stroke-width:1.33333;stroke-linecap:butt;stroke-linejoin:miter;stroke-miterlimit:10;stroke-dasharray:none;stroke-opacity:1" />
      <path
         id="path117"
         d="m 733.74173,468.33987 c 0,0.97867 -0.79333,1.772 -1.772,1.772 -0.98,0 -1.77333,-0.79333 -1.77333,-1.772 0,-0.97867 0.79333,-1.772 1.77333,-1.772 0.97867,0 1.772,0.79333 1.772,1.772"
         style="fill:#8da3a3;fill-opacity:1;fill-rule:nonzero;stroke:#8da3a3;stroke-width:1.33333;stroke-linecap:butt;stroke-linejoin:miter;stroke-miterlimit:10;stroke-dasharray:none;stroke-opacity:1" />
      <path
         id="path118"
         d="m 733.74173,459.4464 c 0,0.97867 -0.79333,1.772 -1.772,1.772 -0.98,0 -1.77333,-0.79333 -1.77333,-1.772 0,-0.97867 0.79333,-1.772 1.77333,-1.772 0.97867,0 1.772,0.79333 1.772,1.772"
         style="fill:#8da3a3;fill-opacity:1;fill-rule:nonzero;stroke:#8da3a3;stroke-width:1.33333;stroke-linecap:butt;stroke-linejoin:miter;stroke-miterlimit:10;stroke-dasharray:none;stroke-opacity:1" />
      <path
         id="path119"
         d="m 725.06613,491.0084 h 13.80533 m -6.90266,0 v -10.51333 m -6.90267,0 h 13.80533"
         style="fill:none;stroke:#000000;stroke-width:1.33333;stroke-linecap:butt;stroke-linejoin:miter;stroke-miterlimit:3;stroke-dasharray:none;stroke-opacity:1" />
      <path
         id="path120"
         d="M 697.18787,534.2692 H 817.6252"
         style="fill:none;stroke:#000000;stroke-width:1.33333;stroke-linecap:butt;stroke-linejoin:miter;stroke-miterlimit:10;stroke-dasharray:none;stroke-opacity:1" />
    </g>
    <path
       d="m 383.963,435.473 h -11.476 v 6.404 h 11.476 z"
       style="opacity:0.5;fill:#8da3a3;fill-opacity:1;fill-rule:nonzero;stroke:none"
       transform="matrix(1.3333333,0,0,-1.3333333,0,1131.5907)"
       clip-path="url(#clipPath121)"
       id="path122" />
    <text
       id="text123"
       xml:space="preserve"
       x="514.59509"
       y="550.96442"
       style="font-size:16px;stroke-width:1.33333"><tspan
         id="tspan123"
         style="font-variant:normal;font-weight:normal;font-stretch:normal;font-size:13.3333px;font-family:Arial;writing-mode:lr-tb;fill:#000000;fill-opacity:1;fill-rule:nonzero;stroke:none;stroke-width:1.33333"
         x="514.59509"
         y="550.96442">Motor Learning (n=10)</tspan></text>
    <path
       d="m 383.963,423.384 h -11.476 v 6.404 h 11.476 z"
       style="opacity:0.600006;fill:#0a60ff;fill-opacity:1;fill-rule:nonzero;stroke:none"
       transform="matrix(1.3333333,0,0,-1.3333333,0,1131.5907)"
       clip-path="url(#clipPath124)"
       id="path125" />
    <text
       id="text126"
       xml:space="preserve"
       x="515.51306"
       y="566.41748"
       style="font-size:16px;stroke-width:1.33333"><tspan
         id="tspan126"
         style="font-variant:normal;font-weight:normal;font-stretch:normal;font-size:13.3333px;font-family:Arial;writing-mode:lr-tb;fill:#000000;fill-opacity:1;fill-rule:nonzero;stroke:none;stroke-width:1.33333"
         x="515.51306"
         y="566.41748">Paired VNS (n=6)</tspan><tspan
         id="tspan127"
         style="font-variant:normal;font-weight:normal;font-stretch:normal;font-size:13.3333px;font-family:Arial;writing-mode:lr-tb;fill:#000000;fill-opacity:1;fill-rule:nonzero;stroke:none;stroke-width:1.33333"
         x="494.00641"
         y="537.56415">0</tspan></text>
    <path
       id="path127"
       d="m 506.46493,534.26867 h -3.11467"
       style="fill:none;stroke:#000000;stroke-width:1.33333;stroke-linecap:butt;stroke-linejoin:miter;stroke-miterlimit:10;stroke-dasharray:none;stroke-opacity:1" />
    <text
       id="text127"
       xml:space="preserve"
       x="487.13028"
       y="493.0816"
       style="font-size:16px;stroke-width:1.33333"><tspan
         id="tspan128"
         style="font-variant:normal;font-weight:normal;font-stretch:normal;font-size:13.3333px;font-family:Arial;writing-mode:lr-tb;fill:#000000;fill-opacity:1;fill-rule:nonzero;stroke:none;stroke-width:1.33333"
         x="487.13028"
         y="493.0816">25</tspan></text>
    <path
       id="path128"
       d="m 506.46493,489.78413 h -3.11467"
       style="fill:none;stroke:#000000;stroke-width:1.33333;stroke-linecap:butt;stroke-linejoin:miter;stroke-miterlimit:10;stroke-dasharray:none;stroke-opacity:1" />
    <text
       id="text128"
       xml:space="preserve"
       x="487.13028"
       y="448.5972"
       style="font-size:16px;stroke-width:1.33333"><tspan
         id="tspan129"
         style="font-variant:normal;font-weight:normal;font-stretch:normal;font-size:13.3333px;font-family:Arial;writing-mode:lr-tb;fill:#000000;fill-opacity:1;fill-rule:nonzero;stroke:none;stroke-width:1.33333"
         x="487.13028"
         y="448.5972">50</tspan></text>
    <path
       id="path129"
       d="m 506.46493,445.2996 h -3.11467"
       style="fill:none;stroke:#000000;stroke-width:1.33333;stroke-linecap:butt;stroke-linejoin:miter;stroke-miterlimit:10;stroke-dasharray:none;stroke-opacity:1" />
    <text
       id="text129"
       xml:space="preserve"
       x="487.13028"
       y="404.11279"
       style="font-size:16px;stroke-width:1.33333"><tspan
         id="tspan130"
         style="font-variant:normal;font-weight:normal;font-stretch:normal;font-size:13.3333px;font-family:Arial;writing-mode:lr-tb;fill:#000000;fill-opacity:1;fill-rule:nonzero;stroke:none;stroke-width:1.33333"
         x="487.13028"
         y="404.11279">75</tspan></text>
    <path
       id="path130"
       d="m 506.46493,400.81493 h -3.11467"
       style="fill:none;stroke:#000000;stroke-width:1.33333;stroke-linecap:butt;stroke-linejoin:miter;stroke-miterlimit:10;stroke-dasharray:none;stroke-opacity:1" />
    <text
       id="text130"
       xml:space="preserve"
       x="480.25519"
       y="359.62708"
       style="font-size:16px;stroke-width:1.33333"><tspan
         id="tspan131"
         style="font-variant:normal;font-weight:normal;font-stretch:normal;font-size:13.3333px;font-family:Arial;writing-mode:lr-tb;fill:#000000;fill-opacity:1;fill-rule:nonzero;stroke:none;stroke-width:1.33333"
         x="480.25519"
         y="359.62708">100</tspan></text>
    <path
       id="path131"
       d="m 506.46493,356.3304 h -3.11467"
       style="fill:none;stroke:#000000;stroke-width:1.33333;stroke-linecap:butt;stroke-linejoin:miter;stroke-miterlimit:10;stroke-dasharray:none;stroke-opacity:1" />
    <path
       id="path132"
       d="m 506.46493,534.26867 v -178.564"
       style="fill:none;stroke:#000000;stroke-width:1.33333;stroke-linecap:butt;stroke-linejoin:miter;stroke-miterlimit:10;stroke-dasharray:none;stroke-opacity:1" />
    <text
       id="text132"
       xml:space="preserve"
       x="442.89719"
       y="348.64667"
       style="font-size:16px;stroke-width:1.33333"><tspan
         id="tspan132"
         style="font-variant:normal;font-weight:700;font-stretch:normal;font-size:18.5403px;font-family:Arial;writing-mode:lr-tb;fill:#000000;fill-opacity:1;fill-rule:nonzero;stroke:none;stroke-width:1.33333"
         x="442.89719"
         y="348.64667">e</tspan></text>
    <text
       id="text133"
       xml:space="preserve"
       transform="rotate(-90)"
       x="-539.70789"
       y="477.60281"
       style="font-size:16px;stroke-width:1.33333"><tspan
         id="tspan133"
         style="font-variant:normal;font-weight:normal;font-stretch:normal;font-size:17.3333px;font-family:Arial;writing-mode:lr-tb;fill:#000000;fill-opacity:1;fill-rule:nonzero;stroke:none;stroke-width:1.33333"
         x="-539.70789"
         y="477.60281">Survived sheath number</tspan></text>
    <path
       d="m 430.686,447.677 h 25.363 v 52.301 h -25.363 z"
       style="opacity:0.5;fill:#0a60ff;fill-opacity:1;fill-rule:nonzero;stroke:none"
       transform="matrix(1.3333333,0,0,-1.3333333,0,1131.5907)"
       clip-path="url(#clipPath133)"
       id="path134" />
    <path
       id="path136"
       d="m 592.92947,533.9868 c 0,0.97867 -0.79333,1.772 -1.772,1.772 -0.98,0 -1.77333,-0.79333 -1.77333,-1.772 0,-0.97867 0.79333,-1.772 1.77333,-1.772 0.97867,0 1.772,0.79333 1.772,1.772"
       style="fill:#0a60ff;fill-opacity:1;fill-rule:nonzero;stroke:#0a60ff;stroke-width:1.33333;stroke-linecap:butt;stroke-linejoin:miter;stroke-miterlimit:10;stroke-dasharray:none;stroke-opacity:1" />
    <path
       id="path137"
       d="m 592.92947,505.54013 c 0,0.97867 -0.79333,1.772 -1.772,1.772 -0.98,0 -1.77333,-0.79333 -1.77333,-1.772 0,-0.97867 0.79333,-1.772 1.77333,-1.772 0.97867,0 1.772,0.79333 1.772,1.772"
       style="fill:#0a60ff;fill-opacity:1;fill-rule:nonzero;stroke:#0a60ff;stroke-width:1.33333;stroke-linecap:butt;stroke-linejoin:miter;stroke-miterlimit:10;stroke-dasharray:none;stroke-opacity:1" />
    <path
       id="path138"
       d="m 595.4096,468.2036 c 0,0.97867 -0.79333,1.772 -1.772,1.772 -0.98,0 -1.77333,-0.79333 -1.77333,-1.772 0,-0.97867 0.79333,-1.772 1.77333,-1.772 0.97867,0 1.772,0.79333 1.772,1.772"
       style="fill:#0a60ff;fill-opacity:1;fill-rule:nonzero;stroke:#0a60ff;stroke-width:1.33333;stroke-linecap:butt;stroke-linejoin:miter;stroke-miterlimit:10;stroke-dasharray:none;stroke-opacity:1" />
    <path
       id="path139"
       d="m 590.44947,468.2036 c 0,0.97867 -0.79333,1.772 -1.772,1.772 -0.98,0 -1.77333,-0.79333 -1.77333,-1.772 0,-0.97867 0.79333,-1.772 1.77333,-1.772 0.97867,0 1.772,0.79333 1.772,1.772"
       style="fill:#0a60ff;fill-opacity:1;fill-rule:nonzero;stroke:#0a60ff;stroke-width:1.33333;stroke-linecap:butt;stroke-linejoin:miter;stroke-miterlimit:10;stroke-dasharray:none;stroke-opacity:1" />
    <path
       id="path140"
       d="m 592.92947,421.97747 c 0,0.97867 -0.79333,1.772 -1.772,1.772 -0.98,0 -1.77333,-0.79333 -1.77333,-1.772 0,-0.97867 0.79333,-1.772 1.77333,-1.772 0.97867,0 1.772,0.79333 1.772,1.772"
       style="fill:#0a60ff;fill-opacity:1;fill-rule:nonzero;stroke:#0a60ff;stroke-width:1.33333;stroke-linecap:butt;stroke-linejoin:miter;stroke-miterlimit:10;stroke-dasharray:none;stroke-opacity:1" />
    <path
       id="path141"
       d="m 592.92947,391.75267 c 0,0.97867 -0.79333,1.772 -1.772,1.772 -0.98,0 -1.77333,-0.79333 -1.77333,-1.772 0,-0.97867 0.79333,-1.772 1.77333,-1.772 0.97867,0 1.772,0.79333 1.772,1.772"
       style="fill:#0a60ff;fill-opacity:1;fill-rule:nonzero;stroke:#0a60ff;stroke-width:1.33333;stroke-linecap:butt;stroke-linejoin:miter;stroke-miterlimit:10;stroke-dasharray:none;stroke-opacity:1" />
    <path
       id="path142"
       d="m 586.57893,486.4536 h 9.156 m -4.57867,0 v -42.64533 m -4.57733,0 h 9.156"
       style="fill:none;stroke:#000000;stroke-width:1.33333;stroke-linecap:butt;stroke-linejoin:miter;stroke-miterlimit:3;stroke-dasharray:none;stroke-opacity:1" />
    <path
       d="m 392.53,447.644 h 25.474 v 37.613 H 392.53 Z"
       style="opacity:0.5;fill:#8da3a3;fill-opacity:1;fill-rule:nonzero;stroke:none"
       transform="matrix(1.3333333,0,0,-1.3333333,0,1131.5907)"
       clip-path="url(#clipPath143)"
       id="path144" />
    <path
       id="path146"
       d="m 542.1292,526.9204 c 0,0.97867 -0.79333,1.772 -1.772,1.772 -0.98,0 -1.77333,-0.79333 -1.77333,-1.772 0,-0.97867 0.79333,-1.772 1.77333,-1.772 0.97867,0 1.772,0.79333 1.772,1.772"
       style="fill:#8da3a3;fill-opacity:1;fill-rule:nonzero;stroke:#8da3a3;stroke-width:1.33333;stroke-linecap:butt;stroke-linejoin:miter;stroke-miterlimit:10;stroke-dasharray:none;stroke-opacity:1" />
    <path
       id="path147"
       d="m 542.1292,514.4724 c 0,0.97867 -0.79333,1.772 -1.772,1.772 -0.98,0 -1.77333,-0.79333 -1.77333,-1.772 0,-0.97867 0.79333,-1.772 1.77333,-1.772 0.97867,0 1.772,0.79333 1.772,1.772"
       style="fill:#8da3a3;fill-opacity:1;fill-rule:nonzero;stroke:#8da3a3;stroke-width:1.33333;stroke-linecap:butt;stroke-linejoin:miter;stroke-miterlimit:10;stroke-dasharray:none;stroke-opacity:1" />
    <path
       id="path148"
       d="m 542.1292,502.0244 c 0,0.97867 -0.79333,1.772 -1.772,1.772 -0.98,0 -1.77333,-0.79333 -1.77333,-1.772 0,-0.97867 0.79333,-1.772 1.77333,-1.772 0.97867,0 1.772,0.79333 1.772,1.772"
       style="fill:#8da3a3;fill-opacity:1;fill-rule:nonzero;stroke:#8da3a3;stroke-width:1.33333;stroke-linecap:butt;stroke-linejoin:miter;stroke-miterlimit:10;stroke-dasharray:none;stroke-opacity:1" />
    <path
       id="path149"
       d="m 542.1292,494.9112 c 0,0.97867 -0.79333,1.772 -1.772,1.772 -0.98,0 -1.77333,-0.79333 -1.77333,-1.772 0,-0.97867 0.79333,-1.772 1.77333,-1.772 0.97867,0 1.772,0.79333 1.772,1.772"
       style="fill:#8da3a3;fill-opacity:1;fill-rule:nonzero;stroke:#8da3a3;stroke-width:1.33333;stroke-linecap:butt;stroke-linejoin:miter;stroke-miterlimit:10;stroke-dasharray:none;stroke-opacity:1" />
    <path
       id="path150"
       d="m 542.1292,487.79813 c 0,0.97867 -0.79333,1.772 -1.772,1.772 -0.98,0 -1.77333,-0.79333 -1.77333,-1.772 0,-0.97867 0.79333,-1.772 1.77333,-1.772 0.97867,0 1.772,0.79333 1.772,1.772"
       style="fill:#8da3a3;fill-opacity:1;fill-rule:nonzero;stroke:#8da3a3;stroke-width:1.33333;stroke-linecap:butt;stroke-linejoin:miter;stroke-miterlimit:10;stroke-dasharray:none;stroke-opacity:1" />
    <path
       id="path151"
       d="m 542.1292,474.75733 c 0,0.97867 -0.79333,1.772 -1.772,1.772 -0.98,0 -1.77333,-0.79333 -1.77333,-1.772 0,-0.97867 0.79333,-1.772 1.77333,-1.772 0.97867,0 1.772,0.79333 1.772,1.772"
       style="fill:#8da3a3;fill-opacity:1;fill-rule:nonzero;stroke:#8da3a3;stroke-width:1.33333;stroke-linecap:butt;stroke-linejoin:miter;stroke-miterlimit:10;stroke-dasharray:none;stroke-opacity:1" />
    <path
       id="path152"
       d="m 536.78307,474.75733 c 0,0.97867 -0.79333,1.772 -1.772,1.772 -0.98,0 -1.77333,-0.79333 -1.77333,-1.772 0,-0.97867 0.79333,-1.772 1.77333,-1.772 0.97867,0 1.772,0.79333 1.772,1.772"
       style="fill:#8da3a3;fill-opacity:1;fill-rule:nonzero;stroke:#8da3a3;stroke-width:1.33333;stroke-linecap:butt;stroke-linejoin:miter;stroke-miterlimit:10;stroke-dasharray:none;stroke-opacity:1" />
    <path
       id="path153"
       d="m 547.4752,474.75733 c 0,0.97867 -0.79333,1.772 -1.772,1.772 -0.98,0 -1.77333,-0.79333 -1.77333,-1.772 0,-0.97867 0.79333,-1.772 1.77333,-1.772 0.97867,0 1.772,0.79333 1.772,1.772"
       style="fill:#8da3a3;fill-opacity:1;fill-rule:nonzero;stroke:#8da3a3;stroke-width:1.33333;stroke-linecap:butt;stroke-linejoin:miter;stroke-miterlimit:10;stroke-dasharray:none;stroke-opacity:1" />
    <path
       id="path154"
       d="m 542.1292,464.68053 c 0,0.97867 -0.79333,1.772 -1.772,1.772 -0.98,0 -1.77333,-0.79333 -1.77333,-1.772 0,-0.97867 0.79333,-1.772 1.77333,-1.772 0.97867,0 1.772,0.79333 1.772,1.772"
       style="fill:#8da3a3;fill-opacity:1;fill-rule:nonzero;stroke:#8da3a3;stroke-width:1.33333;stroke-linecap:butt;stroke-linejoin:miter;stroke-miterlimit:10;stroke-dasharray:none;stroke-opacity:1" />
    <path
       id="path155"
       d="m 542.1292,430.89307 c 0,0.97867 -0.79333,1.772 -1.772,1.772 -0.98,0 -1.77333,-0.79333 -1.77333,-1.772 0,-0.97867 0.79333,-1.772 1.77333,-1.772 0.97867,0 1.772,0.79333 1.772,1.772"
       style="fill:#8da3a3;fill-opacity:1;fill-rule:nonzero;stroke:#8da3a3;stroke-width:1.33333;stroke-linecap:butt;stroke-linejoin:miter;stroke-miterlimit:10;stroke-dasharray:none;stroke-opacity:1" />
    <path
       id="path156"
       d="m 532.93187,493.36907 h 14.84933 m -7.42533,0 V 476.1424 m -7.424,0 h 14.84933"
       style="fill:none;stroke:#000000;stroke-width:1.33333;stroke-linecap:butt;stroke-linejoin:miter;stroke-miterlimit:3;stroke-dasharray:none;stroke-opacity:1" />
    <path
       id="path157"
       d="M 505.57533,534.26827 H 626.01266"
       style="fill:none;stroke:#000000;stroke-width:1.33333;stroke-linecap:butt;stroke-linejoin:miter;stroke-miterlimit:10;stroke-dasharray:none;stroke-opacity:1" />
    <text
       id="text157"
       xml:space="preserve"
       x="551.83398"
       y="365.0816"
       style="font-size:16px;stroke-width:1.33333"><tspan
         id="tspan157"
         style="font-variant:normal;font-weight:normal;font-stretch:normal;font-size:17.3333px;font-family:Arial;writing-mode:lr-tb;fill:#000000;fill-opacity:1;fill-rule:nonzero;stroke:none;stroke-width:1.33333"
         x="551.83398"
         y="365.0816">n.s.</tspan></text>
    <path
       id="path158"
       d="m 540.5624,367.51693 h 50.48133"
       style="fill:none;stroke:#000000;stroke-width:1.33333;stroke-linecap:square;stroke-linejoin:miter;stroke-miterlimit:10;stroke-dasharray:none;stroke-opacity:1" />
    <path
       id="path159"
       d="m 540.5624,370.59547 v -2.08133"
       style="fill:none;stroke:#000000;stroke-width:1.33333;stroke-linecap:square;stroke-linejoin:miter;stroke-miterlimit:10;stroke-dasharray:none;stroke-opacity:1" />
    <path
       id="path160"
       d="m 591.04427,370.596 v -2.08133"
       style="fill:none;stroke:#000000;stroke-width:1.33333;stroke-linecap:square;stroke-linejoin:miter;stroke-miterlimit:10;stroke-dasharray:none;stroke-opacity:1" />
    <text
       id="text304"
       xml:space="preserve"
       transform="matrix(1.3333333,0,0,1.3333333,44.5892,1111.3928)"><tspan
         id="tspan304"
         style="font-variant:normal;font-weight:normal;font-stretch:normal;font-size:12px;font-family:Arial;writing-mode:lr-tb;fill:#000000;fill-opacity:1;fill-rule:nonzero;stroke:none"
         x="0"
         y="0">Figure 4. Paired VNS enhances remyelination of previously myelinated regions.</tspan><tspan
         id="tspan305"
         style="font-variant:normal;font-weight:normal;font-stretch:normal;font-size:12px;font-family:Arial;writing-mode:lr-tb;fill:#000000;fill-opacity:1;fill-rule:nonzero;stroke:none"
         x="510.40799"
         dx="0 0 0 0 0 0 0 0 0 0 0 0 0 0 0 0 -601.79999"
         y="-814.90802">Huang et al 2025Figure 4 </tspan></text>
  </g>
</svg>
