<?xml version="1.0" encoding="UTF-8" standalone="no"?>
<!-- Created with Inkscape (http://www.inkscape.org/) -->

<svg
   version="1.1"
   id="svg2"
   width="187.28262"
   height="230.1922"
   viewBox="0 0 187.28262 230.1922"
   sodipodi:docname="panelE.svg"
   inkscape:version="1.4.3 (1:1.4.3+202512261034+0d15f75042)"
   xmlns:inkscape="http://www.inkscape.org/namespaces/inkscape"
   xmlns:sodipodi="http://sodipodi.sourceforge.net/DTD/sodipodi-0.dtd"
   xmlns="http://www.w3.org/2000/svg"
   xmlns:svg="http://www.w3.org/2000/svg">
  <defs
     id="defs6">
    <clipPath
       clipPathUnits="userSpaceOnUse"
       id="clipPath1244">
      <path
         d="M 0,848.693 H 668.693 V 0 H 0 Z"
         id="path1242" />
    </clipPath>
    <clipPath
       clipPathUnits="userSpaceOnUse"
       id="clipPath1282">
      <path
         d="M 0,848.693 H 668.693 V 0 H 0 Z"
         id="path1280" />
    </clipPath>
    <clipPath
       clipPathUnits="userSpaceOnUse"
       id="clipPath1290">
      <path
         d="m 310.398,247.845 h 11.43 v -6.379 h -11.43 z"
         id="path1288" />
    </clipPath>
    <clipPath
       clipPathUnits="userSpaceOnUse"
       id="clipPath1306">
      <path
         d="m 310.398,235.651 h 11.43 v -6.379 h -11.43 z"
         id="path1304" />
    </clipPath>
    <clipPath
       clipPathUnits="userSpaceOnUse"
       id="clipPath1330">
      <path
         d="M 0,848.693 H 668.693 V 0 H 0 Z"
         id="path1328" />
    </clipPath>
    <clipPath
       clipPathUnits="userSpaceOnUse"
       id="clipPath1390">
      <path
         d="M 366.368,336.286 H 391.63 V 252.44 h -25.262 z"
         id="path1388" />
    </clipPath>
    <clipPath
       clipPathUnits="userSpaceOnUse"
       id="clipPath1452">
      <path
         d="m 328.363,354.515 h 25.373 V 252.329 h -25.373 z"
         id="path1450" />
    </clipPath>
    <clipPath
       clipPathUnits="userSpaceOnUse"
       id="clipPath1482">
      <path
         d="M 0,848.693 H 668.693 V 0 H 0 Z"
         id="path1480" />
    </clipPath>
    <clipPath
       clipPathUnits="userSpaceOnUse"
       id="clipPath1490">
      <path
         d="m 163.041,357.041 h 16.375 V 252.617 h -16.375 z"
         id="path1488" />
    </clipPath>
    <clipPath
       clipPathUnits="userSpaceOnUse"
       id="clipPath1514">
      <path
         d="M 0,848.693 H 668.693 V 0 H 0 Z"
         id="path1512" />
    </clipPath>
    <clipPath
       clipPathUnits="userSpaceOnUse"
       id="clipPath1542">
      <path
         d="M 0,848.693 H 668.693 V 0 H 0 Z"
         id="path1540" />
    </clipPath>
    <clipPath
       clipPathUnits="userSpaceOnUse"
       id="clipPath1566">
      <path
         d="M 0,848.693 H 668.693 V 0 H 0 Z"
         id="path1564" />
    </clipPath>
    <clipPath
       clipPathUnits="userSpaceOnUse"
       id="clipPath1608">
      <path
         d="M 0,848.693 H 668.693 V 0 H 0 Z"
         id="path1606" />
    </clipPath>
    <clipPath
       clipPathUnits="userSpaceOnUse"
       id="clipPath1624">
      <path
         d="M 0,848.693 H 668.693 V 0 H 0 Z"
         id="path1622" />
    </clipPath>
  </defs>
  <sodipodi:namedview
     id="namedview4"
     pagecolor="#ffffff"
     bordercolor="#000000"
     borderopacity="0.25"
     inkscape:showpageshadow="2"
     inkscape:pageopacity="0.0"
     inkscape:pagecheckerboard="0"
     inkscape:deskcolor="#d1d1d1"
     showgrid="false"
     inkscape:zoom="1.7507109"
     inkscape:cx="-16.279101"
     inkscape:cy="111.95452"
     inkscape:window-width="1920"
     inkscape:window-height="1008"
     inkscape:window-x="0"
     inkscape:window-y="0"
     inkscape:window-maximized="1"
     inkscape:current-layer="g8" />
  <g
     id="g8"
     inkscape:groupmode="layer"
     inkscape:label="2026-01-20 all figures CM"
     transform="matrix(1.3333333,0,0,-1.3333333,-358.67972,533.7826)">
    <g
       id="g23165">
      <text
         xml:space="preserve"
         transform="matrix(1,0,0,-1,306.4878,249.7725)"
         style="font-variant:normal;font-weight:normal;font-stretch:normal;font-size:10px;font-family:Arial;-inkscape-font-specification:ArialMT;writing-mode:lr-tb;fill:#000000;fill-opacity:1;fill-rule:nonzero;stroke:none"
         id="text1236"><tspan
           x="0"
           y="0"
           id="tspan1226">0</tspan><tspan
           x="-5.5599999 0"
           y="-33.240002"
           sodipodi:role="line"
           id="tspan1228">25</tspan><tspan
           x="-5.5999999 0"
           y="-66.480003"
           sodipodi:role="line"
           id="tspan1230">50</tspan><tspan
           x="-5.5599999 0"
           y="-99.720001"
           sodipodi:role="line"
           id="tspan1232">75</tspan><tspan
           x="-11.1 -5.5 0"
           y="-132.96001"
           sodipodi:role="line"
           id="tspan1234">100</tspan></text>
      <g
         id="g1238">
        <g
           id="g1240"
           clip-path="url(#clipPath1244)">
          <g
             id="g1246"
             transform="translate(315.7319,252.7068)">
            <path
               d="M 0,0 V 132.693"
               style="fill:none;stroke:#000000;stroke-width:1;stroke-linecap:square;stroke-linejoin:miter;stroke-miterlimit:10;stroke-dasharray:none;stroke-opacity:1"
               id="path1248" />
          </g>
          <g
             id="g1250"
             transform="translate(315.7319,252.4397)">
            <path
               d="M 0,0 H -2.327"
               style="fill:none;stroke:#000000;stroke-width:1;stroke-linecap:square;stroke-linejoin:miter;stroke-miterlimit:10;stroke-dasharray:none;stroke-opacity:1"
               id="path1252" />
          </g>
          <g
             id="g1254"
             transform="translate(315.7319,285.6797)">
            <path
               d="M 0,0 H -2.327"
               style="fill:none;stroke:#000000;stroke-width:1;stroke-linecap:square;stroke-linejoin:miter;stroke-miterlimit:10;stroke-dasharray:none;stroke-opacity:1"
               id="path1256" />
          </g>
          <g
             id="g1258"
             transform="translate(315.7319,318.9197)">
            <path
               d="M 0,0 H -2.327"
               style="fill:none;stroke:#000000;stroke-width:1;stroke-linecap:square;stroke-linejoin:miter;stroke-miterlimit:10;stroke-dasharray:none;stroke-opacity:1"
               id="path1260" />
          </g>
          <g
             id="g1262"
             transform="translate(315.7319,352.1597)">
            <path
               d="M 0,0 H -2.327"
               style="fill:none;stroke:#000000;stroke-width:1;stroke-linecap:square;stroke-linejoin:miter;stroke-miterlimit:10;stroke-dasharray:none;stroke-opacity:1"
               id="path1264" />
          </g>
          <g
             id="g1266"
             transform="translate(315.7319,385.3997)">
            <path
               d="M 0,0 H -2.327"
               style="fill:none;stroke:#000000;stroke-width:1;stroke-linecap:square;stroke-linejoin:miter;stroke-miterlimit:10;stroke-dasharray:none;stroke-opacity:1"
               id="path1268" />
          </g>
        </g>
      </g>
      <text
         xml:space="preserve"
         transform="matrix(1,0,0,-1,325.083,241.9873)"
         style="font-variant:normal;font-weight:normal;font-stretch:normal;font-size:10px;font-family:Arial;-inkscape-font-specification:ArialMT;writing-mode:lr-tb;fill:#000000;fill-opacity:1;fill-rule:nonzero;stroke:none"
         id="text1274"><tspan
           x="0 7.2199998 12.78 17.780001 20.559999 22.780001 31.110001 36.669998 38.889999 44.450001 47.23 52.790001 58.349998 61.130001 64.459999 70.019997 75.860001 81.419998"
           y="0"
           sodipodi:role="line"
           id="tspan1270">Unstimulated (n=6)</tspan><tspan
           x="0 6.6700001 13.89 20.559999 23.34 26.67 32.23 38.07 43.630001"
           y="12.19"
           sodipodi:role="line"
           id="tspan1272">VNS (n=5)</tspan></text>
      <g
         id="g1276">
        <g
           id="g1278"
           clip-path="url(#clipPath1282)">
          <g
             id="g1284">
            <g
               id="g1286" />
            <g
               id="g1298">
              <g
                 clip-path="url(#clipPath1290)"
                 opacity="0.5"
                 id="g1296">
                <g
                   transform="translate(321.8278,247.8446)"
                   id="g1294">
                  <path
                     d="M 0,0 V -6.379 H -11.43 V 0"
                     style="fill:#5dbd84;fill-opacity:1;fill-rule:nonzero;stroke:none"
                     id="path1292" />
                </g>
              </g>
            </g>
          </g>
          <g
             id="g1300">
            <g
               id="g1302" />
            <g
               id="g1312">
              <g
                 clip-path="url(#clipPath1306)"
                 opacity="0.5"
                 id="g1310">
                <path
                   d="m 321.828,229.272 h -11.43 v 6.379 h 11.43 z"
                   style="fill:#9b4bff;fill-opacity:1;fill-rule:nonzero;stroke:none"
                   id="path1308" />
              </g>
            </g>
          </g>
        </g>
      </g>
      <text
         xml:space="preserve"
         transform="matrix(0,1,1,0,278.4805,287.6454)"
         style="font-variant:normal;font-weight:normal;font-stretch:normal;font-size:13px;font-family:Arial;-inkscape-font-specification:ArialMT;writing-mode:lr-tb;fill:#000000;fill-opacity:1;fill-rule:nonzero;stroke:none"
         id="text1318"><tspan
           x="0 10.114 16.861 20.475 23.361 30.589001 37.089001 43.589001 47.202999 51.532001 63.089001"
           y="0"
           sodipodi:role="line"
           id="tspan1314">OL loss (%)</tspan><tspan
           x="-28.912001 -21.684 -18.07 -14.456 -7.2280002 2.158 5.7719998 13 20.228001 26.728001 30.341999 34.671001 41.171001 48.398998 55.626999 59.956001 62.841999 69.342003 76.57 83.797997 91.026001"
           y="15.6"
           sodipodi:role="line"
           id="tspan1316">at 4w post-cuprizone </tspan></text>
      <text
         xml:space="preserve"
         transform="matrix(1,0,0,-1,349.1685,393.4434)"
         style="font-variant:normal;font-weight:normal;font-stretch:normal;font-size:13px;font-family:Arial;-inkscape-font-specification:ArialMT;writing-mode:lr-tb;fill:#000000;fill-opacity:1;fill-rule:nonzero;stroke:none"
         id="text1322"><tspan
           x="0 7.2280002 10.842 17.341999"
           y="0"
           sodipodi:role="line"
           id="tspan1320">n.s.</tspan></text>
      <g
         id="g1324">
        <g
           id="g1326"
           clip-path="url(#clipPath1330)">
          <g
             id="g1332"
             transform="translate(341.0284,391.625)">
            <path
               d="M 0,0 H 37.234"
               style="fill:none;stroke:#000000;stroke-width:1;stroke-linecap:square;stroke-linejoin:miter;stroke-miterlimit:10;stroke-dasharray:none;stroke-opacity:1"
               id="path1334" />
          </g>
          <g
             id="g1336"
             transform="translate(341.0284,389.3161)">
            <path
               d="M 0,0 V 1.561"
               style="fill:none;stroke:#000000;stroke-width:1;stroke-linecap:square;stroke-linejoin:miter;stroke-miterlimit:10;stroke-dasharray:none;stroke-opacity:1"
               id="path1338" />
          </g>
          <g
             id="g1340"
             transform="translate(378.2622,389.3157)">
            <path
               d="M 0,0 V 1.561"
               style="fill:none;stroke:#000000;stroke-width:1;stroke-linecap:square;stroke-linejoin:miter;stroke-miterlimit:10;stroke-dasharray:none;stroke-opacity:1"
               id="path1342" />
          </g>
          <g
             id="g1344"
             transform="translate(380.3282,307.5588)">
            <path
               d="m 0,0 c 0,-0.734 -0.595,-1.329 -1.329,-1.329 -0.735,0 -1.33,0.595 -1.33,1.329 0,0.734 0.595,1.329 1.33,1.329 C -0.595,1.329 0,0.734 0,0"
               style="fill:#9b4bff;fill-opacity:1;fill-rule:nonzero;stroke:none"
               id="path1346" />
          </g>
          <g
             id="g1348"
             transform="translate(380.3282,307.5588)">
            <path
               d="m 0,0 c 0,-0.734 -0.595,-1.329 -1.329,-1.329 -0.735,0 -1.33,0.595 -1.33,1.329 0,0.734 0.595,1.329 1.33,1.329 C -0.595,1.329 0,0.734 0,0 Z"
               style="fill:none;stroke:#9b4bff;stroke-width:1;stroke-linecap:butt;stroke-linejoin:miter;stroke-miterlimit:10;stroke-dasharray:none;stroke-opacity:1"
               id="path1350" />
          </g>
          <g
             id="g1352"
             transform="translate(380.3282,319.1033)">
            <path
               d="m 0,0 c 0,-0.734 -0.595,-1.329 -1.329,-1.329 -0.735,0 -1.33,0.595 -1.33,1.329 0,0.734 0.595,1.329 1.33,1.329 C -0.595,1.329 0,0.734 0,0"
               style="fill:#9b4bff;fill-opacity:1;fill-rule:nonzero;stroke:none"
               id="path1354" />
          </g>
          <g
             id="g1356"
             transform="translate(380.3282,319.1033)">
            <path
               d="m 0,0 c 0,-0.734 -0.595,-1.329 -1.329,-1.329 -0.735,0 -1.33,0.595 -1.33,1.329 0,0.734 0.595,1.329 1.33,1.329 C -0.595,1.329 0,0.734 0,0 Z"
               style="fill:none;stroke:#9b4bff;stroke-width:1;stroke-linecap:butt;stroke-linejoin:miter;stroke-miterlimit:10;stroke-dasharray:none;stroke-opacity:1"
               id="path1358" />
          </g>
          <g
             id="g1360"
             transform="translate(380.3282,338.0085)">
            <path
               d="m 0,0 c 0,-0.734 -0.595,-1.329 -1.329,-1.329 -0.735,0 -1.33,0.595 -1.33,1.329 0,0.734 0.595,1.329 1.33,1.329 C -0.595,1.329 0,0.734 0,0"
               style="fill:#9b4bff;fill-opacity:1;fill-rule:nonzero;stroke:none"
               id="path1362" />
          </g>
          <g
             id="g1364"
             transform="translate(380.3282,338.0085)">
            <path
               d="m 0,0 c 0,-0.734 -0.595,-1.329 -1.329,-1.329 -0.735,0 -1.33,0.595 -1.33,1.329 0,0.734 0.595,1.329 1.33,1.329 C -0.595,1.329 0,0.734 0,0 Z"
               style="fill:none;stroke:#9b4bff;stroke-width:1;stroke-linecap:butt;stroke-linejoin:miter;stroke-miterlimit:10;stroke-dasharray:none;stroke-opacity:1"
               id="path1366" />
          </g>
          <g
             id="g1368"
             transform="translate(380.3282,352.6791)">
            <path
               d="m 0,0 c 0,-0.734 -0.595,-1.329 -1.329,-1.329 -0.735,0 -1.33,0.595 -1.33,1.329 0,0.734 0.595,1.329 1.33,1.329 C -0.595,1.329 0,0.734 0,0"
               style="fill:#9b4bff;fill-opacity:1;fill-rule:nonzero;stroke:none"
               id="path1370" />
          </g>
          <g
             id="g1372"
             transform="translate(380.3282,352.6791)">
            <path
               d="m 0,0 c 0,-0.734 -0.595,-1.329 -1.329,-1.329 -0.735,0 -1.33,0.595 -1.33,1.329 0,0.734 0.595,1.329 1.33,1.329 C -0.595,1.329 0,0.734 0,0 Z"
               style="fill:none;stroke:#9b4bff;stroke-width:1;stroke-linecap:butt;stroke-linejoin:miter;stroke-miterlimit:10;stroke-dasharray:none;stroke-opacity:1"
               id="path1374" />
          </g>
          <g
             id="g1376"
             transform="translate(380.3282,364.1207)">
            <path
               d="m 0,0 c 0,-0.734 -0.595,-1.329 -1.329,-1.329 -0.735,0 -1.33,0.595 -1.33,1.329 0,0.734 0.595,1.329 1.33,1.329 C -0.595,1.329 0,0.734 0,0"
               style="fill:#9b4bff;fill-opacity:1;fill-rule:nonzero;stroke:none"
               id="path1378" />
          </g>
          <g
             id="g1380"
             transform="translate(380.3282,364.1207)">
            <path
               d="m 0,0 c 0,-0.734 -0.595,-1.329 -1.329,-1.329 -0.735,0 -1.33,0.595 -1.33,1.329 0,0.734 0.595,1.329 1.33,1.329 C -0.595,1.329 0,0.734 0,0 Z"
               style="fill:none;stroke:#9b4bff;stroke-width:1;stroke-linecap:butt;stroke-linejoin:miter;stroke-miterlimit:10;stroke-dasharray:none;stroke-opacity:1"
               id="path1382" />
          </g>
          <g
             id="g1384">
            <g
               id="g1386" />
            <g
               id="g1396">
              <g
                 clip-path="url(#clipPath1390)"
                 opacity="0.5"
                 id="g1394">
                <path
                   d="m 366.368,252.44 h 25.262 v 83.846 h -25.262 z"
                   style="fill:#9b4bff;fill-opacity:1;fill-rule:evenodd;stroke:none"
                   id="path1392" />
              </g>
            </g>
          </g>
          <g
             id="g1398"
             transform="translate(342.3792,340.543)">
            <path
               d="m 0,0 c 0,-0.734 -0.595,-1.329 -1.329,-1.329 -0.735,0 -1.33,0.595 -1.33,1.329 0,0.734 0.595,1.329 1.33,1.329 C -0.595,1.329 0,0.734 0,0"
               style="fill:#5dbd84;fill-opacity:1;fill-rule:nonzero;stroke:none"
               id="path1400" />
          </g>
          <g
             id="g1402"
             transform="translate(342.3792,340.543)">
            <path
               d="m 0,0 c 0,-0.734 -0.595,-1.329 -1.329,-1.329 -0.735,0 -1.33,0.595 -1.33,1.329 0,0.734 0.595,1.329 1.33,1.329 C -0.595,1.329 0,0.734 0,0 Z"
               style="fill:none;stroke:#5dbd84;stroke-width:1;stroke-linecap:butt;stroke-linejoin:miter;stroke-miterlimit:10;stroke-dasharray:none;stroke-opacity:1"
               id="path1404" />
          </g>
          <g
             id="g1406"
             transform="translate(342.3792,343.7673)">
            <path
               d="m 0,0 c 0,-0.734 -0.595,-1.329 -1.329,-1.329 -0.735,0 -1.33,0.595 -1.33,1.329 0,0.734 0.595,1.329 1.33,1.329 C -0.595,1.329 0,0.734 0,0"
               style="fill:#5dbd84;fill-opacity:1;fill-rule:nonzero;stroke:none"
               id="path1408" />
          </g>
          <g
             id="g1410"
             transform="translate(342.3792,343.7673)">
            <path
               d="m 0,0 c 0,-0.734 -0.595,-1.329 -1.329,-1.329 -0.735,0 -1.33,0.595 -1.33,1.329 0,0.734 0.595,1.329 1.33,1.329 C -0.595,1.329 0,0.734 0,0 Z"
               style="fill:none;stroke:#5dbd84;stroke-width:1;stroke-linecap:butt;stroke-linejoin:miter;stroke-miterlimit:10;stroke-dasharray:none;stroke-opacity:1"
               id="path1412" />
          </g>
          <g
             id="g1414"
             transform="translate(342.3792,345.5651)">
            <path
               d="m 0,0 c 0,-0.734 -0.595,-1.329 -1.329,-1.329 -0.735,0 -1.33,0.595 -1.33,1.329 0,0.734 0.595,1.329 1.33,1.329 C -0.595,1.329 0,0.734 0,0"
               style="fill:#5dbd84;fill-opacity:1;fill-rule:nonzero;stroke:none"
               id="path1416" />
          </g>
          <g
             id="g1418"
             transform="translate(342.3792,345.5651)">
            <path
               d="m 0,0 c 0,-0.734 -0.595,-1.329 -1.329,-1.329 -0.735,0 -1.33,0.595 -1.33,1.329 0,0.734 0.595,1.329 1.33,1.329 C -0.595,1.329 0,0.734 0,0 Z"
               style="fill:none;stroke:#5dbd84;stroke-width:1;stroke-linecap:butt;stroke-linejoin:miter;stroke-miterlimit:10;stroke-dasharray:none;stroke-opacity:1"
               id="path1420" />
          </g>
          <g
             id="g1422"
             transform="translate(342.3792,352.1005)">
            <path
               d="m 0,0 c 0,-0.734 -0.595,-1.329 -1.329,-1.329 -0.735,0 -1.33,0.595 -1.33,1.329 0,0.734 0.595,1.329 1.33,1.329 C -0.595,1.329 0,0.734 0,0"
               style="fill:#5dbd84;fill-opacity:1;fill-rule:nonzero;stroke:none"
               id="path1424" />
          </g>
          <g
             id="g1426"
             transform="translate(342.3792,352.1005)">
            <path
               d="m 0,0 c 0,-0.734 -0.595,-1.329 -1.329,-1.329 -0.735,0 -1.33,0.595 -1.33,1.329 0,0.734 0.595,1.329 1.33,1.329 C -0.595,1.329 0,0.734 0,0 Z"
               style="fill:none;stroke:#5dbd84;stroke-width:1;stroke-linecap:butt;stroke-linejoin:miter;stroke-miterlimit:10;stroke-dasharray:none;stroke-opacity:1"
               id="path1428" />
          </g>
          <g
             id="g1430"
             transform="translate(342.3792,362.4847)">
            <path
               d="m 0,0 c 0,-0.734 -0.595,-1.329 -1.329,-1.329 -0.735,0 -1.33,0.595 -1.33,1.329 0,0.734 0.595,1.329 1.33,1.329 C -0.595,1.329 0,0.734 0,0"
               style="fill:#5dbd84;fill-opacity:1;fill-rule:nonzero;stroke:none"
               id="path1432" />
          </g>
          <g
             id="g1434"
             transform="translate(342.3792,362.4847)">
            <path
               d="m 0,0 c 0,-0.734 -0.595,-1.329 -1.329,-1.329 -0.735,0 -1.33,0.595 -1.33,1.329 0,0.734 0.595,1.329 1.33,1.329 C -0.595,1.329 0,0.734 0,0 Z"
               style="fill:none;stroke:#5dbd84;stroke-width:1;stroke-linecap:butt;stroke-linejoin:miter;stroke-miterlimit:10;stroke-dasharray:none;stroke-opacity:1"
               id="path1436" />
          </g>
          <g
             id="g1438"
             transform="translate(342.3792,384.3361)">
            <path
               d="m 0,0 c 0,-0.734 -0.595,-1.329 -1.329,-1.329 -0.735,0 -1.33,0.595 -1.33,1.329 0,0.734 0.595,1.329 1.33,1.329 C -0.595,1.329 0,0.734 0,0"
               style="fill:#5dbd84;fill-opacity:1;fill-rule:nonzero;stroke:none"
               id="path1440" />
          </g>
          <g
             id="g1442"
             transform="translate(342.3792,384.3361)">
            <path
               d="m 0,0 c 0,-0.734 -0.595,-1.329 -1.329,-1.329 -0.735,0 -1.33,0.595 -1.33,1.329 0,0.734 0.595,1.329 1.33,1.329 C -0.595,1.329 0,0.734 0,0 Z"
               style="fill:none;stroke:#5dbd84;stroke-width:1;stroke-linecap:butt;stroke-linejoin:miter;stroke-miterlimit:10;stroke-dasharray:none;stroke-opacity:1"
               id="path1444" />
          </g>
          <g
             id="g1446">
            <g
               id="g1448" />
            <g
               id="g1458">
              <g
                 clip-path="url(#clipPath1452)"
                 opacity="0.5"
                 id="g1456">
                <path
                   d="m 328.363,252.329 h 25.373 v 102.186 h -25.373 z"
                   style="fill:#5dbd84;fill-opacity:1;fill-rule:evenodd;stroke:none"
                   id="path1454" />
              </g>
            </g>
          </g>
          <g
             id="g1460"
             transform="translate(335.5337,347.5829)">
            <path
               d="M 0,0 H 11.032 M 5.516,0 v 13.554 m -5.516,0 h 11.032"
               style="fill:none;stroke:#000000;stroke-width:1;stroke-linecap:butt;stroke-linejoin:miter;stroke-miterlimit:3;stroke-dasharray:none;stroke-opacity:1"
               id="path1462" />
          </g>
          <g
             id="g1464"
             transform="translate(373.4827,325.71)">
            <path
               d="M 0,0 H 11.032 M 5.516,0 V 20.81 M 0,20.81 h 11.032"
               style="fill:none;stroke:#000000;stroke-width:1;stroke-linecap:butt;stroke-linejoin:miter;stroke-miterlimit:3;stroke-dasharray:none;stroke-opacity:1"
               id="path1466" />
          </g>
          <g
             id="g1468"
             transform="translate(315.0671,252.4397)">
            <path
               d="M 0,0 H 89.97"
               style="fill:none;stroke:#000000;stroke-width:1;stroke-linecap:square;stroke-linejoin:miter;stroke-miterlimit:10;stroke-dasharray:none;stroke-opacity:1"
               id="path1470" />
          </g>
        </g>
      </g>
    </g>
    <text
       xml:space="preserve"
       transform="matrix(1,0,0,-1,33.4419,15.1484)"
       style="font-variant:normal;font-weight:normal;font-stretch:normal;font-size:12px;font-family:Arial;-inkscape-font-specification:ArialMT;writing-mode:lr-tb;fill:#000000;fill-opacity:1;fill-rule:nonzero;stroke:none"
       id="text4624"><tspan
         sodipodi:role="line"
         id="tspan4622"
         x="0"
         y="0" /></text>
  </g>
</svg>
