<?xml version="1.0" encoding="UTF-8" standalone="no"?>
<!-- Created with Inkscape (http://www.inkscape.org/) -->

<svg
   version="1.1"
   id="svg1"
   width="493.24875"
   height="236.95905"
   viewBox="0 0 493.24875 236.95905"
   sodipodi:docname="panelHI.svg"
   inkscape:export-filename="fig5.pdf"
   inkscape:export-xdpi="96"
   inkscape:export-ydpi="96"
   inkscape:version="1.4.3 (1:1.4.3+202512261034+0d15f75042)"
   xmlns:inkscape="http://www.inkscape.org/namespaces/inkscape"
   xmlns:sodipodi="http://sodipodi.sourceforge.net/DTD/sodipodi-0.dtd"
   xmlns="http://www.w3.org/2000/svg"
   xmlns:svg="http://www.w3.org/2000/svg">
  <defs
     id="defs1" />
  <sodipodi:namedview
     id="namedview1"
     pagecolor="#ffffff"
     bordercolor="#000000"
     borderopacity="0.25"
     inkscape:showpageshadow="2"
     inkscape:pageopacity="0.0"
     inkscape:pagecheckerboard="0"
     inkscape:deskcolor="#d1d1d1"
     inkscape:zoom="1.2622695"
     inkscape:cx="207.16654"
     inkscape:cy="125.96359"
     inkscape:window-width="1920"
     inkscape:window-height="1048"
     inkscape:window-x="1920"
     inkscape:window-y="0"
     inkscape:window-maximized="1"
     inkscape:current-layer="layer-MC10">
    <inkscape:page
       x="0"
       y="0"
       width="493.24875"
       height="236.95905"
       id="page2"
       margin="0"
       bleed="0" />
  </sodipodi:namedview>
  <g
     id="layer-MC10"
     inkscape:groupmode="layer"
     inkscape:label="Fig 5"
     transform="translate(-355.25644,-608.44024)">
    <g
       id="g852">
      <text
         id="text1"
         xml:space="preserve"
         transform="matrix(1.3333333,0,0,1.3333333,839.06507,671.12187)"><tspan
           id="tspan1"
           style="font-variant:normal;font-weight:normal;font-stretch:normal;font-size:20px;font-family:Arial;writing-mode:lr-tb;fill:#000000;fill-opacity:1;fill-rule:nonzero;stroke:none"
           x="0"
           y="0">*</tspan></text>
      <path
         id="path1"
         d="M 0,0 V -19.859"
         style="fill:none;stroke:#000000;stroke-width:1;stroke-linecap:square;stroke-linejoin:miter;stroke-miterlimit:10;stroke-dasharray:none;stroke-opacity:1"
         transform="matrix(1.3333333,0,0,-1.3333333,837.64813,643.83867)" />
      <path
         id="path2"
         d="M 0,0 H 1.561"
         style="fill:none;stroke:#000000;stroke-width:1;stroke-linecap:square;stroke-linejoin:miter;stroke-miterlimit:10;stroke-dasharray:none;stroke-opacity:1"
         transform="matrix(1.3333333,0,0,-1.3333333,834.5696,643.83867)" />
      <path
         id="path3"
         d="M 0,0 H 1.561"
         style="fill:none;stroke:#000000;stroke-width:1;stroke-linecap:square;stroke-linejoin:miter;stroke-miterlimit:10;stroke-dasharray:none;stroke-opacity:1"
         transform="matrix(1.3333333,0,0,-1.3333333,834.5692,670.31733)" />
      <text
         id="text3"
         xml:space="preserve"
         transform="matrix(1.3333333,0,0,1.3333333,670.68093,651.12187)"><tspan
           id="tspan3"
           style="font-variant:normal;font-weight:normal;font-stretch:normal;font-size:20px;font-family:Arial;writing-mode:lr-tb;fill:#000000;fill-opacity:1;fill-rule:nonzero;stroke:none"
           x="0"
           dx="0 0.89999998 1.22 0.95999998 1.14 0.98000002 1.6 27.92 1.12"
           y="0">*********</tspan></text>
      <text
         id="text4"
         xml:space="preserve"
         transform="matrix(1.3333333,0,0,1.3333333,621.32027,622.80747)"><tspan
           id="tspan4"
           style="font-variant:normal;font-weight:700;font-stretch:normal;font-size:15px;font-family:Arial;writing-mode:lr-tb;fill:#000000;fill-opacity:1;fill-rule:nonzero;stroke:none"
           x="0"
           y="0">i</tspan></text>
      <text
         id="text5"
         xml:space="preserve"
         transform="matrix(1.3333333,0,0,1.3333333,672.3112,841.98133)"><tspan
           id="tspan5"
           style="font-variant:normal;font-weight:normal;font-stretch:normal;font-size:12px;font-family:Arial;writing-mode:lr-tb;fill:#000000;fill-opacity:1;fill-rule:nonzero;stroke:none"
           x="0"
           y="0">Recovery sessions</tspan></text>
      <path
         id="path5"
         d="M 0,0 V 1.257"
         style="fill:none;stroke:#000000;stroke-width:1;stroke-linecap:square;stroke-linejoin:miter;stroke-miterlimit:10;stroke-dasharray:none;stroke-opacity:1"
         transform="matrix(1.3333333,0,0,-1.3333333,663.2372,815.73573)" />
      <path
         id="path6"
         d="M 0,0 V 1.257"
         style="fill:none;stroke:#000000;stroke-width:1;stroke-linecap:square;stroke-linejoin:miter;stroke-miterlimit:10;stroke-dasharray:none;stroke-opacity:1"
         transform="matrix(1.3333333,0,0,-1.3333333,710.4964,815.80773)" />
      <path
         id="path7"
         d="M 0,0 V 1.257"
         style="fill:none;stroke:#000000;stroke-width:1;stroke-linecap:square;stroke-linejoin:miter;stroke-miterlimit:10;stroke-dasharray:none;stroke-opacity:1"
         transform="matrix(1.3333333,0,0,-1.3333333,770.1668,815.73533)" />
      <path
         id="path8"
         d="M 0,0 V 1.257"
         style="fill:none;stroke:#000000;stroke-width:1;stroke-linecap:square;stroke-linejoin:miter;stroke-miterlimit:10;stroke-dasharray:none;stroke-opacity:1"
         transform="matrix(1.3333333,0,0,-1.3333333,829.45933,815.82307)" />
      <text
         id="text8"
         xml:space="preserve"
         transform="matrix(1.3333333,0,0,1.3333333,659.01893,826.78267)"><tspan
           id="tspan8"
           style="font-variant:normal;font-weight:normal;font-stretch:normal;font-size:10px;font-family:Arial;writing-mode:lr-tb;fill:#000000;fill-opacity:1;fill-rule:nonzero;stroke:none"
           x="0"
           dx="0 30.559999 35.740002 0 33.380001"
           y="0">151015</tspan></text>
      <path
         id="path9"
         d="M 0,0 H 1.539"
         style="fill:none;stroke:#000000;stroke-width:1;stroke-linecap:square;stroke-linejoin:miter;stroke-miterlimit:10;stroke-dasharray:none;stroke-opacity:1"
         transform="matrix(1.3333333,0,0,-1.3333333,655.64333,813.68853)" />
      <path
         id="path10"
         d="M 0,0 H 1.539"
         style="fill:none;stroke:#000000;stroke-width:1;stroke-linecap:square;stroke-linejoin:miter;stroke-miterlimit:10;stroke-dasharray:none;stroke-opacity:1"
         transform="matrix(1.3333333,0,0,-1.3333333,655.64333,723.35253)" />
      <path
         id="path11"
         d="M 0,0 H 1.539"
         style="fill:none;stroke:#000000;stroke-width:1;stroke-linecap:square;stroke-linejoin:miter;stroke-miterlimit:10;stroke-dasharray:none;stroke-opacity:1"
         transform="matrix(1.3333333,0,0,-1.3333333,655.64333,633.01667)" />
      <path
         id="path12"
         d="M 0,0 H -134.192"
         style="fill:none;stroke:#000000;stroke-width:1;stroke-linecap:square;stroke-linejoin:miter;stroke-miterlimit:10;stroke-dasharray:none;stroke-opacity:1"
         transform="matrix(1.3333333,0,0,-1.3333333,836.61813,813.68853)" />
      <path
         id="path13"
         d="M 0,0 V 135.504"
         style="fill:none;stroke:#000000;stroke-width:1;stroke-linecap:square;stroke-linejoin:miter;stroke-miterlimit:10;stroke-dasharray:none;stroke-opacity:1"
         transform="matrix(1.3333333,0,0,-1.3333333,657.69587,813.68853)" />
      <text
         id="text13"
         xml:space="preserve"
         transform="matrix(1.3333333,0,0,1.3333333,645.42053,818.71693)"><tspan
           id="tspan13"
           style="font-variant:normal;font-weight:normal;font-stretch:normal;font-size:10px;font-family:Arial;writing-mode:lr-tb;fill:#000000;fill-opacity:1;fill-rule:nonzero;stroke:none"
           x="0"
           y="0">0</tspan><tspan
           id="tspan14"
           style="font-variant:normal;font-weight:normal;font-stretch:normal;font-size:10px;font-family:Arial;writing-mode:lr-tb;fill:#000000;fill-opacity:1;fill-rule:nonzero;stroke:none"
           x="-5.5599999"
           y="-67.209999">50</tspan><tspan
           id="tspan15"
           style="font-variant:normal;font-weight:normal;font-stretch:normal;font-size:10px;font-family:Arial;writing-mode:lr-tb;fill:#000000;fill-opacity:1;fill-rule:nonzero;stroke:none"
           x="-11.12"
           y="-135.75999">100</tspan></text>
      <text
         id="text15"
         xml:space="preserve"
         transform="matrix(0,-1.3333333,1.3333333,0,632.85867,786.44347)"><tspan
           id="tspan16"
           style="font-variant:normal;font-weight:normal;font-stretch:normal;font-size:12px;font-family:Arial;writing-mode:lr-tb;fill:#1a1718;fill-opacity:1;fill-rule:nonzero;stroke:none"
           x="0"
           y="0">Expert reaches (%)</tspan></text>
      <path
         id="path16"
         d="M 0,0 H 0.768"
         style="fill:none;stroke:#939393;stroke-width:0.661;stroke-linecap:butt;stroke-linejoin:miter;stroke-miterlimit:3;stroke-dasharray:none;stroke-opacity:1"
         transform="matrix(1.3333333,0,0,-1.3333333,656.6708,768.13613)" />
      <path
         id="path17"
         d="M 0,0 H 2.957 M 1.478,-15.525 V 0 M 0,-15.525 h 2.957"
         style="fill:none;stroke:#8da3a3;stroke-width:1;stroke-linecap:butt;stroke-linejoin:miter;stroke-miterlimit:3;stroke-dasharray:none;stroke-opacity:1"
         transform="matrix(1.3333333,0,0,-1.3333333,661.44053,680.7964)" />
      <path
         id="path18"
         d="M 0,0 H 2.957 M 1.478,-27.3 V 0 M 0,-27.3 h 2.957"
         style="fill:none;stroke:#8da3a3;stroke-width:1;stroke-linecap:butt;stroke-linejoin:miter;stroke-miterlimit:3;stroke-dasharray:none;stroke-opacity:1"
         transform="matrix(1.3333333,0,0,-1.3333333,673.34947,687.98387)" />
      <path
         id="path19"
         d="M 0,0 H 2.957 M 1.478,-27.255 V 0 M 0,-27.255 h 2.957"
         style="fill:none;stroke:#8da3a3;stroke-width:1;stroke-linecap:butt;stroke-linejoin:miter;stroke-miterlimit:3;stroke-dasharray:none;stroke-opacity:1"
         transform="matrix(1.3333333,0,0,-1.3333333,685.2584,684.1168)" />
      <path
         id="path20"
         d="M 0,0 H 2.957 M 1.478,-20.968 V 0 M 0,-20.968 h 2.957"
         style="fill:none;stroke:#8da3a3;stroke-width:1;stroke-linecap:butt;stroke-linejoin:miter;stroke-miterlimit:3;stroke-dasharray:none;stroke-opacity:1"
         transform="matrix(1.3333333,0,0,-1.3333333,697.16733,674.59453)" />
      <path
         id="path21"
         d="M 0,0 H 2.957 M 1.478,-24.906 V 0 M 0,-24.906 h 2.957"
         style="fill:none;stroke:#8da3a3;stroke-width:1;stroke-linecap:butt;stroke-linejoin:miter;stroke-miterlimit:3;stroke-dasharray:none;stroke-opacity:1"
         transform="matrix(1.3333333,0,0,-1.3333333,709.0764,671.496)" />
      <path
         id="path22"
         d="M 0,0 H 2.957 M 1.478,-19.648 V 0 M 0,-19.648 h 2.957"
         style="fill:none;stroke:#8da3a3;stroke-width:1;stroke-linecap:butt;stroke-linejoin:miter;stroke-miterlimit:3;stroke-dasharray:none;stroke-opacity:1"
         transform="matrix(1.3333333,0,0,-1.3333333,720.98533,680.3268)" />
      <path
         id="path23"
         d="M 0,0 H 2.957 M 1.478,-26.103 V 0 M 0,-26.103 h 2.957"
         style="fill:none;stroke:#8da3a3;stroke-width:1;stroke-linecap:butt;stroke-linejoin:miter;stroke-miterlimit:3;stroke-dasharray:none;stroke-opacity:1"
         transform="matrix(1.3333333,0,0,-1.3333333,732.89427,668.10733)" />
      <path
         id="path24"
         d="M 0,0 H 2.957 M 1.478,-21.673 V 0 M 0,-21.673 h 2.957"
         style="fill:none;stroke:#8da3a3;stroke-width:1;stroke-linecap:butt;stroke-linejoin:miter;stroke-miterlimit:3;stroke-dasharray:none;stroke-opacity:1"
         transform="matrix(1.3333333,0,0,-1.3333333,744.8032,667.1764)" />
      <path
         id="path25"
         d="M 0,0 H 2.957 M 1.478,-16.814 V 0 M 0,-16.814 h 2.957"
         style="fill:none;stroke:#8da3a3;stroke-width:1;stroke-linecap:butt;stroke-linejoin:miter;stroke-miterlimit:3;stroke-dasharray:none;stroke-opacity:1"
         transform="matrix(1.3333333,0,0,-1.3333333,756.71213,662.152)" />
      <path
         id="path26"
         d="M 0,0 H 2.957 M 1.478,-16.641 V 0 M 0,-16.641 h 2.957"
         style="fill:none;stroke:#8da3a3;stroke-width:1;stroke-linecap:butt;stroke-linejoin:miter;stroke-miterlimit:3;stroke-dasharray:none;stroke-opacity:1"
         transform="matrix(1.3333333,0,0,-1.3333333,768.62107,662.07773)" />
      <path
         id="path27"
         d="M 0,0 H 2.957 M 1.478,-16.444 V 0 M 0,-16.444 h 2.957"
         style="fill:none;stroke:#8da3a3;stroke-width:1;stroke-linecap:butt;stroke-linejoin:miter;stroke-miterlimit:3;stroke-dasharray:none;stroke-opacity:1"
         transform="matrix(1.3333333,0,0,-1.3333333,780.53,658.05853)" />
      <path
         id="path28"
         d="M 0,0 H 2.957 M 1.478,-27.579 V 0 M 0,-27.579 h 2.957"
         style="fill:none;stroke:#8da3a3;stroke-width:1;stroke-linecap:butt;stroke-linejoin:miter;stroke-miterlimit:3;stroke-dasharray:none;stroke-opacity:1"
         transform="matrix(1.3333333,0,0,-1.3333333,792.43893,662.49453)" />
      <path
         id="path29"
         d="M 0,0 H 2.957 M 1.478,-22.579 V 0 M 0,-22.579 h 2.957"
         style="fill:none;stroke:#8da3a3;stroke-width:1;stroke-linecap:butt;stroke-linejoin:miter;stroke-miterlimit:3;stroke-dasharray:none;stroke-opacity:1"
         transform="matrix(1.3333333,0,0,-1.3333333,804.34787,664.94493)" />
      <path
         id="path30"
         d="M 0,0 H 2.957 M 1.478,-17.428 V 0 M 0,-17.428 h 2.957"
         style="fill:none;stroke:#8da3a3;stroke-width:1;stroke-linecap:butt;stroke-linejoin:miter;stroke-miterlimit:3;stroke-dasharray:none;stroke-opacity:1"
         transform="matrix(1.3333333,0,0,-1.3333333,816.2568,669.25213)" />
      <path
         id="path31"
         d="M 0,0 H 2.957 M 1.478,-15.933 V 0 M 0,-15.933 h 2.957"
         style="fill:none;stroke:#8da3a3;stroke-width:1;stroke-linecap:butt;stroke-linejoin:miter;stroke-miterlimit:3;stroke-dasharray:none;stroke-opacity:1"
         transform="matrix(1.3333333,0,0,-1.3333333,828.16573,659.69547)" />
      <path
         id="path32"
         d="M 0,0 H 2.957 M 1.478,-11.279 V 0 M 0,-11.279 h 2.957"
         style="fill:none;stroke:#0a60ff;stroke-width:1;stroke-linecap:butt;stroke-linejoin:miter;stroke-miterlimit:3;stroke-dasharray:none;stroke-opacity:1"
         transform="matrix(1.3333333,0,0,-1.3333333,661.91693,661.22013)" />
      <path
         id="path33"
         d="M 0,0 H 2.957 M 1.478,-14.754 V 0 M 0,-14.754 h 2.957"
         style="fill:none;stroke:#0a60ff;stroke-width:1;stroke-linecap:butt;stroke-linejoin:miter;stroke-miterlimit:3;stroke-dasharray:none;stroke-opacity:1"
         transform="matrix(1.3333333,0,0,-1.3333333,673.82587,651.9816)" />
      <path
         id="path34"
         d="M 0,0 H 2.957 M 1.478,-21.761 V 0 M 0,-21.761 h 2.957"
         style="fill:none;stroke:#0a60ff;stroke-width:1;stroke-linecap:butt;stroke-linejoin:miter;stroke-miterlimit:3;stroke-dasharray:none;stroke-opacity:1"
         transform="matrix(1.3333333,0,0,-1.3333333,685.7348,649.76453)" />
      <path
         id="path35"
         d="M 0,0 H 2.957 M 1.478,-10.073 V 0 M 0,-10.073 h 2.957"
         style="fill:none;stroke:#0a60ff;stroke-width:1;stroke-linecap:butt;stroke-linejoin:miter;stroke-miterlimit:3;stroke-dasharray:none;stroke-opacity:1"
         transform="matrix(1.3333333,0,0,-1.3333333,697.64373,641.13533)" />
      <path
         id="path36"
         d="M 0,0 H 2.957 M 1.478,-9.402 V 0 M 0,-9.402 h 2.957"
         style="fill:none;stroke:#0a60ff;stroke-width:1;stroke-linecap:butt;stroke-linejoin:miter;stroke-miterlimit:3;stroke-dasharray:none;stroke-opacity:1"
         transform="matrix(1.3333333,0,0,-1.3333333,709.55267,652.82627)" />
      <path
         id="path37"
         d="M 0,0 H 2.957 M 1.478,-5.121 V 0 M 0,-5.121 h 2.957"
         style="fill:none;stroke:#0a60ff;stroke-width:1;stroke-linecap:butt;stroke-linejoin:miter;stroke-miterlimit:3;stroke-dasharray:none;stroke-opacity:1"
         transform="matrix(1.3333333,0,0,-1.3333333,721.4616,646.2508)" />
      <path
         id="path38"
         d="M 0,0 H 2.957 M 1.478,-7.66 V 0 M 0,-7.66 h 2.957"
         style="fill:none;stroke:#0a60ff;stroke-width:1;stroke-linecap:butt;stroke-linejoin:miter;stroke-miterlimit:3;stroke-dasharray:none;stroke-opacity:1"
         transform="matrix(1.3333333,0,0,-1.3333333,733.37067,648.398)" />
      <path
         id="path39"
         d="M 0,0 H 2.957 M 1.478,-4.724 V 0 M 0,-4.724 h 2.957"
         style="fill:none;stroke:#0a60ff;stroke-width:1;stroke-linecap:butt;stroke-linejoin:miter;stroke-miterlimit:3;stroke-dasharray:none;stroke-opacity:1"
         transform="matrix(1.3333333,0,0,-1.3333333,745.2796,647.39347)" />
      <path
         id="path40"
         d="M 0,0 H 2.957 M 1.478,-6.477 V 0 M 0,-6.477 h 2.957"
         style="fill:none;stroke:#0a60ff;stroke-width:1;stroke-linecap:butt;stroke-linejoin:miter;stroke-miterlimit:3;stroke-dasharray:none;stroke-opacity:1"
         transform="matrix(1.3333333,0,0,-1.3333333,757.18853,642.968)" />
      <path
         id="path41"
         d="M 0,0 H 2.957 M 1.478,-7.338 V 0 M 0,-7.338 h 2.957"
         style="fill:none;stroke:#0a60ff;stroke-width:1;stroke-linecap:butt;stroke-linejoin:miter;stroke-miterlimit:3;stroke-dasharray:none;stroke-opacity:1"
         transform="matrix(1.3333333,0,0,-1.3333333,769.09747,653.88827)" />
      <path
         id="path42"
         d="M 0,0 H 2.957 M 1.478,-8.293 V 0 M 0,-8.293 h 2.957"
         style="fill:none;stroke:#0a60ff;stroke-width:1;stroke-linecap:butt;stroke-linejoin:miter;stroke-miterlimit:3;stroke-dasharray:none;stroke-opacity:1"
         transform="matrix(1.3333333,0,0,-1.3333333,781.0064,646.1356)" />
      <path
         id="path43"
         d="M 0,0 H 2.957 M 1.478,-2.355 V 0 M 0,-2.355 h 2.957"
         style="fill:none;stroke:#0a60ff;stroke-width:1;stroke-linecap:butt;stroke-linejoin:miter;stroke-miterlimit:3;stroke-dasharray:none;stroke-opacity:1"
         transform="matrix(1.3333333,0,0,-1.3333333,792.91533,645.66093)" />
      <path
         id="path44"
         d="M 0,0 H 2.957 M 1.478,-8.588 V 0 M 0,-8.588 h 2.957"
         style="fill:none;stroke:#0a60ff;stroke-width:1;stroke-linecap:butt;stroke-linejoin:miter;stroke-miterlimit:3;stroke-dasharray:none;stroke-opacity:1"
         transform="matrix(1.3333333,0,0,-1.3333333,804.82427,645.2924)" />
      <path
         id="path45"
         d="M 0,0 H 2.957 M 1.478,-9.283 V 0 M 0,-9.283 h 2.957"
         style="fill:none;stroke:#0a60ff;stroke-width:1;stroke-linecap:butt;stroke-linejoin:miter;stroke-miterlimit:3;stroke-dasharray:none;stroke-opacity:1"
         transform="matrix(1.3333333,0,0,-1.3333333,816.7332,649.5808)" />
      <path
         id="path46"
         d="M 0,0 H 2.957"
         style="fill:none;stroke:#0a60ff;stroke-width:1;stroke-linecap:butt;stroke-linejoin:miter;stroke-miterlimit:3;stroke-dasharray:none;stroke-opacity:1"
         transform="matrix(1.3333333,0,0,-1.3333333,828.64213,649.0004)" />
      <path
         id="path47"
         d="M 0,0 V 7.693"
         style="fill:none;stroke:#0a60ff;stroke-width:1;stroke-linecap:butt;stroke-linejoin:miter;stroke-miterlimit:3;stroke-dasharray:none;stroke-opacity:1"
         transform="matrix(1.3333333,0,0,-1.3333333,830.61333,649.0004)" />
      <path
         id="path48"
         d="M 0,0 H 2.957"
         style="fill:none;stroke:#0a60ff;stroke-width:1;stroke-linecap:butt;stroke-linejoin:miter;stroke-miterlimit:3;stroke-dasharray:none;stroke-opacity:1"
         transform="matrix(1.3333333,0,0,-1.3333333,828.64213,638.74267)" />
      <path
         id="path49"
         d="m 0,0 8.932,-11.278 8.931,2.923 8.932,10.285 8.932,0.355 8.932,-3.995 8.931,5.938 8.932,2.913 8.932,6.198 8.931,0.142 8.932,3.113 8.932,-8.895 8.931,0.663 8.932,-0.655 8.932,7.915"
         style="fill:none;stroke:#8da3a3;stroke-width:1;stroke-linecap:butt;stroke-linejoin:miter;stroke-miterlimit:3;stroke-dasharray:none;stroke-opacity:1"
         transform="matrix(1.3333333,0,0,-1.3333333,663.41173,691.14627)" />
      <path
         id="path50"
         d="m 0,0 8.932,5.191 8.931,-1.84 8.932,12.315 8.932,-8.433 8.932,7.073 8.931,-2.88 8.932,2.222 8.932,2.442 8.931,-8.621 8.932,5.337 8.932,3.325 8.931,-2.84 8.932,-3.564 8.932,8.924"
         style="fill:none;stroke:#0a60ff;stroke-width:1;stroke-linecap:butt;stroke-linejoin:miter;stroke-miterlimit:3;stroke-dasharray:none;stroke-opacity:1"
         transform="matrix(1.3333333,0,0,-1.3333333,663.888,668.7392)" />
      <text
         id="text50"
         xml:space="preserve"
         transform="matrix(1.3333333,0,0,1.3333333,599.862,691.09587)"><tspan
           id="tspan50"
           style="font-variant:normal;font-weight:normal;font-stretch:normal;font-size:20px;font-family:Arial;writing-mode:lr-tb;fill:#000000;fill-opacity:1;fill-rule:nonzero;stroke:none"
           x="0"
           y="0">*</tspan></text>
      <path
         id="path51"
         d="M 0,0 V -17.199"
         style="fill:none;stroke:#000000;stroke-width:1;stroke-linecap:square;stroke-linejoin:miter;stroke-miterlimit:10;stroke-dasharray:none;stroke-opacity:1"
         transform="matrix(1.3333333,0,0,-1.3333333,598.2904,665.0012)" />
      <path
         id="path52"
         d="M 0,0 H 1.561"
         style="fill:none;stroke:#000000;stroke-width:1;stroke-linecap:square;stroke-linejoin:miter;stroke-miterlimit:10;stroke-dasharray:none;stroke-opacity:1"
         transform="matrix(1.3333333,0,0,-1.3333333,595.21187,665.0012)" />
      <path
         id="path53"
         d="M 0,0 H 1.561"
         style="fill:none;stroke:#000000;stroke-width:1;stroke-linecap:square;stroke-linejoin:miter;stroke-miterlimit:10;stroke-dasharray:none;stroke-opacity:1"
         transform="matrix(1.3333333,0,0,-1.3333333,595.21133,687.93307)" />
      <text
         id="text53"
         xml:space="preserve"
         transform="matrix(1.3333333,0,0,1.3333333,431.05213,667.77813)"><tspan
           id="tspan53"
           style="font-variant:normal;font-weight:normal;font-stretch:normal;font-size:20px;font-family:Arial;writing-mode:lr-tb;fill:#000000;fill-opacity:1;fill-rule:nonzero;stroke:none"
           x="0"
           dx="0 18.959999 9.9799995"
           y="0">***</tspan></text>
      <text
         id="text54"
         xml:space="preserve"
         transform="matrix(1.3333333,0,0,1.3333333,353.83067,622.75667)"><tspan
           id="tspan54"
           style="font-variant:normal;font-weight:700;font-stretch:normal;font-size:15px;font-family:Arial;writing-mode:lr-tb;fill:#000000;fill-opacity:1;fill-rule:nonzero;stroke:none"
           x="0"
           y="0">h</tspan></text>
      <text
         id="text55"
         xml:space="preserve"
         transform="matrix(1.3333333,0,0,1.3333333,431.05213,842.03213)"><tspan
           id="tspan55"
           style="font-variant:normal;font-weight:normal;font-stretch:normal;font-size:12px;font-family:Arial;writing-mode:lr-tb;fill:#000000;fill-opacity:1;fill-rule:nonzero;stroke:none"
           x="0"
           y="0">Recovery sessions</tspan></text>
      <path
         id="path55"
         d="M 0,0 V 1.257"
         style="fill:none;stroke:#000000;stroke-width:1;stroke-linecap:square;stroke-linejoin:miter;stroke-miterlimit:10;stroke-dasharray:none;stroke-opacity:1"
         transform="matrix(1.3333333,0,0,-1.3333333,423.51893,815.60613)" />
      <path
         id="path56"
         d="M 0,0 V 1.257"
         style="fill:none;stroke:#000000;stroke-width:1;stroke-linecap:square;stroke-linejoin:miter;stroke-miterlimit:10;stroke-dasharray:none;stroke-opacity:1"
         transform="matrix(1.3333333,0,0,-1.3333333,471.38213,815.902)" />
      <path
         id="path57"
         d="M 0,0 V 1.257"
         style="fill:none;stroke:#000000;stroke-width:1;stroke-linecap:square;stroke-linejoin:miter;stroke-miterlimit:10;stroke-dasharray:none;stroke-opacity:1"
         transform="matrix(1.3333333,0,0,-1.3333333,530.64147,815.8476)" />
      <path
         id="path58"
         d="M 0,0 V 1.257"
         style="fill:none;stroke:#000000;stroke-width:1;stroke-linecap:square;stroke-linejoin:miter;stroke-miterlimit:10;stroke-dasharray:none;stroke-opacity:1"
         transform="matrix(1.3333333,0,0,-1.3333333,590.98733,815.9952)" />
      <text
         id="text58"
         xml:space="preserve"
         transform="matrix(1.3333333,0,0,1.3333333,419.73373,826.8348)"><tspan
           id="tspan58"
           style="font-variant:normal;font-weight:normal;font-stretch:normal;font-size:10px;font-family:Arial;writing-mode:lr-tb;fill:#000000;fill-opacity:1;fill-rule:nonzero;stroke:none"
           x="0"
           dx="0 30.35 36.41 0 33.68"
           y="0">151015</tspan></text>
      <path
         id="path59"
         d="M 0,0 H 1.565"
         style="fill:none;stroke:#000000;stroke-width:1;stroke-linecap:square;stroke-linejoin:miter;stroke-miterlimit:10;stroke-dasharray:none;stroke-opacity:1"
         transform="matrix(1.3333333,0,0,-1.3333333,415.62093,813.48147)" />
      <path
         id="path60"
         d="M 0,0 H 1.565"
         style="fill:none;stroke:#000000;stroke-width:1;stroke-linecap:square;stroke-linejoin:miter;stroke-miterlimit:10;stroke-dasharray:none;stroke-opacity:1"
         transform="matrix(1.3333333,0,0,-1.3333333,415.62093,767.9916)" />
      <path
         id="path61"
         d="M 0,0 H 1.565"
         style="fill:none;stroke:#000000;stroke-width:1;stroke-linecap:square;stroke-linejoin:miter;stroke-miterlimit:10;stroke-dasharray:none;stroke-opacity:1"
         transform="matrix(1.3333333,0,0,-1.3333333,415.62093,722.9116)" />
      <path
         id="path62"
         d="M 0,0 H 1.565"
         style="fill:none;stroke:#000000;stroke-width:1;stroke-linecap:square;stroke-linejoin:miter;stroke-miterlimit:10;stroke-dasharray:none;stroke-opacity:1"
         transform="matrix(1.3333333,0,0,-1.3333333,415.62093,677.4216)" />
      <path
         id="path63"
         d="M 0,0 H 1.565"
         style="fill:none;stroke:#000000;stroke-width:1;stroke-linecap:square;stroke-linejoin:miter;stroke-miterlimit:10;stroke-dasharray:none;stroke-opacity:1"
         transform="matrix(1.3333333,0,0,-1.3333333,415.62093,632.3416)" />
      <path
         id="path64"
         d="M 0,0 H -134.599"
         style="fill:none;stroke:#000000;stroke-width:1;stroke-linecap:square;stroke-linejoin:miter;stroke-miterlimit:10;stroke-dasharray:none;stroke-opacity:1"
         transform="matrix(1.3333333,0,0,-1.3333333,597.17267,813.48147)" />
      <path
         id="path65"
         d="M 0,0 V 135.855"
         style="fill:none;stroke:#000000;stroke-width:1;stroke-linecap:square;stroke-linejoin:miter;stroke-miterlimit:10;stroke-dasharray:none;stroke-opacity:1"
         transform="matrix(1.3333333,0,0,-1.3333333,417.70773,813.48147)" />
      <text
         id="text65"
         xml:space="preserve"
         transform="matrix(1.3333333,0,0,1.3333333,390.01307,638.6408)"><tspan
           id="tspan65"
           style="font-variant:normal;font-weight:normal;font-stretch:normal;font-size:10px;font-family:Arial;writing-mode:lr-tb;fill:#000000;fill-opacity:1;fill-rule:nonzero;stroke:none"
           x="0"
           y="0">100</tspan><tspan
           id="tspan66"
           style="font-variant:normal;font-weight:normal;font-stretch:normal;font-size:10px;font-family:Arial;writing-mode:lr-tb;fill:#000000;fill-opacity:1;fill-rule:nonzero;stroke:none"
           x="5.5599999"
           y="34.52">95</tspan><tspan
           id="tspan67"
           style="font-variant:normal;font-weight:normal;font-stretch:normal;font-size:10px;font-family:Arial;writing-mode:lr-tb;fill:#000000;fill-opacity:1;fill-rule:nonzero;stroke:none"
           x="5.5599999"
           y="134.48">80</tspan><tspan
           id="tspan68"
           style="font-variant:normal;font-weight:normal;font-stretch:normal;font-size:10px;font-family:Arial;writing-mode:lr-tb;fill:#000000;fill-opacity:1;fill-rule:nonzero;stroke:none"
           x="5.5599999"
           y="101.03">85</tspan><tspan
           id="tspan69"
           style="font-variant:normal;font-weight:normal;font-stretch:normal;font-size:10px;font-family:Arial;writing-mode:lr-tb;fill:#000000;fill-opacity:1;fill-rule:nonzero;stroke:none"
           x="5.5599999"
           y="67.639999">90</tspan></text>
      <text
         id="text69"
         xml:space="preserve"
         transform="matrix(0,-1.3333333,1.3333333,0,371.04947,791.7052)"><tspan
           id="tspan70"
           style="font-variant:normal;font-weight:normal;font-stretch:normal;font-size:12px;font-family:Arial;writing-mode:lr-tb;fill:#1a1718;fill-opacity:1;fill-rule:nonzero;stroke:none"
           x="0"
           y="0">Reach consistency</tspan><tspan
           id="tspan71"
           style="font-variant:normal;font-weight:normal;font-stretch:normal;font-size:12px;font-family:Arial;writing-mode:lr-tb;fill:#1a1718;fill-opacity:1;fill-rule:nonzero;stroke:none"
           x="0"
           y="14.4"> within session (%)</tspan></text>
      <path
         id="path71"
         d="M 0,0 H 2.98 M 1.49,-34.319 V 0 M 0,-34.319 h 2.98"
         style="fill:none;stroke:#8da3a3;stroke-width:1;stroke-linecap:butt;stroke-linejoin:miter;stroke-miterlimit:3;stroke-dasharray:none;stroke-opacity:1"
         transform="matrix(1.3333333,0,0,-1.3333333,421.29507,692.61053)" />
      <path
         id="path72"
         d="M 0,0 H 2.98 M 1.49,-51.64 V 0 M 0,-51.64 h 2.98"
         style="fill:none;stroke:#8da3a3;stroke-width:1;stroke-linecap:butt;stroke-linejoin:miter;stroke-miterlimit:3;stroke-dasharray:none;stroke-opacity:1"
         transform="matrix(1.3333333,0,0,-1.3333333,433.29747,706.02747)" />
      <path
         id="path73"
         d="M 0,0 H 2.98 M 1.49,-37.708 V 0 M 0,-37.708 h 2.98"
         style="fill:none;stroke:#8da3a3;stroke-width:1;stroke-linecap:butt;stroke-linejoin:miter;stroke-miterlimit:3;stroke-dasharray:none;stroke-opacity:1"
         transform="matrix(1.3333333,0,0,-1.3333333,445.29973,697.65587)" />
      <path
         id="path74"
         d="M 0,0 H 2.98 M 1.49,-23.646 V 0 M 0,-23.646 h 2.98"
         style="fill:none;stroke:#8da3a3;stroke-width:1;stroke-linecap:butt;stroke-linejoin:miter;stroke-miterlimit:3;stroke-dasharray:none;stroke-opacity:1"
         transform="matrix(1.3333333,0,0,-1.3333333,457.30187,686.07347)" />
      <path
         id="path75"
         d="M 0,0 H 2.98 M 1.49,-34.543 V 0 M 0,-34.543 h 2.98"
         style="fill:none;stroke:#8da3a3;stroke-width:1;stroke-linecap:butt;stroke-linejoin:miter;stroke-miterlimit:3;stroke-dasharray:none;stroke-opacity:1"
         transform="matrix(1.3333333,0,0,-1.3333333,469.30413,705.5784)" />
      <path
         id="path76"
         d="M 0,0 H 2.98 M 1.49,-27.35 V 0 M 0,-27.35 h 2.98"
         style="fill:none;stroke:#8da3a3;stroke-width:1;stroke-linecap:butt;stroke-linejoin:miter;stroke-miterlimit:3;stroke-dasharray:none;stroke-opacity:1"
         transform="matrix(1.3333333,0,0,-1.3333333,481.30653,690.2928)" />
      <path
         id="path77"
         d="M 0,0 H 2.98 M 1.49,-41.259 V 0 M 0,-41.259 h 2.98"
         style="fill:none;stroke:#8da3a3;stroke-width:1;stroke-linecap:butt;stroke-linejoin:miter;stroke-miterlimit:3;stroke-dasharray:none;stroke-opacity:1"
         transform="matrix(1.3333333,0,0,-1.3333333,493.3088,690.506)" />
      <path
         id="path78"
         d="M 0,0 H 2.98 M 1.49,-21.796 V 0 M 0,-21.796 h 2.98"
         style="fill:none;stroke:#8da3a3;stroke-width:1;stroke-linecap:butt;stroke-linejoin:miter;stroke-miterlimit:3;stroke-dasharray:none;stroke-opacity:1"
         transform="matrix(1.3333333,0,0,-1.3333333,505.31107,683.00213)" />
      <path
         id="path79"
         d="M 0,0 H 2.98 M 1.49,-21.85 V 0 M 0,-21.85 h 2.98"
         style="fill:none;stroke:#8da3a3;stroke-width:1;stroke-linecap:butt;stroke-linejoin:miter;stroke-miterlimit:3;stroke-dasharray:none;stroke-opacity:1"
         transform="matrix(1.3333333,0,0,-1.3333333,517.31333,686.24933)" />
      <path
         id="path80"
         d="M 0,0 H 2.98 M 1.49,-18.782 V 0 M 0,-18.782 h 2.98"
         style="fill:none;stroke:#8da3a3;stroke-width:1;stroke-linecap:butt;stroke-linejoin:miter;stroke-miterlimit:3;stroke-dasharray:none;stroke-opacity:1"
         transform="matrix(1.3333333,0,0,-1.3333333,529.3156,680.74307)" />
      <path
         id="path81"
         d="M 0,0 H 2.98 M 1.49,-20.426 V 0 M 0,-20.426 h 2.98"
         style="fill:none;stroke:#8da3a3;stroke-width:1;stroke-linecap:butt;stroke-linejoin:miter;stroke-miterlimit:3;stroke-dasharray:none;stroke-opacity:1"
         transform="matrix(1.3333333,0,0,-1.3333333,541.31787,685.664)" />
      <path
         id="path82"
         d="M 0,0 H 2.98 M 1.49,-17.619 V 0 M 0,-17.619 h 2.98"
         style="fill:none;stroke:#8da3a3;stroke-width:1;stroke-linecap:butt;stroke-linejoin:miter;stroke-miterlimit:3;stroke-dasharray:none;stroke-opacity:1"
         transform="matrix(1.3333333,0,0,-1.3333333,553.32013,679.19787)" />
      <path
         id="path83"
         d="M 0,0 H 2.98 M 1.49,-20.401 V 0 M 0,-20.401 h 2.98"
         style="fill:none;stroke:#8da3a3;stroke-width:1;stroke-linecap:butt;stroke-linejoin:miter;stroke-miterlimit:3;stroke-dasharray:none;stroke-opacity:1"
         transform="matrix(1.3333333,0,0,-1.3333333,565.3224,687.65747)" />
      <path
         id="path84"
         d="M 0,0 H 2.98 M 1.49,-26.555 V 0 M 0,-26.555 h 2.98"
         style="fill:none;stroke:#8da3a3;stroke-width:1;stroke-linecap:butt;stroke-linejoin:miter;stroke-miterlimit:3;stroke-dasharray:none;stroke-opacity:1"
         transform="matrix(1.3333333,0,0,-1.3333333,577.32467,683.4076)" />
      <path
         id="path85"
         d="M 0,0 H 2.98 M 1.49,-13.999 V 0 M 0,-13.999 h 2.98"
         style="fill:none;stroke:#8da3a3;stroke-width:1;stroke-linecap:butt;stroke-linejoin:miter;stroke-miterlimit:3;stroke-dasharray:none;stroke-opacity:1"
         transform="matrix(1.3333333,0,0,-1.3333333,589.32693,678.7568)" />
      <path
         id="path86"
         d="M 0,0 H 2.98 M 1.49,-10.936 V 0 M 0,-10.936 h 2.98"
         style="fill:none;stroke:#0a60ff;stroke-width:1;stroke-linecap:butt;stroke-linejoin:miter;stroke-miterlimit:3;stroke-dasharray:none;stroke-opacity:1"
         transform="matrix(1.3333333,0,0,-1.3333333,421.7752,675.51107)" />
      <path
         id="path87"
         d="M 0,0 H 2.98 M 1.49,-12.398 V 0 M 0,-12.398 h 2.98"
         style="fill:none;stroke:#0a60ff;stroke-width:1;stroke-linecap:butt;stroke-linejoin:miter;stroke-miterlimit:3;stroke-dasharray:none;stroke-opacity:1"
         transform="matrix(1.3333333,0,0,-1.3333333,433.77747,670.72507)" />
      <path
         id="path88"
         d="M 0,0 H 2.98 M 1.49,-26.208 V 0 M 0,-26.208 h 2.98"
         style="fill:none;stroke:#0a60ff;stroke-width:1;stroke-linecap:butt;stroke-linejoin:miter;stroke-miterlimit:3;stroke-dasharray:none;stroke-opacity:1"
         transform="matrix(1.3333333,0,0,-1.3333333,445.77973,663.37573)" />
      <path
         id="path89"
         d="M 0,0 H 2.98 M 1.49,-5.973 V 0 M 0,-5.973 h 2.98"
         style="fill:none;stroke:#0a60ff;stroke-width:1;stroke-linecap:butt;stroke-linejoin:miter;stroke-miterlimit:3;stroke-dasharray:none;stroke-opacity:1"
         transform="matrix(1.3333333,0,0,-1.3333333,457.782,660.63533)" />
      <path
         id="path90"
         d="M 0,0 H 2.98 M 1.49,-5.554 V 0 M 0,-5.554 h 2.98"
         style="fill:none;stroke:#0a60ff;stroke-width:1;stroke-linecap:butt;stroke-linejoin:miter;stroke-miterlimit:3;stroke-dasharray:none;stroke-opacity:1"
         transform="matrix(1.3333333,0,0,-1.3333333,469.78427,667.97013)" />
      <path
         id="path91"
         d="M 0,0 H 2.98 M 1.49,-7.969 V 0 M 0,-7.969 h 2.98"
         style="fill:none;stroke:#0a60ff;stroke-width:1;stroke-linecap:butt;stroke-linejoin:miter;stroke-miterlimit:3;stroke-dasharray:none;stroke-opacity:1"
         transform="matrix(1.3333333,0,0,-1.3333333,481.78653,662.33267)" />
      <path
         id="path92"
         d="M 0,0 H 2.98 M 1.49,-4.945 V 0 M 0,-4.945 h 2.98"
         style="fill:none;stroke:#0a60ff;stroke-width:1;stroke-linecap:butt;stroke-linejoin:miter;stroke-miterlimit:3;stroke-dasharray:none;stroke-opacity:1"
         transform="matrix(1.3333333,0,0,-1.3333333,493.7888,662.22307)" />
      <path
         id="path93"
         d="M 0,0 H 2.98 M 1.49,-13.202 V 0 M 0,-13.202 h 2.98"
         style="fill:none;stroke:#0a60ff;stroke-width:1;stroke-linecap:butt;stroke-linejoin:miter;stroke-miterlimit:3;stroke-dasharray:none;stroke-opacity:1"
         transform="matrix(1.3333333,0,0,-1.3333333,505.79107,667.09627)" />
      <path
         id="path94"
         d="M 0,0 H 2.98 M 1.49,-8.387 V 0 M 0,-8.387 h 2.98"
         style="fill:none;stroke:#0a60ff;stroke-width:1;stroke-linecap:butt;stroke-linejoin:miter;stroke-miterlimit:3;stroke-dasharray:none;stroke-opacity:1"
         transform="matrix(1.3333333,0,0,-1.3333333,517.79333,663.09627)" />
      <path
         id="path95"
         d="M 0,0 H 2.98 M 1.49,-9.584 V 0 M 0,-9.584 h 2.98"
         style="fill:none;stroke:#0a60ff;stroke-width:1;stroke-linecap:butt;stroke-linejoin:miter;stroke-miterlimit:3;stroke-dasharray:none;stroke-opacity:1"
         transform="matrix(1.3333333,0,0,-1.3333333,529.7956,669.78387)" />
      <path
         id="path96"
         d="M 0,0 H 2.98 M 1.49,-11.266 V 0 M 0,-11.266 h 2.98"
         style="fill:none;stroke:#0a60ff;stroke-width:1;stroke-linecap:butt;stroke-linejoin:miter;stroke-miterlimit:3;stroke-dasharray:none;stroke-opacity:1"
         transform="matrix(1.3333333,0,0,-1.3333333,541.79787,666.51227)" />
      <path
         id="path97"
         d="M 0,0 H 2.98 M 1.49,-6.198 V 0 M 0,-6.198 h 2.98"
         style="fill:none;stroke:#0a60ff;stroke-width:1;stroke-linecap:butt;stroke-linejoin:miter;stroke-miterlimit:3;stroke-dasharray:none;stroke-opacity:1"
         transform="matrix(1.3333333,0,0,-1.3333333,553.80027,662.42253)" />
      <path
         id="path98"
         d="M 0,0 H 2.98 M 1.49,-8.789 V 0 M 0,-8.789 h 2.98"
         style="fill:none;stroke:#0a60ff;stroke-width:1;stroke-linecap:butt;stroke-linejoin:miter;stroke-miterlimit:3;stroke-dasharray:none;stroke-opacity:1"
         transform="matrix(1.3333333,0,0,-1.3333333,565.80253,664.41733)" />
      <path
         id="path99"
         d="M 0,0 H 2.98 M 1.49,-6.451 V 0 M 0,-6.451 h 2.98"
         style="fill:none;stroke:#0a60ff;stroke-width:1;stroke-linecap:butt;stroke-linejoin:miter;stroke-miterlimit:3;stroke-dasharray:none;stroke-opacity:1"
         transform="matrix(1.3333333,0,0,-1.3333333,577.8048,665.77933)" />
      <path
         id="path100"
         d="M 0,0 H 2.98 M 1.49,-9.722 V 0 M 0,-9.722 h 2.98"
         style="fill:none;stroke:#0a60ff;stroke-width:1;stroke-linecap:butt;stroke-linejoin:miter;stroke-miterlimit:3;stroke-dasharray:none;stroke-opacity:1"
         transform="matrix(1.3333333,0,0,-1.3333333,589.80707,658.1584)" />
      <path
         id="path101"
         d="m 0,0 9.002,-18.723 9.001,13.244 9.002,15.718 9.002,-20.077 9.002,15.061 9.001,-7.115 9.002,15.36 9.002,-2.463 9.001,5.664 9.002,-4.513 9.002,6.253 9.001,-7.736 9.002,0.111 9.002,9.766"
         style="fill:none;stroke:#8da3a3;stroke-width:1;stroke-linecap:butt;stroke-linejoin:miter;stroke-miterlimit:3;stroke-dasharray:none;stroke-opacity:1"
         transform="matrix(1.3333333,0,0,-1.3333333,423.28173,715.48973)" />
      <path
         id="path102"
         d="m 0,0 9.002,2.858 9.001,-1.392 9.002,12.172 9.002,-5.291 9.002,3.02 9.001,1.594 9.002,-7.783 9.002,5.408 9.001,-5.614 9.002,1.612 9.002,5.601 9.001,-2.791 9.002,0.147 9.002,4.08"
         style="fill:none;stroke:#0a60ff;stroke-width:1;stroke-linecap:butt;stroke-linejoin:miter;stroke-miterlimit:3;stroke-dasharray:none;stroke-opacity:1"
         transform="matrix(1.3333333,0,0,-1.3333333,423.76187,682.80187)" />
    </g>
  </g>
</svg>
