<?xml version="1.0" encoding="UTF-8" standalone="no"?>
<!-- Created with Inkscape (http://www.inkscape.org/) -->

<svg
   version="1.1"
   id="svg1"
   width="284.4314"
   height="212.21619"
   viewBox="0 0 284.4314 212.21619"
   sodipodi:docname="2026-01-13 all figures CM.pdf"
   inkscape:export-filename="fig5.pdf"
   inkscape:export-xdpi="96"
   inkscape:export-ydpi="96"
   xmlns:inkscape="http://www.inkscape.org/namespaces/inkscape"
   xmlns:sodipodi="http://sodipodi.sourceforge.net/DTD/sodipodi-0.dtd"
   xmlns="http://www.w3.org/2000/svg"
   xmlns:svg="http://www.w3.org/2000/svg">
  <defs
     id="defs1" />
  <sodipodi:namedview
     id="namedview1"
     pagecolor="#ffffff"
     bordercolor="#000000"
     borderopacity="0.25"
     inkscape:showpageshadow="2"
     inkscape:pageopacity="0.0"
     inkscape:pagecheckerboard="0"
     inkscape:deskcolor="#d1d1d1">
    <inkscape:page
       x="0"
       y="0"
       width="284.4314"
       height="212.21619"
       id="page2"
       margin="0"
       bleed="0" />
  </sodipodi:namedview>
  <g
     id="layer-MC10"
     inkscape:groupmode="layer"
     inkscape:label="Fig 5"
     transform="translate(-44.132759,-52.544398)">
    <g
       id="g846">
      <path
         id="path815"
         d="M 0,0 V -1.838"
         style="fill:none;stroke:#000000;stroke-width:0.895;stroke-linecap:butt;stroke-linejoin:miter;stroke-miterlimit:3;stroke-dasharray:none;stroke-opacity:1"
         transform="matrix(1.3333333,0,0,-1.3333333,65.791867,135.4768)" />
      <text
         id="text815"
         xml:space="preserve"
         transform="matrix(1.3333333,0,0,1.3333333,63.964133,209.98)"><tspan
           id="tspan815"
           style="font-variant:normal;font-weight:normal;font-stretch:normal;font-size:9px;font-family:Arial;writing-mode:lr-tb;fill:#0a60ff;fill-opacity:1;fill-rule:nonzero;stroke:none"
           x="0"
           y="0">Paired VNS Recovery</tspan></text>
      <text
         id="text816"
         xml:space="preserve"
         transform="matrix(1.3333333,0,0,1.3333333,54.892133,248.2)"><tspan
           id="tspan816"
           style="font-variant:normal;font-weight:normal;font-stretch:normal;font-size:9px;font-family:Arial;writing-mode:lr-tb;fill:#000000;fill-opacity:1;fill-rule:nonzero;stroke:none"
           x="0"
           dx="0 0 0 55.737 0 0 14.436 0 -56.583 0 0 61.362 14.67 0 14.715 0 12.15 0 -174.645"
           y="0">-35-14-7-210101724-28</tspan></text>
      <path
         id="path816"
         d="M 0,0 193.295,-0.398"
         style="fill:none;stroke:#000000;stroke-width:0.895;stroke-linecap:square;stroke-linejoin:miter;stroke-miterlimit:3;stroke-dasharray:none;stroke-opacity:1"
         transform="matrix(1.3333333,0,0,-1.3333333,65.792267,234.01267)" />
      <path
         id="path817"
         d="m 0,0 c -0.97,0.295 -1.601,0.566 -2.379,0.881 l -0.006,-2.962 c 0.279,0.132 1.411,0.579 2.382,0.871 1.04,0.311 1.983,0.523 2.594,0.599 C 1.98,-0.534 1.039,-0.316 0,0"
         style="fill:#000000;fill-opacity:1;fill-rule:nonzero;stroke:none"
         transform="matrix(1.3333333,0,0,-1.3333333,325.10947,233.7432)" />
      <path
         id="path818"
         d="M 165.982,677.086 H 96.226 v 10.236 h 69.756 z"
         style="fill:#d99266;fill-opacity:1;fill-rule:nonzero;stroke:none"
         transform="matrix(1.3333333,0,0,-1.3333333,0,1131.5907)" />
      <text
         id="text818"
         xml:space="preserve"
         transform="matrix(1.3333333,0,0,1.3333333,136.1172,226.98787)"><tspan
           id="tspan818"
           style="font-variant:normal;font-weight:normal;font-stretch:normal;font-size:9px;font-family:Arial;writing-mode:lr-tb;fill:#ffffff;fill-opacity:1;fill-rule:nonzero;stroke:none"
           x="0"
           y="0">Cuprizone diet</tspan></text>
      <path
         id="path819"
         d="M 0,0 V -1.838"
         style="fill:none;stroke:#000000;stroke-width:0.895;stroke-linecap:butt;stroke-linejoin:miter;stroke-miterlimit:3;stroke-dasharray:none;stroke-opacity:1"
         transform="matrix(1.3333333,0,0,-1.3333333,65.792267,234.01267)" />
      <path
         id="path820"
         d="M 0,0 V -1.838"
         style="fill:none;stroke:#000000;stroke-width:0.895;stroke-linecap:butt;stroke-linejoin:miter;stroke-miterlimit:3;stroke-dasharray:none;stroke-opacity:1"
         transform="matrix(1.3333333,0,0,-1.3333333,96.7832,234.01267)" />
      <path
         id="path821"
         d="M 0,0 V -1.838"
         style="fill:none;stroke:#000000;stroke-width:0.895;stroke-linecap:butt;stroke-linejoin:miter;stroke-miterlimit:3;stroke-dasharray:none;stroke-opacity:1"
         transform="matrix(1.3333333,0,0,-1.3333333,128.3016,234.01267)" />
      <path
         id="path822"
         d="M 0,0 V -1.838"
         style="fill:none;stroke:#000000;stroke-width:0.895;stroke-linecap:butt;stroke-linejoin:miter;stroke-miterlimit:3;stroke-dasharray:none;stroke-opacity:1"
         transform="matrix(1.3333333,0,0,-1.3333333,157.96267,234.01267)" />
      <path
         id="path823"
         d="M 0,0 V -1.838"
         style="fill:none;stroke:#000000;stroke-width:0.895;stroke-linecap:butt;stroke-linejoin:miter;stroke-miterlimit:3;stroke-dasharray:none;stroke-opacity:1"
         transform="matrix(1.3333333,0,0,-1.3333333,188.9536,234.01267)" />
      <path
         id="path824"
         d="M 0,0 V -1.838"
         style="fill:none;stroke:#000000;stroke-width:0.895;stroke-linecap:butt;stroke-linejoin:miter;stroke-miterlimit:3;stroke-dasharray:none;stroke-opacity:1"
         transform="matrix(1.3333333,0,0,-1.3333333,220.472,234.01267)" />
      <path
         id="path825"
         d="M 0,0 V -1.838"
         style="fill:none;stroke:#000000;stroke-width:0.895;stroke-linecap:butt;stroke-linejoin:miter;stroke-miterlimit:3;stroke-dasharray:none;stroke-opacity:1"
         transform="matrix(1.3333333,0,0,-1.3333333,250.37413,234.45547)" />
      <path
         id="path826"
         d="M 0,0 V -1.838"
         style="fill:none;stroke:#000000;stroke-width:0.895;stroke-linecap:butt;stroke-linejoin:miter;stroke-miterlimit:3;stroke-dasharray:none;stroke-opacity:1"
         transform="matrix(1.3333333,0,0,-1.3333333,282.2792,234.45547)" />
      <path
         id="path827"
         d="M 0,0 V -1.838"
         style="fill:none;stroke:#000000;stroke-width:0.895;stroke-linecap:butt;stroke-linejoin:miter;stroke-miterlimit:3;stroke-dasharray:none;stroke-opacity:1"
         transform="matrix(1.3333333,0,0,-1.3333333,314.18413,234.45547)" />
      <path
         id="path828"
         d="M 72.587,677.086 H 49.344 v 10.236 h 23.243 z"
         style="fill:#89a02d;fill-opacity:1;fill-rule:nonzero;stroke:none"
         transform="matrix(1.3333333,0,0,-1.3333333,0,1131.5907)" />
      <text
         id="text828"
         xml:space="preserve"
         transform="matrix(1.3333333,0,0,1.3333333,66.7728,226.98787)"><tspan
           id="tspan828"
           style="font-variant:normal;font-weight:normal;font-stretch:normal;font-size:9px;font-family:Arial;writing-mode:lr-tb;fill:#ffffff;fill-opacity:1;fill-rule:nonzero;stroke:none"
           x="0"
           y="0">learn </tspan></text>
      <path
         id="path829"
         d="m 235.661,677.083 h -66.657 v 10.236 h 66.657 z"
         style="fill:#0a60ff;fill-opacity:1;fill-rule:nonzero;stroke:none"
         transform="matrix(1.3333333,0,0,-1.3333333,0,1131.5907)" />
      <text
         id="text829"
         xml:space="preserve"
         transform="matrix(1.3333333,0,0,1.3333333,244.4356,226.2756)"><tspan
           id="tspan829"
           style="font-variant:normal;font-weight:normal;font-stretch:normal;font-size:9px;font-family:Arial;writing-mode:lr-tb;fill:#ffffff;fill-opacity:1;fill-rule:nonzero;stroke:none"
           x="0"
           y="0">Recovery</tspan></text>
      <text
         id="text830"
         xml:space="preserve"
         transform="matrix(1.3333333,0,0,1.3333333,144.5596,164.8476)"><tspan
           id="tspan830"
           style="font-variant:normal;font-weight:normal;font-stretch:normal;font-size:9px;font-family:Arial;writing-mode:lr-tb;fill:#000000;fill-opacity:1;fill-rule:nonzero;stroke:none"
           x="0"
           y="0">Days post-cuprizone</tspan><tspan
           id="tspan831"
           style="font-variant:normal;font-weight:normal;font-stretch:normal;font-size:9px;font-family:Arial;writing-mode:lr-tb;fill:#000000;fill-opacity:1;fill-rule:nonzero;stroke:none"
           x="-67.356003"
           dx="0 0 0 55.737 0 0 14.436 0 -80.477997 0 0 10.89 0 0 61.362"
           y="-12.636">-35-14-7-28-210</tspan></text>
      <path
         id="path831"
         d="M 0,0 V -1.838"
         style="fill:none;stroke:#000000;stroke-width:0.895;stroke-linecap:butt;stroke-linejoin:miter;stroke-miterlimit:3;stroke-dasharray:none;stroke-opacity:1"
         transform="matrix(1.3333333,0,0,-1.3333333,96.7828,135.4768)" />
      <path
         id="path832"
         d="M 0,0 V -1.838"
         style="fill:none;stroke:#000000;stroke-width:0.895;stroke-linecap:butt;stroke-linejoin:miter;stroke-miterlimit:3;stroke-dasharray:none;stroke-opacity:1"
         transform="matrix(1.3333333,0,0,-1.3333333,128.3012,135.4768)" />
      <path
         id="path833"
         d="M 0,0 V -1.838"
         style="fill:none;stroke:#000000;stroke-width:0.895;stroke-linecap:butt;stroke-linejoin:miter;stroke-miterlimit:3;stroke-dasharray:none;stroke-opacity:1"
         transform="matrix(1.3333333,0,0,-1.3333333,157.96227,135.4768)" />
      <path
         id="path834"
         d="M 0,0 V -1.838"
         style="fill:none;stroke:#000000;stroke-width:0.895;stroke-linecap:butt;stroke-linejoin:miter;stroke-miterlimit:3;stroke-dasharray:none;stroke-opacity:1"
         transform="matrix(1.3333333,0,0,-1.3333333,188.9532,135.4768)" />
      <path
         id="path835"
         d="M 0,0 V -1.838"
         style="fill:none;stroke:#000000;stroke-width:0.895;stroke-linecap:butt;stroke-linejoin:miter;stroke-miterlimit:3;stroke-dasharray:none;stroke-opacity:1"
         transform="matrix(1.3333333,0,0,-1.3333333,220.47173,135.4768)" />
      <text
         id="text835"
         xml:space="preserve"
         transform="matrix(1.3333333,0,0,1.3333333,243.60547,147.9956)"><tspan
           id="tspan835"
           style="font-variant:normal;font-weight:normal;font-stretch:normal;font-size:9px;font-family:Arial;writing-mode:lr-tb;fill:#000000;fill-opacity:1;fill-rule:nonzero;stroke:none"
           x="0"
           y="0">10</tspan></text>
      <path
         id="path836"
         d="M 0,0 V -1.838"
         style="fill:none;stroke:#000000;stroke-width:0.895;stroke-linecap:butt;stroke-linejoin:miter;stroke-miterlimit:3;stroke-dasharray:none;stroke-opacity:1"
         transform="matrix(1.3333333,0,0,-1.3333333,250.37387,135.91933)" />
      <path
         id="path837"
         d="M 0,0 V -1.838"
         style="fill:none;stroke:#000000;stroke-width:0.895;stroke-linecap:butt;stroke-linejoin:miter;stroke-miterlimit:3;stroke-dasharray:none;stroke-opacity:1"
         transform="matrix(1.3333333,0,0,-1.3333333,282.2788,135.91933)" />
      <text
         id="text837"
         xml:space="preserve"
         transform="matrix(1.3333333,0,0,1.3333333,276.5664,147.9956)"><tspan
           id="tspan837"
           style="font-variant:normal;font-weight:normal;font-stretch:normal;font-size:9px;font-family:Arial;writing-mode:lr-tb;fill:#000000;fill-opacity:1;fill-rule:nonzero;stroke:none"
           x="0"
           y="0">17</tspan></text>
      <path
         id="path838"
         d="M 0,0 V -1.838"
         style="fill:none;stroke:#000000;stroke-width:0.895;stroke-linecap:butt;stroke-linejoin:miter;stroke-miterlimit:3;stroke-dasharray:none;stroke-opacity:1"
         transform="matrix(1.3333333,0,0,-1.3333333,314.18373,135.91933)" />
      <text
         id="text838"
         xml:space="preserve"
         transform="matrix(1.3333333,0,0,1.3333333,306.10813,147.9956)"><tspan
           id="tspan838"
           style="font-variant:normal;font-weight:normal;font-stretch:normal;font-size:9px;font-family:Arial;writing-mode:lr-tb;fill:#000000;fill-opacity:1;fill-rule:nonzero;stroke:none"
           x="0"
           y="0">24</tspan></text>
      <path
         id="path839"
         d="m 235.662,750.988 h -66.658 v 10.236 h 66.658 z"
         style="fill:#8da2a2;fill-opacity:1;fill-rule:nonzero;stroke:none"
         transform="matrix(1.3333333,0,0,-1.3333333,0,1131.5907)" />
      <text
         id="text839"
         xml:space="preserve"
         transform="matrix(1.3333333,0,0,1.3333333,244.4368,127.85893)"><tspan
           id="tspan839"
           style="font-variant:normal;font-weight:normal;font-stretch:normal;font-size:9px;font-family:Arial;writing-mode:lr-tb;fill:#ffffff;fill-opacity:1;fill-rule:nonzero;stroke:none"
           x="0"
           y="0">Recovery</tspan></text>
      <path
         id="path840"
         d="M 72.587,750.988 H 49.344 v 10.236 h 23.243 z"
         style="fill:#89a02d;fill-opacity:1;fill-rule:nonzero;stroke:none"
         transform="matrix(1.3333333,0,0,-1.3333333,0,1131.5907)" />
      <text
         id="text840"
         xml:space="preserve"
         transform="matrix(1.3333333,0,0,1.3333333,66.772133,127.85893)"><tspan
           id="tspan840"
           style="font-variant:normal;font-weight:normal;font-stretch:normal;font-size:9px;font-family:Arial;writing-mode:lr-tb;fill:#ffffff;fill-opacity:1;fill-rule:nonzero;stroke:none"
           x="0"
           y="0">learn </tspan></text>
      <text
         id="text841"
         xml:space="preserve"
         transform="matrix(1.3333333,0,0,1.3333333,63.964133,112.89493)"><tspan
           id="tspan841"
           style="font-variant:normal;font-weight:normal;font-stretch:normal;font-size:9px;font-family:Arial;writing-mode:lr-tb;fill:#8da3a3;fill-opacity:1;fill-rule:nonzero;stroke:none"
           x="0"
           y="0">Motor Recovery</tspan></text>
      <path
         id="path841"
         d="M 165.982,750.988 H 96.226 v 10.236 h 69.756 z"
         style="fill:#d99266;fill-opacity:1;fill-rule:nonzero;stroke:none"
         transform="matrix(1.3333333,0,0,-1.3333333,0,1131.5907)" />
      <text
         id="text842"
         xml:space="preserve"
         transform="matrix(1.3333333,0,0,1.3333333,136.1172,127.85893)"><tspan
           id="tspan842"
           style="font-variant:normal;font-weight:normal;font-stretch:normal;font-size:9px;font-family:Arial;writing-mode:lr-tb;fill:#ffffff;fill-opacity:1;fill-rule:nonzero;stroke:none"
           x="0"
           y="0">Cuprizone diet</tspan></text>
      <path
         id="path842"
         d="m 0,0 c -0.97,0.295 -1.601,0.566 -2.379,0.881 l -0.006,-2.962 c 0.278,0.132 1.411,0.579 2.382,0.871 1.04,0.311 1.982,0.523 2.594,0.599 C 1.979,-0.534 1.039,-0.316 0,0"
         style="fill:#000000;fill-opacity:1;fill-rule:nonzero;stroke:none"
         transform="matrix(1.3333333,0,0,-1.3333333,325.1092,135.2072)" />
      <path
         id="path843"
         d="M 0,0 193.295,-0.398"
         style="fill:none;stroke:#000000;stroke-width:0.895;stroke-linecap:square;stroke-linejoin:miter;stroke-miterlimit:3;stroke-dasharray:none;stroke-opacity:1"
         transform="matrix(1.3333333,0,0,-1.3333333,65.791867,135.4768)" />
      <text
         id="text843"
         xml:space="preserve"
         transform="matrix(1.3333333,0,0,1.3333333,144.56253,262.2352)"><tspan
           id="tspan843"
           style="font-variant:normal;font-weight:normal;font-stretch:normal;font-size:9px;font-family:Arial;writing-mode:lr-tb;fill:#000000;fill-opacity:1;fill-rule:nonzero;stroke:none"
           x="0"
           y="0">Days post-cuprizone</tspan></text>
      <text
         id="text844"
         xml:space="preserve"
         transform="matrix(1.3333333,0,0,1.3333333,43.419867,63.149867)"><tspan
           id="tspan844"
           style="font-variant:normal;font-weight:700;font-stretch:normal;font-size:15px;font-family:Arial;writing-mode:lr-tb;fill:#000000;fill-opacity:1;fill-rule:nonzero;stroke:none"
           x="0"
           y="0">a</tspan></text>
    </g>
    <text
       id="text845"
       xml:space="preserve"
       transform="matrix(1.3333333,0,0,1.3333333,44.590533,1111.3928)"><tspan
         id="tspan845"
         style="font-variant:normal;font-weight:normal;font-stretch:normal;font-size:12px;font-family:Arial;writing-mode:lr-tb;fill:#000000;fill-opacity:1;fill-rule:nonzero;stroke:none"
         x="0"
         y="0">Figure 5. Paired VNS improves functional recovery after demyelination. </tspan><tspan
         id="tspan846"
         style="font-variant:normal;font-weight:normal;font-stretch:normal;font-size:12px;font-family:Arial;writing-mode:lr-tb;fill:#000000;fill-opacity:1;fill-rule:nonzero;stroke:none"
         x="510.396"
         dx="0 0 0 0 0 0 0 0 0 0 0 0 0 0 0 0 -601.79999"
         y="-814.90802">Huang et al 2025Figure 5 </tspan></text>
  </g>
</svg>
