<?xml version="1.0" encoding="UTF-8" standalone="no"?>
<!-- Created with Inkscape (http://www.inkscape.org/) -->

<svg
   version="1.1"
   id="svg2"
   width="215.2037"
   height="238.40747"
   viewBox="0 0 215.20371 238.40747"
   sodipodi:docname="2026-01-20 all figures CM.pdf"
   xmlns:inkscape="http://www.inkscape.org/namespaces/inkscape"
   xmlns:sodipodi="http://sodipodi.sourceforge.net/DTD/sodipodi-0.dtd"
   xmlns="http://www.w3.org/2000/svg"
   xmlns:svg="http://www.w3.org/2000/svg">
  <defs
     id="defs6">
    <clipPath
       clipPathUnits="userSpaceOnUse"
       id="clipPath294">
      <path
         d="M 0,848.693 H 668.693 V 0 H 0 Z"
         id="path292" />
    </clipPath>
    <clipPath
       clipPathUnits="userSpaceOnUse"
       id="clipPath342">
      <path
         d="M 0,848.693 H 668.693 V 0 H 0 Z"
         id="path340" />
    </clipPath>
    <clipPath
       clipPathUnits="userSpaceOnUse"
       id="clipPath350">
      <path
         d="m 336.174,104.149 h 14.847 V 73.1561 h -14.847 z"
         id="path348" />
    </clipPath>
    <clipPath
       clipPathUnits="userSpaceOnUse"
       id="clipPath416">
      <path
         d="m 350.91,126.465 h 14.847 V 73.1561 H 350.91 Z"
         id="path414" />
    </clipPath>
    <clipPath
       clipPathUnits="userSpaceOnUse"
       id="clipPath474">
      <path
         d="m 380.494,88.5792 h 14.847 V 73.1561 h -14.847 z"
         id="path472" />
    </clipPath>
    <clipPath
       clipPathUnits="userSpaceOnUse"
       id="clipPath540">
      <path
         d="m 395.23,103.134 h 14.847 V 73.1561 H 395.23 Z"
         id="path538" />
    </clipPath>
    <clipPath
       clipPathUnits="userSpaceOnUse"
       id="clipPath598">
      <path
         d="m 424.814,89.1145 h 14.847 V 73.1561 h -14.847 z"
         id="path596" />
    </clipPath>
    <clipPath
       clipPathUnits="userSpaceOnUse"
       id="clipPath664">
      <path
         d="m 439.55,89.4223 h 14.847 V 73.1561 H 439.55 Z"
         id="path662" />
    </clipPath>
    <clipPath
       clipPathUnits="userSpaceOnUse"
       id="clipPath736">
      <path
         d="M 0,848.693 H 668.693 V 0 H 0 Z"
         id="path734" />
    </clipPath>
  </defs>
  <sodipodi:namedview
     id="namedview4"
     pagecolor="#ffffff"
     bordercolor="#000000"
     borderopacity="0.25"
     inkscape:showpageshadow="2"
     inkscape:pageopacity="0.0"
     inkscape:pagecheckerboard="0"
     inkscape:deskcolor="#d1d1d1"
     showgrid="false" />
  <g
     id="g8"
     inkscape:groupmode="layer"
     inkscape:label="2026-01-20 all figures CM"
     transform="matrix(1.3333333,0,0,-1.3333333,-401.96359,289.3385)">
    <g
       id="g43630">
      <text
         xml:space="preserve"
         transform="matrix(1,0,0,-1,319.4453,70.4883)"
         style="font-variant:normal;font-weight:normal;font-stretch:normal;font-size:10px;font-family:Arial;-inkscape-font-specification:ArialMT;writing-mode:lr-tb;fill:#000000;fill-opacity:1;fill-rule:nonzero;stroke:none"
         id="text286"><tspan
           x="0"
           y="0"
           id="tspan276">0</tspan><tspan
           x="0"
           y="-33.23"
           id="tspan278">2</tspan><tspan
           x="0"
           y="-66.459999"
           id="tspan280">4</tspan><tspan
           x="0"
           y="-99.690002"
           id="tspan282">6</tspan><tspan
           x="0"
           y="-132.92"
           id="tspan284">8</tspan></text>
      <g
         id="g288">
        <g
           id="g290"
           clip-path="url(#clipPath294)">
          <g
             id="g296"
             transform="translate(328.7503,73.1561)">
            <path
               d="M 0,0 V 132.925"
               style="fill:none;stroke:#000000;stroke-width:1;stroke-linecap:square;stroke-linejoin:miter;stroke-miterlimit:10;stroke-dasharray:none;stroke-opacity:1"
               id="path298" />
          </g>
          <g
             id="g300"
             transform="translate(328.7503,73.1561)">
            <path
               d="M 0,0 H -2.327"
               style="fill:none;stroke:#000000;stroke-width:1;stroke-linecap:square;stroke-linejoin:miter;stroke-miterlimit:10;stroke-dasharray:none;stroke-opacity:1"
               id="path302" />
          </g>
          <g
             id="g304"
             transform="translate(328.7503,106.3882)">
            <path
               d="M 0,0 H -2.327"
               style="fill:none;stroke:#000000;stroke-width:1;stroke-linecap:square;stroke-linejoin:miter;stroke-miterlimit:10;stroke-dasharray:none;stroke-opacity:1"
               id="path306" />
          </g>
          <g
             id="g308"
             transform="translate(328.7503,139.6204)">
            <path
               d="M 0,0 H -2.327"
               style="fill:none;stroke:#000000;stroke-width:1;stroke-linecap:square;stroke-linejoin:miter;stroke-miterlimit:10;stroke-dasharray:none;stroke-opacity:1"
               id="path310" />
          </g>
          <g
             id="g312"
             transform="translate(328.7503,172.8526)">
            <path
               d="M 0,0 H -2.327"
               style="fill:none;stroke:#000000;stroke-width:1;stroke-linecap:square;stroke-linejoin:miter;stroke-miterlimit:10;stroke-dasharray:none;stroke-opacity:1"
               id="path314" />
          </g>
          <g
             id="g316"
             transform="translate(328.7493,206.0848)">
            <path
               d="M 0,0 H -2.327"
               style="fill:none;stroke:#000000;stroke-width:1;stroke-linecap:square;stroke-linejoin:miter;stroke-miterlimit:10;stroke-dasharray:none;stroke-opacity:1"
               id="path318" />
          </g>
        </g>
      </g>
      <text
         xml:space="preserve"
         transform="matrix(0,1,1,0,310.9434,67.3867)"
         style="font-variant:normal;font-weight:normal;font-stretch:normal;font-size:13px;font-family:Arial;-inkscape-font-specification:ArialMT;writing-mode:lr-tb;fill:#000000;fill-opacity:1;fill-rule:nonzero;stroke:none"
         id="text322"><tspan
           x="0 10.114 16.862301 20.476299 24.8053 32.033298 39.261299 42.147301 49.375301 55.875301 63.103298 73.932297 81.160301 88.388298 92.002296 95.616302 99.945297 107.1733 110.7873 118.0153 121.6293 125.9583 137.5153"
           y="0"
           sodipodi:role="line"
           id="tspan320">OL replacement rate (%)</tspan></text>
      <text
         xml:space="preserve"
         transform="matrix(0.90630752,0.42261884,0.42261884,-0.90630752,320.551,50.8571)"
         style="font-variant:normal;font-weight:normal;font-stretch:normal;font-size:10px;font-family:Arial;-inkscape-font-specification:ArialMT;writing-mode:lr-tb;fill:#000000;fill-opacity:1;fill-rule:nonzero;stroke:none"
         id="text330"><tspan
           x="0 9.2380257 14.778041 20.318056 25.298069 28.058077"
           y="0"
           sodipodi:role="line"
           id="tspan324">Week 1</tspan><tspan
           x="42.390118 51.628143 57.168156 62.708172 67.688187 70.448196"
           y="19.770054"
           sodipodi:role="line"
           id="tspan326">Week 2</tspan><tspan
           x="84.780235 94.018257 99.558273 105.09829 110.0783 112.83831"
           y="39.540108"
           sodipodi:role="line"
           id="tspan328">Week 3</tspan></text>
      <text
         xml:space="preserve"
         transform="matrix(1,0,0,-1,342.1567,38.3506)"
         style="font-variant:normal;font-weight:normal;font-stretch:normal;font-size:13px;font-family:Arial;-inkscape-font-specification:ArialMT;writing-mode:lr-tb;fill:#000000;fill-opacity:1;fill-rule:nonzero;stroke:none"
         id="text334"><tspan
           x="0 8.6709995 15.899 22.399 26.013 30.341999 36.841999 40.456001 43.341999 54.171001 61.398998 64.285004 71.513 75.126999 78.013 85.240997"
           y="0"
           sodipodi:role="line"
           id="tspan332">Post-stimulation</tspan></text>
      <g
         id="g336">
        <g
           id="g338"
           clip-path="url(#clipPath342)">
          <g
             id="g344">
            <g
               id="g346" />
            <g
               id="g356">
              <g
                 clip-path="url(#clipPath350)"
                 opacity="0.5"
                 id="g354">
                <path
                   d="m 336.174,73.156 h 14.847 v 30.993 h -14.847 z"
                   style="fill:#5dbd84;fill-opacity:1;fill-rule:evenodd;stroke:none"
                   id="path352" />
              </g>
            </g>
          </g>
          <g
             id="g358"
             transform="translate(344.9265,94.1613)">
            <path
               d="m 0,0 c 0,-0.734 -0.595,-1.329 -1.329,-1.329 -0.734,0 -1.329,0.595 -1.329,1.329 0,0.734 0.595,1.329 1.329,1.329 C -0.595,1.329 0,0.734 0,0"
               style="fill:#5dbd84;fill-opacity:1;fill-rule:nonzero;stroke:none"
               id="path360" />
          </g>
          <g
             id="g362"
             transform="translate(344.9265,94.1613)">
            <path
               d="m 0,0 c 0,-0.734 -0.595,-1.329 -1.329,-1.329 -0.734,0 -1.329,0.595 -1.329,1.329 0,0.734 0.595,1.329 1.329,1.329 C -0.595,1.329 0,0.734 0,0 Z"
               style="fill:none;stroke:#5dbd84;stroke-width:1;stroke-linecap:butt;stroke-linejoin:miter;stroke-miterlimit:10;stroke-dasharray:none;stroke-opacity:1"
               id="path364" />
          </g>
          <g
             id="g366"
             transform="translate(344.9265,102.4698)">
            <path
               d="m 0,0 c 0,-0.734 -0.595,-1.329 -1.329,-1.329 -0.734,0 -1.329,0.595 -1.329,1.329 0,0.734 0.595,1.329 1.329,1.329 C -0.595,1.329 0,0.734 0,0"
               style="fill:#5dbd84;fill-opacity:1;fill-rule:nonzero;stroke:none"
               id="path368" />
          </g>
          <g
             id="g370"
             transform="translate(344.9265,102.4698)">
            <path
               d="m 0,0 c 0,-0.734 -0.595,-1.329 -1.329,-1.329 -0.734,0 -1.329,0.595 -1.329,1.329 0,0.734 0.595,1.329 1.329,1.329 C -0.595,1.329 0,0.734 0,0 Z"
               style="fill:none;stroke:#5dbd84;stroke-width:1;stroke-linecap:butt;stroke-linejoin:miter;stroke-miterlimit:10;stroke-dasharray:none;stroke-opacity:1"
               id="path372" />
          </g>
          <g
             id="g374"
             transform="translate(344.9265,104.444)">
            <path
               d="m 0,0 c 0,-0.734 -0.595,-1.329 -1.329,-1.329 -0.734,0 -1.329,0.595 -1.329,1.329 0,0.734 0.595,1.329 1.329,1.329 C -0.595,1.329 0,0.734 0,0"
               style="fill:#5dbd84;fill-opacity:1;fill-rule:nonzero;stroke:none"
               id="path376" />
          </g>
          <g
             id="g378"
             transform="translate(344.9265,104.444)">
            <path
               d="m 0,0 c 0,-0.734 -0.595,-1.329 -1.329,-1.329 -0.734,0 -1.329,0.595 -1.329,1.329 0,0.734 0.595,1.329 1.329,1.329 C -0.595,1.329 0,0.734 0,0 Z"
               style="fill:none;stroke:#5dbd84;stroke-width:1;stroke-linecap:butt;stroke-linejoin:miter;stroke-miterlimit:10;stroke-dasharray:none;stroke-opacity:1"
               id="path380" />
          </g>
          <g
             id="g382"
             transform="translate(344.2067,108.3204)">
            <path
               d="m 0,0 c 0,-0.734 -0.595,-1.329 -1.329,-1.329 -0.734,0 -1.329,0.595 -1.329,1.329 0,0.734 0.595,1.329 1.329,1.329 C -0.595,1.329 0,0.734 0,0"
               style="fill:#5dbd84;fill-opacity:1;fill-rule:nonzero;stroke:none"
               id="path384" />
          </g>
          <g
             id="g386"
             transform="translate(344.2067,108.3204)">
            <path
               d="m 0,0 c 0,-0.734 -0.595,-1.329 -1.329,-1.329 -0.734,0 -1.329,0.595 -1.329,1.329 0,0.734 0.595,1.329 1.329,1.329 C -0.595,1.329 0,0.734 0,0 Z"
               style="fill:none;stroke:#5dbd84;stroke-width:1;stroke-linecap:butt;stroke-linejoin:miter;stroke-miterlimit:10;stroke-dasharray:none;stroke-opacity:1"
               id="path388" />
          </g>
          <g
             id="g390"
             transform="translate(345.6462,108.3204)">
            <path
               d="m 0,0 c 0,-0.734 -0.595,-1.329 -1.329,-1.329 -0.734,0 -1.329,0.595 -1.329,1.329 0,0.734 0.595,1.329 1.329,1.329 C -0.595,1.329 0,0.734 0,0"
               style="fill:#5dbd84;fill-opacity:1;fill-rule:nonzero;stroke:none"
               id="path392" />
          </g>
          <g
             id="g394"
             transform="translate(345.6462,108.3204)">
            <path
               d="m 0,0 c 0,-0.734 -0.595,-1.329 -1.329,-1.329 -0.734,0 -1.329,0.595 -1.329,1.329 0,0.734 0.595,1.329 1.329,1.329 C -0.595,1.329 0,0.734 0,0 Z"
               style="fill:none;stroke:#5dbd84;stroke-width:1;stroke-linecap:butt;stroke-linejoin:miter;stroke-miterlimit:10;stroke-dasharray:none;stroke-opacity:1"
               id="path396" />
          </g>
          <g
             id="g398"
             transform="translate(344.9265,110.2946)">
            <path
               d="m 0,0 c 0,-0.734 -0.595,-1.329 -1.329,-1.329 -0.734,0 -1.329,0.595 -1.329,1.329 0,0.734 0.595,1.329 1.329,1.329 C -0.595,1.329 0,0.734 0,0"
               style="fill:#5dbd84;fill-opacity:1;fill-rule:nonzero;stroke:none"
               id="path400" />
          </g>
          <g
             id="g402"
             transform="translate(344.9265,110.2946)">
            <path
               d="m 0,0 c 0,-0.734 -0.595,-1.329 -1.329,-1.329 -0.734,0 -1.329,0.595 -1.329,1.329 0,0.734 0.595,1.329 1.329,1.329 C -0.595,1.329 0,0.734 0,0 Z"
               style="fill:none;stroke:#5dbd84;stroke-width:1;stroke-linecap:butt;stroke-linejoin:miter;stroke-miterlimit:10;stroke-dasharray:none;stroke-opacity:1"
               id="path404" />
          </g>
          <g
             id="g406"
             transform="translate(340.844,101.6835)">
            <path
               d="M 0,0 H 5.507 M 2.754,0 V 4.601 M 0,4.601 h 5.507"
               style="fill:#000000;fill-opacity:1;fill-rule:nonzero;stroke:#000000;stroke-width:1;stroke-linecap:butt;stroke-linejoin:miter;stroke-miterlimit:3;stroke-dasharray:none;stroke-opacity:1"
               id="path408" />
          </g>
          <g
             id="g410">
            <g
               id="g412" />
            <g
               id="g422">
              <g
                 clip-path="url(#clipPath416)"
                 opacity="0.5"
                 id="g420">
                <path
                   d="m 350.91,73.156 h 14.847 v 53.309 H 350.91 Z"
                   style="fill:#9b4bff;fill-opacity:1;fill-rule:evenodd;stroke:none"
                   id="path418" />
              </g>
            </g>
          </g>
          <g
             id="g424"
             transform="translate(359.6629,94.3519)">
            <path
               d="m 0,0 c 0,-0.734 -0.595,-1.329 -1.329,-1.329 -0.734,0 -1.329,0.595 -1.329,1.329 0,0.734 0.595,1.329 1.329,1.329 C -0.595,1.329 0,0.734 0,0"
               style="fill:#9b4bff;fill-opacity:1;fill-rule:nonzero;stroke:none"
               id="path426" />
          </g>
          <g
             id="g428"
             transform="translate(359.6629,94.3519)">
            <path
               d="m 0,0 c 0,-0.734 -0.595,-1.329 -1.329,-1.329 -0.734,0 -1.329,0.595 -1.329,1.329 0,0.734 0.595,1.329 1.329,1.329 C -0.595,1.329 0,0.734 0,0 Z"
               style="fill:none;stroke:#9b4bff;stroke-width:1;stroke-linecap:butt;stroke-linejoin:miter;stroke-miterlimit:10;stroke-dasharray:none;stroke-opacity:1"
               id="path430" />
          </g>
          <g
             id="g432"
             transform="translate(359.6629,104.7778)">
            <path
               d="m 0,0 c 0,-0.734 -0.595,-1.329 -1.329,-1.329 -0.734,0 -1.329,0.595 -1.329,1.329 0,0.734 0.595,1.329 1.329,1.329 C -0.595,1.329 0,0.734 0,0"
               style="fill:#9b4bff;fill-opacity:1;fill-rule:nonzero;stroke:none"
               id="path434" />
          </g>
          <g
             id="g436"
             transform="translate(359.6629,104.7778)">
            <path
               d="m 0,0 c 0,-0.734 -0.595,-1.329 -1.329,-1.329 -0.734,0 -1.329,0.595 -1.329,1.329 0,0.734 0.595,1.329 1.329,1.329 C -0.595,1.329 0,0.734 0,0 Z"
               style="fill:none;stroke:#9b4bff;stroke-width:1;stroke-linecap:butt;stroke-linejoin:miter;stroke-miterlimit:10;stroke-dasharray:none;stroke-opacity:1"
               id="path438" />
          </g>
          <g
             id="g440"
             transform="translate(359.6629,129.3649)">
            <path
               d="m 0,0 c 0,-0.734 -0.595,-1.329 -1.329,-1.329 -0.734,0 -1.329,0.595 -1.329,1.329 0,0.734 0.595,1.329 1.329,1.329 C -0.595,1.329 0,0.734 0,0"
               style="fill:#9b4bff;fill-opacity:1;fill-rule:nonzero;stroke:none"
               id="path442" />
          </g>
          <g
             id="g444"
             transform="translate(359.6629,129.3649)">
            <path
               d="m 0,0 c 0,-0.734 -0.595,-1.329 -1.329,-1.329 -0.734,0 -1.329,0.595 -1.329,1.329 0,0.734 0.595,1.329 1.329,1.329 C -0.595,1.329 0,0.734 0,0 Z"
               style="fill:none;stroke:#9b4bff;stroke-width:1;stroke-linecap:butt;stroke-linejoin:miter;stroke-miterlimit:10;stroke-dasharray:none;stroke-opacity:1"
               id="path446" />
          </g>
          <g
             id="g448"
             transform="translate(359.6629,135.5802)">
            <path
               d="m 0,0 c 0,-0.734 -0.595,-1.329 -1.329,-1.329 -0.734,0 -1.329,0.595 -1.329,1.329 0,0.734 0.595,1.329 1.329,1.329 C -0.595,1.329 0,0.734 0,0"
               style="fill:#9b4bff;fill-opacity:1;fill-rule:nonzero;stroke:none"
               id="path450" />
          </g>
          <g
             id="g452"
             transform="translate(359.6629,135.5802)">
            <path
               d="m 0,0 c 0,-0.734 -0.595,-1.329 -1.329,-1.329 -0.734,0 -1.329,0.595 -1.329,1.329 0,0.734 0.595,1.329 1.329,1.329 C -0.595,1.329 0,0.734 0,0 Z"
               style="fill:none;stroke:#9b4bff;stroke-width:1;stroke-linecap:butt;stroke-linejoin:miter;stroke-miterlimit:10;stroke-dasharray:none;stroke-opacity:1"
               id="path454" />
          </g>
          <g
             id="g456"
             transform="translate(359.6629,168.2673)">
            <path
               d="m 0,0 c 0,-0.734 -0.595,-1.329 -1.329,-1.329 -0.734,0 -1.329,0.595 -1.329,1.329 0,0.734 0.595,1.329 1.329,1.329 C -0.595,1.329 0,0.734 0,0"
               style="fill:#9b4bff;fill-opacity:1;fill-rule:nonzero;stroke:none"
               id="path458" />
          </g>
          <g
             id="g460"
             transform="translate(359.6629,168.2673)">
            <path
               d="m 0,0 c 0,-0.734 -0.595,-1.329 -1.329,-1.329 -0.734,0 -1.329,0.595 -1.329,1.329 0,0.734 0.595,1.329 1.329,1.329 C -0.595,1.329 0,0.734 0,0 Z"
               style="fill:none;stroke:#9b4bff;stroke-width:1;stroke-linecap:butt;stroke-linejoin:miter;stroke-miterlimit:10;stroke-dasharray:none;stroke-opacity:1"
               id="path462" />
          </g>
          <g
             id="g464"
             transform="translate(355.5804,113.38)">
            <path
               d="M 0,0 H 5.507 M 2.754,0 v 25.848 m -2.754,0 h 5.507"
               style="fill:#000000;fill-opacity:1;fill-rule:nonzero;stroke:#000000;stroke-width:1;stroke-linecap:butt;stroke-linejoin:miter;stroke-miterlimit:3;stroke-dasharray:none;stroke-opacity:1"
               id="path466" />
          </g>
          <g
             id="g468">
            <g
               id="g470" />
            <g
               id="g480">
              <g
                 clip-path="url(#clipPath474)"
                 opacity="0.5"
                 id="g478">
                <path
                   d="m 380.494,73.156 h 14.847 v 15.423 h -14.847 z"
                   style="fill:#5dbd84;fill-opacity:1;fill-rule:evenodd;stroke:none"
                   id="path476" />
              </g>
            </g>
          </g>
          <g
             id="g482"
             transform="translate(389.9662,77.8999)">
            <path
               d="m 0,0 c 0,-0.734 -0.595,-1.329 -1.329,-1.329 -0.734,0 -1.329,0.595 -1.329,1.329 0,0.734 0.595,1.329 1.329,1.329 C -0.595,1.329 0,0.734 0,0"
               style="fill:#5dbd84;fill-opacity:1;fill-rule:nonzero;stroke:none"
               id="path484" />
          </g>
          <g
             id="g486"
             transform="translate(389.9662,77.8999)">
            <path
               d="m 0,0 c 0,-0.734 -0.595,-1.329 -1.329,-1.329 -0.734,0 -1.329,0.595 -1.329,1.329 0,0.734 0.595,1.329 1.329,1.329 C -0.595,1.329 0,0.734 0,0 Z"
               style="fill:none;stroke:#5dbd84;stroke-width:1;stroke-linecap:butt;stroke-linejoin:miter;stroke-miterlimit:10;stroke-dasharray:none;stroke-opacity:1"
               id="path488" />
          </g>
          <g
             id="g490"
             transform="translate(388.5267,77.8999)">
            <path
               d="m 0,0 c 0,-0.734 -0.595,-1.329 -1.329,-1.329 -0.734,0 -1.329,0.595 -1.329,1.329 0,0.734 0.595,1.329 1.329,1.329 C -0.595,1.329 0,0.734 0,0"
               style="fill:#5dbd84;fill-opacity:1;fill-rule:nonzero;stroke:none"
               id="path492" />
          </g>
          <g
             id="g494"
             transform="translate(388.5267,77.8999)">
            <path
               d="m 0,0 c 0,-0.734 -0.595,-1.329 -1.329,-1.329 -0.734,0 -1.329,0.595 -1.329,1.329 0,0.734 0.595,1.329 1.329,1.329 C -0.595,1.329 0,0.734 0,0 Z"
               style="fill:none;stroke:#5dbd84;stroke-width:1;stroke-linecap:butt;stroke-linejoin:miter;stroke-miterlimit:10;stroke-dasharray:none;stroke-opacity:1"
               id="path496" />
          </g>
          <g
             id="g498"
             transform="translate(389.2465,79.874)">
            <path
               d="m 0,0 c 0,-0.734 -0.595,-1.329 -1.329,-1.329 -0.734,0 -1.329,0.595 -1.329,1.329 0,0.734 0.595,1.329 1.329,1.329 C -0.595,1.329 0,0.734 0,0"
               style="fill:#5dbd84;fill-opacity:1;fill-rule:nonzero;stroke:none"
               id="path500" />
          </g>
          <g
             id="g502"
             transform="translate(389.2465,79.874)">
            <path
               d="m 0,0 c 0,-0.734 -0.595,-1.329 -1.329,-1.329 -0.734,0 -1.329,0.595 -1.329,1.329 0,0.734 0.595,1.329 1.329,1.329 C -0.595,1.329 0,0.734 0,0 Z"
               style="fill:none;stroke:#5dbd84;stroke-width:1;stroke-linecap:butt;stroke-linejoin:miter;stroke-miterlimit:10;stroke-dasharray:none;stroke-opacity:1"
               id="path504" />
          </g>
          <g
             id="g506"
             transform="translate(389.2465,87.2139)">
            <path
               d="m 0,0 c 0,-0.734 -0.595,-1.329 -1.329,-1.329 -0.734,0 -1.329,0.595 -1.329,1.329 0,0.734 0.595,1.329 1.329,1.329 C -0.595,1.329 0,0.734 0,0"
               style="fill:#5dbd84;fill-opacity:1;fill-rule:nonzero;stroke:none"
               id="path508" />
          </g>
          <g
             id="g510"
             transform="translate(389.2465,87.2139)">
            <path
               d="m 0,0 c 0,-0.734 -0.595,-1.329 -1.329,-1.329 -0.734,0 -1.329,0.595 -1.329,1.329 0,0.734 0.595,1.329 1.329,1.329 C -0.595,1.329 0,0.734 0,0 Z"
               style="fill:none;stroke:#5dbd84;stroke-width:1;stroke-linecap:butt;stroke-linejoin:miter;stroke-miterlimit:10;stroke-dasharray:none;stroke-opacity:1"
               id="path512" />
          </g>
          <g
             id="g514"
             transform="translate(389.2465,100.5583)">
            <path
               d="m 0,0 c 0,-0.734 -0.595,-1.329 -1.329,-1.329 -0.734,0 -1.329,0.595 -1.329,1.329 0,0.734 0.595,1.329 1.329,1.329 C -0.595,1.329 0,0.734 0,0"
               style="fill:#5dbd84;fill-opacity:1;fill-rule:nonzero;stroke:none"
               id="path516" />
          </g>
          <g
             id="g518"
             transform="translate(389.2465,100.5583)">
            <path
               d="m 0,0 c 0,-0.734 -0.595,-1.329 -1.329,-1.329 -0.734,0 -1.329,0.595 -1.329,1.329 0,0.734 0.595,1.329 1.329,1.329 C -0.595,1.329 0,0.734 0,0 Z"
               style="fill:none;stroke:#5dbd84;stroke-width:1;stroke-linecap:butt;stroke-linejoin:miter;stroke-miterlimit:10;stroke-dasharray:none;stroke-opacity:1"
               id="path520" />
          </g>
          <g
             id="g522"
             transform="translate(389.2465,108.6304)">
            <path
               d="m 0,0 c 0,-0.734 -0.595,-1.329 -1.329,-1.329 -0.734,0 -1.329,0.595 -1.329,1.329 0,0.734 0.595,1.329 1.329,1.329 C -0.595,1.329 0,0.734 0,0"
               style="fill:#5dbd84;fill-opacity:1;fill-rule:nonzero;stroke:none"
               id="path524" />
          </g>
          <g
             id="g526"
             transform="translate(389.2465,108.6304)">
            <path
               d="m 0,0 c 0,-0.734 -0.595,-1.329 -1.329,-1.329 -0.734,0 -1.329,0.595 -1.329,1.329 0,0.734 0.595,1.329 1.329,1.329 C -0.595,1.329 0,0.734 0,0 Z"
               style="fill:none;stroke:#5dbd84;stroke-width:1;stroke-linecap:butt;stroke-linejoin:miter;stroke-miterlimit:10;stroke-dasharray:none;stroke-opacity:1"
               id="path528" />
          </g>
          <g
             id="g530"
             transform="translate(385.164,83.0485)">
            <path
               d="M 0,0 H 5.507 M 2.754,0 v 10.726 m -2.754,0 h 5.507"
               style="fill:#000000;fill-opacity:1;fill-rule:nonzero;stroke:#000000;stroke-width:1;stroke-linecap:butt;stroke-linejoin:miter;stroke-miterlimit:3;stroke-dasharray:none;stroke-opacity:1"
               id="path532" />
          </g>
          <g
             id="g534">
            <g
               id="g536" />
            <g
               id="g546">
              <g
                 clip-path="url(#clipPath540)"
                 opacity="0.5"
                 id="g544">
                <path
                   d="m 395.23,73.156 h 14.847 v 29.978 H 395.23 Z"
                   style="fill:#9b4bff;fill-opacity:1;fill-rule:evenodd;stroke:none"
                   id="path542" />
              </g>
            </g>
          </g>
          <g
             id="g548"
             transform="translate(403.9828,85.3378)">
            <path
               d="m 0,0 c 0,-0.734 -0.595,-1.329 -1.329,-1.329 -0.734,0 -1.329,0.595 -1.329,1.329 0,0.734 0.595,1.329 1.329,1.329 C -0.595,1.329 0,0.734 0,0"
               style="fill:#9b4bff;fill-opacity:1;fill-rule:nonzero;stroke:none"
               id="path550" />
          </g>
          <g
             id="g552"
             transform="translate(403.9828,85.3378)">
            <path
               d="m 0,0 c 0,-0.734 -0.595,-1.329 -1.329,-1.329 -0.734,0 -1.329,0.595 -1.329,1.329 0,0.734 0.595,1.329 1.329,1.329 C -0.595,1.329 0,0.734 0,0 Z"
               style="fill:none;stroke:#9b4bff;stroke-width:1;stroke-linecap:butt;stroke-linejoin:miter;stroke-miterlimit:10;stroke-dasharray:none;stroke-opacity:1"
               id="path554" />
          </g>
          <g
             id="g556"
             transform="translate(403.9828,93.3382)">
            <path
               d="m 0,0 c 0,-0.734 -0.595,-1.329 -1.329,-1.329 -0.734,0 -1.329,0.595 -1.329,1.329 0,0.734 0.595,1.329 1.329,1.329 C -0.595,1.329 0,0.734 0,0"
               style="fill:#9b4bff;fill-opacity:1;fill-rule:nonzero;stroke:none"
               id="path558" />
          </g>
          <g
             id="g560"
             transform="translate(403.9828,93.3382)">
            <path
               d="m 0,0 c 0,-0.734 -0.595,-1.329 -1.329,-1.329 -0.734,0 -1.329,0.595 -1.329,1.329 0,0.734 0.595,1.329 1.329,1.329 C -0.595,1.329 0,0.734 0,0 Z"
               style="fill:none;stroke:#9b4bff;stroke-width:1;stroke-linecap:butt;stroke-linejoin:miter;stroke-miterlimit:10;stroke-dasharray:none;stroke-opacity:1"
               id="path562" />
          </g>
          <g
             id="g564"
             transform="translate(403.9828,109.584)">
            <path
               d="m 0,0 c 0,-0.734 -0.595,-1.329 -1.329,-1.329 -0.734,0 -1.329,0.595 -1.329,1.329 0,0.734 0.595,1.329 1.329,1.329 C -0.595,1.329 0,0.734 0,0"
               style="fill:#9b4bff;fill-opacity:1;fill-rule:nonzero;stroke:none"
               id="path566" />
          </g>
          <g
             id="g568"
             transform="translate(403.9828,109.584)">
            <path
               d="m 0,0 c 0,-0.734 -0.595,-1.329 -1.329,-1.329 -0.734,0 -1.329,0.595 -1.329,1.329 0,0.734 0.595,1.329 1.329,1.329 C -0.595,1.329 0,0.734 0,0 Z"
               style="fill:none;stroke:#9b4bff;stroke-width:1;stroke-linecap:butt;stroke-linejoin:miter;stroke-miterlimit:10;stroke-dasharray:none;stroke-opacity:1"
               id="path570" />
          </g>
          <g
             id="g572"
             transform="translate(403.9828,111.5582)">
            <path
               d="m 0,0 c 0,-0.734 -0.595,-1.329 -1.329,-1.329 -0.734,0 -1.329,0.595 -1.329,1.329 0,0.734 0.595,1.329 1.329,1.329 C -0.595,1.329 0,0.734 0,0"
               style="fill:#9b4bff;fill-opacity:1;fill-rule:nonzero;stroke:none"
               id="path574" />
          </g>
          <g
             id="g576"
             transform="translate(403.9828,111.5582)">
            <path
               d="m 0,0 c 0,-0.734 -0.595,-1.329 -1.329,-1.329 -0.734,0 -1.329,0.595 -1.329,1.329 0,0.734 0.595,1.329 1.329,1.329 C -0.595,1.329 0,0.734 0,0 Z"
               style="fill:none;stroke:#9b4bff;stroke-width:1;stroke-linecap:butt;stroke-linejoin:miter;stroke-miterlimit:10;stroke-dasharray:none;stroke-opacity:1"
               id="path578" />
          </g>
          <g
             id="g580"
             transform="translate(403.9828,116.1236)">
            <path
               d="m 0,0 c 0,-0.734 -0.595,-1.329 -1.329,-1.329 -0.734,0 -1.329,0.595 -1.329,1.329 0,0.734 0.595,1.329 1.329,1.329 C -0.595,1.329 0,0.734 0,0"
               style="fill:#9b4bff;fill-opacity:1;fill-rule:nonzero;stroke:none"
               id="path582" />
          </g>
          <g
             id="g584"
             transform="translate(403.9828,116.1236)">
            <path
               d="m 0,0 c 0,-0.734 -0.595,-1.329 -1.329,-1.329 -0.734,0 -1.329,0.595 -1.329,1.329 0,0.734 0.595,1.329 1.329,1.329 C -0.595,1.329 0,0.734 0,0 Z"
               style="fill:none;stroke:#9b4bff;stroke-width:1;stroke-linecap:butt;stroke-linejoin:miter;stroke-miterlimit:10;stroke-dasharray:none;stroke-opacity:1"
               id="path586" />
          </g>
          <g
             id="g588"
             transform="translate(399.9004,97.0997)">
            <path
               d="M 0,0 H 5.507 M 2.754,0 v 11.744 m -2.754,0 h 5.507"
               style="fill:#000000;fill-opacity:1;fill-rule:nonzero;stroke:#000000;stroke-width:1;stroke-linecap:butt;stroke-linejoin:miter;stroke-miterlimit:3;stroke-dasharray:none;stroke-opacity:1"
               id="path590" />
          </g>
          <g
             id="g592">
            <g
               id="g594" />
            <g
               id="g604">
              <g
                 clip-path="url(#clipPath598)"
                 opacity="0.5"
                 id="g602">
                <path
                   d="m 424.814,73.156 h 14.847 v 15.958 h -14.847 z"
                   style="fill:#5dbd84;fill-opacity:1;fill-rule:evenodd;stroke:none"
                   id="path600" />
              </g>
            </g>
          </g>
          <g
             id="g606"
             transform="translate(433.5664,79.2533)">
            <path
               d="m 0,0 c 0,-0.734 -0.595,-1.329 -1.329,-1.329 -0.734,0 -1.329,0.595 -1.329,1.329 0,0.734 0.595,1.329 1.329,1.329 C -0.595,1.329 0,0.734 0,0"
               style="fill:#5dbd84;fill-opacity:1;fill-rule:nonzero;stroke:none"
               id="path608" />
          </g>
          <g
             id="g610"
             transform="translate(433.5664,79.2533)">
            <path
               d="m 0,0 c 0,-0.734 -0.595,-1.329 -1.329,-1.329 -0.734,0 -1.329,0.595 -1.329,1.329 0,0.734 0.595,1.329 1.329,1.329 C -0.595,1.329 0,0.734 0,0 Z"
               style="fill:none;stroke:#5dbd84;stroke-width:1;stroke-linecap:butt;stroke-linejoin:miter;stroke-miterlimit:10;stroke-dasharray:none;stroke-opacity:1"
               id="path612" />
          </g>
          <g
             id="g614"
             transform="translate(433.5664,83.7402)">
            <path
               d="m 0,0 c 0,-0.734 -0.595,-1.329 -1.329,-1.329 -0.734,0 -1.329,0.595 -1.329,1.329 0,0.734 0.595,1.329 1.329,1.329 C -0.595,1.329 0,0.734 0,0"
               style="fill:#5dbd84;fill-opacity:1;fill-rule:nonzero;stroke:none"
               id="path616" />
          </g>
          <g
             id="g618"
             transform="translate(433.5664,83.7402)">
            <path
               d="m 0,0 c 0,-0.734 -0.595,-1.329 -1.329,-1.329 -0.734,0 -1.329,0.595 -1.329,1.329 0,0.734 0.595,1.329 1.329,1.329 C -0.595,1.329 0,0.734 0,0 Z"
               style="fill:none;stroke:#5dbd84;stroke-width:1;stroke-linecap:butt;stroke-linejoin:miter;stroke-miterlimit:10;stroke-dasharray:none;stroke-opacity:1"
               id="path620" />
          </g>
          <g
             id="g622"
             transform="translate(433.5664,88.3109)">
            <path
               d="m 0,0 c 0,-0.734 -0.595,-1.329 -1.329,-1.329 -0.734,0 -1.329,0.595 -1.329,1.329 0,0.734 0.595,1.329 1.329,1.329 C -0.595,1.329 0,0.734 0,0"
               style="fill:#5dbd84;fill-opacity:1;fill-rule:nonzero;stroke:none"
               id="path624" />
          </g>
          <g
             id="g626"
             transform="translate(433.5664,88.3109)">
            <path
               d="m 0,0 c 0,-0.734 -0.595,-1.329 -1.329,-1.329 -0.734,0 -1.329,0.595 -1.329,1.329 0,0.734 0.595,1.329 1.329,1.329 C -0.595,1.329 0,0.734 0,0 Z"
               style="fill:none;stroke:#5dbd84;stroke-width:1;stroke-linecap:butt;stroke-linejoin:miter;stroke-miterlimit:10;stroke-dasharray:none;stroke-opacity:1"
               id="path628" />
          </g>
          <g
             id="g630"
             transform="translate(433.5664,90.285)">
            <path
               d="m 0,0 c 0,-0.734 -0.595,-1.329 -1.329,-1.329 -0.734,0 -1.329,0.595 -1.329,1.329 0,0.734 0.595,1.329 1.329,1.329 C -0.595,1.329 0,0.734 0,0"
               style="fill:#5dbd84;fill-opacity:1;fill-rule:nonzero;stroke:none"
               id="path632" />
          </g>
          <g
             id="g634"
             transform="translate(433.5664,90.285)">
            <path
               d="m 0,0 c 0,-0.734 -0.595,-1.329 -1.329,-1.329 -0.734,0 -1.329,0.595 -1.329,1.329 0,0.734 0.595,1.329 1.329,1.329 C -0.595,1.329 0,0.734 0,0 Z"
               style="fill:none;stroke:#5dbd84;stroke-width:1;stroke-linecap:butt;stroke-linejoin:miter;stroke-miterlimit:10;stroke-dasharray:none;stroke-opacity:1"
               id="path636" />
          </g>
          <g
             id="g638"
             transform="translate(433.5664,92.7756)">
            <path
               d="m 0,0 c 0,-0.734 -0.595,-1.329 -1.329,-1.329 -0.734,0 -1.329,0.595 -1.329,1.329 0,0.734 0.595,1.329 1.329,1.329 C -0.595,1.329 0,0.734 0,0"
               style="fill:#5dbd84;fill-opacity:1;fill-rule:nonzero;stroke:none"
               id="path640" />
          </g>
          <g
             id="g642"
             transform="translate(433.5664,92.7756)">
            <path
               d="m 0,0 c 0,-0.734 -0.595,-1.329 -1.329,-1.329 -0.734,0 -1.329,0.595 -1.329,1.329 0,0.734 0.595,1.329 1.329,1.329 C -0.595,1.329 0,0.734 0,0 Z"
               style="fill:none;stroke:#5dbd84;stroke-width:1;stroke-linecap:butt;stroke-linejoin:miter;stroke-miterlimit:10;stroke-dasharray:none;stroke-opacity:1"
               id="path644" />
          </g>
          <g
             id="g646"
             transform="translate(433.5664,100.7834)">
            <path
               d="m 0,0 c 0,-0.734 -0.595,-1.329 -1.329,-1.329 -0.734,0 -1.329,0.595 -1.329,1.329 0,0.734 0.595,1.329 1.329,1.329 C -0.595,1.329 0,0.734 0,0"
               style="fill:#5dbd84;fill-opacity:1;fill-rule:nonzero;stroke:none"
               id="path648" />
          </g>
          <g
             id="g650"
             transform="translate(433.5664,100.7834)">
            <path
               d="m 0,0 c 0,-0.734 -0.595,-1.329 -1.329,-1.329 -0.734,0 -1.329,0.595 -1.329,1.329 0,0.734 0.595,1.329 1.329,1.329 C -0.595,1.329 0,0.734 0,0 Z"
               style="fill:none;stroke:#5dbd84;stroke-width:1;stroke-linecap:butt;stroke-linejoin:miter;stroke-miterlimit:10;stroke-dasharray:none;stroke-opacity:1"
               id="path652" />
          </g>
          <g
             id="g654"
             transform="translate(429.4839,85.9364)">
            <path
               d="M 0,0 H 5.507 M 2.754,0 V 6.078 M 0,6.078 h 5.507"
               style="fill:#000000;fill-opacity:1;fill-rule:nonzero;stroke:#000000;stroke-width:1;stroke-linecap:butt;stroke-linejoin:miter;stroke-miterlimit:3;stroke-dasharray:none;stroke-opacity:1"
               id="path656" />
          </g>
          <g
             id="g658">
            <g
               id="g660" />
            <g
               id="g670">
              <g
                 clip-path="url(#clipPath664)"
                 opacity="0.5"
                 id="g668">
                <path
                   d="m 439.55,73.156 h 14.847 V 89.422 H 439.55 Z"
                   style="fill:#9b4bff;fill-opacity:1;fill-rule:evenodd;stroke:none"
                   id="path666" />
              </g>
            </g>
          </g>
          <g
             id="g672"
             transform="translate(448.3029,81.1017)">
            <path
               d="m 0,0 c 0,-0.734 -0.595,-1.329 -1.329,-1.329 -0.734,0 -1.329,0.595 -1.329,1.329 0,0.734 0.595,1.329 1.329,1.329 C -0.595,1.329 0,0.734 0,0"
               style="fill:#9b4bff;fill-opacity:1;fill-rule:nonzero;stroke:none"
               id="path674" />
          </g>
          <g
             id="g676"
             transform="translate(448.3029,81.1017)">
            <path
               d="m 0,0 c 0,-0.734 -0.595,-1.329 -1.329,-1.329 -0.734,0 -1.329,0.595 -1.329,1.329 0,0.734 0.595,1.329 1.329,1.329 C -0.595,1.329 0,0.734 0,0 Z"
               style="fill:none;stroke:#9b4bff;stroke-width:1;stroke-linecap:butt;stroke-linejoin:miter;stroke-miterlimit:10;stroke-dasharray:none;stroke-opacity:1"
               id="path678" />
          </g>
          <g
             id="g680"
             transform="translate(450.0227,87.5899)">
            <path
               d="m 0,0 c 0,-0.734 -0.595,-1.329 -1.329,-1.329 -0.734,0 -1.329,0.595 -1.329,1.329 0,0.734 0.595,1.329 1.329,1.329 C -0.595,1.329 0,0.734 0,0"
               style="fill:#9b4bff;fill-opacity:1;fill-rule:nonzero;stroke:none"
               id="path682" />
          </g>
          <g
             id="g684"
             transform="translate(450.0227,87.5899)">
            <path
               d="m 0,0 c 0,-0.734 -0.595,-1.329 -1.329,-1.329 -0.734,0 -1.329,0.595 -1.329,1.329 0,0.734 0.595,1.329 1.329,1.329 C -0.595,1.329 0,0.734 0,0 Z"
               style="fill:none;stroke:#9b4bff;stroke-width:1;stroke-linecap:butt;stroke-linejoin:miter;stroke-miterlimit:10;stroke-dasharray:none;stroke-opacity:1"
               id="path686" />
          </g>
          <g
             id="g688"
             transform="translate(446.583,87.5899)">
            <path
               d="m 0,0 c 0,-0.734 -0.595,-1.329 -1.329,-1.329 -0.734,0 -1.329,0.595 -1.329,1.329 0,0.734 0.595,1.329 1.329,1.329 C -0.595,1.329 0,0.734 0,0"
               style="fill:#9b4bff;fill-opacity:1;fill-rule:nonzero;stroke:none"
               id="path690" />
          </g>
          <g
             id="g692"
             transform="translate(446.583,87.5899)">
            <path
               d="m 0,0 c 0,-0.734 -0.595,-1.329 -1.329,-1.329 -0.734,0 -1.329,0.595 -1.329,1.329 0,0.734 0.595,1.329 1.329,1.329 C -0.595,1.329 0,0.734 0,0 Z"
               style="fill:none;stroke:#9b4bff;stroke-width:1;stroke-linecap:butt;stroke-linejoin:miter;stroke-miterlimit:10;stroke-dasharray:none;stroke-opacity:1"
               id="path694" />
          </g>
          <g
             id="g696"
             transform="translate(448.3029,94.3519)">
            <path
               d="m 0,0 c 0,-0.734 -0.595,-1.329 -1.329,-1.329 -0.734,0 -1.329,0.595 -1.329,1.329 0,0.734 0.595,1.329 1.329,1.329 C -0.595,1.329 0,0.734 0,0"
               style="fill:#9b4bff;fill-opacity:1;fill-rule:nonzero;stroke:none"
               id="path698" />
          </g>
          <g
             id="g700"
             transform="translate(448.3029,94.3519)">
            <path
               d="m 0,0 c 0,-0.734 -0.595,-1.329 -1.329,-1.329 -0.734,0 -1.329,0.595 -1.329,1.329 0,0.734 0.595,1.329 1.329,1.329 C -0.595,1.329 0,0.734 0,0 Z"
               style="fill:none;stroke:#9b4bff;stroke-width:1;stroke-linecap:butt;stroke-linejoin:miter;stroke-miterlimit:10;stroke-dasharray:none;stroke-opacity:1"
               id="path702" />
          </g>
          <g
             id="g704"
             transform="translate(448.3029,96.3967)">
            <path
               d="m 0,0 c 0,-0.734 -0.595,-1.329 -1.329,-1.329 -0.734,0 -1.329,0.595 -1.329,1.329 0,0.734 0.595,1.329 1.329,1.329 C -0.595,1.329 0,0.734 0,0"
               style="fill:#9b4bff;fill-opacity:1;fill-rule:nonzero;stroke:none"
               id="path706" />
          </g>
          <g
             id="g708"
             transform="translate(448.3029,96.3967)">
            <path
               d="m 0,0 c 0,-0.734 -0.595,-1.329 -1.329,-1.329 -0.734,0 -1.329,0.595 -1.329,1.329 0,0.734 0.595,1.329 1.329,1.329 C -0.595,1.329 0,0.734 0,0 Z"
               style="fill:none;stroke:#9b4bff;stroke-width:1;stroke-linecap:butt;stroke-linejoin:miter;stroke-miterlimit:10;stroke-dasharray:none;stroke-opacity:1"
               id="path710" />
          </g>
          <g
             id="g712"
             transform="translate(444.2204,86.513)">
            <path
               d="M 0,0 H 5.507 M 2.754,0 V 5.457 M 0,5.457 h 5.507"
               style="fill:#000000;fill-opacity:1;fill-rule:nonzero;stroke:#000000;stroke-width:1;stroke-linecap:butt;stroke-linejoin:miter;stroke-miterlimit:3;stroke-dasharray:none;stroke-opacity:1"
               id="path714" />
          </g>
          <g
             id="g716"
             transform="translate(328.0855,73.1561)">
            <path
               d="M 0,0 H 134.29"
               style="fill:none;stroke:#000000;stroke-width:1;stroke-linecap:square;stroke-linejoin:miter;stroke-miterlimit:10;stroke-dasharray:none;stroke-opacity:1"
               id="path718" />
          </g>
        </g>
      </g>
      <text
         xml:space="preserve"
         transform="matrix(1,0,0,-1,336.1748,209.7236)"
         style="font-variant:normal;font-weight:normal;font-stretch:normal;font-size:10px;font-family:Arial;-inkscape-font-specification:ArialMT;writing-mode:lr-tb;fill:#9b4bff;fill-opacity:1;fill-rule:nonzero;stroke:none"
         id="text728"><tspan
           x="0 7.2199998 12.78 17.780001 20.559999 22.780001 31.110001 36.669998 38.889999 44.450001 47.23 52.790001 58.349998 61.130001 64.459999 70.019997 75.860001 81.419998"
           y="0"
           sodipodi:role="line"
           id="tspan724">Unstimulated (n=6)</tspan><tspan
           x="0 6.6700001 13.89 20.559999 23.34 26.67 32.23 38.07 43.630001"
           y="11.36"
           sodipodi:role="line"
           id="tspan726">VNS (n=5)</tspan></text>
      <g
         id="g730">
        <g
           id="g732"
           clip-path="url(#clipPath736)">
          <g
             id="g738"
             transform="translate(432.5103,214.0221)">
            <path
               d="M 0,0 V -14.626"
               style="fill:none;stroke:#000000;stroke-width:1;stroke-linecap:square;stroke-linejoin:miter;stroke-miterlimit:10;stroke-dasharray:none;stroke-opacity:1"
               id="path740" />
          </g>
          <g
             id="g742"
             transform="translate(430.2013,214.0221)">
            <path
               d="M 0,0 H 1.561"
               style="fill:none;stroke:#000000;stroke-width:1;stroke-linecap:square;stroke-linejoin:miter;stroke-miterlimit:10;stroke-dasharray:none;stroke-opacity:1"
               id="path744" />
          </g>
          <g
             id="g746"
             transform="translate(430.201,199.3965)">
            <path
               d="M 0,0 H 1.561"
               style="fill:none;stroke:#000000;stroke-width:1;stroke-linecap:square;stroke-linejoin:miter;stroke-miterlimit:10;stroke-dasharray:none;stroke-opacity:1"
               id="path748" />
          </g>
        </g>
      </g>
      <text
         xml:space="preserve"
         transform="matrix(0,-1,-1,0,426.6787,210.6001)"
         style="font-variant:normal;font-weight:normal;font-stretch:normal;font-size:20px;font-family:Arial;-inkscape-font-specification:ArialMT;writing-mode:lr-tb;fill:#000000;fill-opacity:1;fill-rule:nonzero;stroke:none"
         id="text752"><tspan
           x="0"
           y="0"
           id="tspan750">*</tspan></text>
    </g>
    <text
       xml:space="preserve"
       transform="matrix(1,0,0,-1,33.4419,15.1484)"
       style="font-variant:normal;font-weight:normal;font-stretch:normal;font-size:12px;font-family:Arial;-inkscape-font-specification:ArialMT;writing-mode:lr-tb;fill:#000000;fill-opacity:1;fill-rule:nonzero;stroke:none"
       id="text4624"><tspan
         x="0 7.3319998 9.9960003 16.667999 23.34 27.336 34.007999 37.344002 44.015999 47.352001 50.688 58.692001 67.356003 75.360001 78.695999 85.367996 92.040001 98.711998 105.384 112.056 118.056 124.728 130.728 134.064 140.73599 143.39999 146.064 152.73599 159.408 166.08 172.752 179.424 186.09599 190.092 196.76401 203.436 210.108 216.78 223.452 229.452 232.116 238.116 241.452 248.12399 251.46001 254.79601 261.46799 265.46399 268.79999 274.79999 281.47198 288.14401 292.14001 294.80399 300.80399 307.47601 314.19241 320.86441 324.86041 334.85641 341.52841 348.20041 350.86441 357.53641 360.87241 367.5444 374.2164 377.5524 384.2244 390.89639 400.8924 406.8924 413.56439 416.22839 418.8924 425.56439 432.23639 435.57239 438.23639 444.90839 451.58041 454.91641"
         y="0"
         sodipodi:role="line"
         id="tspan4620">Figure 1. VNS enhances oligodendrogenesis after cuprizone-mediated demyelination. </tspan><tspan
         x="510.40799 519.07202 525.74402 532.41602 539.08801 545.76001 549.09601 555.76801 559.104 562.44 569.112 571.776 575.112 581.784 588.45599 595.12799 0 7.3319998 9.9960003 16.667999 23.34 27.336 34.007999 37.344002 44.015999"
         y="-814.90802"
         sodipodi:role="line"
         id="tspan4622">Huang et al 2025Figure 1 </tspan></text>
  </g>
</svg>
