<?xml version="1.0" encoding="UTF-8" standalone="no"?>
<!-- Created with Inkscape (http://www.inkscape.org/) -->

<svg
   version="1.1"
   id="svg1"
   width="394.53903"
   height="234.07462"
   viewBox="0 0 394.53903 234.07462"
   sodipodi:docname="2026-01-13 all figures CM.pdf"
   xmlns:inkscape="http://www.inkscape.org/namespaces/inkscape"
   xmlns:sodipodi="http://sodipodi.sourceforge.net/DTD/sodipodi-0.dtd"
   xmlns="http://www.w3.org/2000/svg"
   xmlns:svg="http://www.w3.org/2000/svg">
  <defs
     id="defs1">
    <clipPath
       clipPathUnits="userSpaceOnUse"
       id="clipPath81">
      <path
         d="m 516.19701,441.87704 h 11.475 v -6.405 h -11.475 z"
         id="path81" />
    </clipPath>
    <clipPath
       clipPathUnits="userSpaceOnUse"
       id="clipPath83">
      <path
         d="M 0,0 H 891.59067 V 1131.5907 H 0 Z"
         id="path83" />
    </clipPath>
    <clipPath
       clipPathUnits="userSpaceOnUse"
       id="clipPath84">
      <path
         d="m 516.19701,429.78804 h 11.475 v -6.404 h -11.475 z"
         id="path84" />
    </clipPath>
    <clipPath
       clipPathUnits="userSpaceOnUse"
       id="clipPath86">
      <path
         d="M 0,0 H 891.59067 V 1131.5907 H 0 Z"
         id="path86" />
    </clipPath>
    <clipPath
       clipPathUnits="userSpaceOnUse"
       id="clipPath96">
      <path
         d="m 574.39601,504.98204 h 25.363 v -57.306 h -25.363 z"
         id="path96" />
    </clipPath>
    <clipPath
       clipPathUnits="userSpaceOnUse"
       id="clipPath98">
      <path
         d="M 0,0 H 891.59067 V 1131.5907 H 0 Z"
         id="path98" />
    </clipPath>
    <clipPath
       clipPathUnits="userSpaceOnUse"
       id="clipPath106">
      <path
         d="m 536.24001,484.52904 h 25.474 v -36.886 h -25.474 z"
         id="path106" />
    </clipPath>
    <clipPath
       clipPathUnits="userSpaceOnUse"
       id="clipPath108">
      <path
         d="M 0,0 H 891.59067 V 1131.5907 H 0 Z"
         id="path108" />
    </clipPath>
    <clipPath
       clipPathUnits="userSpaceOnUse"
       id="clipPath121">
      <path
         d="m 372.48701,441.87704 h 11.476 v -6.404 h -11.476 z"
         id="path121" />
    </clipPath>
    <clipPath
       clipPathUnits="userSpaceOnUse"
       id="clipPath123">
      <path
         d="M 0,0 H 891.59067 V 1131.5907 H 0 Z"
         id="path123" />
    </clipPath>
    <clipPath
       clipPathUnits="userSpaceOnUse"
       id="clipPath124">
      <path
         d="m 372.48701,429.78904 h 11.476 v -6.405 h -11.476 z"
         id="path124" />
    </clipPath>
    <clipPath
       clipPathUnits="userSpaceOnUse"
       id="clipPath126">
      <path
         d="M 0,0 H 891.59067 V 1131.5907 H 0 Z"
         id="path126" />
    </clipPath>
    <clipPath
       clipPathUnits="userSpaceOnUse"
       id="clipPath133">
      <path
         d="m 430.68601,499.97804 h 25.363 v -52.301 h -25.363 z"
         id="path133" />
    </clipPath>
    <clipPath
       clipPathUnits="userSpaceOnUse"
       id="clipPath135">
      <path
         d="M 0,0 H 891.59067 V 1131.5907 H 0 Z"
         id="path135" />
    </clipPath>
    <clipPath
       clipPathUnits="userSpaceOnUse"
       id="clipPath143">
      <path
         d="m 392.53001,485.25704 h 25.475 v -37.613 h -25.475 z"
         id="path143" />
    </clipPath>
    <clipPath
       clipPathUnits="userSpaceOnUse"
       id="clipPath145">
      <path
         d="M 0,0 H 891.59067 V 1131.5907 H 0 Z"
         id="path145" />
    </clipPath>
  </defs>
  <sodipodi:namedview
     id="namedview1"
     pagecolor="#ffffff"
     bordercolor="#000000"
     borderopacity="0.25"
     inkscape:showpageshadow="2"
     inkscape:pageopacity="0.0"
     inkscape:pagecheckerboard="0"
     inkscape:deskcolor="#d1d1d1">
    <inkscape:page
       x="0"
       y="0"
       width="394.53903"
       height="234.07462"
       id="page2"
       margin="0"
       bleed="0" />
  </sodipodi:namedview>
  <g
     id="layer-MC11"
     inkscape:groupmode="layer"
     inkscape:label="Fig 4"
     transform="translate(-443.48563,-335.14882)">
    <g
       id="g308">
      <g
         opacity="0.5"
         id="g82"
         clip-path="url(#clipPath83)">
        <path
           d="m 527.672,435.472 h -11.476 v 6.404 h 11.476 z"
           style="fill:#8da3a3;fill-opacity:1;fill-rule:nonzero;stroke:none"
           transform="matrix(1.3333333,0,0,-1.3333333,0,1131.5907)"
           clip-path="url(#clipPath81)"
           id="path82" />
      </g>
      <text
         id="text83"
         xml:space="preserve"
         transform="matrix(1.3333333,0,0,1.3333333,706.20827,550.9644)"><tspan
           id="tspan83"
           style="font-variant:normal;font-weight:normal;font-stretch:normal;font-size:10px;font-family:Arial;writing-mode:lr-tb;fill:#000000;fill-opacity:1;fill-rule:nonzero;stroke:none"
           x="0"
           y="0">Motor Learning (n=10)</tspan></text>
      <g
         opacity="0.600006"
         id="g85"
         clip-path="url(#clipPath86)">
        <path
           d="m 527.672,423.384 h -11.476 v 6.404 h 11.476 z"
           style="fill:#0a60ff;fill-opacity:1;fill-rule:nonzero;stroke:none"
           transform="matrix(1.3333333,0,0,-1.3333333,0,1131.5907)"
           clip-path="url(#clipPath84)"
           id="path85" />
      </g>
      <text
         id="text86"
         xml:space="preserve"
         transform="matrix(1.3333333,0,0,1.3333333,707.12627,566.41747)"><tspan
           id="tspan86"
           style="font-variant:normal;font-weight:normal;font-stretch:normal;font-size:10px;font-family:Arial;writing-mode:lr-tb;fill:#000000;fill-opacity:1;fill-rule:nonzero;stroke:none"
           x="0"
           y="0">Paired VNS (n=6)</tspan></text>
      <text
         id="text87"
         xml:space="preserve"
         transform="matrix(1.3333333,0,0,1.3333333,752.15493,375.29773)"><tspan
           id="tspan87"
           style="font-variant:normal;font-weight:normal;font-stretch:normal;font-size:20px;font-family:Arial;writing-mode:lr-tb;fill:#000000;fill-opacity:1;fill-rule:nonzero;stroke:none"
           x="0"
           y="0">*</tspan></text>
      <path
         id="path87"
         d="M 0,0 H 38.019"
         style="fill:none;stroke:#000000;stroke-width:1;stroke-linecap:square;stroke-linejoin:miter;stroke-miterlimit:10;stroke-dasharray:none;stroke-opacity:1"
         transform="matrix(1.3333333,0,0,-1.3333333,731.99867,367.6544)" />
      <path
         id="path88"
         d="M 0,0 V 1.447"
         style="fill:none;stroke:#000000;stroke-width:1;stroke-linecap:square;stroke-linejoin:miter;stroke-miterlimit:10;stroke-dasharray:none;stroke-opacity:1"
         transform="matrix(1.3333333,0,0,-1.3333333,731.99867,370.50827)" />
      <path
         id="path89"
         d="M 0,0 V 1.447"
         style="fill:none;stroke:#000000;stroke-width:1;stroke-linecap:square;stroke-linejoin:miter;stroke-miterlimit:10;stroke-dasharray:none;stroke-opacity:1"
         transform="matrix(1.3333333,0,0,-1.3333333,782.69027,370.50867)" />
      <text
         id="text89"
         xml:space="preserve"
         transform="matrix(1.3333333,0,0,1.3333333,685.6172,537.56853)"><tspan
           id="tspan89"
           style="font-variant:normal;font-weight:normal;font-stretch:normal;font-size:10px;font-family:Arial;writing-mode:lr-tb;fill:#000000;fill-opacity:1;fill-rule:nonzero;stroke:none"
           x="0"
           y="0">0</tspan></text>
      <path
         id="path90"
         d="M 0,0 H -2.336"
         style="fill:none;stroke:#000000;stroke-width:1;stroke-linecap:butt;stroke-linejoin:miter;stroke-miterlimit:10;stroke-dasharray:none;stroke-opacity:1"
         transform="matrix(1.3333333,0,0,-1.3333333,698.07747,534.26947)" />
      <text
         id="text90"
         xml:space="preserve"
         transform="matrix(1.3333333,0,0,1.3333333,678.74347,493.0828)"><tspan
           id="tspan90"
           style="font-variant:normal;font-weight:normal;font-stretch:normal;font-size:10px;font-family:Arial;writing-mode:lr-tb;fill:#000000;fill-opacity:1;fill-rule:nonzero;stroke:none"
           x="0"
           y="0">25</tspan></text>
      <path
         id="path91"
         d="M 0,0 H -2.336"
         style="fill:none;stroke:#000000;stroke-width:1;stroke-linecap:butt;stroke-linejoin:miter;stroke-miterlimit:10;stroke-dasharray:none;stroke-opacity:1"
         transform="matrix(1.3333333,0,0,-1.3333333,698.07747,489.78493)" />
      <text
         id="text91"
         xml:space="preserve"
         transform="matrix(1.3333333,0,0,1.3333333,678.74347,448.59853)"><tspan
           id="tspan91"
           style="font-variant:normal;font-weight:normal;font-stretch:normal;font-size:10px;font-family:Arial;writing-mode:lr-tb;fill:#000000;fill-opacity:1;fill-rule:nonzero;stroke:none"
           x="0"
           y="0">50</tspan></text>
      <path
         id="path92"
         d="M 0,0 H -2.336"
         style="fill:none;stroke:#000000;stroke-width:1;stroke-linecap:butt;stroke-linejoin:miter;stroke-miterlimit:10;stroke-dasharray:none;stroke-opacity:1"
         transform="matrix(1.3333333,0,0,-1.3333333,698.07747,445.3004)" />
      <text
         id="text92"
         xml:space="preserve"
         transform="matrix(1.3333333,0,0,1.3333333,678.74347,404.11413)"><tspan
           id="tspan92"
           style="font-variant:normal;font-weight:normal;font-stretch:normal;font-size:10px;font-family:Arial;writing-mode:lr-tb;fill:#000000;fill-opacity:1;fill-rule:nonzero;stroke:none"
           x="0"
           y="0">75</tspan></text>
      <path
         id="path93"
         d="M 0,0 H -2.336"
         style="fill:none;stroke:#000000;stroke-width:1;stroke-linecap:butt;stroke-linejoin:miter;stroke-miterlimit:10;stroke-dasharray:none;stroke-opacity:1"
         transform="matrix(1.3333333,0,0,-1.3333333,698.07747,400.81587)" />
      <text
         id="text93"
         xml:space="preserve"
         transform="matrix(1.3333333,0,0,1.3333333,671.86853,359.6284)"><tspan
           id="tspan93"
           style="font-variant:normal;font-weight:normal;font-stretch:normal;font-size:10px;font-family:Arial;writing-mode:lr-tb;fill:#000000;fill-opacity:1;fill-rule:nonzero;stroke:none"
           x="0"
           y="0">100</tspan></text>
      <path
         id="path94"
         d="M 0,0 H -2.336"
         style="fill:none;stroke:#000000;stroke-width:1;stroke-linecap:butt;stroke-linejoin:miter;stroke-miterlimit:10;stroke-dasharray:none;stroke-opacity:1"
         transform="matrix(1.3333333,0,0,-1.3333333,698.07747,356.33133)" />
      <path
         id="path95"
         d="M 0,0 V 133.923"
         style="fill:none;stroke:#000000;stroke-width:1;stroke-linecap:butt;stroke-linejoin:miter;stroke-miterlimit:10;stroke-dasharray:none;stroke-opacity:1"
         transform="matrix(1.3333333,0,0,-1.3333333,698.07747,534.26947)" />
      <text
         id="text95"
         xml:space="preserve"
         transform="matrix(1.3333333,0,0,1.3333333,634.5104,348.64667)"><tspan
           id="tspan95"
           style="font-variant:normal;font-weight:700;font-stretch:normal;font-size:13.9052px;font-family:Arial;writing-mode:lr-tb;fill:#000000;fill-opacity:1;fill-rule:nonzero;stroke:none"
           x="0"
           y="0">f</tspan></text>
      <text
         id="text96"
         xml:space="preserve"
         transform="matrix(0,-1.3333333,1.3333333,0,669.21613,542.60627)"><tspan
           id="tspan96"
           style="font-variant:normal;font-weight:normal;font-stretch:normal;font-size:13px;font-family:Arial;writing-mode:lr-tb;fill:#000000;fill-opacity:1;fill-rule:nonzero;stroke:none"
           x="0"
           y="0">Replaced sheath number</tspan></text>
      <g
         opacity="0.5"
         id="g97"
         clip-path="url(#clipPath98)">
        <path
           d="m 574.396,447.676 h 25.363 v 57.306 h -25.363 z"
           style="fill:#0a60ff;fill-opacity:1;fill-rule:nonzero;stroke:none"
           transform="matrix(1.3333333,0,0,-1.3333333,0,1131.5907)"
           clip-path="url(#clipPath96)"
           id="path97" />
      </g>
      <path
         id="path99"
         d="m 0,0 c 0,-0.734 -0.595,-1.329 -1.329,-1.329 -0.735,0 -1.33,0.595 -1.33,1.329 0,0.734 0.595,1.329 1.33,1.329 C -0.595,1.329 0,0.734 0,0"
         style="fill:#0a60ff;fill-opacity:1;fill-rule:nonzero;stroke:#0a60ff;stroke-width:1;stroke-linecap:butt;stroke-linejoin:miter;stroke-miterlimit:10;stroke-dasharray:none;stroke-opacity:1"
         transform="matrix(1.3333333,0,0,-1.3333333,784.54213,487.92773)" />
      <path
         id="path100"
         d="m 0,0 c 0,-0.734 -0.595,-1.329 -1.329,-1.329 -0.735,0 -1.33,0.595 -1.33,1.329 0,0.734 0.595,1.329 1.33,1.329 C -0.595,1.329 0,0.734 0,0"
         style="fill:#0a60ff;fill-opacity:1;fill-rule:nonzero;stroke:#0a60ff;stroke-width:1;stroke-linecap:butt;stroke-linejoin:miter;stroke-miterlimit:10;stroke-dasharray:none;stroke-opacity:1"
         transform="matrix(1.3333333,0,0,-1.3333333,784.54213,482.5956)" />
      <path
         id="path101"
         d="m 0,0 c 0,-0.734 -0.595,-1.329 -1.329,-1.329 -0.735,0 -1.33,0.595 -1.33,1.329 0,0.734 0.595,1.329 1.33,1.329 C -0.595,1.329 0,0.734 0,0"
         style="fill:#0a60ff;fill-opacity:1;fill-rule:nonzero;stroke:#0a60ff;stroke-width:1;stroke-linecap:butt;stroke-linejoin:miter;stroke-miterlimit:10;stroke-dasharray:none;stroke-opacity:1"
         transform="matrix(1.3333333,0,0,-1.3333333,784.54213,457.71187)" />
      <path
         id="path102"
         d="m 0,0 c 0,-0.734 -0.595,-1.329 -1.329,-1.329 -0.735,0 -1.33,0.595 -1.33,1.329 0,0.734 0.595,1.329 1.33,1.329 C -0.595,1.329 0,0.734 0,0"
         style="fill:#0a60ff;fill-opacity:1;fill-rule:nonzero;stroke:#0a60ff;stroke-width:1;stroke-linecap:butt;stroke-linejoin:miter;stroke-miterlimit:10;stroke-dasharray:none;stroke-opacity:1"
         transform="matrix(1.3333333,0,0,-1.3333333,787.4068,441.7152)" />
      <path
         id="path103"
         d="m 0,0 c 0,-0.734 -0.595,-1.329 -1.329,-1.329 -0.735,0 -1.33,0.595 -1.33,1.329 0,0.734 0.595,1.329 1.33,1.329 C -0.595,1.329 0,0.734 0,0"
         style="fill:#0a60ff;fill-opacity:1;fill-rule:nonzero;stroke:#0a60ff;stroke-width:1;stroke-linecap:butt;stroke-linejoin:miter;stroke-miterlimit:10;stroke-dasharray:none;stroke-opacity:1"
         transform="matrix(1.3333333,0,0,-1.3333333,781.6772,441.7152)" />
      <path
         id="path104"
         d="m 0,0 c 0,-0.734 -0.595,-1.329 -1.329,-1.329 -0.735,0 -1.33,0.595 -1.33,1.329 0,0.734 0.595,1.329 1.33,1.329 C -0.595,1.329 0,0.734 0,0"
         style="fill:#0a60ff;fill-opacity:1;fill-rule:nonzero;stroke:#0a60ff;stroke-width:1;stroke-linecap:butt;stroke-linejoin:miter;stroke-miterlimit:10;stroke-dasharray:none;stroke-opacity:1"
         transform="matrix(1.3333333,0,0,-1.3333333,784.54213,438.1604)" />
      <path
         id="path105"
         d="M 0,0 H 10.182 M 5.091,0 v 13.484 m -5.091,0 h 10.182"
         style="fill:none;stroke:#000000;stroke-width:1;stroke-linecap:butt;stroke-linejoin:miter;stroke-miterlimit:3;stroke-dasharray:none;stroke-opacity:1"
         transform="matrix(1.3333333,0,0,-1.3333333,775.98107,467.42027)" />
      <g
         opacity="0.5"
         id="g107"
         clip-path="url(#clipPath108)">
        <path
           d="m 536.24,447.643 h 25.474 v 36.886 H 536.24 Z"
           style="fill:#8da3a3;fill-opacity:1;fill-rule:nonzero;stroke:none"
           transform="matrix(1.3333333,0,0,-1.3333333,0,1131.5907)"
           clip-path="url(#clipPath106)"
           id="path107" />
      </g>
      <path
         id="path109"
         d="m 0,0 c 0,-0.734 -0.595,-1.329 -1.329,-1.329 -0.735,0 -1.33,0.595 -1.33,1.329 0,0.734 0.595,1.329 1.33,1.329 C -0.595,1.329 0,0.734 0,0"
         style="fill:#8da3a3;fill-opacity:1;fill-rule:nonzero;stroke:#8da3a3;stroke-width:1;stroke-linecap:butt;stroke-linejoin:miter;stroke-miterlimit:10;stroke-dasharray:none;stroke-opacity:1"
         transform="matrix(1.3333333,0,0,-1.3333333,733.74173,509.25013)" />
      <path
         id="path110"
         d="m 0,0 c 0,-0.734 -0.595,-1.329 -1.329,-1.329 -0.735,0 -1.33,0.595 -1.33,1.329 0,0.734 0.595,1.329 1.33,1.329 C -0.595,1.329 0,0.734 0,0"
         style="fill:#8da3a3;fill-opacity:1;fill-rule:nonzero;stroke:#8da3a3;stroke-width:1;stroke-linecap:butt;stroke-linejoin:miter;stroke-miterlimit:10;stroke-dasharray:none;stroke-opacity:1"
         transform="matrix(1.3333333,0,0,-1.3333333,733.74173,505.69267)" />
      <path
         id="path111"
         d="m 0,0 c 0,-0.734 -0.595,-1.329 -1.329,-1.329 -0.735,0 -1.33,0.595 -1.33,1.329 0,0.734 0.595,1.329 1.33,1.329 C -0.595,1.329 0,0.734 0,0"
         style="fill:#8da3a3;fill-opacity:1;fill-rule:nonzero;stroke:#8da3a3;stroke-width:1;stroke-linecap:butt;stroke-linejoin:miter;stroke-miterlimit:10;stroke-dasharray:none;stroke-opacity:1"
         transform="matrix(1.3333333,0,0,-1.3333333,733.74173,502.1352)" />
      <path
         id="path112"
         d="m 0,0 c 0,-0.734 -0.595,-1.329 -1.329,-1.329 -0.735,0 -1.33,0.595 -1.33,1.329 0,0.734 0.595,1.329 1.33,1.329 C -0.595,1.329 0,0.734 0,0"
         style="fill:#8da3a3;fill-opacity:1;fill-rule:nonzero;stroke:#8da3a3;stroke-width:1;stroke-linecap:butt;stroke-linejoin:miter;stroke-miterlimit:10;stroke-dasharray:none;stroke-opacity:1"
         transform="matrix(1.3333333,0,0,-1.3333333,737.03413,489.6844)" />
      <path
         id="path113"
         d="m 0,0 c 0,-0.734 -0.595,-1.329 -1.329,-1.329 -0.735,0 -1.33,0.595 -1.33,1.329 0,0.734 0.595,1.329 1.33,1.329 C -0.595,1.329 0,0.734 0,0"
         style="fill:#8da3a3;fill-opacity:1;fill-rule:nonzero;stroke:#8da3a3;stroke-width:1;stroke-linecap:butt;stroke-linejoin:miter;stroke-miterlimit:10;stroke-dasharray:none;stroke-opacity:1"
         transform="matrix(1.3333333,0,0,-1.3333333,730.4492,489.6844)" />
      <path
         id="path114"
         d="m 0,0 c 0,-0.734 -0.595,-1.329 -1.329,-1.329 -0.735,0 -1.33,0.595 -1.33,1.329 0,0.734 0.595,1.329 1.33,1.329 C -0.595,1.329 0,0.734 0,0"
         style="fill:#8da3a3;fill-opacity:1;fill-rule:nonzero;stroke:#8da3a3;stroke-width:1;stroke-linecap:butt;stroke-linejoin:miter;stroke-miterlimit:10;stroke-dasharray:none;stroke-opacity:1"
         transform="matrix(1.3333333,0,0,-1.3333333,733.74173,480.7908)" />
      <path
         id="path115"
         d="m 0,0 c 0,-0.734 -0.595,-1.329 -1.329,-1.329 -0.735,0 -1.33,0.595 -1.33,1.329 0,0.734 0.595,1.329 1.33,1.329 C -0.595,1.329 0,0.734 0,0"
         style="fill:#8da3a3;fill-opacity:1;fill-rule:nonzero;stroke:#8da3a3;stroke-width:1;stroke-linecap:butt;stroke-linejoin:miter;stroke-miterlimit:10;stroke-dasharray:none;stroke-opacity:1"
         transform="matrix(1.3333333,0,0,-1.3333333,733.74173,477.23347)" />
      <path
         id="path116"
         d="m 0,0 c 0,-0.734 -0.595,-1.329 -1.329,-1.329 -0.735,0 -1.33,0.595 -1.33,1.329 0,0.734 0.595,1.329 1.33,1.329 C -0.595,1.329 0,0.734 0,0"
         style="fill:#8da3a3;fill-opacity:1;fill-rule:nonzero;stroke:#8da3a3;stroke-width:1;stroke-linecap:butt;stroke-linejoin:miter;stroke-miterlimit:10;stroke-dasharray:none;stroke-opacity:1"
         transform="matrix(1.3333333,0,0,-1.3333333,733.74173,473.676)" />
      <path
         id="path117"
         d="m 0,0 c 0,-0.734 -0.595,-1.329 -1.329,-1.329 -0.735,0 -1.33,0.595 -1.33,1.329 0,0.734 0.595,1.329 1.33,1.329 C -0.595,1.329 0,0.734 0,0"
         style="fill:#8da3a3;fill-opacity:1;fill-rule:nonzero;stroke:#8da3a3;stroke-width:1;stroke-linecap:butt;stroke-linejoin:miter;stroke-miterlimit:10;stroke-dasharray:none;stroke-opacity:1"
         transform="matrix(1.3333333,0,0,-1.3333333,733.74173,468.33987)" />
      <path
         id="path118"
         d="m 0,0 c 0,-0.734 -0.595,-1.329 -1.329,-1.329 -0.735,0 -1.33,0.595 -1.33,1.329 0,0.734 0.595,1.329 1.33,1.329 C -0.595,1.329 0,0.734 0,0"
         style="fill:#8da3a3;fill-opacity:1;fill-rule:nonzero;stroke:#8da3a3;stroke-width:1;stroke-linecap:butt;stroke-linejoin:miter;stroke-miterlimit:10;stroke-dasharray:none;stroke-opacity:1"
         transform="matrix(1.3333333,0,0,-1.3333333,733.74173,459.4464)" />
      <path
         id="path119"
         d="M 0,0 H 10.354 M 5.177,0 V 7.885 M 0,7.885 h 10.354"
         style="fill:none;stroke:#000000;stroke-width:1;stroke-linecap:butt;stroke-linejoin:miter;stroke-miterlimit:3;stroke-dasharray:none;stroke-opacity:1"
         transform="matrix(1.3333333,0,0,-1.3333333,725.06613,491.0084)" />
      <path
         id="path120"
         d="M 0,0 H 90.328"
         style="fill:none;stroke:#000000;stroke-width:1;stroke-linecap:butt;stroke-linejoin:miter;stroke-miterlimit:10;stroke-dasharray:none;stroke-opacity:1"
         transform="matrix(1.3333333,0,0,-1.3333333,697.18787,534.2692)" />
      <g
         opacity="0.5"
         id="g122"
         clip-path="url(#clipPath123)">
        <path
           d="m 383.963,435.473 h -11.476 v 6.404 h 11.476 z"
           style="fill:#8da3a3;fill-opacity:1;fill-rule:nonzero;stroke:none"
           transform="matrix(1.3333333,0,0,-1.3333333,0,1131.5907)"
           clip-path="url(#clipPath121)"
           id="path122" />
      </g>
      <text
         id="text123"
         xml:space="preserve"
         transform="matrix(1.3333333,0,0,1.3333333,514.59507,550.9644)"><tspan
           id="tspan123"
           style="font-variant:normal;font-weight:normal;font-stretch:normal;font-size:10px;font-family:Arial;writing-mode:lr-tb;fill:#000000;fill-opacity:1;fill-rule:nonzero;stroke:none"
           x="0"
           y="0">Motor Learning (n=10)</tspan></text>
      <g
         opacity="0.600006"
         id="g125"
         clip-path="url(#clipPath126)">
        <path
           d="m 383.963,423.384 h -11.476 v 6.404 h 11.476 z"
           style="fill:#0a60ff;fill-opacity:1;fill-rule:nonzero;stroke:none"
           transform="matrix(1.3333333,0,0,-1.3333333,0,1131.5907)"
           clip-path="url(#clipPath124)"
           id="path125" />
      </g>
      <text
         id="text126"
         xml:space="preserve"
         transform="matrix(1.3333333,0,0,1.3333333,515.51307,566.41747)"><tspan
           id="tspan126"
           style="font-variant:normal;font-weight:normal;font-stretch:normal;font-size:10px;font-family:Arial;writing-mode:lr-tb;fill:#000000;fill-opacity:1;fill-rule:nonzero;stroke:none"
           x="0"
           y="0">Paired VNS (n=6)</tspan><tspan
           id="tspan127"
           style="font-variant:normal;font-weight:normal;font-stretch:normal;font-size:10px;font-family:Arial;writing-mode:lr-tb;fill:#000000;fill-opacity:1;fill-rule:nonzero;stroke:none"
           x="-16.129999"
           y="-21.639999">0</tspan></text>
      <path
         id="path127"
         d="M 0,0 H -2.336"
         style="fill:none;stroke:#000000;stroke-width:1;stroke-linecap:butt;stroke-linejoin:miter;stroke-miterlimit:10;stroke-dasharray:none;stroke-opacity:1"
         transform="matrix(1.3333333,0,0,-1.3333333,506.46493,534.26867)" />
      <text
         id="text127"
         xml:space="preserve"
         transform="matrix(1.3333333,0,0,1.3333333,487.13027,493.0816)"><tspan
           id="tspan128"
           style="font-variant:normal;font-weight:normal;font-stretch:normal;font-size:10px;font-family:Arial;writing-mode:lr-tb;fill:#000000;fill-opacity:1;fill-rule:nonzero;stroke:none"
           x="0"
           y="0">25</tspan></text>
      <path
         id="path128"
         d="M 0,0 H -2.336"
         style="fill:none;stroke:#000000;stroke-width:1;stroke-linecap:butt;stroke-linejoin:miter;stroke-miterlimit:10;stroke-dasharray:none;stroke-opacity:1"
         transform="matrix(1.3333333,0,0,-1.3333333,506.46493,489.78413)" />
      <text
         id="text128"
         xml:space="preserve"
         transform="matrix(1.3333333,0,0,1.3333333,487.13027,448.5972)"><tspan
           id="tspan129"
           style="font-variant:normal;font-weight:normal;font-stretch:normal;font-size:10px;font-family:Arial;writing-mode:lr-tb;fill:#000000;fill-opacity:1;fill-rule:nonzero;stroke:none"
           x="0"
           y="0">50</tspan></text>
      <path
         id="path129"
         d="M 0,0 H -2.336"
         style="fill:none;stroke:#000000;stroke-width:1;stroke-linecap:butt;stroke-linejoin:miter;stroke-miterlimit:10;stroke-dasharray:none;stroke-opacity:1"
         transform="matrix(1.3333333,0,0,-1.3333333,506.46493,445.2996)" />
      <text
         id="text129"
         xml:space="preserve"
         transform="matrix(1.3333333,0,0,1.3333333,487.13027,404.1128)"><tspan
           id="tspan130"
           style="font-variant:normal;font-weight:normal;font-stretch:normal;font-size:10px;font-family:Arial;writing-mode:lr-tb;fill:#000000;fill-opacity:1;fill-rule:nonzero;stroke:none"
           x="0"
           y="0">75</tspan></text>
      <path
         id="path130"
         d="M 0,0 H -2.336"
         style="fill:none;stroke:#000000;stroke-width:1;stroke-linecap:butt;stroke-linejoin:miter;stroke-miterlimit:10;stroke-dasharray:none;stroke-opacity:1"
         transform="matrix(1.3333333,0,0,-1.3333333,506.46493,400.81493)" />
      <text
         id="text130"
         xml:space="preserve"
         transform="matrix(1.3333333,0,0,1.3333333,480.2552,359.62707)"><tspan
           id="tspan131"
           style="font-variant:normal;font-weight:normal;font-stretch:normal;font-size:10px;font-family:Arial;writing-mode:lr-tb;fill:#000000;fill-opacity:1;fill-rule:nonzero;stroke:none"
           x="0"
           y="0">100</tspan></text>
      <path
         id="path131"
         d="M 0,0 H -2.336"
         style="fill:none;stroke:#000000;stroke-width:1;stroke-linecap:butt;stroke-linejoin:miter;stroke-miterlimit:10;stroke-dasharray:none;stroke-opacity:1"
         transform="matrix(1.3333333,0,0,-1.3333333,506.46493,356.3304)" />
      <path
         id="path132"
         d="M 0,0 V 133.923"
         style="fill:none;stroke:#000000;stroke-width:1;stroke-linecap:butt;stroke-linejoin:miter;stroke-miterlimit:10;stroke-dasharray:none;stroke-opacity:1"
         transform="matrix(1.3333333,0,0,-1.3333333,506.46493,534.26867)" />
      <text
         id="text132"
         xml:space="preserve"
         transform="matrix(1.3333333,0,0,1.3333333,442.8972,348.64667)"><tspan
           id="tspan132"
           style="font-variant:normal;font-weight:700;font-stretch:normal;font-size:13.9052px;font-family:Arial;writing-mode:lr-tb;fill:#000000;fill-opacity:1;fill-rule:nonzero;stroke:none"
           x="0"
           y="0">e</tspan></text>
      <text
         id="text133"
         xml:space="preserve"
         transform="matrix(0,-1.3333333,1.3333333,0,477.6028,539.70787)"><tspan
           id="tspan133"
           style="font-variant:normal;font-weight:normal;font-stretch:normal;font-size:13px;font-family:Arial;writing-mode:lr-tb;fill:#000000;fill-opacity:1;fill-rule:nonzero;stroke:none"
           x="0"
           y="0">Survived sheath number</tspan></text>
      <g
         opacity="0.5"
         id="g134"
         clip-path="url(#clipPath135)">
        <path
           d="m 430.686,447.677 h 25.363 v 52.301 h -25.363 z"
           style="fill:#0a60ff;fill-opacity:1;fill-rule:nonzero;stroke:none"
           transform="matrix(1.3333333,0,0,-1.3333333,0,1131.5907)"
           clip-path="url(#clipPath133)"
           id="path134" />
      </g>
      <path
         id="path136"
         d="m 0,0 c 0,-0.734 -0.595,-1.329 -1.329,-1.329 -0.735,0 -1.33,0.595 -1.33,1.329 0,0.734 0.595,1.329 1.33,1.329 C -0.595,1.329 0,0.734 0,0"
         style="fill:#0a60ff;fill-opacity:1;fill-rule:nonzero;stroke:#0a60ff;stroke-width:1;stroke-linecap:butt;stroke-linejoin:miter;stroke-miterlimit:10;stroke-dasharray:none;stroke-opacity:1"
         transform="matrix(1.3333333,0,0,-1.3333333,592.92947,533.9868)" />
      <path
         id="path137"
         d="m 0,0 c 0,-0.734 -0.595,-1.329 -1.329,-1.329 -0.735,0 -1.33,0.595 -1.33,1.329 0,0.734 0.595,1.329 1.33,1.329 C -0.595,1.329 0,0.734 0,0"
         style="fill:#0a60ff;fill-opacity:1;fill-rule:nonzero;stroke:#0a60ff;stroke-width:1;stroke-linecap:butt;stroke-linejoin:miter;stroke-miterlimit:10;stroke-dasharray:none;stroke-opacity:1"
         transform="matrix(1.3333333,0,0,-1.3333333,592.92947,505.54013)" />
      <path
         id="path138"
         d="m 0,0 c 0,-0.734 -0.595,-1.329 -1.329,-1.329 -0.735,0 -1.33,0.595 -1.33,1.329 0,0.734 0.595,1.329 1.33,1.329 C -0.595,1.329 0,0.734 0,0"
         style="fill:#0a60ff;fill-opacity:1;fill-rule:nonzero;stroke:#0a60ff;stroke-width:1;stroke-linecap:butt;stroke-linejoin:miter;stroke-miterlimit:10;stroke-dasharray:none;stroke-opacity:1"
         transform="matrix(1.3333333,0,0,-1.3333333,595.4096,468.2036)" />
      <path
         id="path139"
         d="m 0,0 c 0,-0.734 -0.595,-1.329 -1.329,-1.329 -0.735,0 -1.33,0.595 -1.33,1.329 0,0.734 0.595,1.329 1.33,1.329 C -0.595,1.329 0,0.734 0,0"
         style="fill:#0a60ff;fill-opacity:1;fill-rule:nonzero;stroke:#0a60ff;stroke-width:1;stroke-linecap:butt;stroke-linejoin:miter;stroke-miterlimit:10;stroke-dasharray:none;stroke-opacity:1"
         transform="matrix(1.3333333,0,0,-1.3333333,590.44947,468.2036)" />
      <path
         id="path140"
         d="m 0,0 c 0,-0.734 -0.595,-1.329 -1.329,-1.329 -0.735,0 -1.33,0.595 -1.33,1.329 0,0.734 0.595,1.329 1.33,1.329 C -0.595,1.329 0,0.734 0,0"
         style="fill:#0a60ff;fill-opacity:1;fill-rule:nonzero;stroke:#0a60ff;stroke-width:1;stroke-linecap:butt;stroke-linejoin:miter;stroke-miterlimit:10;stroke-dasharray:none;stroke-opacity:1"
         transform="matrix(1.3333333,0,0,-1.3333333,592.92947,421.97747)" />
      <path
         id="path141"
         d="m 0,0 c 0,-0.734 -0.595,-1.329 -1.329,-1.329 -0.735,0 -1.33,0.595 -1.33,1.329 0,0.734 0.595,1.329 1.33,1.329 C -0.595,1.329 0,0.734 0,0"
         style="fill:#0a60ff;fill-opacity:1;fill-rule:nonzero;stroke:#0a60ff;stroke-width:1;stroke-linecap:butt;stroke-linejoin:miter;stroke-miterlimit:10;stroke-dasharray:none;stroke-opacity:1"
         transform="matrix(1.3333333,0,0,-1.3333333,592.92947,391.75267)" />
      <path
         id="path142"
         d="M 0,0 H 6.867 M 3.433,0 v 31.984 m -3.433,0 h 6.867"
         style="fill:none;stroke:#000000;stroke-width:1;stroke-linecap:butt;stroke-linejoin:miter;stroke-miterlimit:3;stroke-dasharray:none;stroke-opacity:1"
         transform="matrix(1.3333333,0,0,-1.3333333,586.57893,486.4536)" />
      <g
         opacity="0.5"
         id="g144"
         clip-path="url(#clipPath145)">
        <path
           d="m 392.53,447.644 h 25.474 v 37.613 H 392.53 Z"
           style="fill:#8da3a3;fill-opacity:1;fill-rule:nonzero;stroke:none"
           transform="matrix(1.3333333,0,0,-1.3333333,0,1131.5907)"
           clip-path="url(#clipPath143)"
           id="path144" />
      </g>
      <path
         id="path146"
         d="m 0,0 c 0,-0.734 -0.595,-1.329 -1.329,-1.329 -0.735,0 -1.33,0.595 -1.33,1.329 0,0.734 0.595,1.329 1.33,1.329 C -0.595,1.329 0,0.734 0,0"
         style="fill:#8da3a3;fill-opacity:1;fill-rule:nonzero;stroke:#8da3a3;stroke-width:1;stroke-linecap:butt;stroke-linejoin:miter;stroke-miterlimit:10;stroke-dasharray:none;stroke-opacity:1"
         transform="matrix(1.3333333,0,0,-1.3333333,542.1292,526.9204)" />
      <path
         id="path147"
         d="m 0,0 c 0,-0.734 -0.595,-1.329 -1.329,-1.329 -0.735,0 -1.33,0.595 -1.33,1.329 0,0.734 0.595,1.329 1.33,1.329 C -0.595,1.329 0,0.734 0,0"
         style="fill:#8da3a3;fill-opacity:1;fill-rule:nonzero;stroke:#8da3a3;stroke-width:1;stroke-linecap:butt;stroke-linejoin:miter;stroke-miterlimit:10;stroke-dasharray:none;stroke-opacity:1"
         transform="matrix(1.3333333,0,0,-1.3333333,542.1292,514.4724)" />
      <path
         id="path148"
         d="m 0,0 c 0,-0.734 -0.595,-1.329 -1.329,-1.329 -0.735,0 -1.33,0.595 -1.33,1.329 0,0.734 0.595,1.329 1.33,1.329 C -0.595,1.329 0,0.734 0,0"
         style="fill:#8da3a3;fill-opacity:1;fill-rule:nonzero;stroke:#8da3a3;stroke-width:1;stroke-linecap:butt;stroke-linejoin:miter;stroke-miterlimit:10;stroke-dasharray:none;stroke-opacity:1"
         transform="matrix(1.3333333,0,0,-1.3333333,542.1292,502.0244)" />
      <path
         id="path149"
         d="m 0,0 c 0,-0.734 -0.595,-1.329 -1.329,-1.329 -0.735,0 -1.33,0.595 -1.33,1.329 0,0.734 0.595,1.329 1.33,1.329 C -0.595,1.329 0,0.734 0,0"
         style="fill:#8da3a3;fill-opacity:1;fill-rule:nonzero;stroke:#8da3a3;stroke-width:1;stroke-linecap:butt;stroke-linejoin:miter;stroke-miterlimit:10;stroke-dasharray:none;stroke-opacity:1"
         transform="matrix(1.3333333,0,0,-1.3333333,542.1292,494.9112)" />
      <path
         id="path150"
         d="m 0,0 c 0,-0.734 -0.595,-1.329 -1.329,-1.329 -0.735,0 -1.33,0.595 -1.33,1.329 0,0.734 0.595,1.329 1.33,1.329 C -0.595,1.329 0,0.734 0,0"
         style="fill:#8da3a3;fill-opacity:1;fill-rule:nonzero;stroke:#8da3a3;stroke-width:1;stroke-linecap:butt;stroke-linejoin:miter;stroke-miterlimit:10;stroke-dasharray:none;stroke-opacity:1"
         transform="matrix(1.3333333,0,0,-1.3333333,542.1292,487.79813)" />
      <path
         id="path151"
         d="m 0,0 c 0,-0.734 -0.595,-1.329 -1.329,-1.329 -0.735,0 -1.33,0.595 -1.33,1.329 0,0.734 0.595,1.329 1.33,1.329 C -0.595,1.329 0,0.734 0,0"
         style="fill:#8da3a3;fill-opacity:1;fill-rule:nonzero;stroke:#8da3a3;stroke-width:1;stroke-linecap:butt;stroke-linejoin:miter;stroke-miterlimit:10;stroke-dasharray:none;stroke-opacity:1"
         transform="matrix(1.3333333,0,0,-1.3333333,542.1292,474.75733)" />
      <path
         id="path152"
         d="m 0,0 c 0,-0.734 -0.595,-1.329 -1.329,-1.329 -0.735,0 -1.33,0.595 -1.33,1.329 0,0.734 0.595,1.329 1.33,1.329 C -0.595,1.329 0,0.734 0,0"
         style="fill:#8da3a3;fill-opacity:1;fill-rule:nonzero;stroke:#8da3a3;stroke-width:1;stroke-linecap:butt;stroke-linejoin:miter;stroke-miterlimit:10;stroke-dasharray:none;stroke-opacity:1"
         transform="matrix(1.3333333,0,0,-1.3333333,536.78307,474.75733)" />
      <path
         id="path153"
         d="m 0,0 c 0,-0.734 -0.595,-1.329 -1.329,-1.329 -0.735,0 -1.33,0.595 -1.33,1.329 0,0.734 0.595,1.329 1.33,1.329 C -0.595,1.329 0,0.734 0,0"
         style="fill:#8da3a3;fill-opacity:1;fill-rule:nonzero;stroke:#8da3a3;stroke-width:1;stroke-linecap:butt;stroke-linejoin:miter;stroke-miterlimit:10;stroke-dasharray:none;stroke-opacity:1"
         transform="matrix(1.3333333,0,0,-1.3333333,547.4752,474.75733)" />
      <path
         id="path154"
         d="m 0,0 c 0,-0.734 -0.595,-1.329 -1.329,-1.329 -0.735,0 -1.33,0.595 -1.33,1.329 0,0.734 0.595,1.329 1.33,1.329 C -0.595,1.329 0,0.734 0,0"
         style="fill:#8da3a3;fill-opacity:1;fill-rule:nonzero;stroke:#8da3a3;stroke-width:1;stroke-linecap:butt;stroke-linejoin:miter;stroke-miterlimit:10;stroke-dasharray:none;stroke-opacity:1"
         transform="matrix(1.3333333,0,0,-1.3333333,542.1292,464.68053)" />
      <path
         id="path155"
         d="m 0,0 c 0,-0.734 -0.595,-1.329 -1.329,-1.329 -0.735,0 -1.33,0.595 -1.33,1.329 0,0.734 0.595,1.329 1.33,1.329 C -0.595,1.329 0,0.734 0,0"
         style="fill:#8da3a3;fill-opacity:1;fill-rule:nonzero;stroke:#8da3a3;stroke-width:1;stroke-linecap:butt;stroke-linejoin:miter;stroke-miterlimit:10;stroke-dasharray:none;stroke-opacity:1"
         transform="matrix(1.3333333,0,0,-1.3333333,542.1292,430.89307)" />
      <path
         id="path156"
         d="M 0,0 H 11.137 M 5.568,0 V 12.92 M 0,12.92 h 11.137"
         style="fill:none;stroke:#000000;stroke-width:1;stroke-linecap:butt;stroke-linejoin:miter;stroke-miterlimit:3;stroke-dasharray:none;stroke-opacity:1"
         transform="matrix(1.3333333,0,0,-1.3333333,532.93187,493.36907)" />
      <path
         id="path157"
         d="M 0,0 H 90.328"
         style="fill:none;stroke:#000000;stroke-width:1;stroke-linecap:butt;stroke-linejoin:miter;stroke-miterlimit:10;stroke-dasharray:none;stroke-opacity:1"
         transform="matrix(1.3333333,0,0,-1.3333333,505.57533,534.26827)" />
      <text
         id="text157"
         xml:space="preserve"
         transform="matrix(1.3333333,0,0,1.3333333,551.834,365.0816)"><tspan
           id="tspan157"
           style="font-variant:normal;font-weight:normal;font-stretch:normal;font-size:13px;font-family:Arial;writing-mode:lr-tb;fill:#000000;fill-opacity:1;fill-rule:nonzero;stroke:none"
           x="0"
           y="0">n.s.</tspan></text>
      <path
         id="path158"
         d="M 0,0 H 37.861"
         style="fill:none;stroke:#000000;stroke-width:1;stroke-linecap:square;stroke-linejoin:miter;stroke-miterlimit:10;stroke-dasharray:none;stroke-opacity:1"
         transform="matrix(1.3333333,0,0,-1.3333333,540.5624,367.51693)" />
      <path
         id="path159"
         d="M 0,0 V 1.561"
         style="fill:none;stroke:#000000;stroke-width:1;stroke-linecap:square;stroke-linejoin:miter;stroke-miterlimit:10;stroke-dasharray:none;stroke-opacity:1"
         transform="matrix(1.3333333,0,0,-1.3333333,540.5624,370.59547)" />
      <path
         id="path160"
         d="M 0,0 V 1.561"
         style="fill:none;stroke:#000000;stroke-width:1;stroke-linecap:square;stroke-linejoin:miter;stroke-miterlimit:10;stroke-dasharray:none;stroke-opacity:1"
         transform="matrix(1.3333333,0,0,-1.3333333,591.04427,370.596)" />
    </g>
    <text
       id="text304"
       xml:space="preserve"
       transform="matrix(1.3333333,0,0,1.3333333,44.5892,1111.3928)"><tspan
         id="tspan304"
         style="font-variant:normal;font-weight:normal;font-stretch:normal;font-size:12px;font-family:Arial;writing-mode:lr-tb;fill:#000000;fill-opacity:1;fill-rule:nonzero;stroke:none"
         x="0"
         y="0">Figure 4. Paired VNS enhances remyelination of previously myelinated regions.</tspan><tspan
         id="tspan305"
         style="font-variant:normal;font-weight:normal;font-stretch:normal;font-size:12px;font-family:Arial;writing-mode:lr-tb;fill:#000000;fill-opacity:1;fill-rule:nonzero;stroke:none"
         x="510.40799"
         dx="0 0 0 0 0 0 0 0 0 0 0 0 0 0 0 0 -601.79999"
         y="-814.90802">Huang et al 2025Figure 4 </tspan></text>
  </g>
</svg>
