<?xml version="1.0" encoding="UTF-8" standalone="no"?>
<!-- Created with Inkscape (http://www.inkscape.org/) -->

<svg
   version="1.1"
   id="svg2"
   width="196.96442"
   height="242.03784"
   viewBox="0 0 196.96442 242.03784"
   sodipodi:docname="2026-01-20 all figures CM.pdf"
   xmlns:inkscape="http://www.inkscape.org/namespaces/inkscape"
   xmlns:sodipodi="http://sodipodi.sourceforge.net/DTD/sodipodi-0.dtd"
   xmlns="http://www.w3.org/2000/svg"
   xmlns:svg="http://www.w3.org/2000/svg">
  <defs
     id="defs6">
    <clipPath
       clipPathUnits="userSpaceOnUse"
       id="clipPath22">
      <path
         d="M 0,848.693 H 668.693 V 0 H 0 Z"
         id="path20" />
    </clipPath>
    <clipPath
       clipPathUnits="userSpaceOnUse"
       id="clipPath30">
      <path
         d="m 504.573,331.804 h 12.379 v -6.909 h -12.379 z"
         id="path28" />
    </clipPath>
    <clipPath
       clipPathUnits="userSpaceOnUse"
       id="clipPath50">
      <path
         d="M 0,848.693 H 668.693 V 0 H 0 Z"
         id="path48" />
    </clipPath>
    <clipPath
       clipPathUnits="userSpaceOnUse"
       id="clipPath58">
      <path
         d="m 504.573,318.764 h 12.379 v -6.909 h -12.379 z"
         id="path56" />
    </clipPath>
    <clipPath
       clipPathUnits="userSpaceOnUse"
       id="clipPath92">
      <path
         d="M 0,848.693 H 668.693 V 0 H 0 Z"
         id="path90" />
    </clipPath>
    <clipPath
       clipPathUnits="userSpaceOnUse"
       id="clipPath100">
      <path
         d="m 571.365,451.336 h 27.48 v -46.627 h -27.48 z"
         id="path98" />
    </clipPath>
    <clipPath
       clipPathUnits="userSpaceOnUse"
       id="clipPath262">
      <path
         d="m 530.325,403.164 h 27.48 v -23.648 h -27.48 z"
         id="path260" />
    </clipPath>
    <clipPath
       clipPathUnits="userSpaceOnUse"
       id="clipPath304">
      <path
         d="M 0,848.693 H 668.693 V 0 H 0 Z"
         id="path302" />
    </clipPath>
  </defs>
  <sodipodi:namedview
     id="namedview4"
     pagecolor="#ffffff"
     bordercolor="#000000"
     borderopacity="0.25"
     inkscape:showpageshadow="2"
     inkscape:pageopacity="0.0"
     inkscape:pagecheckerboard="0"
     inkscape:deskcolor="#d1d1d1"
     showgrid="false" />
  <g
     id="g8"
     inkscape:groupmode="layer"
     inkscape:label="2026-01-20 all figures CM"
     transform="matrix(1.3333333,0,0,-1.3333333,-629.276,654.98566)">
    <g
       id="g41615">
      <text
         xml:space="preserve"
         transform="matrix(0,1,1,0,481.4277,347.3813)"
         style="font-variant:normal;font-weight:normal;font-stretch:normal;font-size:13px;font-family:Arial;-inkscape-font-specification:ArialMT;writing-mode:lr-tb;fill:#000000;fill-opacity:1;fill-rule:nonzero;stroke:none"
         id="text14"><tspan
           x="0 10.829 18.056999 24.556999 28.171 31.785 41.898998 48.646 52.259998 56.589001 63.817001 71.044998 73.931 81.158997 87.658997 94.887001 105.716 112.944 120.172"
           y="0"
           sodipodi:role="line"
           id="tspan10">Max. OL replacement</tspan><tspan
           x="-7.2280002 -2.8989999 4.329 7.9429998 15.171 18.785 26.013 33.241001 39.741001 43.355 47.683998 54.183998 57.798 60.683998 71.513 78.740997 81.626999 88.855003 92.469002 95.355003 102.583 109.811 113.425 117.754 129.311"
           y="15.6"
           sodipodi:role="line"
           id="tspan12">rate post-stimulation (%)</tspan></text>
      <g
         id="g16">
        <g
           id="g18"
           clip-path="url(#clipPath22)">
          <g
             id="g24">
            <g
               id="g26" />
            <g
               id="g38">
              <g
                 clip-path="url(#clipPath30)"
                 opacity="0.5"
                 id="g36">
                <g
                   transform="translate(516.952,331.8038)"
                   id="g34">
                  <path
                     d="M 0,0 V -6.909 H -12.379 V 0"
                     style="fill:#8da3a3;fill-opacity:1;fill-rule:nonzero;stroke:none"
                     id="path32" />
                </g>
              </g>
            </g>
          </g>
        </g>
      </g>
      <text
         xml:space="preserve"
         transform="matrix(1,0,0,-1,519.0879,324.8916)"
         style="font-variant:normal;font-weight:normal;font-stretch:normal;font-size:10.1764px;font-family:Arial;-inkscape-font-specification:ArialMT;writing-mode:lr-tb;fill:#000000;fill-opacity:1;fill-rule:nonzero;stroke:none"
         id="text42"><tspan
           x="0 8.4769411 14.135019 16.964058 22.622137 26.010878 28.839918 34.497997 40.156075 45.814152 49.202892 54.860973 57.120132 62.778214 68.436287 71.265327 74.654068 80.312149 86.255165 91.913246 97.57132"
           y="0"
           sodipodi:role="line"
           id="tspan40">Motor Learning (n=10)</tspan></text>
      <g
         id="g44">
        <g
           id="g46"
           clip-path="url(#clipPath50)">
          <g
             id="g52">
            <g
               id="g54" />
            <g
               id="g64">
              <g
                 clip-path="url(#clipPath58)"
                 opacity="0.5"
                 id="g62">
                <path
                   d="m 516.952,311.855 h -12.379 v 6.909 h 12.379 z"
                   style="fill:#0a60ff;fill-opacity:1;fill-rule:nonzero;stroke:none"
                   id="path60" />
              </g>
            </g>
          </g>
        </g>
      </g>
      <text
         xml:space="preserve"
         transform="matrix(1,0,0,-1,519.8306,311.8525)"
         style="font-variant:normal;font-weight:normal;font-stretch:normal;font-size:10.1764px;font-family:Arial;-inkscape-font-specification:ArialMT;writing-mode:lr-tb;fill:#000000;fill-opacity:1;fill-rule:nonzero;stroke:none"
         id="text68"><tspan
           x="0 6.7876587 12.445737 14.704898 18.093639 23.751719 29.409796 32.238834 39.026493 46.373856 53.161514 55.990551 59.379295 65.037369 70.980392 76.638466"
           y="0"
           sodipodi:role="line"
           id="tspan66">Paired VNS (n=6)</tspan></text>
      <text
         xml:space="preserve"
         transform="matrix(1,0,0,-1,556.8379,476.6787)"
         style="font-variant:normal;font-weight:normal;font-stretch:normal;font-size:20px;font-family:Arial;-inkscape-font-specification:ArialMT;writing-mode:lr-tb;fill:#000000;fill-opacity:1;fill-rule:nonzero;stroke:none"
         id="text72"><tspan
           x="0 7.7800002"
           y="0"
           sodipodi:role="line"
           id="tspan70">**</tspan></text>
      <g
         id="g74"
         transform="translate(544.1801,483.2775)">
        <path
           d="M 0,0 H 40.882"
           style="fill:none;stroke:#000000;stroke-width:1;stroke-linecap:square;stroke-linejoin:miter;stroke-miterlimit:10;stroke-dasharray:none;stroke-opacity:1"
           id="path76" />
      </g>
      <g
         id="g78"
         transform="translate(544.1801,480.9685)">
        <path
           d="M 0,0 V 1.561"
           style="fill:none;stroke:#000000;stroke-width:1;stroke-linecap:square;stroke-linejoin:miter;stroke-miterlimit:10;stroke-dasharray:none;stroke-opacity:1"
           id="path80" />
      </g>
      <g
         id="g82"
         transform="translate(585.0616,480.9682)">
        <path
           d="M 0,0 V 1.561"
           style="fill:none;stroke:#000000;stroke-width:1;stroke-linecap:square;stroke-linejoin:miter;stroke-miterlimit:10;stroke-dasharray:none;stroke-opacity:1"
           id="path84" />
      </g>
      <g
         id="g86">
        <g
           id="g88"
           clip-path="url(#clipPath92)">
          <g
             id="g94">
            <g
               id="g96" />
            <g
               id="g106">
              <g
                 clip-path="url(#clipPath100)"
                 opacity="0.5"
                 id="g104">
                <path
                   d="m 571.365,404.709 h 27.48 v 46.628 h -27.48 z"
                   style="fill:#0a60ff;fill-opacity:1;fill-rule:evenodd;stroke:none"
                   id="path102" />
              </g>
            </g>
          </g>
          <g
             id="g108"
             transform="translate(586.5467,377.0549)">
            <path
               d="m 0,0 c 0,-0.796 -0.646,-1.441 -1.442,-1.441 -0.796,0 -1.442,0.645 -1.442,1.441 0,0.796 0.646,1.441 1.442,1.441 C -0.646,1.441 0,0.796 0,0"
               style="fill:#0a60ff;fill-opacity:1;fill-rule:nonzero;stroke:none"
               id="path110" />
          </g>
          <g
             id="g112"
             transform="translate(586.5467,377.0549)">
            <path
               d="m 0,0 c 0,-0.796 -0.646,-1.441 -1.442,-1.441 -0.796,0 -1.442,0.645 -1.442,1.441 0,0.796 0.646,1.441 1.442,1.441 C -0.646,1.441 0,0.796 0,0 Z"
               style="fill:none;stroke:#0a60ff;stroke-width:1;stroke-linecap:butt;stroke-linejoin:miter;stroke-miterlimit:10;stroke-dasharray:none;stroke-opacity:1"
               id="path114" />
          </g>
          <g
             id="g116"
             transform="translate(586.5467,414.6702)">
            <path
               d="m 0,0 c 0,-0.796 -0.646,-1.441 -1.442,-1.441 -0.796,0 -1.442,0.645 -1.442,1.441 0,0.796 0.646,1.441 1.442,1.441 C -0.646,1.441 0,0.796 0,0"
               style="fill:#0a60ff;fill-opacity:1;fill-rule:nonzero;stroke:none"
               id="path118" />
          </g>
          <g
             id="g120"
             transform="translate(586.5467,414.6702)">
            <path
               d="m 0,0 c 0,-0.796 -0.646,-1.441 -1.442,-1.441 -0.796,0 -1.442,0.645 -1.442,1.441 0,0.796 0.646,1.441 1.442,1.441 C -0.646,1.441 0,0.796 0,0 Z"
               style="fill:none;stroke:#0a60ff;stroke-width:1;stroke-linecap:butt;stroke-linejoin:miter;stroke-miterlimit:10;stroke-dasharray:none;stroke-opacity:1"
               id="path122" />
          </g>
          <g
             id="g124"
             transform="translate(589.0234,435.1495)">
            <path
               d="m 0,0 c 0,-0.796 -0.646,-1.441 -1.442,-1.441 -0.796,0 -1.442,0.645 -1.442,1.441 0,0.796 0.646,1.441 1.442,1.441 C -0.646,1.441 0,0.796 0,0"
               style="fill:#0a60ff;fill-opacity:1;fill-rule:nonzero;stroke:none"
               id="path126" />
          </g>
          <g
             id="g128"
             transform="translate(589.0234,435.1495)">
            <path
               d="m 0,0 c 0,-0.796 -0.646,-1.441 -1.442,-1.441 -0.796,0 -1.442,0.645 -1.442,1.441 0,0.796 0.646,1.441 1.442,1.441 C -0.646,1.441 0,0.796 0,0 Z"
               style="fill:none;stroke:#0a60ff;stroke-width:1;stroke-linecap:butt;stroke-linejoin:miter;stroke-miterlimit:10;stroke-dasharray:none;stroke-opacity:1"
               id="path130" />
          </g>
          <g
             id="g132"
             transform="translate(584.0699,435.1495)">
            <path
               d="m 0,0 c 0,-0.796 -0.646,-1.441 -1.442,-1.441 -0.796,0 -1.442,0.645 -1.442,1.441 0,0.796 0.646,1.441 1.442,1.441 C -0.646,1.441 0,0.796 0,0"
               style="fill:#0a60ff;fill-opacity:1;fill-rule:nonzero;stroke:none"
               id="path134" />
          </g>
          <g
             id="g136"
             transform="translate(584.0699,435.1495)">
            <path
               d="m 0,0 c 0,-0.796 -0.646,-1.441 -1.442,-1.441 -0.796,0 -1.442,0.645 -1.442,1.441 0,0.796 0.646,1.441 1.442,1.441 C -0.646,1.441 0,0.796 0,0 Z"
               style="fill:none;stroke:#0a60ff;stroke-width:1;stroke-linecap:butt;stroke-linejoin:miter;stroke-miterlimit:10;stroke-dasharray:none;stroke-opacity:1"
               id="path138" />
          </g>
          <g
             id="g140"
             transform="translate(586.5467,445.4463)">
            <path
               d="m 0,0 c 0,-0.796 -0.646,-1.441 -1.442,-1.441 -0.796,0 -1.442,0.645 -1.442,1.441 0,0.796 0.646,1.441 1.442,1.441 C -0.646,1.441 0,0.796 0,0"
               style="fill:#0a60ff;fill-opacity:1;fill-rule:nonzero;stroke:none"
               id="path142" />
          </g>
          <g
             id="g144"
             transform="translate(586.5467,445.4463)">
            <path
               d="m 0,0 c 0,-0.796 -0.646,-1.441 -1.442,-1.441 -0.796,0 -1.442,0.645 -1.442,1.441 0,0.796 0.646,1.441 1.442,1.441 C -0.646,1.441 0,0.796 0,0 Z"
               style="fill:none;stroke:#0a60ff;stroke-width:1;stroke-linecap:butt;stroke-linejoin:miter;stroke-miterlimit:10;stroke-dasharray:none;stroke-opacity:1"
               id="path146" />
          </g>
          <g
             id="g148"
             transform="translate(586.5467,467.188)">
            <path
               d="m 0,0 c 0,-0.796 -0.646,-1.441 -1.442,-1.441 -0.796,0 -1.442,0.645 -1.442,1.441 0,0.796 0.646,1.441 1.442,1.441 C -0.646,1.441 0,0.796 0,0"
               style="fill:#0a60ff;fill-opacity:1;fill-rule:nonzero;stroke:none"
               id="path150" />
          </g>
          <g
             id="g152"
             transform="translate(586.5467,467.188)">
            <path
               d="m 0,0 c 0,-0.796 -0.646,-1.441 -1.442,-1.441 -0.796,0 -1.442,0.645 -1.442,1.441 0,0.796 0.646,1.441 1.442,1.441 C -0.646,1.441 0,0.796 0,0 Z"
               style="fill:none;stroke:#0a60ff;stroke-width:1;stroke-linecap:butt;stroke-linejoin:miter;stroke-miterlimit:10;stroke-dasharray:none;stroke-opacity:1"
               id="path154" />
          </g>
          <g
             id="g156"
             transform="translate(598.8442,435.0105)">
            <path
               d="M 0,0 H -27.479"
               style="fill:none;stroke:#000000;stroke-width:1;stroke-linecap:butt;stroke-linejoin:miter;stroke-miterlimit:3;stroke-dasharray:none;stroke-opacity:1"
               id="path158" />
          </g>
          <g
             id="g160"
             transform="translate(585.1046,376.7667)">
            <path
               d="M 0,0 V 27.949"
               style="fill:none;stroke:#000000;stroke-width:1;stroke-linecap:butt;stroke-linejoin:miter;stroke-miterlimit:3;stroke-dasharray:none;stroke-opacity:1"
               id="path162" />
          </g>
          <g
             id="g164"
             transform="translate(593.823,376.7667)">
            <path
               d="M 0,0 H -17.437"
               style="fill:none;stroke:#000000;stroke-width:1;stroke-linecap:butt;stroke-linejoin:miter;stroke-miterlimit:3;stroke-dasharray:none;stroke-opacity:1"
               id="path166" />
          </g>
          <g
             id="g168"
             transform="translate(585.1046,467.0149)">
            <path
               d="M 0,0 V -15.681"
               style="fill:none;stroke:#000000;stroke-width:1;stroke-linecap:butt;stroke-linejoin:miter;stroke-miterlimit:3;stroke-dasharray:none;stroke-opacity:1"
               id="path170" />
          </g>
          <g
             id="g172"
             transform="translate(593.823,467.0149)">
            <path
               d="M 0,0 H -17.437"
               style="fill:none;stroke:#000000;stroke-width:1;stroke-linecap:butt;stroke-linejoin:miter;stroke-miterlimit:3;stroke-dasharray:none;stroke-opacity:1"
               id="path174" />
          </g>
          <g
             id="g176"
             transform="translate(545.5067,360.8014)">
            <path
               d="m 0,0 c 0,-0.796 -0.646,-1.441 -1.442,-1.441 -0.796,0 -1.442,0.645 -1.442,1.441 0,0.796 0.646,1.441 1.442,1.441 C -0.646,1.441 0,0.796 0,0"
               style="fill:#8da3a3;fill-opacity:1;fill-rule:nonzero;stroke:none"
               id="path178" />
          </g>
          <g
             id="g180"
             transform="translate(545.5067,360.8014)">
            <path
               d="m 0,0 c 0,-0.796 -0.646,-1.441 -1.442,-1.441 -0.796,0 -1.442,0.645 -1.442,1.441 0,0.796 0.646,1.441 1.442,1.441 C -0.646,1.441 0,0.796 0,0 Z"
               style="fill:none;stroke:#8da3a3;stroke-width:1;stroke-linecap:butt;stroke-linejoin:miter;stroke-miterlimit:10;stroke-dasharray:none;stroke-opacity:1"
               id="path182" />
          </g>
          <g
             id="g184"
             transform="translate(545.5067,378.5894)">
            <path
               d="m 0,0 c 0,-0.796 -0.646,-1.441 -1.442,-1.441 -0.796,0 -1.442,0.645 -1.442,1.441 0,0.796 0.646,1.441 1.442,1.441 C -0.646,1.441 0,0.796 0,0"
               style="fill:#8da3a3;fill-opacity:1;fill-rule:nonzero;stroke:none"
               id="path186" />
          </g>
          <g
             id="g188"
             transform="translate(545.5067,378.5894)">
            <path
               d="m 0,0 c 0,-0.796 -0.646,-1.441 -1.442,-1.441 -0.796,0 -1.442,0.645 -1.442,1.441 0,0.796 0.646,1.441 1.442,1.441 C -0.646,1.441 0,0.796 0,0 Z"
               style="fill:none;stroke:#8da3a3;stroke-width:1;stroke-linecap:butt;stroke-linejoin:miter;stroke-miterlimit:10;stroke-dasharray:none;stroke-opacity:1"
               id="path190" />
          </g>
          <g
             id="g192"
             transform="translate(547.9835,380.8145)">
            <path
               d="m 0,0 c 0,-0.796 -0.646,-1.441 -1.442,-1.441 -0.796,0 -1.442,0.645 -1.442,1.441 0,0.796 0.646,1.441 1.442,1.441 C -0.646,1.441 0,0.796 0,0"
               style="fill:#8da3a3;fill-opacity:1;fill-rule:nonzero;stroke:none"
               id="path194" />
          </g>
          <g
             id="g196"
             transform="translate(547.9835,380.8145)">
            <path
               d="m 0,0 c 0,-0.796 -0.646,-1.441 -1.442,-1.441 -0.796,0 -1.442,0.645 -1.442,1.441 0,0.796 0.646,1.441 1.442,1.441 C -0.646,1.441 0,0.796 0,0 Z"
               style="fill:none;stroke:#8da3a3;stroke-width:1;stroke-linecap:butt;stroke-linejoin:miter;stroke-miterlimit:10;stroke-dasharray:none;stroke-opacity:1"
               id="path198" />
          </g>
          <g
             id="g200"
             transform="translate(543.0298,380.8145)">
            <path
               d="m 0,0 c 0,-0.796 -0.646,-1.441 -1.442,-1.441 -0.796,0 -1.442,0.645 -1.442,1.441 0,0.796 0.646,1.441 1.442,1.441 C -0.646,1.441 0,0.796 0,0"
               style="fill:#8da3a3;fill-opacity:1;fill-rule:nonzero;stroke:none"
               id="path202" />
          </g>
          <g
             id="g204"
             transform="translate(543.0298,380.8145)">
            <path
               d="m 0,0 c 0,-0.796 -0.646,-1.441 -1.442,-1.441 -0.796,0 -1.442,0.645 -1.442,1.441 0,0.796 0.646,1.441 1.442,1.441 C -0.646,1.441 0,0.796 0,0 Z"
               style="fill:none;stroke:#8da3a3;stroke-width:1;stroke-linecap:butt;stroke-linejoin:miter;stroke-miterlimit:10;stroke-dasharray:none;stroke-opacity:1"
               id="path206" />
          </g>
          <g
             id="g208"
             transform="translate(547.9835,388.1518)">
            <path
               d="m 0,0 c 0,-0.796 -0.646,-1.441 -1.442,-1.441 -0.796,0 -1.442,0.645 -1.442,1.441 0,0.796 0.646,1.441 1.442,1.441 C -0.646,1.441 0,0.796 0,0"
               style="fill:#8da3a3;fill-opacity:1;fill-rule:nonzero;stroke:none"
               id="path210" />
          </g>
          <g
             id="g212"
             transform="translate(547.9835,388.1518)">
            <path
               d="m 0,0 c 0,-0.796 -0.646,-1.441 -1.442,-1.441 -0.796,0 -1.442,0.645 -1.442,1.441 0,0.796 0.646,1.441 1.442,1.441 C -0.646,1.441 0,0.796 0,0 Z"
               style="fill:none;stroke:#8da3a3;stroke-width:1;stroke-linecap:butt;stroke-linejoin:miter;stroke-miterlimit:10;stroke-dasharray:none;stroke-opacity:1"
               id="path214" />
          </g>
          <g
             id="g216"
             transform="translate(543.0298,388.1518)">
            <path
               d="m 0,0 c 0,-0.796 -0.646,-1.441 -1.442,-1.441 -0.796,0 -1.442,0.645 -1.442,1.441 0,0.796 0.646,1.441 1.442,1.441 C -0.646,1.441 0,0.796 0,0"
               style="fill:#8da3a3;fill-opacity:1;fill-rule:nonzero;stroke:none"
               id="path218" />
          </g>
          <g
             id="g220"
             transform="translate(543.0298,388.1518)">
            <path
               d="m 0,0 c 0,-0.796 -0.646,-1.441 -1.442,-1.441 -0.796,0 -1.442,0.645 -1.442,1.441 0,0.796 0.646,1.441 1.442,1.441 C -0.646,1.441 0,0.796 0,0 Z"
               style="fill:none;stroke:#8da3a3;stroke-width:1;stroke-linecap:butt;stroke-linejoin:miter;stroke-miterlimit:10;stroke-dasharray:none;stroke-opacity:1"
               id="path222" />
          </g>
          <g
             id="g224"
             transform="translate(545.5067,390.3532)">
            <path
               d="m 0,0 c 0,-0.796 -0.646,-1.441 -1.442,-1.441 -0.796,0 -1.442,0.645 -1.442,1.441 0,0.796 0.646,1.441 1.442,1.441 C -0.646,1.441 0,0.796 0,0"
               style="fill:#8da3a3;fill-opacity:1;fill-rule:nonzero;stroke:none"
               id="path226" />
          </g>
          <g
             id="g228"
             transform="translate(545.5067,390.3532)">
            <path
               d="m 0,0 c 0,-0.796 -0.646,-1.441 -1.442,-1.441 -0.796,0 -1.442,0.645 -1.442,1.441 0,0.796 0.646,1.441 1.442,1.441 C -0.646,1.441 0,0.796 0,0 Z"
               style="fill:none;stroke:#8da3a3;stroke-width:1;stroke-linecap:butt;stroke-linejoin:miter;stroke-miterlimit:10;stroke-dasharray:none;stroke-opacity:1"
               id="path230" />
          </g>
          <g
             id="g232"
             transform="translate(545.5067,401.9893)">
            <path
               d="m 0,0 c 0,-0.796 -0.646,-1.441 -1.442,-1.441 -0.796,0 -1.442,0.645 -1.442,1.441 0,0.796 0.646,1.441 1.442,1.441 C -0.646,1.441 0,0.796 0,0"
               style="fill:#8da3a3;fill-opacity:1;fill-rule:nonzero;stroke:none"
               id="path234" />
          </g>
          <g
             id="g236"
             transform="translate(545.5067,401.9893)">
            <path
               d="m 0,0 c 0,-0.796 -0.646,-1.441 -1.442,-1.441 -0.796,0 -1.442,0.645 -1.442,1.441 0,0.796 0.646,1.441 1.442,1.441 C -0.646,1.441 0,0.796 0,0 Z"
               style="fill:none;stroke:#8da3a3;stroke-width:1;stroke-linecap:butt;stroke-linejoin:miter;stroke-miterlimit:10;stroke-dasharray:none;stroke-opacity:1"
               id="path238" />
          </g>
          <g
             id="g240"
             transform="translate(545.5067,405.5514)">
            <path
               d="m 0,0 c 0,-0.796 -0.646,-1.441 -1.442,-1.441 -0.796,0 -1.442,0.645 -1.442,1.441 0,0.796 0.646,1.441 1.442,1.441 C -0.646,1.441 0,0.796 0,0"
               style="fill:#8da3a3;fill-opacity:1;fill-rule:nonzero;stroke:none"
               id="path242" />
          </g>
          <g
             id="g244"
             transform="translate(545.5067,405.5514)">
            <path
               d="m 0,0 c 0,-0.796 -0.646,-1.441 -1.442,-1.441 -0.796,0 -1.442,0.645 -1.442,1.441 0,0.796 0.646,1.441 1.442,1.441 C -0.646,1.441 0,0.796 0,0 Z"
               style="fill:none;stroke:#8da3a3;stroke-width:1;stroke-linecap:butt;stroke-linejoin:miter;stroke-miterlimit:10;stroke-dasharray:none;stroke-opacity:1"
               id="path246" />
          </g>
          <g
             id="g248"
             transform="translate(545.5067,407.9595)">
            <path
               d="m 0,0 c 0,-0.796 -0.646,-1.441 -1.442,-1.441 -0.796,0 -1.442,0.645 -1.442,1.441 0,0.796 0.646,1.441 1.442,1.441 C -0.646,1.441 0,0.796 0,0"
               style="fill:#8da3a3;fill-opacity:1;fill-rule:nonzero;stroke:none"
               id="path250" />
          </g>
          <g
             id="g252"
             transform="translate(545.5067,407.9595)">
            <path
               d="m 0,0 c 0,-0.796 -0.646,-1.441 -1.442,-1.441 -0.796,0 -1.442,0.645 -1.442,1.441 0,0.796 0.646,1.441 1.442,1.441 C -0.646,1.441 0,0.796 0,0 Z"
               style="fill:none;stroke:#8da3a3;stroke-width:1;stroke-linecap:butt;stroke-linejoin:miter;stroke-miterlimit:10;stroke-dasharray:none;stroke-opacity:1"
               id="path254" />
          </g>
          <g
             id="g256">
            <g
               id="g258" />
            <g
               id="g268">
              <g
                 clip-path="url(#clipPath262)"
                 opacity="0.5"
                 id="g266">
                <path
                   d="m 530.325,379.516 h 27.48 v 23.647 h -27.48 z"
                   style="fill:#8da3a3;fill-opacity:1;fill-rule:evenodd;stroke:none"
                   id="path264" />
              </g>
            </g>
          </g>
          <g
             id="g270"
             transform="translate(557.8041,388.1069)">
            <path
               d="M 0,0 H -27.479"
               style="fill:none;stroke:#000000;stroke-width:1;stroke-linecap:butt;stroke-linejoin:miter;stroke-miterlimit:3;stroke-dasharray:none;stroke-opacity:1"
               id="path272" />
          </g>
          <g
             id="g274"
             transform="translate(544.0646,360.6117)">
            <path
               d="M 0,0 V 18.894"
               style="fill:none;stroke:#000000;stroke-width:1;stroke-linecap:butt;stroke-linejoin:miter;stroke-miterlimit:3;stroke-dasharray:none;stroke-opacity:1"
               id="path276" />
          </g>
          <g
             id="g278"
             transform="translate(552.8918,360.6117)">
            <path
               d="M 0,0 H -17.654"
               style="fill:none;stroke:#000000;stroke-width:1;stroke-linecap:butt;stroke-linejoin:miter;stroke-miterlimit:3;stroke-dasharray:none;stroke-opacity:1"
               id="path280" />
          </g>
          <g
             id="g282"
             transform="translate(544.0646,407.8388)">
            <path
               d="M 0,0 V -4.676"
               style="fill:none;stroke:#000000;stroke-width:1;stroke-linecap:butt;stroke-linejoin:miter;stroke-miterlimit:3;stroke-dasharray:none;stroke-opacity:1"
               id="path284" />
          </g>
          <g
             id="g286"
             transform="translate(552.8918,407.8388)">
            <path
               d="M 0,0 H -17.654"
               style="fill:none;stroke:#000000;stroke-width:1;stroke-linecap:butt;stroke-linejoin:miter;stroke-miterlimit:3;stroke-dasharray:none;stroke-opacity:1"
               id="path288" />
          </g>
        </g>
      </g>
      <text
         xml:space="preserve"
         transform="matrix(1,0,0,-1,506.5659,333.0381)"
         style="font-variant:normal;font-weight:normal;font-stretch:normal;font-size:10px;font-family:Arial;-inkscape-font-specification:ArialMT;writing-mode:lr-tb;fill:#000000;fill-opacity:1;fill-rule:nonzero;stroke:none"
         id="text296"><tspan
           x="0"
           y="0"
           id="tspan290">0</tspan><tspan
           x="0"
           y="-71.769997"
           id="tspan292">5</tspan><tspan
           x="-5.5999999 0"
           y="-143.64"
           sodipodi:role="line"
           id="tspan294">10</tspan></text>
      <g
         id="g298">
        <g
           id="g300"
           clip-path="url(#clipPath304)">
          <g
             id="g306"
             transform="translate(516.6447,480.6362)">
            <path
               d="M 0,0 H -2.52 M 0,-71.88 H -2.52 M 0,-143.64 h -2.52 m 2.52,0 V 0.531"
               style="fill:none;stroke:#000000;stroke-width:1;stroke-linecap:butt;stroke-linejoin:miter;stroke-miterlimit:10;stroke-dasharray:none;stroke-opacity:1"
               id="path308" />
          </g>
          <g
             id="g310"
             transform="translate(515.9246,336.9963)">
            <path
               d="M 0,0 H 97.2"
               style="fill:none;stroke:#000000;stroke-width:1;stroke-linecap:butt;stroke-linejoin:miter;stroke-miterlimit:10;stroke-dasharray:none;stroke-opacity:1"
               id="path312" />
          </g>
        </g>
      </g>
    </g>
    <text
       xml:space="preserve"
       transform="matrix(1,0,0,-1,468.4805,489.6772)"
       style="font-variant:normal;font-weight:bold;font-stretch:normal;font-size:15px;font-family:Arial;-inkscape-font-specification:Arial-BoldMT;writing-mode:lr-tb;fill:#000000;fill-opacity:1;fill-rule:nonzero;stroke:none"
       id="text316"><tspan
         x="0"
         y="0"
         id="tspan314">h</tspan></text>
    <text
       xml:space="preserve"
       transform="matrix(1,0,0,-1,33.4424,15.1484)"
       style="font-variant:normal;font-weight:normal;font-stretch:normal;font-size:12px;font-family:Arial;-inkscape-font-specification:ArialMT;writing-mode:lr-tb;fill:#000000;fill-opacity:1;fill-rule:nonzero;stroke:none"
       id="text5882"><tspan
         x="0 7.3319998 9.9960003 16.667999 23.34 27.336 34.007999 37.344002 44.015999 47.352001 50.688 58.692001 65.363998 68.028 72.024002 74.688004 81.360001 88.031998 91.367996 99.372002 108.036 116.04 119.376 128.03999 130.70399 134.03999 140.71201 144.048 150.048 156.72 162.72 168.72 175.392 181.392 187.392 190.728 197.39999 200.064 203.39999 209.39999 215.39999 218.064 220.728 223.392 230.064 236.73599 240.07201 244.06799 250.74001 257.41199 263.41199 270.08401 272.74799 279.42001 286.09201 289.42801 296.10001 302.772 309.444 316.15439 322.82639 328.82639 335.49841 341.49841 344.83441 351.50641 354.17041 356.83441 363.50641 370.17841 376.8504 383.5224 390.1944 396.86639 400.8624 407.53439 414.20639 420.87839 427.55042 434.22241 440.22241 442.88641 448.88641 452.22241"
         y="0"
         sodipodi:role="line"
         id="tspan5878">Figure 3. Pairing VNS with successful skilled reaching enhances oligodendrogenesis. </tspan><tspan
         x="510.40799 519.07202 525.74402 532.41602 539.08801 545.76001 549.09601 555.76801 559.104 562.44 569.112 571.776 575.112 581.784 588.45599 595.12799 0 7.3319998 9.9960003 16.667999 23.34 27.336 34.007999 37.344002 44.015999"
         y="-814.90802"
         sodipodi:role="line"
         id="tspan5880">Huang et al 2025Figure 3 </tspan></text>
  </g>
</svg>
