<?xml version="1.0" encoding="UTF-8" standalone="no"?>
<!-- Created with Inkscape (http://www.inkscape.org/) -->

<svg
   version="1.1"
   id="svg2"
   width="207.45459"
   height="244.07423"
   viewBox="0 0 207.45459 244.07423"
   sodipodi:docname="panelD.svg"
   inkscape:version="1.4.3 (1:1.4.3+202512261034+0d15f75042)"
   xmlns:inkscape="http://www.inkscape.org/namespaces/inkscape"
   xmlns:sodipodi="http://sodipodi.sourceforge.net/DTD/sodipodi-0.dtd"
   xmlns="http://www.w3.org/2000/svg"
   xmlns:svg="http://www.w3.org/2000/svg">
  <defs
     id="defs6">
    <clipPath
       clipPathUnits="userSpaceOnUse"
       id="clipPath1754">
      <path
         d="M 0,848.693 H 668.693 V 0 H 0 Z"
         id="path1752" />
    </clipPath>
    <clipPath
       clipPathUnits="userSpaceOnUse"
       id="clipPath1762">
      <path
         d="m 150.117,654.78 h 15.752 V 534.403 h -15.752 z"
         id="path1760" />
    </clipPath>
    <clipPath
       clipPathUnits="userSpaceOnUse"
       id="clipPath1808">
      <path
         d="M 0,848.693 H 668.693 V 0 H 0 Z"
         id="path1806" />
    </clipPath>
    <clipPath
       clipPathUnits="userSpaceOnUse"
       id="clipPath4610">
      <path
         d="M 0,848.693 H 668.693 V 0 H 0 Z"
         id="path4608" />
    </clipPath>
    <clipPath
       clipPathUnits="userSpaceOnUse"
       id="clipPath4636">
      <path
         d="M 0,848.693 H 668.693 V 0 H 0 Z"
         id="path4634" />
    </clipPath>
  </defs>
  <sodipodi:namedview
     id="namedview4"
     pagecolor="#ffffff"
     bordercolor="#000000"
     borderopacity="0.25"
     inkscape:showpageshadow="2"
     inkscape:pageopacity="0.0"
     inkscape:pagecheckerboard="0"
     inkscape:deskcolor="#d1d1d1"
     showgrid="false"
     inkscape:zoom="1.7330793"
     inkscape:cx="49.334154"
     inkscape:cy="168.48623"
     inkscape:window-width="1920"
     inkscape:window-height="1048"
     inkscape:window-x="1920"
     inkscape:window-y="0"
     inkscape:window-maximized="1"
     inkscape:current-layer="g8" />
  <g
     id="g8"
     inkscape:groupmode="layer"
     inkscape:label="2026-01-20 all figures CM"
     transform="matrix(1.3333333,0,0,-1.3333333,-359.61719,920.70445)">
    <text
       xml:space="preserve"
       transform="scale(1,-1)"
       style="font-variant:normal;font-weight:normal;font-stretch:normal;font-size:10.1764px;font-family:Arial;-inkscape-font-specification:ArialMT;writing-mode:lr-tb;fill:#000000;fill-opacity:1;fill-rule:nonzero;stroke:none"
       id="text1426"
       x="324.7114"
       y="-522.11621"><tspan
         x="324.7114 333.18835 338.84641 341.67545 347.33353 350.72229 353.55133 359.20941 364.86746 370.52554 373.91431 379.57239 381.83154 387.48962 393.14767 395.97672 399.36548 405.02356 410.96655 416.62463 422.28271"
         y="-522.11621"
         sodipodi:role="line"
         id="tspan1424">Motor Learning (n=10)</tspan></text>
    <text
       xml:space="preserve"
       transform="scale(1,-1)"
       style="font-variant:normal;font-weight:normal;font-stretch:normal;font-size:10.1764px;font-family:Arial;-inkscape-font-specification:ArialMT;writing-mode:lr-tb;fill:#000000;fill-opacity:1;fill-rule:nonzero;stroke:none"
       id="text1452"
       x="325.4541"
       y="-509.61429"><tspan
         x="325.4541 332.24176 337.89984 340.159 343.54773 349.20581 354.86389 357.69293 364.48059 371.82794 378.6156 381.44464 384.8334 390.49146 396.43448 402.09256"
         y="-509.61429"
         sodipodi:role="line"
         id="tspan1450">Paired VNS (n=6)</tspan></text>
    <text
       xml:space="preserve"
       transform="scale(1,-1)"
       style="font-variant:normal;font-weight:normal;font-stretch:normal;font-size:10px;font-family:Arial;-inkscape-font-specification:ArialMT;writing-mode:lr-tb;fill:#000000;fill-opacity:1;fill-rule:nonzero;stroke:none"
       id="text1456"
       x="308.05219"
       y="-530.97357"><tspan
         x="308.05219"
         y="-530.97357"
         id="tspan1454">0</tspan></text>
    <text
       xml:space="preserve"
       transform="scale(1,-1)"
       style="font-variant:normal;font-weight:normal;font-stretch:normal;font-size:10px;font-family:Arial;-inkscape-font-specification:ArialMT;writing-mode:lr-tb;fill:#000000;fill-opacity:1;fill-rule:nonzero;stroke:none"
       id="text1472"
       x="302.45071"
       y="-566.97748"><tspan
         x="302.45071 308.01071"
         y="-566.97748"
         sodipodi:role="line"
         id="tspan1470">25</tspan></text>
    <text
       xml:space="preserve"
       transform="scale(1,-1)"
       style="font-variant:normal;font-weight:normal;font-stretch:normal;font-size:10px;font-family:Arial;-inkscape-font-specification:ArialMT;writing-mode:lr-tb;fill:#000000;fill-opacity:1;fill-rule:nonzero;stroke:none"
       id="text1494"
       x="302.45071"
       y="-602.98138"><tspan
         x="302.45071 308.05069"
         y="-602.98138"
         sodipodi:role="line"
         id="tspan1490">50</tspan><tspan
         x="302.45071 308.01071"
         y="-638.98138"
         sodipodi:role="line"
         id="tspan1492">75</tspan></text>
    <text
       xml:space="preserve"
       transform="scale(1,-1)"
       style="font-variant:normal;font-weight:normal;font-stretch:normal;font-size:10px;font-family:Arial;-inkscape-font-specification:ArialMT;writing-mode:lr-tb;fill:#000000;fill-opacity:1;fill-rule:nonzero;stroke:none"
       id="text1510"
       x="296.9487"
       y="-674.98138"><tspan
         x="296.9487 302.54871 308.04871"
         y="-674.98138"
         sodipodi:role="line"
         id="tspan1508">100</tspan></text>
    <text
       xml:space="preserve"
       transform="matrix(0,1,1,0,0,0)"
       style="font-variant:normal;font-weight:normal;font-stretch:normal;font-size:13px;font-family:Arial;-inkscape-font-specification:ArialMT;writing-mode:lr-tb;fill:#000000;fill-opacity:1;fill-rule:nonzero;stroke:none"
       id="text1532"
       x="570.44421"
       y="279.18359"><tspan
         x="570.44421 580.55823 587.28961 590.90363 593.78961 601.01758 607.51758 614.01758 617.63159 621.96057 633.51758"
         y="279.18359"
         sodipodi:role="line"
         id="tspan1528">OL loss (%)</tspan><tspan
         x="541.53223 548.76019 552.37421 555.98822 563.21619 572.60217 576.21619 583.44421 590.67218 597.17218 600.78619 605.11517 611.61517 618.8432 626.07123 630.40021 633.28619 639.78619 647.01422 654.24219 661.47021"
         y="294.7836"
         sodipodi:role="line"
         id="tspan1530">at 4w post-cuprizone </tspan></text>
    <g
       id="g37">
      <path
         d="m 322.577,522.119 h -12.379 v 6.909 h 12.379 z"
         style="opacity:0.5;fill:#8da3a3;fill-opacity:1;fill-rule:nonzero;stroke:none"
         id="path1418" />
      <path
         d="m 322.577,509.079 h -12.379 v 6.909 h 12.379 z"
         style="opacity:0.600006;fill:#0a60ff;fill-opacity:1;fill-rule:nonzero;stroke:none"
         id="path1444" />
      <path
         d="m 318.1384,534.935 h -2.52"
         style="fill:none;stroke:#000000;stroke-width:1;stroke-linecap:butt;stroke-linejoin:miter;stroke-miterlimit:10;stroke-dasharray:none;stroke-opacity:1"
         id="path1468" />
      <path
         d="m 318.1384,570.9311 h -2.52"
         style="fill:none;stroke:#000000;stroke-width:1;stroke-linecap:butt;stroke-linejoin:miter;stroke-miterlimit:10;stroke-dasharray:none;stroke-opacity:1"
         id="path1484" />
      <path
         d="m 318.1384,606.935 h -2.52"
         style="fill:none;stroke:#000000;stroke-width:1;stroke-linecap:butt;stroke-linejoin:miter;stroke-miterlimit:10;stroke-dasharray:none;stroke-opacity:1"
         id="path1488" />
      <path
         d="m 318.1384,642.9351 h -2.52"
         style="fill:none;stroke:#000000;stroke-width:1;stroke-linecap:butt;stroke-linejoin:miter;stroke-miterlimit:10;stroke-dasharray:none;stroke-opacity:1"
         id="path1506" />
      <path
         d="m 318.1384,678.935 h -2.52"
         style="fill:none;stroke:#000000;stroke-width:1;stroke-linecap:butt;stroke-linejoin:miter;stroke-miterlimit:10;stroke-dasharray:none;stroke-opacity:1"
         id="path1522" />
      <path
         d="M 318.1384,534.935 V 679.402"
         style="fill:none;stroke:#000000;stroke-width:1;stroke-linecap:butt;stroke-linejoin:miter;stroke-miterlimit:10;stroke-dasharray:none;stroke-opacity:1"
         id="path1526" />
      <text
         xml:space="preserve"
         transform="scale(1,-1)"
         style="font-variant:normal;font-weight:normal;font-stretch:normal;font-size:13px;font-family:Arial;-inkscape-font-specification:ArialMT;writing-mode:lr-tb;fill:#000000;fill-opacity:1;fill-rule:nonzero;stroke:none"
         id="text1536"
         x="355.61279"
         y="-683.63483"><tspan
           x="355.61279 362.84079 366.4548 372.9548"
           y="-683.63483"
           sodipodi:role="line"
           id="tspan1534">n.s.</tspan></text>
      <path
         d="m 345.5823,681.8168 h 41.012"
         style="fill:none;stroke:#000000;stroke-width:1;stroke-linecap:square;stroke-linejoin:miter;stroke-miterlimit:10;stroke-dasharray:none;stroke-opacity:1"
         id="path1548" />
      <path
         d="m 345.5823,679.5078 v 1.561"
         style="fill:none;stroke:#000000;stroke-width:1;stroke-linecap:square;stroke-linejoin:miter;stroke-miterlimit:10;stroke-dasharray:none;stroke-opacity:1"
         id="path1552" />
      <path
         d="m 386.5943,679.5075 v 1.561"
         style="fill:none;stroke:#000000;stroke-width:1;stroke-linecap:square;stroke-linejoin:miter;stroke-miterlimit:10;stroke-dasharray:none;stroke-opacity:1"
         id="path1556" />
      <path
         d="m 317.4184,534.935 h 97.44"
         style="fill:none;stroke:#000000;stroke-width:1;stroke-linecap:butt;stroke-linejoin:miter;stroke-miterlimit:10;stroke-dasharray:none;stroke-opacity:1"
         id="path1560" />
      <path
         d="m 387.9878,603.0048 c 0,-0.734 -0.595,-1.329 -1.329,-1.329 -0.735,0 -1.33,0.595 -1.33,1.329 0,0.734 0.595,1.329 1.33,1.329 0.734,0 1.329,-0.595 1.329,-1.329"
         style="fill:#0a60ff;fill-opacity:1;fill-rule:nonzero;stroke:none"
         id="path1564" />
      <path
         d="m 387.9878,603.0048 c 0,-0.734 -0.595,-1.329 -1.329,-1.329 -0.735,0 -1.33,0.595 -1.33,1.329 0,0.734 0.595,1.329 1.33,1.329 0.734,0 1.329,-0.595 1.329,-1.329 z"
         style="fill:none;stroke:#0a60ff;stroke-width:1;stroke-linecap:butt;stroke-linejoin:miter;stroke-miterlimit:10;stroke-dasharray:none;stroke-opacity:1"
         id="path1568" />
      <path
         d="m 387.9878,629.9783 c 0,-0.734 -0.595,-1.329 -1.329,-1.329 -0.735,0 -1.33,0.595 -1.33,1.329 0,0.734 0.595,1.329 1.33,1.329 0.734,0 1.329,-0.595 1.329,-1.329"
         style="fill:#0a60ff;fill-opacity:1;fill-rule:nonzero;stroke:none"
         id="path1572" />
      <path
         d="m 387.9878,629.9783 c 0,-0.734 -0.595,-1.329 -1.329,-1.329 -0.735,0 -1.33,0.595 -1.33,1.329 0,0.734 0.595,1.329 1.33,1.329 0.734,0 1.329,-0.595 1.329,-1.329 z"
         style="fill:none;stroke:#0a60ff;stroke-width:1;stroke-linecap:butt;stroke-linejoin:miter;stroke-miterlimit:10;stroke-dasharray:none;stroke-opacity:1"
         id="path1576" />
      <path
         d="m 387.9878,643.1221 c 0,-0.734 -0.595,-1.329 -1.329,-1.329 -0.735,0 -1.33,0.595 -1.33,1.329 0,0.734 0.595,1.329 1.33,1.329 0.734,0 1.329,-0.595 1.329,-1.329"
         style="fill:#0a60ff;fill-opacity:1;fill-rule:nonzero;stroke:none"
         id="path1580" />
      <path
         d="m 387.9878,643.1221 c 0,-0.734 -0.595,-1.329 -1.329,-1.329 -0.735,0 -1.33,0.595 -1.33,1.329 0,0.734 0.595,1.329 1.33,1.329 0.734,0 1.329,-0.595 1.329,-1.329 z"
         style="fill:none;stroke:#0a60ff;stroke-width:1;stroke-linecap:butt;stroke-linejoin:miter;stroke-miterlimit:10;stroke-dasharray:none;stroke-opacity:1"
         id="path1584" />
      <path
         d="m 387.9878,645.0859 c 0,-0.734 -0.595,-1.329 -1.329,-1.329 -0.735,0 -1.33,0.595 -1.33,1.329 0,0.734 0.595,1.329 1.33,1.329 0.734,0 1.329,-0.595 1.329,-1.329"
         style="fill:#0a60ff;fill-opacity:1;fill-rule:nonzero;stroke:none"
         id="path1588" />
      <path
         d="m 387.9878,645.0859 c 0,-0.734 -0.595,-1.329 -1.329,-1.329 -0.735,0 -1.33,0.595 -1.33,1.329 0,0.734 0.595,1.329 1.33,1.329 0.734,0 1.329,-0.595 1.329,-1.329 z"
         style="fill:none;stroke:#0a60ff;stroke-width:1;stroke-linecap:butt;stroke-linejoin:miter;stroke-miterlimit:10;stroke-dasharray:none;stroke-opacity:1"
         id="path1592" />
      <path
         d="m 387.9878,663.2592 c 0,-0.734 -0.595,-1.329 -1.329,-1.329 -0.735,0 -1.33,0.595 -1.33,1.329 0,0.734 0.595,1.329 1.33,1.329 0.734,0 1.329,-0.595 1.329,-1.329"
         style="fill:#0a60ff;fill-opacity:1;fill-rule:nonzero;stroke:none"
         id="path1596" />
      <path
         d="m 387.9878,663.2592 c 0,-0.734 -0.595,-1.329 -1.329,-1.329 -0.735,0 -1.33,0.595 -1.33,1.329 0,0.734 0.595,1.329 1.33,1.329 0.734,0 1.329,-0.595 1.329,-1.329 z"
         style="fill:none;stroke:#0a60ff;stroke-width:1;stroke-linecap:butt;stroke-linejoin:miter;stroke-miterlimit:10;stroke-dasharray:none;stroke-opacity:1"
         id="path1600" />
      <path
         d="m 387.9878,670.6536 c 0,-0.734 -0.595,-1.329 -1.329,-1.329 -0.735,0 -1.33,0.595 -1.33,1.329 0,0.734 0.595,1.329 1.33,1.329 0.734,0 1.329,-0.595 1.329,-1.329"
         style="fill:#0a60ff;fill-opacity:1;fill-rule:nonzero;stroke:none"
         id="path1604" />
      <path
         d="m 387.9878,670.6536 c 0,-0.734 -0.595,-1.329 -1.329,-1.329 -0.735,0 -1.33,0.595 -1.33,1.329 0,0.734 0.595,1.329 1.33,1.329 0.734,0 1.329,-0.595 1.329,-1.329 z"
         style="fill:none;stroke:#0a60ff;stroke-width:1;stroke-linecap:butt;stroke-linejoin:miter;stroke-miterlimit:10;stroke-dasharray:none;stroke-opacity:1"
         id="path1608" />
      <path
         d="m 372.978,534.935 h 27.36 v 107.584 h -27.36 z"
         style="opacity:0.5;fill:#0a60ff;fill-opacity:1;fill-rule:evenodd;stroke:none"
         id="path1618" />
      <path
         d="m 380.6317,632.4433 h 12.053 m -6.026,0 v 19.824 m -6.027,0 h 12.053"
         style="fill:none;stroke:#000000;stroke-width:1;stroke-linecap:butt;stroke-linejoin:miter;stroke-miterlimit:3;stroke-dasharray:none;stroke-opacity:1"
         id="path1626" />
      <path
         d="m 346.8878,609.7242 c 0,-0.734 -0.595,-1.329 -1.329,-1.329 -0.735,0 -1.33,0.595 -1.33,1.329 0,0.734 0.595,1.329 1.33,1.329 0.734,0 1.329,-0.595 1.329,-1.329"
         style="fill:#8da3a3;fill-opacity:1;fill-rule:nonzero;stroke:none"
         id="path1630" />
      <path
         d="m 346.8878,609.7242 c 0,-0.734 -0.595,-1.329 -1.329,-1.329 -0.735,0 -1.33,0.595 -1.33,1.329 0,0.734 0.595,1.329 1.33,1.329 0.734,0 1.329,-0.595 1.329,-1.329 z"
         style="fill:none;stroke:#8da3a3;stroke-width:1;stroke-linecap:butt;stroke-linejoin:miter;stroke-miterlimit:10;stroke-dasharray:none;stroke-opacity:1"
         id="path1634" />
      <path
         d="m 346.8878,617.3832 c 0,-0.734 -0.595,-1.329 -1.329,-1.329 -0.735,0 -1.33,0.595 -1.33,1.329 0,0.734 0.595,1.329 1.33,1.329 0.734,0 1.329,-0.595 1.329,-1.329"
         style="fill:#8da3a3;fill-opacity:1;fill-rule:nonzero;stroke:none"
         id="path1638" />
      <path
         d="m 346.8878,617.3832 c 0,-0.734 -0.595,-1.329 -1.329,-1.329 -0.735,0 -1.33,0.595 -1.33,1.329 0,0.734 0.595,1.329 1.33,1.329 0.734,0 1.329,-0.595 1.329,-1.329 z"
         style="fill:none;stroke:#8da3a3;stroke-width:1;stroke-linecap:butt;stroke-linejoin:miter;stroke-miterlimit:10;stroke-dasharray:none;stroke-opacity:1"
         id="path1642" />
      <path
         d="m 346.8878,621.0515 c 0,-0.734 -0.595,-1.329 -1.329,-1.329 -0.735,0 -1.33,0.595 -1.33,1.329 0,0.734 0.595,1.329 1.33,1.329 0.734,0 1.329,-0.595 1.329,-1.329"
         style="fill:#8da3a3;fill-opacity:1;fill-rule:nonzero;stroke:none"
         id="path1646" />
      <path
         d="m 346.8878,621.0515 c 0,-0.734 -0.595,-1.329 -1.329,-1.329 -0.735,0 -1.33,0.595 -1.33,1.329 0,0.734 0.595,1.329 1.33,1.329 0.734,0 1.329,-0.595 1.329,-1.329 z"
         style="fill:none;stroke:#8da3a3;stroke-width:1;stroke-linecap:butt;stroke-linejoin:miter;stroke-miterlimit:10;stroke-dasharray:none;stroke-opacity:1"
         id="path1650" />
      <path
         d="m 346.8878,626.0461 c 0,-0.734 -0.595,-1.329 -1.329,-1.329 -0.735,0 -1.33,0.595 -1.33,1.329 0,0.734 0.595,1.329 1.33,1.329 0.734,0 1.329,-0.595 1.329,-1.329"
         style="fill:#8da3a3;fill-opacity:1;fill-rule:nonzero;stroke:none"
         id="path1654" />
      <path
         d="m 346.8878,626.0461 c 0,-0.734 -0.595,-1.329 -1.329,-1.329 -0.735,0 -1.33,0.595 -1.33,1.329 0,0.734 0.595,1.329 1.33,1.329 0.734,0 1.329,-0.595 1.329,-1.329 z"
         style="fill:none;stroke:#8da3a3;stroke-width:1;stroke-linecap:butt;stroke-linejoin:miter;stroke-miterlimit:10;stroke-dasharray:none;stroke-opacity:1"
         id="path1658" />
      <path
         d="m 349.3962,628.6589 c 0,-0.734 -0.595,-1.329 -1.329,-1.329 -0.735,0 -1.33,0.595 -1.33,1.329 0,0.734 0.595,1.329 1.33,1.329 0.734,0 1.329,-0.595 1.329,-1.329"
         style="fill:#8da3a3;fill-opacity:1;fill-rule:nonzero;stroke:none"
         id="path1662" />
      <path
         d="m 349.3962,628.6589 c 0,-0.734 -0.595,-1.329 -1.329,-1.329 -0.735,0 -1.33,0.595 -1.33,1.329 0,0.734 0.595,1.329 1.33,1.329 0.734,0 1.329,-0.595 1.329,-1.329 z"
         style="fill:none;stroke:#8da3a3;stroke-width:1;stroke-linecap:butt;stroke-linejoin:miter;stroke-miterlimit:10;stroke-dasharray:none;stroke-opacity:1"
         id="path1666" />
      <path
         d="m 344.3794,628.6589 c 0,-0.734 -0.595,-1.329 -1.329,-1.329 -0.735,0 -1.33,0.595 -1.33,1.329 0,0.734 0.595,1.329 1.33,1.329 0.734,0 1.329,-0.595 1.329,-1.329"
         style="fill:#8da3a3;fill-opacity:1;fill-rule:nonzero;stroke:none"
         id="path1670" />
      <path
         d="m 344.3794,628.6589 c 0,-0.734 -0.595,-1.329 -1.329,-1.329 -0.735,0 -1.33,0.595 -1.33,1.329 0,0.734 0.595,1.329 1.33,1.329 0.734,0 1.329,-0.595 1.329,-1.329 z"
         style="fill:none;stroke:#8da3a3;stroke-width:1;stroke-linecap:butt;stroke-linejoin:miter;stroke-miterlimit:10;stroke-dasharray:none;stroke-opacity:1"
         id="path1674" />
      <path
         d="m 346.8878,639.2433 c 0,-0.734 -0.595,-1.329 -1.329,-1.329 -0.735,0 -1.33,0.595 -1.33,1.329 0,0.734 0.595,1.33 1.33,1.33 0.734,0 1.329,-0.596 1.329,-1.33"
         style="fill:#8da3a3;fill-opacity:1;fill-rule:nonzero;stroke:none"
         id="path1678" />
      <path
         d="m 346.8878,639.2433 c 0,-0.734 -0.595,-1.329 -1.329,-1.329 -0.735,0 -1.33,0.595 -1.33,1.329 0,0.734 0.595,1.33 1.33,1.33 0.734,0 1.329,-0.596 1.329,-1.33 z"
         style="fill:none;stroke:#8da3a3;stroke-width:1;stroke-linecap:butt;stroke-linejoin:miter;stroke-miterlimit:10;stroke-dasharray:none;stroke-opacity:1"
         id="path1682" />
      <path
         d="m 346.8878,645.2926 c 0,-0.734 -0.595,-1.329 -1.329,-1.329 -0.735,0 -1.33,0.595 -1.33,1.329 0,0.734 0.595,1.329 1.33,1.329 0.734,0 1.329,-0.595 1.329,-1.329"
         style="fill:#8da3a3;fill-opacity:1;fill-rule:nonzero;stroke:none"
         id="path1686" />
      <path
         d="m 346.8878,645.2926 c 0,-0.734 -0.595,-1.329 -1.329,-1.329 -0.735,0 -1.33,0.595 -1.33,1.329 0,0.734 0.595,1.329 1.33,1.329 0.734,0 1.329,-0.595 1.329,-1.329 z"
         style="fill:none;stroke:#8da3a3;stroke-width:1;stroke-linecap:butt;stroke-linejoin:miter;stroke-miterlimit:10;stroke-dasharray:none;stroke-opacity:1"
         id="path1690" />
      <path
         d="m 346.8878,661.2891 c 0,-0.734 -0.595,-1.329 -1.329,-1.329 -0.735,0 -1.33,0.595 -1.33,1.329 0,0.734 0.595,1.329 1.33,1.329 0.734,0 1.329,-0.595 1.329,-1.329"
         style="fill:#8da3a3;fill-opacity:1;fill-rule:nonzero;stroke:none"
         id="path1694" />
      <path
         d="m 346.8878,661.2891 c 0,-0.734 -0.595,-1.329 -1.329,-1.329 -0.735,0 -1.33,0.595 -1.33,1.329 0,0.734 0.595,1.329 1.33,1.329 0.734,0 1.329,-0.595 1.329,-1.329 z"
         style="fill:none;stroke:#8da3a3;stroke-width:1;stroke-linecap:butt;stroke-linejoin:miter;stroke-miterlimit:10;stroke-dasharray:none;stroke-opacity:1"
         id="path1698" />
      <path
         d="m 346.8878,665.7932 c 0,-0.734 -0.595,-1.329 -1.329,-1.329 -0.735,0 -1.33,0.595 -1.33,1.329 0,0.734 0.595,1.329 1.33,1.329 0.734,0 1.329,-0.595 1.329,-1.329"
         style="fill:#8da3a3;fill-opacity:1;fill-rule:nonzero;stroke:none"
         id="path1702" />
      <path
         d="m 346.8878,665.7932 c 0,-0.734 -0.595,-1.329 -1.329,-1.329 -0.735,0 -1.33,0.595 -1.33,1.329 0,0.734 0.595,1.329 1.33,1.329 0.734,0 1.329,-0.595 1.329,-1.329 z"
         style="fill:none;stroke:#8da3a3;stroke-width:1;stroke-linecap:butt;stroke-linejoin:miter;stroke-miterlimit:10;stroke-dasharray:none;stroke-opacity:1"
         id="path1706" />
      <path
         d="m 331.818,534.817 h 27.48 v 99.493 h -27.48 z"
         style="opacity:0.5;fill:#8da3a3;fill-opacity:1;fill-rule:evenodd;stroke:none"
         id="path1716" />
      <path
         d="m 339.3934,628.3181 h 12.33 m -6.165,0 v 11.668 m -6.165,0 h 12.33"
         style="fill:none;stroke:#000000;stroke-width:1;stroke-linecap:butt;stroke-linejoin:miter;stroke-miterlimit:3;stroke-dasharray:none;stroke-opacity:1"
         id="path1724" />
    </g>
    <text
       xml:space="preserve"
       transform="matrix(1,0,0,-1,33.4424,15.1484)"
       style="font-variant:normal;font-weight:normal;font-stretch:normal;font-size:12px;font-family:Arial;-inkscape-font-specification:ArialMT;writing-mode:lr-tb;fill:#000000;fill-opacity:1;fill-rule:nonzero;stroke:none"
       id="text5882"><tspan
         x="0 7.3319998 9.9960003 16.667999 23.34 27.336 34.007999 37.344002 44.015999 47.352001 50.688 58.692001 65.363998 68.028 72.024002 74.688004 81.360001 88.031998 91.367996 99.372002 108.036 116.04 119.376 128.03999 130.70399 134.03999 140.71201 144.048 150.048 156.72 162.72 168.72 175.392 181.392 187.392 190.728 197.39999 200.064 203.39999 209.39999 215.39999 218.064 220.728 223.392 230.064 236.73599 240.07201 244.06799 250.74001 257.41199 263.41199 270.08401 272.74799 279.42001 286.09201 289.42801 296.10001 302.772 309.444 316.15439 322.82639 328.82639 335.49841 341.49841 344.83441 351.50641 354.17041 356.83441 363.50641 370.17841 376.8504 383.5224 390.1944 396.86639 400.8624 407.53439 414.20639 420.87839 427.55042 434.22241 440.22241 442.88641 448.88641 452.22241"
         y="0"
         sodipodi:role="line"
         id="tspan5878">Figure 3. Pairing VNS with successful skilled reaching enhances oligodendrogenesis. </tspan><tspan
         x="510.40799 519.07202 525.74402 532.41602 539.08801 545.76001 549.09601 555.76801 559.104 562.44 569.112 571.776 575.112 581.784 588.45599 595.12799 0 7.3319998 9.9960003 16.667999 23.34 27.336 34.007999 37.344002 44.015999"
         y="-814.90802"
         sodipodi:role="line"
         id="tspan5880">Huang et al 2025Figure 3 </tspan></text>
  </g>
</svg>
